<?xml version="1.0" encoding="utf-8"?>
<!-- Generator: Adobe Illustrator 21.1.0, SVG Export Plug-In . SVG Version: 6.00 Build 0)  -->
<svg version="1.1" id="Layer_1" xmlns="http://www.w3.org/2000/svg" xmlns:xlink="http://www.w3.org/1999/xlink" x="0px" y="0px"
	 viewBox="0 0 1920 843.4" style="enable-background:new 0 0 1920 843.4;" xml:space="preserve">
<style type="text/css">
	.st0{fill:#E8E5E0;}
	.st1{fill:#508C3E;}
	.st2{font-family:'BunchBlossomsPersonalUse';}
	.st3{font-size:88.2445px;}
</style>
<rect y="0" class="st0" width="1920" height="843.4"/>
<image style="overflow:visible;enable-background:new    ;" width="614" height="801" xlink:href="70D9C360554A7A15.png"  transform="matrix(0.9999 0 0 0.9997 24.1832 40.995)">
</image>
<g>
	<g>
		<path d="M757.4,453.9c7.4-8.8,15.3-15.5,23.7-19.9c8.5-4.4,16.9-7.1,25.2-8c1.6-0.2,3.1-0.3,4.6-0.4c1.5-0.1,3.1-0.1,4.8-0.1
			c8.4,0,16.3,1.2,23.7,3.7c7.5,2.5,14,6,19.5,10.8c5.6,4.7,9.9,10.5,13.1,17.4s4.7,14.7,4.5,23.6c-0.1,3.2-0.7,6.3-1.8,9.1
			c-1.1,2.9-2.5,5.6-4.1,8.1c-1.7,2.6-3.6,4.9-5.8,7.1c-2.2,2.2-4.4,4.1-6.7,5.9c-5.4,4.1-11.5,7.8-18.1,11.1c1,0.6,2.2,1.5,3.8,2.7
			c1.5,1.2,3,2.8,4.3,4.7c1.4,1.9,2.5,4.2,3.4,6.9s1.2,5.8,1,9.3c-0.4,4.9-1.8,9.2-4.1,13c-2.4,3.7-5.3,7-8.8,9.7
			c-3.5,2.8-7.4,5-11.7,6.9c-4.3,1.8-8.5,3.3-12.6,4.4c-4.1,1.1-8,1.9-11.5,2.4s-6.4,0.7-8.6,0.7c-7.7-0.4-14.2-1.7-19.5-3.8
			c-5.4-2.2-9.7-4.6-13.1-7.4c-3.4-2.8-5.9-5.7-7.4-8.7s-2.3-5.6-2.4-7.7c0.6-5.3,2.3-9.8,5.1-13.3c2.8-3.6,5.9-6.4,9.4-8.6
			c3.4-2.1,6.8-3.7,10-4.6s5.7-1.6,7.2-1.8c0.2,0,0.4,0,0.6-0.1c0.2,0,0.4-0.1,0.6-0.1c-0.6-5.3-1.1-10.9-1.5-16.8
			c-0.4-5.9-0.7-11.8-1-17.6c-0.2-5.8-0.4-11.4-0.6-16.7c-0.1-5.3-0.2-10-0.2-14c0-3.7,0.1-6.7,0.2-9s0.3-3.6,0.5-4h0.1
			c0.5-0.9,1.5-1.6,3.2-2.1c1.6-0.5,3.3-0.8,5.1-0.8c1.4,0,2.7,0.1,4.1,0.4c1.3,0.3,2.5,0.8,3.5,1.4s1.8,1.5,2.3,2.6
			s0.6,2.4,0.4,3.8c0,0.1-0.1,1.5-0.3,4.3c-0.2,2.8-0.4,6.4-0.7,10.9c-0.2,4.5-0.4,9.6-0.6,15.3s-0.2,11.6-0.2,17.5
			c0,4.3,0,8.6,0.1,12.8c0.1,4.2,0.3,8.2,0.6,12.2c2.7,0.3,4.9,0.8,6.7,1.5c1.8,0.7,3.3,1.4,4.5,2.2s2.1,1.6,2.9,2.4
			c0.7,0.8,1.4,1.6,2,2.1l0.3,0.6c0.5,0.8,0.8,1.8,0.9,3s-0.1,2.2-0.6,2.9s-1.3,0.9-2.5,0.7s-2.7-1.4-4.6-3.5
			c-1.8-1.8-4.7-3-8.7-3.8c0.8,6.9,2.1,12,3.8,15.5h-0.3c0.9,1.3,1.3,2.6,1.3,3.8c0,1.5-0.6,2.6-1.8,3.3c-1.2,0.7-3.4,0.7-6.4-0.1
			c-3-0.7-5.2-1.8-6.6-3.4c-1.3-1.6-2.2-3.2-2.6-5c-0.5-1.8-1-3.9-1.4-6.5s-0.9-5.4-1.4-8.6c-0.3,0.1-0.7,0.2-1.3,0.2
			c-4.1,0.6-7.4,1.9-10,3.8c-2.5,2-4.5,4.1-5.9,6.5s-2.4,4.6-2.9,6.9s-0.7,3.9-0.7,4.9c0,3,1.1,5.7,3.2,7.8c2.1,2.2,4.7,3.9,7.7,5.2
			s6.2,2.2,9.7,2.7c3.4,0.5,6.5,0.6,9.1,0.3c8.8-1.1,15.9-2.9,21-5.6c5.2-2.7,9-5.5,11.7-8.6c2.6-3.1,4.3-6.2,5-9.2s1.1-5.5,1.1-7.4
			s-0.5-3.9-1.5-6c-1-2.2-2.3-4.2-4.1-6c-1.7-1.8-3.7-3.3-6-4.6c-2.3-1.2-4.8-1.9-7.4-2c-1.9,0-2.7-0.4-2.4-1.1
			c0.2-0.7,1-1.6,2.4-2.5s2.9-1.8,4.7-2.7c1.8-0.8,3.4-1.3,4.6-1.5c3.9-0.6,7.4-1.7,10.5-3.4c3-1.7,5.7-3.6,7.9-5.9
			c2.2-2.3,4.1-4.7,5.5-7.2c1.5-2.6,2.7-5.1,3.6-7.5c0.9-2.5,1.6-4.7,2-6.7s0.6-3.6,0.7-4.8c-0.7-8.3-2.4-15.2-5-20.9
			c-2.7-5.6-5.9-10.2-9.9-13.7c-3.9-3.5-8.3-6-13.1-7.5c-4.8-1.5-9.7-2.3-14.6-2.3c-1.4,0-2.7,0.1-4.1,0.1c-1.3,0.1-2.7,0.2-4.1,0.4
			h0.1c-4.8,0.6-9.3,1.7-13.6,3.3c-4.2,1.6-8,3.4-11.4,5.3c-3.3,1.9-6.2,3.9-8.6,5.8c-2.4,2-4.1,3.6-5.3,4.9c-0.5,0.5-1.3,0.8-2.4,1
			c-1.1,0.1-2.1,0.1-3-0.1c-0.9-0.2-1.7-0.5-2.3-0.9C756.9,454.8,756.9,454.4,757.4,453.9z"/>
		<path d="M913.5,481.9c4,0,7.5,0.4,10.3,1.3c2.9,0.9,5.2,2,7,3.3s3.2,2.8,4.3,4.4c1,1.6,1.8,3.2,2.3,4.9c0.5,1.6,0.8,3.1,0.8,4.6
			c0,1.4,0,2.6-0.1,3.5c-1,5.8-2.7,10.5-5.2,14.2s-5.4,6.6-8.6,8.6c-3.2,2.1-6.6,3.5-10.1,4.3s-6.8,1.2-9.9,1.2
			c-2.8,0-5-0.1-6.8-0.4v0.9c0,3.3,0.2,6.4,0.7,9.3c0.4,3,1.1,5.6,2.1,7.8c0.9,2.2,2.1,4,3.5,5.3s3.1,2,4.9,2
			c4-0.2,7.8-1.1,11.3-2.8s6.7-3.8,9.6-6.3c2.9-2.6,5.5-5.4,7.9-8.6c2.4-3.1,4.4-6.3,6.2-9.4c1.8-3.1,3.3-6.1,4.6-9
			c1.3-2.8,2.3-5.2,3.1-7.1l1.3-3.1c0.5-0.7,1.3-1.2,2.4-1.6c1.1-0.4,2.1-0.6,3.2-0.6c1,0,1.9,0.3,2.6,0.9c0.7,0.6,1,1.6,0.9,3
			c-0.3,1.7-1,4.2-2.2,7.4c-1.2,3.3-2.9,7-5,11c-2.2,4-4.7,8.1-7.7,12.3s-6.4,8-10.2,11.5c-3.8,3.5-8,6.3-12.5,8.5
			c-4.6,2.2-9.5,3.2-14.7,3.1c-4.8-0.1-8.9-0.8-12.4-2.2c-3.4-1.4-6.3-3.1-8.7-5.2s-4.3-4.4-5.7-6.9c-1.4-2.6-2.5-5-3.2-7.3
			s-1.2-4.4-1.5-6.2c-0.2-1.8-0.4-3.1-0.4-3.9v-1.2c0-1.5,0.1-3.8,0.2-6.9c0.1-3.1,0.6-6.6,1.3-10.4c0.7-3.8,1.8-7.8,3.2-11.9
			c1.5-4.1,3.5-7.8,6.2-11.1s6-6.1,10.1-8.2C902.7,482.8,907.6,481.8,913.5,481.9z M917.1,489.7c-2.7,0.5-5.1,1.9-7.4,4.1
			c-2.3,2.3-4.2,5.1-5.9,8.6c-1.7,3.5-3,7.4-4.1,11.6c-1,4.2-1.7,8.5-2.1,12.8c0.6,0,1.2,0,1.7,0.1s1.2,0.1,2,0.1
			c2.1,0,4.3-0.3,6.8-1c2.5-0.6,4.8-1.8,7.1-3.5c2.3-1.7,4.2-4,5.8-6.9c1.6-2.9,2.5-6.7,2.8-11.3c0.1-1.5,0-3.1-0.2-4.8
			s-0.7-3.3-1.3-4.7c-0.6-1.4-1.3-2.6-2.1-3.6C919.3,490.4,918.3,489.8,917.1,489.7z"/>
		<path d="M1030.9,481.9c4,0,7.5,0.4,10.3,1.3c2.9,0.9,5.2,2,7,3.3s3.2,2.8,4.3,4.4c1,1.6,1.8,3.2,2.3,4.9c0.5,1.6,0.8,3.1,0.8,4.6
			c0,1.4,0,2.6-0.1,3.5c-1,5.8-2.7,10.5-5.2,14.2s-5.4,6.6-8.6,8.6c-3.2,2.1-6.6,3.5-10.1,4.3s-6.8,1.2-9.9,1.2
			c-2.8,0-5-0.1-6.8-0.4v0.9c0,3.3,0.2,6.4,0.7,9.3c0.4,3,1.1,5.6,2.1,7.8c0.9,2.2,2.1,4,3.5,5.3s3.1,2,4.9,2
			c4-0.2,7.8-1.1,11.3-2.8s6.7-3.8,9.6-6.3c2.9-2.6,5.5-5.4,7.9-8.6c2.4-3.1,4.4-6.3,6.2-9.4c1.8-3.1,3.3-6.1,4.6-9
			c1.3-2.8,2.3-5.2,3.1-7.1l1.3-3.1c0.5-0.7,1.3-1.2,2.4-1.6s2.1-0.6,3.2-0.6c1,0,1.9,0.3,2.6,0.9c0.7,0.6,1,1.6,0.9,3
			c-0.3,1.7-1,4.2-2.2,7.4c-1.2,3.3-2.9,7-5,11c-2.2,4-4.7,8.1-7.7,12.3s-6.4,8-10.2,11.5c-3.8,3.5-8,6.3-12.5,8.5
			c-4.6,2.2-9.5,3.2-14.7,3.1c-4.8-0.1-8.9-0.8-12.4-2.2c-3.4-1.4-6.3-3.1-8.7-5.2s-4.3-4.4-5.7-6.9c-1.4-2.6-2.5-5-3.2-7.3
			s-1.2-4.4-1.5-6.2c-0.2-1.8-0.4-3.1-0.4-3.9v-1.2c0-1.5,0.1-3.8,0.2-6.9c0.1-3.1,0.6-6.6,1.3-10.4c0.7-3.8,1.8-7.8,3.2-11.9
			c1.5-4.1,3.5-7.8,6.2-11.1s6-6.1,10.1-8.2C1020,482.8,1025,481.8,1030.9,481.9z M1034.5,489.7c-2.7,0.5-5.1,1.9-7.4,4.1
			c-2.3,2.3-4.2,5.1-5.9,8.6c-1.7,3.5-3,7.4-4.1,11.6c-1,4.2-1.7,8.5-2.1,12.8c0.6,0,1.2,0,1.7,0.1s1.2,0.1,2,0.1
			c2.1,0,4.3-0.3,6.8-1c2.5-0.6,4.8-1.8,7.1-3.5c2.3-1.7,4.2-4,5.8-6.9c1.6-2.9,2.5-6.7,2.8-11.3c0.1-1.5,0-3.1-0.2-4.8
			s-0.7-3.3-1.3-4.7c-0.6-1.4-1.3-2.6-2.1-3.6C1036.7,490.4,1035.7,489.8,1034.5,489.7z"/>
		<path d="M1100.4,475.9c4.7,0,8.6,0.7,11.6,2.1c3,1.4,5.4,3.2,7.1,5.5c1.7,2.2,2.9,4.6,3.5,7.3s1,5.3,1,7.8c0,2.9-0.3,5.6-0.8,7.9
			c-0.5,2.3-1,3.9-1.4,4.8v-0.1c-0.7,1.5-1.7,2.7-3.2,3.5c-1.4,0.9-2.9,1.5-4.3,1.8s-2.6,0.5-3.6,0.4c-1,0-1.4-0.3-1.2-0.8
			c1.4-2.8,2.4-5.6,2.9-8.5c0.6-2.9,0.9-5.7,0.9-8.5c0-2.3-0.2-4.4-0.6-6.4s-1-3.8-1.9-5.2c-0.9-1.5-2-2.7-3.3-3.5
			c-1.3-0.9-2.9-1.3-4.8-1.3c-1.5,0-2.9,0.9-4.1,2.7c-1.3,1.8-2.4,4-3.5,6.6s-1.9,5.6-2.7,8.9c-0.7,3.2-1.4,6.3-1.9,9.1
			c-0.5,2.8-1,5.4-1.3,7.5c-0.3,2.2-0.5,3.5-0.6,4.1c-0.2,1.7-0.4,3.2-0.5,4.7s-0.2,2.9-0.2,4.1c0,4.5,0.5,8.3,1.5,11.4
			c1,3,2.3,5.5,3.8,7.3s3,3.1,4.5,3.8s2.8,1.1,3.9,1.1c3.4,0,6.9-1.5,10.3-4.6c3.4-3,6.7-6.7,9.8-11.1c3.1-4.3,5.9-8.8,8.5-13.4
			c2.6-4.6,4.7-8.5,6.3-11.7c0.8-1.5,1.5-2.7,2.1-3.8c0.6-1,1.2-1.7,1.5-2.1c0.9-1,1.9-1.7,2.9-2.1c1.1-0.4,2.1-0.5,2.9-0.3
			c0.9,0.2,1.6,0.8,2.1,1.7s0.7,2.1,0.5,3.7c-0.1,0.8-0.7,2.5-1.7,5.2s-2.5,5.8-4.4,9.4c-1.9,3.6-4.1,7.4-6.8,11.3
			c-2.7,3.9-5.7,7.5-9.1,10.8s-7.1,6.1-11.2,8.3c-4.1,2.3-8.4,3.4-13.1,3.5c-5.7,0.2-10.5-0.2-14.5-1.3c-3.9-1.1-7.2-2.5-9.7-4.3
			c-2.6-1.8-4.5-3.8-5.9-6s-2.4-4.4-2.9-6.6c-0.6-2.2-0.9-4.3-1-6.2s-0.1-3.5-0.1-4.6v-1.2c-0.1-0.7,0-2.5,0.2-5.4s0.8-6.3,1.5-10.3
			c0.8-3.9,1.9-8.1,3.4-12.5s3.4-8.4,5.8-12.1c2.4-3.7,5.4-6.7,8.8-9.1C1091.4,477.1,1095.6,475.9,1100.4,475.9z"/>
		<path d="M1139.3,499.8c0.8-0.5,1.6-0.8,2.5-1c0.9-0.1,1.7-0.2,2.5-0.2c0.3-1.4,0.8-3.1,1.5-5.2c0.7-2.1,1.9-4.1,3.6-6
			s4-3.5,6.9-4.9c2.9-1.3,6.8-2,11.5-2c4.8,0.1,8.8,1.1,11.9,3s5.6,4.3,7.4,7.2s3,5.9,3.7,9.2c0.6,3.3,0.9,6.3,0.8,9.1v1.6l-0.3,5.2
			c3.3-1.4,6.6-3.2,9.7-5.4c3.1-2.2,5.7-5,7.7-8.5h-0.1c0.5-0.8,1.3-1.5,2.4-2.2s2.1-1,2.9-1c1.1,0,1.8,0.4,2.1,1.1
			c0.3,0.7,0.1,2.1-0.8,4.1c-1.4,3-3,5.6-4.9,7.9c-1.9,2.3-4,4.4-6.2,6.2s-4.5,3.4-6.9,4.8c-2.4,1.4-4.7,2.5-7.1,3.4
			c-0.7,3.3-1.7,6.7-3.1,10.2c-1.4,3.4-3.2,6.5-5.6,9.3s-5.4,5-9,6.7s-8.1,2.5-13.3,2.4c-5.5-0.1-10.1-1-13.6-2.7
			c-3.6-1.7-6.4-3.8-8.6-6.4c-2.1-2.6-3.6-5.6-4.4-8.9c-0.8-3.3-1.3-6.7-1.3-10.2c0-3.1,0.3-6.2,0.9-9.2s1.3-5.7,2.1-8.2
			c0.8-2.5,1.6-4.5,2.6-6.1C1138,501.3,1138.7,500.3,1139.3,499.8z M1174.4,529.3c-5.9-0.2-10.7-1.1-14.5-2.7
			c-3.7-1.6-6.7-3.6-9-5.8v2.5c0,2.6,0.2,5.1,0.5,7.6s1,4.8,1.9,6.8s2.2,3.6,3.8,4.9c1.6,1.2,3.6,1.9,6,2c1.8,0,3.4-0.4,4.9-1.3
			c1.5-0.8,2.8-2,3.9-3.4s2.1-3,3-4.9c0.9-1.8,1.7-3.7,2.4-5.7c-0.6,0-1.1,0-1.6,0.1C1175.4,529.4,1174.9,529.4,1174.4,529.3z
			 M1173.9,519.1c1.5,0.2,3.4,0.1,5.9-0.4c0.3-1.9,0.5-3.5,0.7-4.8c0.1-1.3,0.2-2.2,0.2-2.6c0.1-3.1,0-6.2-0.4-9.3
			c-0.3-3-1-5.8-2.1-8.1c-1-2.4-2.5-4.2-4.3-5.5s-4.2-1.9-7-1.7c-1.6,0.1-3,0.7-4.4,1.8s-2.5,2.5-3.5,4c-0.9,1.5-1.6,3.1-2,4.8
			s-0.4,3.1-0.1,4.4l0.6,2.5c0.2,1.4,0.5,2.9,1,4.6c0.4,1.7,1.2,3.3,2.4,4.8c1.1,1.5,2.7,2.7,4.8,3.8
			C1167.7,518.4,1170.4,519,1173.9,519.1z"/>
		<path d="M1222.1,431c2-2.1,4.1-3.6,6.4-4.6s4.6-1.5,7-1.5c2.2,0,4.3,0.4,6.3,1.3c2.1,0.8,3.9,2,5.5,3.5s2.9,3.3,3.8,5.4
			c0.9,2.1,1.4,4.4,1.4,6.9c-0.1,10.8-1.2,20.8-3.2,30c-2.1,9.2-4.6,17.5-7.6,25s-6.2,14-9.5,19.5c-3.3,5.6-6.2,10.1-8.7,13.5
			c0.4,5,1,9.3,1.7,12.8s1.5,6.3,2.2,8.5s1.4,3.7,2,4.7s1,1.5,1.2,1.5c1.4-0.3,3.2-1.7,5.4-4.3s4.5-5.7,7-9.3s4.9-7.5,7.4-11.7
			s4.8-8.1,6.8-11.8s3.7-6.8,5-9.4c1.3-2.6,2-4,2.1-4.4c0.1-0.8,0.6-1.4,1.5-1.9s1.8-0.7,2.9-0.7s2,0.2,3,0.7c0.9,0.5,1.6,1.3,2,2.5
			c-0.1,1.4-0.8,3.6-2,6.6c-1.2,3-2.8,6.4-4.7,10.1c-1.9,3.7-4,7.6-6.3,11.7c-2.3,4.1-4.5,7.9-6.6,11.4s-4,6.5-5.7,9.1
			s-2.8,4.2-3.5,4.9c-2.1,2-4.4,3.5-6.9,4.5s-5.2,1.6-7.8,1.6c-2.3,0-4.4-0.4-6.4-1.2s-3.7-1.9-5.1-3.4c-2.7-3-5-6.6-6.9-10.5
			c-2-4-3.6-8.3-4.8-12.8c-1.2-4.6-2.2-9.3-2.8-14.3c-0.6-5-1-10-1-15.1c0-8.5,0.6-16.9,1.8-25.4c1.2-8.5,2.8-16.2,4.6-23.4
			c1.9-7.1,3.9-13.3,6.2-18.6C1218,436.9,1220.1,433.2,1222.1,431z M1223.1,519.2c2.7-5.2,4.9-10.5,6.7-16
			c1.8-5.5,3.3-10.8,4.6-16.1c1.2-5.3,2.2-10.3,2.9-15.2c0.7-4.9,1.2-9.3,1.5-13.3s0.6-7.4,0.7-10.3c0.1-2.9,0.2-5,0.3-6.4v-1.3
			c0.1-5.8-0.5-8.7-1.9-8.7c-0.8,0-1.6,0.9-2.6,2.7c-0.9,1.8-1.8,4.3-2.6,7.4c-1.6,7.2-3,14.2-4.1,21c-1.2,6.8-2.2,13.3-3,19.5
			s-1.5,12-1.8,17.3c-0.4,5.4-0.6,10.1-0.6,14.2L1223.1,519.2L1223.1,519.2z"/>
		<path d="M1260.7,499.8c0.8-0.5,1.6-0.8,2.5-1s1.7-0.2,2.5-0.2c0.3-1.4,0.8-3.1,1.6-5.2c0.7-2.1,1.9-4.1,3.6-6s4-3.5,6.9-4.9
			c2.9-1.3,6.8-2,11.5-2c4.8,0.1,8.8,1.1,11.9,3s5.6,4.3,7.4,7.2s3,5.9,3.7,9.2c0.6,3.3,0.9,6.3,0.8,9.1v1.6l-0.3,5.2
			c3.3-1.4,6.6-3.2,9.7-5.4c3.1-2.2,5.7-5,7.7-8.5h-0.1c0.5-0.8,1.3-1.5,2.4-2.2s2.1-1,2.9-1c1.1,0,1.8,0.4,2.1,1.1
			c0.3,0.7,0.1,2.1-0.8,4.1c-1.4,3-3,5.6-4.9,7.9c-1.9,2.3-4,4.4-6.2,6.2s-4.5,3.4-6.9,4.8c-2.4,1.4-4.7,2.5-7.1,3.4
			c-0.7,3.3-1.7,6.7-3.1,10.2c-1.4,3.4-3.2,6.5-5.6,9.3s-5.4,5-9,6.7s-8.1,2.5-13.3,2.4c-5.5-0.1-10.1-1-13.6-2.7
			c-3.6-1.7-6.4-3.8-8.6-6.4c-2.1-2.6-3.6-5.6-4.4-8.9c-0.8-3.3-1.3-6.7-1.3-10.2c0-3.1,0.3-6.2,0.9-9.2s1.3-5.7,2.1-8.2
			c0.8-2.5,1.6-4.5,2.6-6.1C1259.4,501.3,1260.1,500.3,1260.7,499.8z M1295.8,529.3c-5.9-0.2-10.7-1.1-14.5-2.7
			c-3.7-1.6-6.7-3.6-9-5.8v2.5c0,2.6,0.2,5.1,0.5,7.6s1,4.8,1.9,6.8s2.2,3.6,3.8,4.9c1.6,1.2,3.6,1.9,6.1,2c1.8,0,3.4-0.4,4.9-1.3
			c1.5-0.8,2.8-2,3.9-3.4s2.1-3,3-4.9c0.9-1.8,1.7-3.7,2.4-5.7c-0.6,0-1.1,0-1.6,0.1C1296.8,529.4,1296.3,529.4,1295.8,529.3z
			 M1295.2,519.1c1.5,0.2,3.4,0.1,5.9-0.4c0.3-1.9,0.5-3.5,0.7-4.8s0.2-2.2,0.2-2.6c0.1-3.1,0-6.2-0.4-9.3c-0.3-3-1-5.8-2.1-8.1
			c-1-2.4-2.5-4.2-4.3-5.5s-4.2-1.9-7-1.7c-1.6,0.1-3,0.7-4.4,1.8s-2.5,2.5-3.5,4c-0.9,1.5-1.6,3.1-2,4.8s-0.4,3.1-0.1,4.4l0.6,2.5
			c0.2,1.4,0.5,2.9,1,4.6c0.4,1.7,1.2,3.3,2.4,4.8c1.1,1.5,2.7,2.7,4.8,3.8C1289,518.4,1291.8,519,1295.2,519.1z"/>
		<path d="M1357.5,479.9c3.9-0.1,7.2,0.2,9.7,1s4.5,1.8,6,3s2.6,2.4,3.2,3.7c0.7,1.3,1.2,2.4,1.6,3.4l0.4,1.5v-0.3
			c0.6,1.4,0.6,2.5,0,3.4s-1.5,1.4-2.8,1.6h1.5c2,0,3.8,0.2,5.4,0.6c1.6,0.4,2.9,0.9,3.8,1.6c0.8,0.7,1.2,2.2,1.2,4.6
			c0,1.9-0.2,4.2-0.5,7.1c-0.3,2.8-0.8,6.1-1.5,9.7c-0.6,3.6-1.4,7.6-2.2,11.9c-0.8,4.3-1.7,8.7-2.7,13.3
			c6.4-7.1,12.1-13.9,17.3-20.4c5.1-6.5,9-12.6,11.7-18.1c0.3-0.5,0.9-0.8,1.9-0.8s2,0.1,3,0.5s1.9,1,2.7,1.7
			c0.7,0.7,0.9,1.6,0.5,2.6c-1.8,4.3-4.1,8.8-7.1,13.3s-6.3,9.1-10,13.8s-7.7,9.3-12,14s-8.5,9.3-12.8,13.8
			c-1.8,6.6-3.6,13.1-5.5,19.5s-3.7,12.3-5.6,17.7s-3.7,10.2-5.5,14.3s-3.4,7.2-5,9.3c-3.1,3.7-6.6,6.6-10.4,8.7
			c-3.8,2.1-7.3,3.1-10.5,3.1c-3.8,0-7.1-1.2-9.7-3.7c-2.7-2.5-4-6-4-10.6c0-2.9,0.5-5.9,1.5-9.1c0.9-2.6,2.5-5.6,4.9-9
			s5.4-7.2,8.9-11.4c3.5-4.1,7.5-8.5,11.8-13.1s8.8-9.3,13.4-14.2c0.5-3.1,1-6.3,1.4-9.4c0.4-3.1,0.9-6.2,1.3-9.4
			c-2.3,1.6-4.8,2.5-7.7,2.8c-4.5,0.3-8.4-0.1-11.7-1.3c-3.2-1.1-6-2.7-8.2-4.6c-2.2-2-4-4.2-5.3-6.8s-2.3-5.2-3-7.9
			s-1.2-5.3-1.5-7.9c-0.3-2.6-0.4-4.8-0.4-6.8c-0.1-2.9,0.1-6.5,0.7-10.5c0.6-4.1,2-8,4.3-11.9s5.6-7.1,10-9.9
			C1344.2,481.7,1350.1,480.2,1357.5,479.9z M1340.6,625c3.3-2.8,6.3-7.6,8.9-14.5s4.8-14.9,6.8-23.8c-3.3,3.6-6.4,7.2-9.2,10.6
			c-2.8,3.4-5.2,6.7-7.3,9.8c-2.1,3.1-3.6,6-4.7,8.8s-1.6,5.2-1.5,7.4c0.1,0.8,0.2,1.7,0.4,2.8c0.2,1.1,0.7,1.6,1.6,1.6
			c0.5,0,1.1-0.2,1.9-0.5C1338.3,626.8,1339.4,626.1,1340.6,625z M1366.8,504.3c-0.2-2.2,0.4-3.8,1.9-4.9c1.5-1.1,3.3-1.8,5.5-2.1
			h-0.1c-1,0-2-0.2-3.1-0.7c-1.1-0.4-2.1-1.1-2.9-2c-0.4-0.4-0.6-0.7-0.7-0.9c0-0.2-0.2-0.4-0.4-0.7c-0.5-1.1-1.3-2.3-2.4-3.7
			s-2.9-2-5.5-1.9c-1.6,0.1-3.2,0.5-4.8,1.2c-1.6,0.7-3.1,2.1-4.6,4.1s-2.7,4.9-3.7,8.6c-1,3.6-1.7,8.5-2,14.5c0,0.5,0,1.2-0.1,2.1
			c-0.1,0.9-0.1,1.6-0.1,2.1c0,5.8,0.5,10.3,1.5,13.5s2.1,5.5,3.4,7s2.6,2.3,3.8,2.5c1.3,0.2,2.2,0.3,2.8,0.3
			c1.7-0.1,3.3-1.2,4.8-3.3s3-4.5,4.4-7.2c0.4-4,0.7-7.8,1-11.2s0.5-6.4,0.7-8.9c0.2-2.5,0.3-4.5,0.4-6
			C1366.7,505.4,1366.8,504.5,1366.8,504.3z"/>
		<path d="M1407.6,500.5c0-0.4,0-0.6,0.1-0.7c0-1.5,0.9-2.8,2.8-3.9c1.9-1.1,3.9-1.7,6.2-1.7c1.7,0,3.2,0.4,4.6,1.3s2.3,2.3,2.7,4.3
			c0.3,1.4,0.5,2.9,0.5,4.5s0.1,3.4,0.1,5.2c0,3.2-0.1,6.7-0.3,10.5c-0.2,3.7-0.4,7.5-0.7,11.2c-0.2,3.7-0.4,7.4-0.5,10.8
			c-0.1,3.5-0.2,6.8-0.2,9.8c0,4.7,0.2,8.6,0.7,11.6s1.5,4.4,3.1,4.2c0.9-0.2,1.9-1.3,3.1-3.3s2.4-4.6,3.8-7.8s2.7-6.8,4-10.8
			s2.6-8,3.9-12s2.5-7.8,3.6-11.5s2.1-6.9,2.9-9.5l1.9-6.3c0.4-1.1,1.1-1.8,2.1-2.1s2-0.4,3-0.3c1,0.1,1.9,0.5,2.7,1.2
			c0.8,0.6,1.2,1.5,1.2,2.4c0,2.2-0.4,5.3-1.1,9.5s-1.8,8.8-3.2,13.7c-1.4,5-3.1,10-5.2,15.2s-4.4,9.8-7.2,14s-5.7,7.6-8.9,10.3
			c-3.2,2.7-6.8,4.1-10.6,4.1c-3.4-0.4-6.3-1.8-8.6-4.1c-2.3-2.4-4.2-5.3-5.6-8.9c-1.4-3.6-2.4-7.6-3-12s-0.9-8.9-0.9-13.6
			c0-3.9,0.1-7.8,0.4-11.7c0.2-3.8,0.5-7.4,0.9-10.5c0.3-3.2,0.7-5.9,1-8.2C1407.3,503,1407.5,501.4,1407.6,500.5z M1407.2,480.4
			c0-2.8,0.9-5.3,2.7-7.2s4-3,6.6-3c2.5,0,4.6,1,6.4,3s2.7,4.4,2.7,7.2c0,2.9-0.9,5.3-2.7,7.3c-1.8,2-4,3-6.4,3c-2.6,0-4.7-1-6.6-3
			C1408.1,485.7,1407.2,483.3,1407.2,480.4z"/>
		<path d="M1479,475.9c4.7,0,8.6,0.7,11.6,2.1c3,1.4,5.4,3.2,7.1,5.5c1.7,2.2,2.9,4.6,3.5,7.3s1,5.3,1,7.8c0,2.9-0.3,5.6-0.8,7.9
			c-0.5,2.3-1,3.9-1.4,4.8v-0.1c-0.7,1.5-1.7,2.7-3.2,3.5c-1.4,0.9-2.9,1.5-4.3,1.8s-2.6,0.5-3.6,0.4c-1,0-1.4-0.3-1.2-0.8
			c1.4-2.8,2.4-5.6,3-8.5s0.9-5.7,0.9-8.5c0-2.3-0.2-4.4-0.6-6.4s-1-3.8-1.9-5.2c-0.9-1.5-2-2.7-3.3-3.5c-1.3-0.9-2.9-1.3-4.8-1.3
			c-1.5,0-2.8,0.9-4.1,2.7c-1.3,1.8-2.4,4-3.5,6.6c-1,2.7-1.9,5.6-2.7,8.9c-0.7,3.2-1.4,6.3-1.9,9.1c-0.5,2.8-1,5.4-1.3,7.5
			c-0.3,2.2-0.5,3.5-0.6,4.1c-0.2,1.7-0.4,3.2-0.5,4.7s-0.2,2.9-0.2,4.1c0,4.5,0.5,8.3,1.5,11.4c1,3,2.3,5.5,3.8,7.3s3,3.1,4.5,3.8
			s2.8,1.1,3.9,1.1c3.4,0,6.9-1.5,10.3-4.6c3.4-3,6.7-6.7,9.8-11.1c3.1-4.3,5.9-8.8,8.5-13.4s4.7-8.5,6.3-11.7
			c0.8-1.5,1.5-2.7,2.1-3.8c0.6-1,1.2-1.7,1.5-2.1c0.9-1,1.9-1.7,2.9-2.1c1.1-0.4,2.1-0.5,3-0.3s1.6,0.8,2.1,1.7s0.7,2.1,0.5,3.7
			c-0.1,0.8-0.7,2.5-1.7,5.2s-2.5,5.8-4.4,9.4c-1.9,3.6-4.1,7.4-6.8,11.3c-2.7,3.9-5.7,7.5-9.1,10.8s-7.1,6.1-11.2,8.3
			c-4.1,2.3-8.4,3.4-13.1,3.5c-5.7,0.2-10.5-0.2-14.5-1.3c-3.9-1.1-7.2-2.5-9.7-4.3c-2.6-1.8-4.5-3.8-5.9-6s-2.4-4.4-3-6.6
			c-0.6-2.2-0.9-4.3-1-6.2s-0.1-3.5-0.1-4.6v-1.2c-0.1-0.7,0-2.5,0.2-5.4s0.8-6.3,1.6-10.3c0.8-3.9,1.9-8.1,3.4-12.5
			s3.4-8.4,5.8-12.1s5.4-6.7,8.9-9.1C1470,477.1,1474.2,475.9,1479,475.9z"/>
	</g>
</g>
<text transform="matrix(1 0 0 1 948.8193 367.1249)" class="st1 st2 st3">ECO</text>
<text transform="matrix(1 0 0 1 1134.4192 367.1249)" class="st2 st3"> steps</text>
</svg>
