<?xml version="1.0" encoding="utf-8"?>
<!-- Generator: Adobe Illustrator 21.1.0, SVG Export Plug-In . SVG Version: 6.00 Build 0)  -->
<svg version="1.1" id="Layer_1" xmlns="http://www.w3.org/2000/svg" xmlns:xlink="http://www.w3.org/1999/xlink" x="0px" y="0px"
	 viewBox="0 0 1071.4 434.7" style="enable-background:new 0 0 1071.4 434.7;" xml:space="preserve">
<style type="text/css">
	.st0{fill:none;stroke:#000000;stroke-width:1.2091;stroke-miterlimit:10;}
</style>
<g>
	<g>
		<path d="M463.5,183.3c1,0.1,1.9,0.2,2.6,0.5c0.8,0.3,1.4,0.6,1.9,1s0.9,0.8,1.1,1.1c0.3,0.4,0.4,0.6,0.4,0.9
			c0,0.6-0.2,0.9-0.5,1.1c-0.3,0.1-0.7-0.1-1.1-0.7c-0.1-0.2-0.3-0.4-0.6-0.7s-0.6-0.5-1-0.7c-0.4-0.2-0.9-0.4-1.4-0.6
			c-0.5-0.1-1.1-0.2-1.7-0.2c-0.4,0-0.9,0.1-1.5,0.2c-0.6,0.1-1.2,0.4-1.7,0.8c-0.6,0.4-1,0.9-1.4,1.5c-0.4,0.7-0.6,1.5-0.6,2.6
			c0,0.3,0,0.5,0.1,0.9c0,0.3,0.1,0.6,0.1,1c0.2,0.8,0.7,1.9,1.5,3.2c0.8,1.3,1.8,2.7,2.9,4.3c0.9,1.3,1.8,2.7,2.7,4.1
			c0.9,1.4,1.8,2.9,2.6,4.3c0.8,1.4,1.4,2.8,1.9,4.2c0.5,1.4,0.8,2.7,0.8,3.8c0,0.8-0.2,1.6-0.6,2.5c-0.4,0.8-1.1,1.6-2,2.3
			c-0.9,0.7-2,1.2-3.3,1.7c-1.3,0.4-2.9,0.6-4.6,0.6c-1.9,0-3.4-0.2-4.7-0.6c-1.3-0.4-2.3-0.9-3-1.4c-0.8-0.6-1.3-1.3-1.6-2
			c-0.3-0.7-0.5-1.5-0.5-2.2c0-1.1,0.3-2,0.8-2.9c0.5-0.9,1.1-1.5,1.9-1.8c-0.3,0.1-0.4,0.3-0.4,0.5c0,0.2,0.1,0.3,0.2,0.4
			c0.2,0.1,0.4,0.2,0.7,0.3c0.3,0.1,0.6,0.1,0.8,0c-0.5,0.1-0.9,0.5-1.2,1c-0.3,0.6-0.5,1.2-0.5,1.9c0,0.6,0.1,1.2,0.4,1.8
			c0.3,0.6,0.7,1.1,1.3,1.6c0.6,0.5,1.4,0.8,2.4,1.1c1,0.3,2.2,0.4,3.7,0.3c1.9-0.1,3.4-0.5,4.5-1.3c1.1-0.8,1.7-1.8,1.8-3.2
			c0.1-0.7-0.1-1.6-0.5-2.6c-0.4-1-0.9-2.1-1.6-3.3c-0.7-1.2-1.4-2.4-2.3-3.7c-0.9-1.3-1.8-2.6-2.7-3.8c-0.7-1-1.5-2.1-2.1-3.1
			c-0.7-1-1.3-2-1.9-2.9c-0.6-0.9-1-1.7-1.4-2.5c-0.4-0.8-0.6-1.5-0.7-2.1c0-0.3-0.1-0.6-0.1-0.8c0-0.3-0.1-0.5-0.1-0.8
			c0-1.3,0.3-2.5,0.9-3.5c0.6-1,1.4-1.8,2.4-2.4c1-0.6,2.1-1.1,3.3-1.4C461,183.3,462.3,183.2,463.5,183.3z"/>
		<path d="M481.9,205.1c0-0.1,0-0.2,0-0.2c0-0.1,0.1-0.2,0.3-0.4c0.2-0.2,0.3-0.3,0.6-0.4c0.2-0.1,0.5-0.2,0.7-0.3
			c0.3-0.1,0.6-0.1,0.8-0.1c0.4,0,0.7,0.1,1,0.3c0.3,0.2,0.5,0.5,0.5,0.9c0.1,0.5,0.1,1.1,0.1,1.9c0,0.8,0,1.7-0.1,2.7
			c-0.1,1-0.2,2-0.3,3c-0.1,1-0.2,1.9-0.3,2.8c-0.1,0.9-0.1,1.7-0.1,2.4c0,0.7,0.1,1.4,0.2,1.8c0.1,0.5,0.3,0.7,0.6,0.6
			c0.2,0,0.5-0.3,0.7-0.7c0.3-0.5,0.6-1.1,0.9-1.8c0.3-0.7,0.7-1.5,1-2.5c0.3-0.9,0.7-1.8,1-2.7c0.3-0.9,0.6-1.8,0.9-2.6
			c0.3-0.8,0.5-1.5,0.7-2l0.3-1.1c0.1-0.2,0.2-0.3,0.5-0.3c0.3,0,0.5,0,0.8,0c0.3,0,0.5,0.1,0.7,0.2c0.2,0.1,0.2,0.2,0.2,0.4V207
			l-0.3,1c-0.1,0.6-0.3,1.4-0.6,2.3c-0.3,0.9-0.6,1.9-0.9,3c-0.4,1.1-0.8,2.1-1.3,3.2c-0.5,1.1-1,2-1.6,2.9
			c-0.6,0.8-1.2,1.5-1.9,2.1c-0.7,0.5-1.4,0.8-2.2,0.7c-0.5-0.1-1-0.3-1.3-0.6c-0.4-0.3-0.7-0.7-1-1.2c-0.3-0.5-0.5-1-0.7-1.7
			c-0.2-0.6-0.3-1.3-0.4-2c-0.3,0.6-0.8,1.2-1.3,1.7c-0.6,0.5-1.3,0.8-2.1,0.9c-1.6,0.1-2.9-0.2-3.8-0.7c-0.9-0.6-1.6-1.3-2.1-2.2
			c-0.5-0.9-0.7-1.8-0.9-2.7s-0.2-1.8-0.2-2.5c0-0.5,0-1.1,0.1-1.8c0.1-0.7,0.2-1.5,0.4-2.3c0.2-0.8,0.5-1.7,0.9-2.5
			c0.4-0.8,0.8-1.6,1.4-2.3c0.6-0.7,1.3-1.3,2.2-1.7c0.9-0.5,1.9-0.7,3-0.7c0.9,0,1.7,0.1,2.3,0.2c0.6,0.2,1.1,0.4,1.4,0.7
			c0.3,0.3,0.6,0.6,0.8,0.9c0.2,0.3,0.3,0.6,0.3,0.8l0.1,0.3v0c0.2,0.4,0.2,0.7-0.1,0.9c-0.2,0.2-0.6,0.3-1,0.3
			c-0.2,0-0.5-0.1-0.7-0.2c-0.3-0.1-0.5-0.3-0.7-0.5c-0.1-0.1-0.2-0.2-0.2-0.2c0,0,0-0.1-0.1-0.2c-0.1-0.3-0.3-0.5-0.6-0.9
			c-0.3-0.3-0.7-0.5-1.3-0.5c-0.3,0-0.7,0.3-1.1,0.7c-0.4,0.4-0.8,1.1-1.1,1.9c-0.4,0.8-0.7,1.8-1,2.9c-0.3,1.1-0.5,2.5-0.6,3.9
			c0,0.1,0,0.3,0,0.6c0,0.2,0,0.4,0,0.5c0,1.4,0.1,2.4,0.3,3.1c0.2,0.7,0.5,1.2,0.7,1.5c0.3,0.3,0.6,0.5,0.8,0.5c0.3,0,0.5,0,0.6,0
			c0.3,0,0.6-0.1,0.9-0.4c0.3-0.3,0.6-0.6,0.9-1c0.3-0.4,0.5-0.8,0.7-1.3c0.2-0.5,0.4-0.9,0.6-1.3c0-0.9,0-1.7,0.1-2.6
			c0-0.8,0.1-1.6,0.2-2.3c0.1-0.7,0.1-1.3,0.2-1.9C481.8,205.7,481.9,205.4,481.9,205.1z"/>
		<path d="M490.6,204.5c0-0.1,0-0.2,0-0.2c0-0.3,0.2-0.7,0.7-0.9c0.4-0.3,0.9-0.4,1.5-0.4c0.4,0,0.8,0.1,1.1,0.3
			c0.3,0.2,0.6,0.5,0.6,1c0.1,0.3,0.1,0.7,0.1,1.1c0,0.4,0,0.8,0,1.2c0,0.8,0,1.6-0.1,2.5c0,0.9-0.1,1.8-0.2,2.6
			c0,0.9-0.1,1.7-0.1,2.6c0,0.8-0.1,1.6-0.1,2.3c0,1.1,0.1,2,0.2,2.7c0.1,0.7,0.4,1,0.7,1c0.2,0,0.5-0.3,0.7-0.8
			c0.3-0.5,0.6-1.1,0.9-1.8c0.3-0.8,0.6-1.6,0.9-2.6c0.3-1,0.6-1.9,0.9-2.8c0.3-0.9,0.6-1.8,0.9-2.7c0.3-0.9,0.5-1.6,0.7-2.2
			l0.5-1.5c0.1-0.3,0.3-0.4,0.5-0.5c0.2-0.1,0.5-0.1,0.7-0.1c0.2,0,0.4,0.1,0.6,0.3c0.2,0.2,0.3,0.3,0.3,0.6c0,0.5-0.1,1.3-0.3,2.2
			c-0.2,1-0.4,2.1-0.7,3.2c-0.3,1.2-0.7,2.4-1.2,3.6c-0.5,1.2-1,2.3-1.7,3.3c-0.6,1-1.3,1.8-2.1,2.4s-1.6,1-2.5,1
			c-0.8-0.1-1.5-0.4-2-1c-0.5-0.6-1-1.3-1.3-2.1c-0.3-0.8-0.6-1.8-0.7-2.8c-0.1-1-0.2-2.1-0.2-3.2c0-0.9,0-1.8,0.1-2.7
			c0.1-0.9,0.1-1.7,0.2-2.5c0.1-0.8,0.2-1.4,0.2-1.9C490.5,205.1,490.5,204.7,490.6,204.5z M490.5,199.8c0-0.7,0.2-1.2,0.6-1.7
			c0.4-0.5,0.9-0.7,1.5-0.7c0.6,0,1.1,0.2,1.5,0.7c0.4,0.5,0.6,1,0.6,1.7c0,0.7-0.2,1.2-0.6,1.7c-0.4,0.5-0.9,0.7-1.5,0.7
			c-0.6,0-1.1-0.2-1.5-0.7C490.7,201,490.5,200.4,490.5,199.8z"/>
		<path d="M509.6,200.1c1.1,0.1,2,0.3,2.8,0.8c0.8,0.5,1.4,1,1.9,1.8c0.5,0.7,0.8,1.5,1.1,2.5c0.2,0.9,0.3,1.9,0.3,2.9
			c0,0.2,0,0.4,0,0.6c0,0.2,0,0.4,0,0.6c0.7-0.3,1.4-0.8,2-1.3c0.6-0.5,1-1.1,1.4-1.8c0.1-0.2,0.3-0.3,0.5-0.4
			c0.2-0.1,0.5-0.1,0.7-0.1c0.2,0,0.4,0.1,0.6,0.3c0.2,0.2,0.2,0.4,0.1,0.6c-0.2,0.6-0.5,1.2-0.8,1.7c-0.4,0.5-0.8,0.9-1.3,1.3
			c-0.5,0.4-1.1,0.7-1.7,1c-0.6,0.3-1.2,0.5-1.9,0.7c-0.3,1.2-0.6,2.3-1.1,3.3c-0.5,1.1-1,2-1.6,2.8c-0.6,0.8-1.3,1.5-2.1,2
			c-0.8,0.5-1.5,0.7-2.3,0.7c-0.8-0.1-1.5-0.2-2.1-0.4c-0.6-0.2-1.1-0.5-1.5-0.8c-0.4-0.3-0.7-0.7-0.9-1.1c-0.2-0.4-0.4-0.9-0.4-1.3
			c-0.4,0.4-0.9,0.6-1.5,0.6c-0.4,0-0.8-0.1-1.1-0.4c-0.4-0.3-0.6-0.6-0.8-1.1c-0.1-0.2-0.1-0.6-0.2-1.1c-0.1-0.5-0.1-1.1-0.2-1.8
			c-0.1-0.7-0.1-1.5-0.1-2.4c0-0.9,0-1.8,0-2.8c0-1.7,0.1-3.4,0.2-5.2c0.1-1.8,0.3-3.6,0.5-5.2c0.3-1.7,0.6-3.1,1-4.4
			c0.4-1.3,1-2.2,1.7-2.9c0.4-0.3,0.8-0.6,1.2-0.7c0.4-0.2,0.8-0.2,1.2-0.2c0.4,0,0.7,0.1,1,0.2c0.2,0.2,0.4,0.4,0.4,0.7
			c0,0.1,0,0.3-0.1,0.4c0,0.2-0.1,0.3-0.3,0.5c-0.3,0.4-0.5,1-0.7,1.7c-0.2,0.8-0.3,1.6-0.5,2.6c-0.1,1-0.2,2.1-0.3,3.2
			c-0.1,1.2-0.1,2.4-0.2,3.6c0.5-0.5,1.2-0.9,2-1.3C507.2,200.1,508.2,200,509.6,200.1z M504.1,208.5c0,1,0,1.8-0.1,2.6
			c0,0.8-0.1,1.5-0.1,2.1c0.3-0.4,0.7-0.7,1.2-1c0.5-0.3,1-0.5,1.6-0.7c0.6-0.2,1.2-0.4,1.8-0.5c0.6-0.2,1.3-0.3,2-0.5l1.4-0.3
			c0-0.1,0-0.3,0.1-0.4c0-0.1,0-0.2,0.1-0.3v0c0-0.1,0-0.2,0.1-0.4c0-0.1,0-0.3,0-0.4c0-0.6-0.1-1.2-0.2-2c-0.2-0.8-0.4-1.5-0.8-2.2
			c-0.3-0.7-0.8-1.3-1.3-1.7c-0.5-0.5-1.1-0.7-1.9-0.6c-0.6,0-1.1,0.2-1.5,0.5c-0.4,0.3-0.7,0.7-1,1.1c-0.3,0.4-0.5,0.9-0.6,1.3
			c-0.2,0.5-0.3,0.9-0.4,1.3c0,0.2-0.1,0.4-0.2,0.6c-0.1,0.2-0.1,0.3-0.2,0.5V208.5z M508.2,218.1c0.4-0.1,0.8-0.3,1.1-0.7
			c0.3-0.4,0.6-0.9,0.9-1.4c0.3-0.6,0.5-1.2,0.7-1.8c0.2-0.7,0.4-1.3,0.6-1.9c-0.8,0.2-1.5,0.4-2.2,0.6c-0.7,0.2-1.3,0.5-1.8,0.7
			c-0.5,0.3-0.9,0.6-1.2,1c-0.3,0.4-0.4,0.8-0.3,1.4c0,0.2,0.1,0.4,0.1,0.7c0.1,0.3,0.2,0.5,0.3,0.8c0.2,0.3,0.4,0.5,0.6,0.6
			C507.3,218.2,507.7,218.2,508.2,218.1z"/>
		<path d="M528.8,205.1c0-0.1,0-0.2,0-0.2c0-0.1,0.1-0.2,0.3-0.4c0.2-0.2,0.3-0.3,0.6-0.4c0.2-0.1,0.5-0.2,0.7-0.3
			c0.3-0.1,0.6-0.1,0.8-0.1c0.4,0,0.7,0.1,1,0.3c0.3,0.2,0.5,0.5,0.5,0.9c0.1,0.5,0.1,1.1,0.1,1.9c0,0.8,0,1.7-0.1,2.7
			c-0.1,1-0.2,2-0.3,3c-0.1,1-0.2,1.9-0.3,2.8c-0.1,0.9-0.1,1.7-0.1,2.4c0,0.7,0.1,1.4,0.2,1.8c0.1,0.5,0.3,0.7,0.6,0.6
			c0.2,0,0.5-0.3,0.7-0.7c0.3-0.5,0.6-1.1,0.9-1.8c0.3-0.7,0.7-1.5,1-2.5c0.3-0.9,0.7-1.8,1-2.7s0.6-1.8,0.9-2.6
			c0.3-0.8,0.5-1.5,0.7-2l0.3-1.1c0.1-0.2,0.2-0.3,0.5-0.3c0.3,0,0.5,0,0.8,0c0.3,0,0.5,0.1,0.7,0.2c0.2,0.1,0.2,0.2,0.2,0.4V207
			l-0.3,1c-0.1,0.6-0.3,1.4-0.6,2.3c-0.3,0.9-0.6,1.9-0.9,3c-0.4,1.1-0.8,2.1-1.3,3.2c-0.5,1.1-1,2-1.6,2.9
			c-0.6,0.8-1.2,1.5-1.9,2.1c-0.7,0.5-1.4,0.8-2.2,0.7c-0.5-0.1-1-0.3-1.3-0.6c-0.4-0.3-0.7-0.7-1-1.2c-0.3-0.5-0.5-1-0.7-1.7
			c-0.2-0.6-0.3-1.3-0.4-2c-0.3,0.6-0.8,1.2-1.3,1.7c-0.6,0.5-1.3,0.8-2.1,0.9c-1.6,0.1-2.9-0.2-3.8-0.7c-0.9-0.6-1.6-1.3-2.1-2.2
			c-0.5-0.9-0.7-1.8-0.9-2.7c-0.1-1-0.2-1.8-0.2-2.5c0-0.5,0-1.1,0.1-1.8c0.1-0.7,0.2-1.5,0.4-2.3c0.2-0.8,0.5-1.7,0.9-2.5
			c0.4-0.8,0.8-1.6,1.4-2.3c0.6-0.7,1.3-1.3,2.2-1.7c0.9-0.5,1.9-0.7,3-0.7c0.9,0,1.7,0.1,2.3,0.2c0.6,0.2,1.1,0.4,1.4,0.7
			c0.3,0.3,0.6,0.6,0.8,0.9c0.2,0.3,0.3,0.6,0.3,0.8l0.1,0.3v0c0.2,0.4,0.2,0.7-0.1,0.9c-0.2,0.2-0.6,0.3-1,0.3
			c-0.2,0-0.5-0.1-0.7-0.2c-0.3-0.1-0.5-0.3-0.7-0.5c-0.1-0.1-0.2-0.2-0.2-0.2c0,0,0-0.1-0.1-0.2c-0.1-0.3-0.3-0.5-0.6-0.9
			c-0.3-0.3-0.7-0.5-1.3-0.5c-0.3,0-0.7,0.3-1.1,0.7c-0.4,0.4-0.8,1.1-1.1,1.9c-0.4,0.8-0.7,1.8-1,2.9c-0.3,1.1-0.5,2.5-0.6,3.9
			c0,0.1,0,0.3,0,0.6c0,0.2,0,0.4,0,0.5c0,1.4,0.1,2.4,0.3,3.1c0.2,0.7,0.5,1.2,0.7,1.5c0.3,0.3,0.6,0.5,0.8,0.5c0.3,0,0.5,0,0.6,0
			c0.3,0,0.6-0.1,0.9-0.4c0.3-0.3,0.6-0.6,0.9-1c0.3-0.4,0.5-0.8,0.7-1.3c0.2-0.5,0.4-0.9,0.6-1.3c0-0.9,0-1.7,0.1-2.6
			c0-0.8,0.1-1.6,0.2-2.3c0.1-0.7,0.1-1.3,0.2-1.9C528.7,205.7,528.8,205.4,528.8,205.1z"/>
		<path d="M574.7,187.3c0-0.1,0.1-0.3,0.2-0.5c0.4-0.4,0.9-0.6,1.6-0.6c0.5,0,0.9,0.1,1.3,0.3c0.4,0.2,0.6,0.6,0.7,1
			c0,0.1,0,0.2,0,0.4c0,0.1,0,0.3,0,0.4c0,0.1,0,0.2,0,0.2c-0.1,0.6-0.3,1.2-0.6,1.9c-0.3,0.7-0.6,1.4-1.1,2.2
			c-0.4,0.8-0.9,1.6-1.5,2.5c-0.5,0.9-1.1,1.8-1.7,2.7c0.1-1.9,0.2-3.6,0.3-5.2c0.1-1.6,0.3-2.9,0.5-3.9l0.4-1.2
			c-0.1-0.3,0-0.6,0.2-0.8c0.3-0.3,0.6-0.6,1.1-0.7c0.5-0.2,0.9-0.3,1.3-0.3c0.5,0,1,0.1,1.3,0.3c0.3,0.2,0.4,0.5,0.2,1
			c-0.1,0.4-0.2,0.8-0.3,1.3c0,0.1,0,0.2,0,0.2c-0.2,1.1-0.3,2.4-0.4,4.1c-0.1,1.6-0.2,3.4-0.2,5.4c0,1.9-0.1,4-0.1,6.1
			c0,2.1,0,4.2,0,6.2v1.9c0,1.5,0,2.9,0,4.3c0,1.3,0,2.5,0,3.5c0,1-0.1,1.9-0.1,2.5c0,0.6-0.1,1-0.2,1.2c-0.2,0.4-0.6,0.7-1.2,0.9
			c-0.6,0.2-1.2,0.3-1.8,0.3c-0.7,0-1.3-0.1-1.8-0.4c-0.5-0.3-0.7-0.7-0.6-1.2c0.2-1,0.4-2.3,0.6-3.8c0.2-1.5,0.3-3,0.4-4.7
			c0.1-1.7,0.2-3.5,0.3-5.4c0.1-1.9,0.1-3.7,0.2-5.6c0-1,0-2.1,0.1-3.1c0-1,0.1-2,0.1-3l-0.8,1.3c-0.9,1.4-1.8,2.8-2.7,4.2
			c-0.9,1.4-1.7,2.9-2.5,4.2c-0.7,1.4-1.3,2.7-1.8,4c-0.5,1.3-0.7,2.5-0.7,3.6c0,0.6-0.2,1-0.5,1c-0.2,0.4-0.5,0.8-0.9,1.1
			c-0.4,0.3-0.7,0.4-1.1,0.4c-0.3,0-0.5-0.1-0.7-0.3c-0.2-0.2-0.3-0.5-0.3-0.9c0-1.1-0.2-2.3-0.5-3.6c-0.3-1.3-0.8-2.8-1.4-4.2
			c-0.6-1.5-1.2-3-1.9-4.5c-0.7-1.6-1.4-3.1-2.1-4.6l-1.4-3.1l0.1,4c0,2.3,0.1,4.6,0.2,6.9c0.1,2.3,0.1,4.5,0.1,6.6
			c0,1.2,0,2.4-0.1,3.4c0,1.1-0.1,2-0.2,2.8c-0.1,0.8-0.2,1.5-0.3,2.1c-0.1,0.6-0.3,0.9-0.5,1.1c-0.5,0.4-0.9,0.8-1.4,1.1
			c-0.5,0.3-0.9,0.5-1.2,0.5c-0.6,0-0.8-0.4-0.6-1.1c0.3-1,0.4-2.3,0.5-3.9c0.1-1.6,0.2-3.2,0.2-4.9c0-1.8,0-3.7-0.1-5.7
			c-0.1-2-0.1-3.9-0.2-5.9c-0.1-1.8-0.1-3.6-0.2-5.2c-0.1-1.7-0.1-3.3-0.1-4.7c0-1.5,0-2.9,0.1-4c0.1-1.1,0.2-2,0.5-2.6
			c0.2-0.6,0.6-1,1.1-1.2c0.5-0.3,1-0.5,1.5-0.5c0.4,0,0.7,0.1,1,0.3c0.3,0.2,0.4,0.5,0.3,0.9c-0.1,0.5-0.1,1.1,0.1,1.9
			c0.1,0.8,0.4,1.8,0.7,2.9s0.7,2.3,1.1,3.5c0.4,1.3,0.9,2.6,1.4,3.9c0.5,1.3,1,2.7,1.6,4.1c0.5,1.4,1,2.7,1.5,3.9
			c0.2,0.6,0.5,1.2,0.7,1.8c0.2,0.6,0.4,1.1,0.6,1.7c0.6-1.4,1.5-3.1,2.5-4.9c1-1.8,2-3.6,3.1-5.4c0.6-1,1.2-2.1,1.7-3.1
			c0.6-1,1.1-2.1,1.7-3c0.5-1,1-1.9,1.4-2.7c0.4-0.8,0.8-1.6,1-2.2C574.4,188.2,574.5,187.7,574.7,187.3z"/>
		<path d="M589.8,205.1c0-0.1,0-0.2,0-0.2c0-0.1,0.1-0.2,0.3-0.4c0.2-0.2,0.3-0.3,0.6-0.4c0.2-0.1,0.5-0.2,0.7-0.3
			c0.3-0.1,0.6-0.1,0.8-0.1c0.4,0,0.7,0.1,1,0.3c0.3,0.2,0.5,0.5,0.5,0.9c0.1,0.5,0.1,1.1,0.1,1.9c0,0.8,0,1.7-0.1,2.7
			c-0.1,1-0.2,2-0.3,3c-0.1,1-0.2,1.9-0.3,2.8c-0.1,0.9-0.1,1.7-0.1,2.4c0,0.7,0.1,1.4,0.2,1.8c0.1,0.5,0.3,0.7,0.6,0.6
			c0.2,0,0.5-0.3,0.7-0.7c0.3-0.5,0.6-1.1,0.9-1.8c0.3-0.7,0.7-1.5,1-2.5c0.3-0.9,0.7-1.8,1-2.7s0.6-1.8,0.9-2.6
			c0.3-0.8,0.5-1.5,0.7-2l0.3-1.1c0.1-0.2,0.2-0.3,0.5-0.3c0.3,0,0.5,0,0.8,0c0.3,0,0.5,0.1,0.7,0.2c0.2,0.1,0.2,0.2,0.2,0.4V207
			l-0.3,1c-0.1,0.6-0.3,1.4-0.6,2.3c-0.3,0.9-0.6,1.9-0.9,3c-0.4,1.1-0.8,2.1-1.3,3.2c-0.5,1.1-1,2-1.6,2.9
			c-0.6,0.8-1.2,1.5-1.9,2.1c-0.7,0.5-1.4,0.8-2.2,0.7c-0.5-0.1-1-0.3-1.3-0.6s-0.7-0.7-1-1.2c-0.3-0.5-0.5-1-0.7-1.7
			c-0.2-0.6-0.3-1.3-0.4-2c-0.3,0.6-0.8,1.2-1.3,1.7c-0.6,0.5-1.3,0.8-2.1,0.9c-1.6,0.1-2.9-0.2-3.8-0.7c-0.9-0.6-1.6-1.3-2.1-2.2
			c-0.5-0.9-0.7-1.8-0.9-2.7c-0.1-1-0.2-1.8-0.2-2.5c0-0.5,0-1.1,0.1-1.8c0.1-0.7,0.2-1.5,0.4-2.3c0.2-0.8,0.5-1.7,0.9-2.5
			c0.4-0.8,0.8-1.6,1.4-2.3c0.6-0.7,1.3-1.3,2.2-1.7c0.9-0.5,1.9-0.7,3-0.7c0.9,0,1.7,0.1,2.3,0.2c0.6,0.2,1.1,0.4,1.4,0.7
			c0.3,0.3,0.6,0.6,0.8,0.9c0.2,0.3,0.3,0.6,0.3,0.8l0.1,0.3v0c0.2,0.4,0.2,0.7-0.1,0.9c-0.2,0.2-0.6,0.3-1,0.3
			c-0.2,0-0.5-0.1-0.7-0.2c-0.3-0.1-0.5-0.3-0.7-0.5c-0.1-0.1-0.2-0.2-0.2-0.2c0,0,0-0.1-0.1-0.2c-0.1-0.3-0.3-0.5-0.6-0.9
			c-0.3-0.3-0.7-0.5-1.3-0.5c-0.3,0-0.7,0.3-1.1,0.7c-0.4,0.4-0.8,1.1-1.1,1.9c-0.4,0.8-0.7,1.8-1,2.9c-0.3,1.1-0.5,2.5-0.6,3.9
			c0,0.1,0,0.3,0,0.6c0,0.2,0,0.4,0,0.5c0,1.4,0.1,2.4,0.3,3.1c0.2,0.7,0.5,1.2,0.7,1.5c0.3,0.3,0.6,0.5,0.8,0.5c0.3,0,0.5,0,0.6,0
			c0.3,0,0.6-0.1,0.9-0.4c0.3-0.3,0.6-0.6,0.9-1c0.3-0.4,0.5-0.8,0.7-1.3c0.2-0.5,0.4-0.9,0.6-1.3c0-0.9,0-1.7,0.1-2.6
			c0-0.8,0.1-1.6,0.2-2.3c0.1-0.7,0.1-1.3,0.2-1.9C589.7,205.7,589.8,205.4,589.8,205.1z"/>
		<path d="M598.4,204.5c0-0.1,0-0.2,0-0.2c0-0.3,0.2-0.7,0.7-0.9c0.4-0.3,0.9-0.4,1.5-0.4c0.4,0,0.8,0.1,1.1,0.3
			c0.3,0.2,0.6,0.5,0.6,1c0.1,0.3,0.1,0.7,0.1,1.1c0,0.4,0,0.8,0,1.2c0,0.8,0,1.6-0.1,2.5c0,0.9-0.1,1.8-0.2,2.6
			c0,0.9-0.1,1.7-0.1,2.6c0,0.8-0.1,1.6-0.1,2.3c0,1.1,0.1,2,0.2,2.7c0.1,0.7,0.4,1,0.7,1c0.2,0,0.5-0.3,0.7-0.8
			c0.3-0.5,0.6-1.1,0.9-1.8c0.3-0.8,0.6-1.6,0.9-2.6c0.3-1,0.6-1.9,0.9-2.8c0.3-0.9,0.6-1.8,0.9-2.7c0.3-0.9,0.5-1.6,0.7-2.2
			l0.5-1.5c0.1-0.3,0.3-0.4,0.5-0.5c0.2-0.1,0.5-0.1,0.7-0.1c0.2,0,0.4,0.1,0.6,0.3c0.2,0.2,0.3,0.3,0.3,0.6c0,0.5-0.1,1.3-0.3,2.2
			c-0.2,1-0.4,2.1-0.7,3.2c-0.3,1.2-0.7,2.4-1.2,3.6c-0.5,1.2-1,2.3-1.7,3.3c-0.6,1-1.3,1.8-2.1,2.4c-0.8,0.6-1.6,1-2.5,1
			c-0.8-0.1-1.5-0.4-2-1c-0.5-0.6-1-1.3-1.3-2.1c-0.3-0.8-0.6-1.8-0.7-2.8c-0.1-1-0.2-2.1-0.2-3.2c0-0.9,0-1.8,0.1-2.7
			c0.1-0.9,0.1-1.7,0.2-2.5c0.1-0.8,0.2-1.4,0.2-1.9C598.4,205.1,598.4,204.7,598.4,204.5z M598.3,199.8c0-0.7,0.2-1.2,0.6-1.7
			c0.4-0.5,0.9-0.7,1.5-0.7c0.6,0,1.1,0.2,1.5,0.7c0.4,0.5,0.6,1,0.6,1.7c0,0.7-0.2,1.2-0.6,1.7c-0.4,0.5-0.9,0.7-1.5,0.7
			c-0.6,0-1.1-0.2-1.5-0.7C598.6,201,598.3,200.4,598.3,199.8z"/>
		<path d="M611.9,195.6c0.4-0.1,0.7-0.1,0.9-0.1c0.2,0,0.4,0.1,0.6,0.2c0.1,0.1,0.2,0.2,0.3,0.4c0.1,0.2,0.1,0.4,0.1,0.5
			c0,0.6-0.2,1-0.5,1.4c-0.1,0.1-0.3,0.3-0.5,0.6c-0.2,0.3-0.4,0.6-0.6,1c-0.2,0.4-0.4,0.9-0.5,1.5c-0.2,0.6-0.2,1.3-0.2,2
			c0,0.9,0.2,2,0.5,3.2v0l2.3,5.9c0.9-0.8,1.9-1.8,2.9-2.8c1-1.1,1.9-2.1,2.6-3.3c0.2-0.3,0.4-0.5,0.6-0.6c0.2-0.1,0.4-0.1,0.6-0.1
			c0.2,0.1,0.3,0.2,0.4,0.4c0.1,0.2,0.1,0.5,0,0.9c-0.3,0.6-0.6,1.2-1.1,1.8c-0.4,0.6-0.9,1.2-1.4,1.8c-0.5,0.6-1,1.1-1.6,1.7
			c-0.6,0.5-1.1,1-1.6,1.5l-0.6,0.6c0.3,0.9,0.6,1.7,0.9,2.4c0.3,0.7,0.4,1.2,0.5,1.5c0.1,0.6,0.2,1.2,0.2,1.6
			c0,0.7-0.1,1.2-0.3,1.7c-0.2,0.5-0.5,0.8-0.8,1.1c-0.3,0.3-0.7,0.5-1.2,0.6c-0.4,0.1-0.9,0.2-1.4,0.2c-1.6,0-2.7-0.2-3.4-0.8
			c-0.7-0.6-1-1.4-1-2.3c0-0.2,0-0.4,0-0.6c0-0.2,0.1-0.5,0.1-0.7c0.2-0.7,0.5-1.5,1.1-2.2c0.5-0.7,1.2-1.4,1.9-2.1
			c-0.3-0.7-0.6-1.5-0.9-2.2c-0.3-0.7-0.6-1.4-0.9-2.1c-0.3-0.6-0.6-1.2-0.8-1.8c-0.2-0.5-0.4-0.9-0.6-1.3c-0.1-0.2-0.2-0.4-0.2-0.5
			c-0.1-0.1-0.1-0.2,0-0.2c-0.2-0.6-0.3-1.2-0.4-1.8c-0.1-0.6-0.1-1.1-0.1-1.7c0-1.3,0.2-2.4,0.6-3.3c0.4-0.9,0.9-1.7,1.4-2.3
			c0.5-0.6,1-1.1,1.5-1.4C611.4,195.9,611.7,195.7,611.9,195.6L611.9,195.6z M612.8,220.2c0-0.9-0.2-2-0.6-3.3
			c-0.3,0.3-0.5,0.7-0.7,1c-0.2,0.3-0.3,0.7-0.4,1.1c-0.1,0.3-0.2,0.6-0.2,0.9c0,0.3-0.1,0.5-0.1,0.7c0,0.7,0.1,1.1,0.4,1.3
			c0.3,0.2,0.5,0.2,0.7,0.1C612.6,221.8,612.8,221.2,612.8,220.2z"/>
	</g>
	<rect x="433.5" y="163.3" class="st0" width="204.3" height="81.6"/>
</g>
</svg>
