<?xml version="1.0" encoding="utf-8"?>
<!-- Generator: Adobe Illustrator 21.1.0, SVG Export Plug-In . SVG Version: 6.00 Build 0)  -->
<svg version="1.1" id="Layer_1" xmlns="http://www.w3.org/2000/svg" xmlns:xlink="http://www.w3.org/1999/xlink" x="0px" y="0px"
	 viewBox="0 0 2786.1 971.3" style="enable-background:new 0 0 2786.1 971.3;" xml:space="preserve">
<style type="text/css">
	.st0{fill:#E8E5E0;}
	.st1{fill:#508C3E;}
	.st2{fill:#201916;}
</style>
<rect x="-1" y="-0.9" class="st0" width="2786.1" height="972.2"/>
<g>
	<g>
		<path class="st1" d="M1037.2,221.8c0.7-0.2,2.6-0.2,5.6,0.2c3.1,0.3,6.3,1,9.6,2c3.2-0.6,7-1,11.4-1.4s9.3-0.5,14.7-0.5
			c6.8,0,14,0.4,21.7,1.1c7.6,0.7,15.2,2.1,22.7,4c1.9,0.5,3.3,1.1,4,1.9c0.7,0.8,1.1,1.6,1.1,2.4c0,1.3-0.6,2.3-1.9,3.1
			c-1.3,0.8-2.7,1.1-4.3,0.9c-10.9-1.6-20.2-2.7-27.8-3.2c-7.6-0.6-14.1-0.9-19.5-0.9c-4.8,0-8.6,0.2-11.4,0.5
			c-0.5,5-1,10.3-1.5,15.9c-0.6,5.6-1.1,11.4-1.7,17.6l-1.7,17.7l21.2-0.5c3.5-0.1,7.1-0.2,10.7-0.3c3.6-0.1,7-0.1,10.1-0.3
			c3.1-0.1,5.7-0.2,8-0.3c2.3-0.1,3.9-0.1,4.8-0.3c2.6-0.2,4.7,0.1,6.2,0.9c1.5,0.9,2.3,1.8,2.3,3c0,1-0.6,2-1.8,2.8
			c-1.2,0.9-3,1.3-5.4,1.3c-0.5,0-1.8,0.1-4.1,0.2c-2.3,0.1-5.1,0.3-8.4,0.5c-3.4,0.2-7.1,0.5-11.2,0.8c-4.1,0.3-8.2,0.6-12.2,0.9
			c-4,0.3-7.9,0.6-11.6,0.9c-3.7,0.3-6.9,0.5-9.5,0.8c-0.7,8.5-1.3,17.1-1.8,25.6c-0.5,8.5-0.8,16.4-0.8,23.5
			c0,6.7,0.3,13.1,0.8,19.2c0.5,6.1,1.4,11.6,2.6,16.5c1.2,4.9,2.8,9.2,4.7,12.8c1.9,3.6,4.3,6.3,7,8.1c0.7,0.2,2.6,0.3,5.8,0.3
			c3.5,0,8-0.3,13.3-0.9c5.3-0.6,10.6-1.7,15.9-3.2c5.2-1.5,10-3.6,14.2-6.1c4.3-2.5,7.2-5.7,8.8-9.6c0.3-0.7,1-0.9,1.9-0.8
			c0.9,0.2,1.8,0.6,2.7,1.3c0.9,0.7,1.7,1.5,2.4,2.6c0.7,1,1,2,0.9,2.9c-1.4,3.8-3.6,6.9-6.7,9.6c-3.1,2.6-6.8,4.8-10.9,6.5
			c-4.2,1.7-8.6,3.1-13.3,4.1c-4.7,1-9.4,1.8-13.9,2.2c-4.5,0.5-8.8,0.7-12.8,0.9c-4,0.1-7.3,0.2-9.9,0.2c-5.9,0-10.8-0.5-14.6-1.5
			c-3.8-1-6.9-2.2-9.3-3.8c-2.4-1.5-4.3-3.2-5.7-5.1c-1.4-1.9-2.7-3.7-3.8-5.5v0.2l-1.4-1.9c-0.9-1.4-1.7-3.5-2.2-6.4
			c-0.6-2.9-1.1-6.4-1.5-10.5c-0.4-4.1-0.7-8.7-0.9-13.7c-0.2-5.1-0.3-10.4-0.3-16.1c0-8.3,0.2-17.1,0.5-26.4
			c0.3-9.3,0.8-18.5,1.3-27.6c0.5-9,1.1-17.7,1.8-26c0.7-8.3,1.3-15.6,2-21.9c0.6-6.3,1.2-11.4,1.8-15.2
			C1036.4,223.8,1036.9,221.9,1037.2,221.8z"/>
		<path class="st1" d="M1191.1,215.8c6.7,0,12.5,0.8,17.2,2.5c4.8,1.6,8.8,3.8,11.9,6.4c3.2,2.6,5.7,5.5,7.6,8.8
			c1.9,3.2,3.3,6.4,4.2,9.5c0.9,3.1,1.5,6,1.6,8.7c0.2,2.7,0.3,4.8,0.3,6.3c-0.3,7.2-1.3,13.3-2.8,18.3c-1.5,5-3.4,9.2-5.5,12.5
			c-2.2,3.3-4.5,5.9-7.1,7.8c-2.6,1.9-5.1,3.3-7.6,4.2c-2.5,0.9-4.8,1.5-6.9,1.6c-2.1,0.2-3.8,0.2-5,0.1c-2.8-0.1-6.1-0.8-9.7-2
			c-3.6-1.2-6.7-3.1-9.2-5.6c-0.5-0.7-0.9-1.6-1.4-2.6c-0.5-1.1-0.7-2-0.7-2.6c0-1.6,0.6-2.6,1.9-3c1.3-0.4,3.4,0.6,6.5,3
			c5,3.6,9.4,5.5,13.1,5.5c4.2-0.2,7.6-3.4,10.3-9.6c2.7-6.1,4.4-15.2,5.2-27.3c0-0.7,0.1-1.4,0.2-2.3c0.1-0.9,0.2-1.6,0.2-2.1
			c0-5.1-0.5-9.4-1.5-12.9c-1-3.5-2.2-6.3-3.8-8.6c-1.5-2.3-3.2-4-5-5.2c-1.8-1.2-3.6-2-5.3-2.6c-1.7-0.5-3.3-0.8-4.7-0.8
			c-1.4,0-2.5,0-3.2,0c-4.1,0.3-7.8,2-11,5c-3.2,3-6.2,6.9-8.8,11.5c-2.6,4.7-4.9,10-6.8,15.9c-1.9,6-3.6,12.1-4.9,18.4
			c-1.4,6.3-2.5,12.5-3.5,18.7c-1,6.1-1.7,11.8-2.3,16.9c-0.6,5.1-1,9.5-1.2,13.1c-0.2,3.6-0.4,6.1-0.5,7.3
			c-0.1,1.6-0.2,3.4-0.3,5.3c-0.1,1.9-0.1,3.7-0.1,5.3c0,9.8,0.8,18,2.3,24.7c1.5,6.7,3.5,12.2,5.8,16.4c2.3,4.2,4.9,7.5,7.8,9.7
			c2.8,2.3,5.5,3.9,8.1,4.8c2.6,0.9,4.8,1.4,6.7,1.5c1.9,0.1,3.2,0.1,3.8,0c5.9-0.2,11.3-1.8,16.1-4.9s9.2-6.8,13-11.3
			c3.9-4.5,7.3-9.6,10.3-15.1c3-5.5,5.6-10.9,7.8-16.1c2.2-5.2,4-10.1,5.4-14.5c1.4-4.4,2.5-7.8,3.2-10.2l1.2-3.6
			c0.6-0.8,1.4-1.3,2.5-1.6c1.1-0.3,2.1-0.4,3.2-0.3c1,0.1,1.9,0.5,2.6,1.1c0.7,0.6,0.9,1.5,0.7,2.6c-0.1,0.6-0.5,2.9-1.3,6.9
			c-0.7,4-2,9-3.9,14.9c-1.9,5.9-4.4,12.3-7.7,19.1c-3.2,6.8-7.3,13.3-12.2,19.4c-4.9,6.1-10.7,11.5-17.6,16
			c-6.8,4.5-14.8,7.4-24.1,8.7c-1.6,0.1-4.2,0.1-7.7,0c-3.5-0.1-7.5-0.9-11.9-2.2c-4.4-1.4-9-3.6-13.6-6.8
			c-4.7-3.2-8.9-7.8-12.8-13.7c-3.9-6-7.1-13.6-9.6-22.9c-2.5-9.3-3.8-20.9-3.8-34.6c0-0.8,0.1-3,0.3-6.7c0.2-3.6,0.5-8.2,1.1-13.6
			c0.6-5.5,1.4-11.5,2.6-18.3c1.2-6.7,2.8-13.5,4.9-20.4c2.1-6.9,4.7-13.6,7.8-20.1c3.1-6.5,6.9-12.3,11.3-17.4
			c4.4-5.1,9.6-9.1,15.6-12.2C1176.5,217.3,1183.3,215.8,1191.1,215.8z"/>
		<path class="st1" d="M1237.8,298c0-0.2,0-0.5-0.1-0.7c-0.1-0.2-0.1-0.5-0.1-0.7c-0.2-1.6-0.4-3.1-0.6-4.5
			c-0.2-1.4-0.3-2.9-0.3-4.5c0-6.5,1.1-12.6,3.3-18.5c2.2-5.9,5.2-11.3,9.1-16.2c3.8-4.9,8.3-9.4,13.5-13.3
			c5.2-3.9,10.8-7.2,16.7-9.9c6-2.7,12.2-4.6,18.6-5.9c6.4-1.2,12.8-1.7,19.2-1.4c7.9,0.5,15.4,2.2,22.6,5.2
			c7.2,3,13.6,7.6,19.1,13.6c5.5,6.1,9.9,13.8,13.2,23.1c3.3,9.3,5,20.5,5,33.6c0,2.3-0.1,4.7-0.3,7.2c-0.2,2.5-0.4,5.1-0.6,7.7
			c-0.8,8.4-2.4,16.8-4.7,25.2c-2.3,8.4-5.4,16.3-9.1,24c-3.7,7.6-8.1,14.7-13.1,21.2c-5,6.5-10.6,12.2-16.9,17.1
			c-6.3,4.8-13.1,8.6-20.5,11.3c-7.4,2.7-15.3,4-23.7,3.9c-8-0.1-14.8-1.4-20.5-3.8c-5.7-2.4-10.5-5.5-14.5-9.4
			c-4-3.9-7.2-8.2-9.6-13.1c-2.4-4.9-4.2-9.9-5.6-15c-1.3-5.1-2.2-10.1-2.6-15c-0.5-4.9-0.7-9.2-0.7-13c0-3,0.1-5.4,0.2-7.4
			c0.1-2,0.2-3.4,0.3-4.2v0.2c0.2-3.3,0.8-6.6,1.8-9.9c1-3.3,2.1-6.6,3.5-9.9c-1.1-3.6-1.9-7-2.2-10.1
			C1238.2,301.9,1237.9,299.6,1237.8,298z M1276.2,342.5c-5.1-0.3-9.6-1.3-13.4-2.9c-3.8-1.6-7.1-3.5-9.8-5.8
			c-0.8,3.6-1.3,7.2-1.6,10.7c-0.3,3.5-0.4,6.9-0.4,10.3c0,7.8,0.9,15.2,2.7,21.9c1.8,6.8,4.4,12.6,7.8,17.6
			c3.4,4.9,7.6,8.7,12.5,11.3c4.9,2.6,10.4,3.6,16.5,3.1c7.3-1,14.2-4.5,20.7-10.4c6.5-5.9,12.5-13.3,17.7-22.1
			c5.3-8.8,9.9-18.6,13.7-29.3c3.9-10.7,6.8-21.3,8.9-31.7c0.9-4.5,1.5-9.1,1.9-13.6c0.3-4.5,0.5-8.9,0.5-13.1
			c0-7.6-0.7-14.8-2.1-21.6c-1.4-6.8-3.4-12.8-6.1-18.1c-2.6-5.3-5.8-9.8-9.5-13.4c-3.7-3.6-7.9-6.1-12.5-7.5
			c-2.3-0.5-4.6-0.7-7-0.7c-5,0-10.2,1.1-15.6,3.2c-5.4,2.1-10.5,5.3-15.3,9.6c-4.8,4.3-9.2,9.7-13,16.2c-3.9,6.5-6.7,14.1-8.4,22.9
			c5.1-6.1,9.7-11.2,13.8-15.3c4.1-4,6.7-6.5,7.7-7.2c1.2-1,2.8-1.8,4.6-2.4c1.8-0.6,3.4-0.9,4.8-0.9c2.6,0,4.5,0.5,5.5,1.4
			c1.1,1,0.5,2.3-1.6,4c-8.2,6.3-15.2,13.1-21.2,20.6c-5.9,7.5-10.9,15.3-14.8,23.5c0.5,2.4,1.1,5.1,1.9,8c0.8,3,1.9,5.9,3.3,8.8
			c1.4,2.9,3.2,5.6,5.3,8.1c2.1,2.5,4.6,4.6,7.6,6.3c0.5,0.2,1,0.4,1.6,0.6c0.6,0.2,1.2,0.3,1.8,0.4c1.3,0.3,2.3,0.7,3.2,1
			c0.9,0.3,1.3,1.1,1.3,2.2c0,1.4-1.1,2.5-3.2,3.3C1283.9,342.4,1280.7,342.8,1276.2,342.5z"/>
	</g>
	<g>
		<path class="st2" d="M1051.7,489.6c1.9-0.5,3.5-0.6,4.7-0.5c1.2,0.2,2.2,0.5,2.9,1.1c0.7,0.5,1.2,1.3,1.5,2.2
			c0.3,0.9,0.5,1.8,0.5,2.8c0,3-0.8,5.4-2.5,7.1c-0.6,0.6-1.4,1.6-2.4,3c-1,1.4-2.1,3.2-3.1,5.4c-1,2.2-1.9,4.8-2.7,7.9
			c-0.8,3.1-1.2,6.6-1.2,10.6c0,4.8,0.8,10.4,2.4,16.7v-0.2l11.8,30.7c4.8-4.4,9.9-9.3,15.2-14.8c5.3-5.5,9.8-11.2,13.4-17
			c1-1.6,2-2.6,3.2-3.2c1.1-0.5,2.2-0.7,3.1-0.4c0.9,0.3,1.5,1.1,1.9,2.3c0.4,1.2,0.3,2.8-0.2,4.7c-1.5,3.3-3.3,6.5-5.5,9.6
			c-2.2,3.1-4.7,6.2-7.3,9.3c-2.6,3-5.4,5.9-8.3,8.6c-2.9,2.7-5.7,5.3-8.5,7.9l-3.3,2.9c1.7,4.7,3.2,8.9,4.6,12.7
			c1.4,3.7,2.2,6.3,2.4,7.6c0.6,3.4,0.9,6.2,0.9,8.5c0,3.5-0.5,6.4-1.5,8.8c-1,2.4-2.4,4.3-4.3,5.7c-1.8,1.5-3.9,2.5-6.2,3.1
			s-4.7,0.9-7.3,0.9c-8.3,0.2-14.3-1.1-18-4.1c-3.6-3-5.4-7-5.4-12.2c0-1,0.1-2.1,0.2-3.3c0.1-1.2,0.4-2.4,0.7-3.4
			c1-3.9,2.8-7.6,5.6-11.2c2.8-3.6,6.1-7.2,10-10.7c-1.5-3.9-3-7.7-4.6-11.6c-1.6-3.9-3.2-7.5-4.8-10.9c-1.6-3.4-3-6.4-4.3-9.2
			c-1.3-2.7-2.3-4.9-3.2-6.6c-0.5-1-0.9-1.8-1.3-2.6c-0.4-0.8-0.4-1.1-0.2-0.8c-1-3.1-1.6-6.2-2-9.2c-0.4-3-0.5-5.8-0.5-8.6
			c0-6.8,1.1-12.6,3.2-17.4c2.1-4.8,4.5-8.9,7.3-12.1c2.7-3.2,5.3-5.6,7.8-7.2c2.5-1.6,4.1-2.5,4.8-2.7L1051.7,489.6z M1056.3,617.8
			c0-4.7-1-10.5-3.1-17.2c-1.3,1.8-2.5,3.6-3.5,5.4c-1,1.8-1.7,3.7-2.1,5.6c-0.5,1.7-0.8,3.2-1,4.6c-0.2,1.4-0.3,2.6-0.3,3.5
			c0,3.6,0.7,5.8,2.2,6.6c1.5,0.8,2.7,1,3.8,0.6C1054.9,626.1,1056.3,623,1056.3,617.8z"/>
		<path class="st2" d="M1045.4,469.6c2.3,0.6,5.2,1,8.8,1.2c3.6,0.2,7.7,0.3,12.2,0.3c7.5,0,15.8-0.2,24.9-0.5l2.9-22.3
			c0.1-0.8,0.2-1.5,0.4-2.1c0.1-0.5,0.2-0.8,0.2-0.6c0-0.6,0.3-1.3,0.9-2c0.6-0.7,1.4-1.4,2.3-2.1c0.9-0.7,2-1.2,3.2-1.6
			c1.2-0.4,2.4-0.6,3.7-0.6c1.7,0,3.2,0.4,4.6,1.3c1.3,0.8,2.3,2.5,2.7,4.9c0.4,2.5,0.5,6.5,0.5,11.8c0,1.8,0,3.7,0,5.8
			c0,2.1-0.1,4.2-0.2,6.5c3.4-0.2,6.7-0.5,10-0.6c3.3-0.2,6.5-0.4,9.8-0.6c4.8-0.4,9.6-0.7,14.4-1c4.8-0.3,9.3-0.6,13.7-0.9
			c4.4-0.3,8.4-0.5,12.2-0.6c3.8-0.1,7.2-0.2,10.1-0.2c5.4,0,9.4,0.4,11.8,1.1c1.5,0.6,2.4,1.4,3,2.4c0.5,1,0.7,2,0.4,3
			c-0.3,1-1.1,1.8-2.3,2.4c-1.2,0.7-2.8,0.8-4.9,0.5c-1.8-0.2-3.9-0.5-6.2-0.6c-2.3-0.2-4.7-0.3-7.3-0.3c-7.3,0-15.8,0.4-25.6,1.2
			c-9.8,0.8-20,1.6-30.7,2.4l-9.1,0.9l-1.3,27.9c-0.6,10.8-1.3,21.6-1.9,32.6c-0.6,10.9-1,21-1,30c0,4.6,0.1,8.8,0.2,12.7
			c0.1,3.9,0.4,7.2,0.7,9.9c0.4,2.7,0.8,4.8,1.4,6.3c0.5,1.5,1.2,2.2,1.9,2.1c1.7-0.2,3.5-2.3,5.5-6.1c2-3.8,4-8.3,6-13.3
			c2-5.1,3.8-10.3,5.5-15.7c1.7-5.4,3.1-9.8,4.2-13.1c0.2-0.8,0.5-1.7,0.8-2.6c0.3-0.9,0.6-1.8,0.8-2.6c0.4-0.8,1.2-1.4,2.5-1.6
			c1.3-0.2,2.7-0.2,4.2,0c1.5,0.2,2.7,0.7,3.6,1.3c1,0.6,1.3,1.3,0.9,2c-0.5,0.7-0.9,2.1-1.3,4c-0.5,2.3-1.2,5.3-2.1,9
			c-0.9,3.7-2.1,7.6-3.4,11.7c-1.4,4.1-3.1,8.3-5,12.4c-1.9,4.2-4.2,7.9-6.8,11.2c-2.6,3.3-5.6,6-9,8.1c-3.4,2.1-7.1,3-11.2,2.9
			c-4.1-0.1-7.5-1.9-10.2-5.3c-2.7-3.4-4.9-7.9-6.5-13.5c-1.6-5.6-2.8-12.2-3.4-19.7c-0.7-7.5-1-15.4-1-23.6c0-11,0.5-22.2,1.4-33.7
			c0.9-11.5,1.9-22,2.8-31.6c-10.4,0.7-19.9,1.1-28.3,1.1c-3.9,0-7.4-0.1-10.5-0.2c-3.1-0.1-5.9-0.5-8.2-1.1h0.4
			c-3.1-0.6-5.6-1.6-7.3-3c-1.7-1.4-2.5-2.7-2.5-4.1c0-1.5,0.9-2.5,2.8-3.3C1038.5,468.9,1041.4,468.9,1045.4,469.6z"/>
		<path class="st2" d="M1166.7,513c5,0,9.2,0.5,12.7,1.6c3.5,1.1,6.4,2.4,8.6,4.1c2.2,1.6,4,3.4,5.3,5.4c1.3,2,2.2,4,2.8,6
			s0.9,3.9,1,5.6c0.1,1.8,0,3.2-0.1,4.3c-1.2,7.1-3.4,13-6.4,17.5c-3.1,4.5-6.6,8.1-10.5,10.6c-3.9,2.5-8.1,4.3-12.4,5.3
			c-4.4,1-8.4,1.5-12.2,1.5c-3.4,0-6.2-0.2-8.3-0.5v1.1c0,4,0.3,7.8,0.8,11.5c0.5,3.7,1.4,6.8,2.5,9.6c1.1,2.7,2.6,4.9,4.4,6.6
			c1.7,1.6,3.8,2.5,6.1,2.5c5-0.2,9.6-1.4,13.9-3.4c4.3-2.1,8.2-4.7,11.8-7.8c3.6-3.1,6.8-6.6,9.7-10.5c2.9-3.9,5.4-7.7,7.6-11.6
			c2.2-3.9,4.1-7.6,5.6-11.1c1.6-3.5,2.8-6.4,3.8-8.7l1.6-3.8c0.6-0.8,1.6-1.5,2.9-2c1.3-0.5,2.6-0.7,3.9-0.7c1.3,0,2.3,0.4,3.2,1.1
			c0.8,0.7,1.2,1.9,1.1,3.6c-0.4,2.1-1.3,5.1-2.7,9.2c-1.5,4.1-3.5,8.6-6.2,13.5c-2.7,5-5.8,10-9.5,15.1c-3.7,5.1-7.9,9.8-12.5,14.1
			c-4.7,4.3-9.8,7.7-15.4,10.4c-5.6,2.7-11.6,4-18,3.8c-5.9-0.1-11-1-15.2-2.7c-4.2-1.7-7.8-3.8-10.7-6.3c-2.9-2.5-5.2-5.4-7-8.5
			c-1.8-3.1-3.1-6.1-4-9c-0.9-2.8-1.5-5.4-1.8-7.6c-0.3-2.2-0.5-3.8-0.5-4.8v-1.5c0-1.8,0.1-4.6,0.3-8.4c0.2-3.8,0.7-8.1,1.5-12.8
			c0.8-4.7,2.2-9.6,4-14.6c1.8-5,4.4-9.6,7.6-13.7c3.3-4.1,7.4-7.5,12.4-10.1C1153.3,514.1,1159.5,512.8,1166.7,513z M1171.1,522.6
			c-3.3,0.6-6.3,2.3-9.1,5.1c-2.8,2.8-5.2,6.3-7.3,10.6c-2.1,4.3-3.7,9-5,14.2c-1.3,5.2-2.2,10.5-2.6,15.8c0.7,0,1.4,0,2.1,0.1
			c0.7,0.1,1.5,0.1,2.4,0.1c2.5,0,5.3-0.4,8.3-1.2c3-0.8,5.9-2.2,8.7-4.3c2.8-2.1,5.1-4.9,7.1-8.4c1.9-3.6,3.1-8.2,3.4-13.9
			c0.1-1.8,0-3.8-0.3-5.9c-0.3-2.1-0.8-4.1-1.5-5.8c-0.7-1.8-1.6-3.2-2.6-4.4C1173.8,523.4,1172.5,522.7,1171.1,522.6z"/>
		<path class="st2" d="M1262.7,515.5c5.9,0.4,11,1.6,15.2,3.6c4.2,2.1,7.7,4.7,10.5,7.8c2.8,3.1,4.8,6.8,6.2,10.9
			c1.3,4.1,2,8.4,2,12.9c0,1.2-0.1,2.4-0.2,3.7c-0.1,1.3-0.3,2.5-0.5,3.7c3.7-1.7,7-3.7,9.9-6.2c2.8-2.4,5-5.4,6.6-8.9
			c0.6-1.3,1.7-2.3,3.3-3c1.6-0.7,3.1-1,4.7-1c1.7,0,3.2,0.4,4.4,1.3c1.3,0.8,1.6,2.1,1,3.8c-2.8,6.8-7.2,12.2-13.1,16.1
			c-6,4-12.6,7.2-19.9,9.6c-1.7,4.4-3.9,8.5-6.5,12.4c-2.7,3.9-5.8,7.4-9.4,10.5c-3.6,3.1-7.6,5.7-12.1,7.7c-4.4,2.1-9.2,3.4-14.2,4
			c-2.5,0.4-5,0.5-7.3,0.5c-4.6,0-8.2-0.5-10.9-1.6c1.3,11.1,3.4,22,6.1,32.7c2.7,10.6,6.6,20.1,11.5,28.3c1.6,2.5,1.8,4.5,0.8,6
			c-1,1.5-2.9,2.2-5.5,2.2c-1.7,0-3.8-0.5-6.3-1.4c-2.5-0.9-4.7-2.1-6.8-3.5c-4.1-3.4-7.6-8.7-10.3-16c-2.8-7.3-5-15.6-6.6-24.9
			c-1.6-9.4-2.8-19.2-3.5-29.6s-1.1-20.3-1.1-29.8c0-6.3,0.1-12.3,0.4-18c0.2-5.7,0.5-10.8,0.9-15.2c0.4-4.5,0.8-8.2,1.2-11.1
			c0.4-2.9,0.8-4.8,1.2-5.6c1.1-2.1,2.6-3.6,4.5-4.5c1.9-1,3.8-1.5,5.6-1.5c2.3,0,4.3,0.8,6.1,2.5c1.7,1.7,2.4,4.2,1.9,7.6l-0.7,7.3
			c1.3-1.8,2.9-3.6,4.8-5.3c1.9-1.7,4.1-3.2,6.6-4.4c2.5-1.3,5.4-2.3,8.7-3C1255.1,515.5,1258.7,515.3,1262.7,515.5z M1230.2,564.7
			c0,1.9,0,3.9,0,5.9c0,2,0.1,4,0.2,6.1c3.7-2.8,8.6-4.8,14.5-6.2c5.9-1.3,12.3-2.7,19-4c2.1-0.4,4.1-0.7,6-1c1.9-0.3,3.9-0.7,6-1.2
			l0.5-1.5c0.4-3,0.5-6,0.5-8.9c0-8.5-1.9-15.1-5.8-20c-3.9-4.9-9.4-7-16.7-6.4c-3.1,0.2-6,1.3-8.4,3.1c-2.5,1.8-4.6,4-6.4,6.4
			c-1.8,2.5-3.4,5.1-4.7,7.8c-1.3,2.7-2.4,5.1-3.3,7.2c-0.2,0.6-0.5,1.2-0.7,1.7c-0.2,0.5-0.5,1.1-0.7,1.5V564.7z M1251.6,594.6
			c2.1-0.5,4-1.4,5.9-2.6c1.9-1.3,3.7-2.8,5.4-4.5c1.7-1.8,3.3-3.7,4.7-5.7c1.5-2.1,2.7-4.1,3.8-6.2l-5.6,1.1
			c-4,0.8-7.7,1.7-11.2,2.4c-3.4,0.8-6.4,1.7-9,2.6c-2.5,1-4.5,2.1-6,3.4c-1.5,1.3-2.2,2.8-2.2,4.4c0,1.3,0.7,2.6,2.1,3.9
			c1.4,1.3,3.6,1.9,6.6,1.9C1247.9,595.3,1249.7,595.1,1251.6,594.6z"/>
		<path class="st2" d="M1328.3,489.6c1.9-0.5,3.5-0.6,4.7-0.5c1.2,0.2,2.2,0.5,2.9,1.1c0.7,0.5,1.2,1.3,1.5,2.2
			c0.3,0.9,0.5,1.8,0.5,2.8c0,3-0.8,5.4-2.5,7.1c-0.6,0.6-1.4,1.6-2.4,3c-1,1.4-2.1,3.2-3.1,5.4c-1,2.2-1.9,4.8-2.7,7.9
			c-0.8,3.1-1.2,6.6-1.2,10.6c0,4.8,0.8,10.4,2.4,16.7v-0.2l11.8,30.7c4.8-4.4,9.9-9.3,15.2-14.8c5.3-5.5,9.8-11.2,13.4-17
			c1-1.6,2-2.6,3.2-3.2c1.1-0.5,2.2-0.7,3.1-0.4c0.9,0.3,1.5,1.1,1.9,2.3c0.4,1.2,0.3,2.8-0.2,4.7c-1.5,3.3-3.3,6.5-5.5,9.6
			c-2.2,3.1-4.7,6.2-7.3,9.3c-2.6,3-5.4,5.9-8.3,8.6c-2.9,2.7-5.7,5.3-8.5,7.9l-3.3,2.9c1.7,4.7,3.2,8.9,4.6,12.7
			c1.4,3.7,2.2,6.3,2.4,7.6c0.6,3.4,0.9,6.2,0.9,8.5c0,3.5-0.5,6.4-1.5,8.8c-1,2.4-2.4,4.3-4.3,5.7c-1.8,1.5-3.9,2.5-6.2,3.1
			c-2.3,0.6-4.7,0.9-7.3,0.9c-8.3,0.2-14.3-1.1-18-4.1c-3.6-3-5.4-7-5.4-12.2c0-1,0.1-2.1,0.2-3.3c0.1-1.2,0.4-2.4,0.7-3.4
			c1-3.9,2.8-7.6,5.6-11.2c2.8-3.6,6.1-7.2,10-10.7c-1.5-3.9-3-7.7-4.6-11.6c-1.6-3.9-3.2-7.5-4.8-10.9c-1.6-3.4-3-6.4-4.3-9.2
			c-1.3-2.7-2.3-4.9-3.2-6.6c-0.5-1-0.9-1.8-1.3-2.6c-0.4-0.8-0.4-1.1-0.2-0.8c-1-3.1-1.6-6.2-2-9.2c-0.4-3-0.5-5.8-0.5-8.6
			c0-6.8,1.1-12.6,3.2-17.4c2.1-4.8,4.5-8.9,7.3-12.1c2.7-3.2,5.3-5.6,7.8-7.2c2.5-1.6,4.1-2.5,4.8-2.7L1328.3,489.6z M1332.9,617.8
			c0-4.7-1-10.5-3.1-17.2c-1.3,1.8-2.5,3.6-3.5,5.4c-1,1.8-1.7,3.7-2.1,5.6c-0.5,1.7-0.8,3.2-1,4.6s-0.3,2.6-0.3,3.5
			c0,3.6,0.7,5.8,2.2,6.6c1.5,0.8,2.7,1,3.8,0.6C1331.5,626.1,1332.9,623,1332.9,617.8z"/>
	</g>
	<g>
		<path class="st1" d="M1083.4,700.9c7.9-0.3,14.8,0.2,20.6,1.6c5.9,1.3,10.9,3.2,15.2,5.6c4.3,2.4,7.8,5.2,10.7,8.3
			c2.9,3.1,5.2,6.5,6.9,9.9c1.7,3.5,3,6.9,3.9,10.4c0.9,3.5,1.5,6.7,1.8,9.6c0.3,3,0.5,5.5,0.5,7.7c0,2.2,0,3.7,0,4.6
			c0,7.1-1.1,13.5-3.2,19c-2.2,5.5-5,10.4-8.7,14.6c-3.6,4.2-7.8,7.7-12.5,10.6c-4.7,2.9-9.5,5.4-14.5,7.3
			c3.1,6.8,6.5,13.6,10.2,20.6c3.7,7,7.7,13.5,11.9,19.5c4.2,6.1,8.7,11.4,13.5,16.1c4.7,4.7,9.7,8.1,14.9,10.3
			c1.6,0.8,2.6,1.4,3.1,2c0.5,0.6,0.5,1,0.1,1.4c-0.4,0.4-1.2,0.7-2.3,0.9c-1.1,0.2-2.5,0.4-4.1,0.4c-1.6,0-3.4-0.2-5.3-0.6
			c-1.9-0.4-3.8-1-5.7-2c-5.4-2.9-10.7-6.7-15.7-11.3c-5-4.6-9.8-9.8-14.3-15.5c-4.5-5.7-8.7-11.7-12.6-18s-7.4-12.6-10.5-18.8
			c-1.8,0.4-3.5,0.7-5.1,0.9c-1.6,0.2-3.3,0.4-4.9,0.6c0,5.1,0,9.9-0.1,14.4c-0.1,4.5-0.1,8.5-0.1,12c-0.1,3.5-0.1,6.3-0.3,8.5
			c-0.1,2.2-0.4,3.6-0.6,4.2c-0.8,1.7-2.4,3-4.8,3.8c-2.4,0.8-4.8,1.3-7.3,1.3c-2.8,0-5.3-0.6-7.3-1.7c-2.1-1.1-2.9-2.7-2.4-4.8
			c1-4.8,1.9-10.5,2.6-17.2c0.7-6.7,1.3-13.8,1.8-21.4c-4.2-0.9-8.2-2.3-11.8-4c-3.7-1.7-6.9-3.8-9.6-6.1c-2.8-2.3-5-5-6.6-8
			c-1.6-3-2.4-6.1-2.5-9.5c0.2-4.1,1.3-7.9,3.4-11.3c2.1-3.4,4.7-6.3,7.8-8.9c3.1-2.5,6.6-4.6,10.5-6.3c3.8-1.7,7.6-3,11.3-3.8
			c0.5-8.2,1-15.5,1.7-21.9c0.7-6.4,1.6-11.3,3-14.7c0.8-2,2.2-3.4,4.3-4.4c2.1-0.9,4.2-1.4,6.3-1.4c2.2,0,3.9,0.4,5.1,1.3
			c1.3,0.8,1.5,2.2,0.6,3.9c-0.6,1.4-1.1,3.3-1.5,5.6c-0.4,2.3-0.8,5.1-1.2,8.2c-0.4,3.1-0.7,6.6-0.9,10.5
			c-0.2,3.9-0.4,7.9-0.6,12.1c4.5,0.6,8.3,1.5,11.3,2.8c3,1.3,5.4,2.8,7.1,4.4c1.7,1.6,2.9,3.2,3.5,4.9c0.6,1.6,0.9,3,0.8,4.2
			c-0.2,1.5-0.9,2.7-2,3.6c-1.2,0.9-2.4,1.5-3.7,2c-1.3,0.4-2.5,0.6-3.6,0.6c-1.1,0-1.7-0.4-1.8-0.9c0.1-0.5,0.2-1,0.2-1.6
			c0-0.6,0.1-1.1,0.1-1.6c0-2.7-0.9-5.1-2.7-7.3c-1.8-2.1-4.9-3.4-9.2-4c-0.2,7.3-0.3,14.8-0.4,22.4c-0.1,7.6-0.1,15.1-0.1,22.4
			c7.7-1,14.2-2.6,19.5-4.9c5.3-2.2,9.7-4.7,13.2-7.6c3.5-2.9,6.3-5.9,8.2-9.2c2-3.2,3.5-6.4,4.4-9.4c1-3,1.5-5.7,1.7-8.2
			c0.1-2.4,0.2-4.3,0.2-5.6v-1.4c0.2-8.3-0.4-15.4-1.7-21.3c-1.3-6-3.1-11-5.4-15.1c-2.3-4.1-4.9-7.4-7.9-9.9c-3-2.5-6-4.4-9-5.7
			c-3.1-1.3-6-2.1-8.9-2.5s-5.4-0.4-7.5-0.4c-6.9,0.8-12.6,2-17.3,3.9c-4.6,1.8-8.4,3.8-11.3,5.9c-2.9,2.1-5.1,4.2-6.6,6.3
			c-1.5,2.1-2.6,3.7-3.2,4.8c-0.2,0.3-0.4,0.6-0.5,0.8c-0.1,0.3-0.3,0.5-0.5,0.7c-0.2,0.3-0.3,0.5-0.4,0.6h0.1
			c-0.6,0.3-1.3,0.6-2.2,0.8c-0.9,0.3-1.8,0.4-2.7,0.4c-0.9,0-1.8-0.3-2.5-0.8c-0.8-0.5-1.3-1.4-1.6-2.6c-0.1-0.6,0.2-1.6,0.9-3.2
			c0.7-1.6,1.9-3.3,3.5-5.3c1.6-2,3.7-4,6.2-6.2c2.5-2.2,5.6-4.2,9.2-6.1c3.6-1.9,7.7-3.5,12.4-4.7
			C1072.3,701.9,1077.6,701.1,1083.4,700.9z M1060.9,765.3c-4.5,1-8.1,2.5-10.6,4.5c-2.6,2-4.6,4.1-6,6.3c-1.4,2.2-2.4,4.4-2.8,6.5
			c-0.5,2.1-0.8,3.8-1,5.1c-0.3,2.7,0.1,5.2,1.2,7.3c1.1,2.2,2.5,4.1,4.4,5.7s3.9,3,6.3,4.2c2.3,1.1,4.6,2,6.9,2.7
			c0.2-4.2,0.4-8.4,0.6-12.6c0.2-4.2,0.4-8.3,0.6-12.3L1060.9,765.3z"/>
		<path class="st1" d="M1147.2,784.5c0-0.4,0-0.6,0.1-0.7c0-1.4,0.9-2.6,2.7-3.7c1.8-1.1,3.8-1.6,5.9-1.6c1.6,0,3.1,0.4,4.4,1.3
			c1.4,0.8,2.2,2.2,2.6,4.1c0.3,1.3,0.4,2.7,0.5,4.3c0,1.5,0.1,3.2,0.1,5c0,3.1-0.1,6.4-0.3,10c-0.2,3.6-0.4,7.1-0.7,10.7
			c-0.2,3.6-0.4,7-0.5,10.4c-0.1,3.3-0.2,6.5-0.2,9.4c0,4.5,0.2,8.2,0.7,11.1c0.5,2.9,1.5,4.2,3,4c0.8-0.2,1.8-1.2,3-3.2
			c1.1-1.9,2.3-4.4,3.6-7.5c1.3-3.1,2.5-6.5,3.8-10.4c1.3-3.9,2.5-7.7,3.7-11.5c1.2-3.8,2.4-7.5,3.5-11c1.1-3.5,2-6.5,2.7-9.1
			l1.8-6.1c0.4-1,1.1-1.7,2-2c1-0.3,1.9-0.4,2.9-0.3s1.8,0.5,2.5,1.1c0.8,0.6,1.1,1.4,1.1,2.3c0,2.1-0.4,5.1-1.1,9.1
			c-0.7,4-1.7,8.4-3,13.1c-1.3,4.7-3,9.6-4.9,14.5c-2,4.9-4.2,9.4-6.8,13.4c-2.6,4-5.4,7.3-8.5,9.9c-3.1,2.6-6.5,3.9-10.1,3.9
			c-3.3-0.4-6-1.7-8.2-3.9c-2.2-2.3-4-5.1-5.4-8.5c-1.4-3.4-2.3-7.3-2.9-11.5c-0.6-4.2-0.8-8.5-0.8-13c0-3.8,0.1-7.5,0.4-11.1
			c0.2-3.7,0.5-7,0.8-10.1c0.3-3,0.7-5.7,1-7.8C1146.9,786.8,1147.1,785.3,1147.2,784.5z M1146.8,765.3c0-2.7,0.9-5,2.6-6.9
			c1.7-1.9,3.8-2.8,6.3-2.8c2.3,0,4.4,0.9,6.1,2.8c1.7,1.9,2.6,4.2,2.6,6.9c0,2.7-0.9,5-2.6,7c-1.7,1.9-3.8,2.9-6.1,2.9
			c-2.4,0-4.5-1-6.3-2.9C1147.6,770.4,1146.8,768,1146.8,765.3z"/>
		<path class="st1" d="M1215.5,769.8c2.7,0,5,0.5,6.8,1.5c1.8,1,3.4,2.2,4.7,3.7c0.4-4.9,0.8-9.6,1.3-14.1c0.5-4.5,0.9-8.7,1.3-12.5
			c0.4-3.9,0.8-7.2,1.3-10.1c0.4-2.9,0.7-5.2,0.9-6.8c0.2-0.7,0.3-1.2,0.3-1.6c0-0.4,0-0.6,0-0.5c0-0.5,0.2-1,0.7-1.5
			c0.5-0.6,1.1-1.1,1.8-1.6c0.8-0.5,1.6-0.9,2.5-1.3s1.9-0.5,2.8-0.5c1.3,0,2.5,0.4,3.5,1.1s1.7,1.9,2.1,3.7
			c0.3,2.2,0.4,5.4,0.4,9.6c0,4.5-0.1,9.7-0.4,15.7s-0.7,12.3-1.1,18.9c-0.5,7.6-0.9,15.2-1.3,22.7c-0.4,7.6-0.6,14.4-0.6,20.6
			c0,6.4,0.2,11.5,0.6,15.5c0.4,3.9,1.2,5.8,2.5,5.6c1.2-0.2,2.6-1.8,4.1-4.9c1.5-3.1,3-6.8,4.4-11.1c1.5-4.3,2.8-8.6,4.1-13.1
			c1.3-4.5,2.3-8.2,3.2-11.2l1.6-5.5c0.3-0.7,0.9-1.1,2-1.3c1-0.2,2.1-0.2,3.2,0c1.1,0.2,2,0.5,2.7,1c0.8,0.5,1,1,0.7,1.6
			c0,0.1-0.1,0.5-0.2,1.3c-0.1,0.8-0.3,1.6-0.5,2.5c-0.5,2.4-1.1,5.3-1.8,8.7c-0.8,3.5-1.7,7.1-2.8,10.9s-2.5,7.6-4.1,11.4
			c-1.6,3.8-3.4,7.2-5.4,10.1c-2,3-4.3,5.3-6.9,7.1c-2.6,1.8-5.5,2.6-8.7,2.4c-3.9-0.2-6.9-2.3-9-6.4s-3.8-9.4-4.8-15.8
			c-0.8,1.8-1.6,3.6-2.6,5.4c-1,1.8-2.1,3.4-3.5,4.9c-1.3,1.5-2.8,2.7-4.4,3.7c-1.6,1-3.5,1.6-5.6,1.8c-5.6,0.5-10.3-0.3-13.9-2.2
			c-3.7-1.9-6.5-4.5-8.7-7.7c-2.1-3.2-3.6-6.7-4.4-10.4c-0.8-3.8-1.3-7.3-1.3-10.6c0-1.1,0-2.2,0.1-3.2c0-1,0.2-1.9,0.4-2.7
			c0-0.2,0-0.4,0.1-0.6c0-0.2,0.1-0.4,0.1-0.6c0.2-1.3,0.5-3.1,0.9-5.3c0.4-2.2,1.1-4.6,1.9-7c0.8-2.5,2-5,3.5-7.5
			c1.5-2.5,3.3-4.8,5.6-6.9c2.3-2.1,5.1-3.7,8.3-5C1207.1,770.5,1211,769.8,1215.5,769.8z M1225.9,802.3c0-3,0-6.1,0.1-9.2
			c0.1-3.1,0.2-6.2,0.4-9.3c-0.7-1.6-1.8-3.1-3.4-4.6c-1.6-1.5-3.7-2.2-6.2-2.1c-1.5,0.1-3.1,0.8-4.9,2.3c-1.8,1.4-3.5,3.3-5,5.7
			c-1.6,2.4-2.8,5.2-3.9,8.5c-1,3.2-1.5,6.7-1.3,10.4c0.1,6.7,0.5,12,1.3,16c0.8,4,1.6,7.2,2.5,9.4c0.9,2.2,1.9,3.7,2.8,4.4
			c0.9,0.8,1.7,1.2,2.3,1.3c1.5,0.3,3-0.2,4.6-1.5c1.6-1.3,3-3,4.4-5.1c1.4-2.2,2.6-4.6,3.7-7.2c1.1-2.6,2.1-5.2,2.8-7.6
			c-0.2-1.8-0.3-3.6-0.3-5.5C1225.9,806.2,1225.9,804.3,1225.9,802.3z"/>
		<path class="st1" d="M1285.8,766.7c3.9,0,7.1,0.4,9.9,1.3c2.7,0.8,5,1.9,6.7,3.2c1.7,1.3,3.1,2.7,4.1,4.2c1,1.5,1.7,3.1,2.2,4.6
			c0.5,1.6,0.7,3,0.8,4.4s0,2.5-0.1,3.3c-0.9,5.5-2.6,10.1-5,13.6c-2.4,3.5-5.1,6.3-8.2,8.2c-3.1,2-6.3,3.3-9.6,4.1
			c-3.4,0.8-6.5,1.1-9.4,1.1c-2.6,0-4.8-0.1-6.5-0.4v0.8c0,3.1,0.2,6.1,0.6,8.9s1.1,5.3,2,7.4c0.9,2.1,2,3.8,3.4,5.1
			c1.4,1.3,2.9,1.9,4.7,1.9c3.8-0.2,7.4-1.1,10.8-2.7c3.3-1.6,6.4-3.6,9.2-6.1c2.8-2.4,5.3-5.2,7.5-8.2c2.3-3,4.2-6,5.9-9
			c1.7-3,3.1-5.9,4.4-8.6c1.2-2.7,2.2-5,3-6.8l1.3-3c0.5-0.7,1.2-1.2,2.3-1.5c1-0.4,2-0.6,3-0.6c1,0,1.8,0.3,2.5,0.8
			c0.7,0.6,0.9,1.5,0.8,2.8c-0.3,1.6-1,4-2.1,7.1c-1.1,3.1-2.7,6.6-4.8,10.5c-2.1,3.9-4.5,7.8-7.4,11.8c-2.9,4-6.1,7.6-9.7,11
			c-3.6,3.3-7.6,6-12,8.1c-4.4,2.1-9,3.1-14,3c-4.6-0.1-8.5-0.8-11.8-2.1c-3.3-1.3-6.1-3-8.3-4.9c-2.3-2-4.1-4.2-5.4-6.6
			c-1.4-2.4-2.4-4.8-3.1-7c-0.7-2.2-1.2-4.2-1.4-5.9c-0.2-1.7-0.4-3-0.4-3.7v-1.1c0-1.4,0.1-3.6,0.2-6.5c0.1-3,0.5-6.3,1.2-9.9
			c0.7-3.7,1.7-7.4,3.1-11.3c1.4-3.9,3.4-7.4,5.9-10.6c2.5-3.2,5.8-5.8,9.6-7.8C1275.4,767.6,1280.1,766.6,1285.8,766.7z
			 M1289.2,774.2c-2.5,0.5-4.9,1.8-7,3.9c-2.2,2.2-4,4.9-5.6,8.2c-1.6,3.3-2.9,7-3.9,11.1c-1,4-1.7,8.1-2,12.3c0.6,0,1.1,0,1.6,0.1
			c0.5,0,1.1,0.1,1.9,0.1c2,0,4.1-0.3,6.5-0.9c2.4-0.6,4.6-1.7,6.8-3.3c2.2-1.6,4-3.8,5.5-6.5c1.5-2.8,2.4-6.4,2.7-10.8
			c0.1-1.4,0-2.9-0.2-4.6c-0.2-1.6-0.6-3.1-1.2-4.5c-0.6-1.4-1.2-2.5-2-3.4C1291.2,774.8,1290.3,774.3,1289.2,774.2z"/>
		<path class="st1" d="M1409.4,787c0-0.4,0-0.6,0.1-0.7c0.1-0.5,0.4-1,1.1-1.6c0.6-0.6,1.4-1.2,2.3-1.7c0.9-0.5,1.9-0.9,3-1.3
			c1.1-0.3,2.3-0.5,3.4-0.5c1.5,0,2.8,0.4,4,1.1c1.2,0.7,1.9,1.9,2.2,3.7c0.4,1.9,0.6,4.4,0.6,7.6c0,3.4-0.2,7.1-0.5,11.1
			s-0.7,8-1.2,12.2c-0.4,3.9-0.7,7.7-1.1,11.3s-0.5,6.9-0.5,9.8c0,3,0.2,5.5,0.7,7.4c0.5,1.9,1.3,2.8,2.4,2.6c0.8-0.1,1.9-1.1,3-3
			c1.2-1.9,2.4-4.4,3.7-7.3c1.3-3,2.6-6.3,4-9.9c1.4-3.7,2.7-7.3,3.9-11c1.3-3.7,2.5-7.1,3.5-10.4c1.1-3.3,2-6,2.7-8.2l1.4-4.6
			c0.3-0.7,0.9-1.1,2-1.3c1-0.2,2.1-0.2,3.2,0c1.1,0.2,2.1,0.5,2.8,1c0.8,0.5,1,1,0.7,1.5v-0.3l-1.1,3.9c-0.6,2.5-1.4,5.7-2.4,9.5
			c-1,3.8-2.3,7.8-3.8,12.1c-1.5,4.3-3.2,8.6-5.1,12.9c-1.9,4.3-4,8.2-6.3,11.6c-2.3,3.4-4.9,6.2-7.7,8.3c-2.8,2.1-5.7,3.1-8.8,3
			c-2.1-0.3-3.9-1.1-5.4-2.4c-1.6-1.3-2.9-3-4-4.9c-1.1-2-2.1-4.2-2.9-6.8c-0.8-2.6-1.4-5.3-1.8-8.2c-1.3,2.4-3.1,4.7-5.4,6.7
			c-2.3,2-5.1,3.3-8.4,3.7c-6.5,0.4-11.6-0.6-15.3-3c-3.7-2.3-6.5-5.3-8.3-8.7c-1.8-3.5-3-7.2-3.4-11.1c-0.5-3.9-0.8-7.3-0.8-10.1
			c0-1.9,0.1-4.3,0.4-7.3c0.2-3,0.8-6.1,1.6-9.5c0.8-3.4,2-6.8,3.5-10.2c1.5-3.4,3.4-6.5,5.8-9.4c2.4-2.8,5.3-5.1,8.8-7
			c3.5-1.8,7.6-2.8,12.3-3c3.8-0.1,6.8,0.2,9.2,1s4.3,1.7,5.7,2.8c1.4,1.1,2.4,2.3,3.1,3.5c0.7,1.2,1.1,2.3,1.4,3.2l0.4,1.4v-0.1
			c0.8,1.6,0.6,2.8-0.4,3.7c-1,0.8-2.3,1.3-3.9,1.3c-0.9,0-1.9-0.2-3-0.6c-1-0.4-1.9-1.1-2.7-1.9c-0.5-0.4-0.7-0.7-0.7-0.8
			c0-0.2-0.1-0.4-0.3-0.7c-0.5-1-1.2-2.2-2.3-3.5c-1.1-1.3-2.8-1.9-5.3-1.8c-1.4,0.1-2.9,1-4.6,2.8c-1.6,1.8-3.2,4.3-4.6,7.6
			s-2.7,7.3-3.9,11.9c-1.1,4.6-1.9,9.9-2.3,15.8c0,0.6,0,1.3-0.1,2.3c0,0.9-0.1,1.6-0.1,2.1c0,5.5,0.4,9.7,1.3,12.6
			c0.8,2.9,1.8,4.9,3,6.2c1.1,1.3,2.3,1.9,3.4,2c1.1,0.1,2,0.1,2.5,0.1c1.1,0,2.3-0.6,3.5-1.7c1.2-1.1,2.4-2.5,3.5-4.2
			c1.1-1.6,2.1-3.4,3-5.4c0.9-1.9,1.8-3.7,2.5-5.3c0-3.6,0.1-7.1,0.3-10.5c0.2-3.4,0.4-6.6,0.7-9.5c0.3-2.9,0.6-5.4,0.8-7.5
			C1409,789.5,1409.2,787.9,1409.4,787z"/>
		<path class="st1" d="M1526.7,766.6c4.4,0.3,8.2,1.3,11.3,3.2c3.2,1.8,5.7,4.2,7.7,7.1c2,2.9,3.4,6.3,4.4,10.1
			c0.9,3.8,1.4,7.8,1.4,11.9c0,0.8,0,1.5-0.1,2.3c-0.1,0.8-0.1,1.5-0.1,2.4c3-1.4,5.7-3.1,8-5.1c2.3-2,4.2-4.4,5.5-7.3
			c0.4-0.8,1.1-1.4,2-1.7c1-0.3,2-0.4,3-0.2c1,0.1,1.8,0.5,2.5,1.2c0.7,0.7,0.9,1.5,0.6,2.4c-0.8,2.5-1.9,4.8-3.3,6.7
			c-1.5,1.9-3.2,3.6-5.2,5.1c-2,1.5-4.3,2.8-6.8,3.9c-2.5,1.1-5,2.1-7.7,3c-1,4.7-2.5,9.2-4.3,13.5c-1.8,4.3-4,8.1-6.6,11.4
			c-2.5,3.3-5.3,5.9-8.4,8c-3.1,2-6.2,3-9.5,3c-3.3-0.3-6.1-0.9-8.5-1.8s-4.4-2-6-3.3c-1.7-1.3-2.9-2.8-3.8-4.6
			c-0.9-1.7-1.5-3.5-1.8-5.4c-1.6,1.6-3.6,2.4-5.9,2.4c-1.6,0-3.2-0.5-4.7-1.5s-2.6-2.5-3.4-4.4c-0.3-0.8-0.5-2.3-0.8-4.3
			c-0.2-2-0.5-4.5-0.7-7.3c-0.2-2.9-0.4-6.1-0.5-9.6c-0.1-3.6-0.1-7.4-0.1-11.4c0-6.8,0.2-13.8,0.6-21.2c0.4-7.4,1.1-14.4,2.2-21.1
			c1-6.7,2.4-12.7,4.2-18c1.7-5.3,4-9.1,6.7-11.6c1.5-1.3,3.1-2.3,4.9-3c1.7-0.7,3.3-1,4.7-1c1.6,0,2.9,0.3,3.9,1
			c1,0.7,1.5,1.6,1.5,2.8c0,0.5-0.1,1-0.3,1.7c-0.2,0.7-0.6,1.4-1.1,2.1c-1,1.6-1.9,3.9-2.7,7c-0.8,3.1-1.4,6.6-1.9,10.6
			c-0.5,4-0.9,8.4-1.3,13.1c-0.3,4.7-0.6,9.6-0.8,14.4c2.1-2.1,4.8-3.8,8.1-5.1C1517,766.7,1521.4,766.2,1526.7,766.6z
			 M1504.8,800.7c-0.1,3.9-0.2,7.4-0.3,10.6c-0.1,3.2-0.2,6.1-0.4,8.7c1.2-1.5,2.8-2.8,4.7-3.9c1.9-1.1,4.1-2,6.4-2.9
			c2.3-0.8,4.8-1.6,7.5-2.2s5.4-1.2,8.2-1.9l5.5-1.1c0.1-0.6,0.2-1.1,0.2-1.5c0-0.4,0.2-0.8,0.4-1.2v0.1c0.1-0.5,0.2-1,0.2-1.5
			c0-0.5,0.1-1.1,0.1-1.6c0-2.3-0.3-4.9-1-8.1c-0.7-3.1-1.7-6.1-3.1-8.9c-1.4-2.8-3.2-5.2-5.3-7c-2.1-1.9-4.6-2.7-7.5-2.4
			c-2.5,0.2-4.5,0.9-6.1,2.1c-1.6,1.2-3,2.7-4,4.4c-1,1.7-1.9,3.5-2.5,5.4c-0.7,1.9-1.2,3.6-1.5,5.1c-0.2,0.8-0.4,1.6-0.6,2.3
			c-0.2,0.7-0.5,1.3-0.6,1.8V800.7z M1521.1,839.5c1.7-0.4,3.2-1.3,4.6-2.9c1.4-1.5,2.6-3.4,3.7-5.7c1.1-2.3,2-4.7,2.9-7.4
			c0.8-2.7,1.6-5.2,2.3-7.7c-3.1,0.8-6,1.5-8.9,2.4c-2.8,0.8-5.3,1.8-7.3,3c-2.1,1.1-3.7,2.5-4.8,4c-1.1,1.6-1.5,3.4-1.3,5.6
			c0.1,0.8,0.3,1.7,0.5,2.8c0.2,1.1,0.7,2.2,1.3,3.2c0.7,1,1.5,1.9,2.6,2.5C1517.7,839.9,1519.2,840,1521.1,839.5z"/>
		<path class="st1" d="M1564.5,784.5c0-0.4,0-0.6,0.1-0.7c0-1.4,0.9-2.6,2.7-3.7c1.8-1.1,3.8-1.6,5.9-1.6c1.6,0,3.1,0.4,4.4,1.3
			c1.4,0.8,2.2,2.2,2.6,4.1c0.3,1.3,0.4,2.7,0.5,4.3c0,1.5,0.1,3.2,0.1,5c0,3.1-0.1,6.4-0.3,10c-0.2,3.6-0.4,7.1-0.7,10.7
			c-0.2,3.6-0.4,7-0.5,10.4c-0.1,3.3-0.2,6.5-0.2,9.4c0,4.5,0.2,8.2,0.7,11.1c0.5,2.9,1.5,4.2,3,4c0.8-0.2,1.8-1.2,3-3.2
			c1.1-1.9,2.3-4.4,3.6-7.5c1.3-3.1,2.5-6.5,3.8-10.4c1.3-3.9,2.5-7.7,3.7-11.5c1.2-3.8,2.4-7.5,3.4-11c1.1-3.5,2-6.5,2.8-9.1
			l1.8-6.1c0.4-1,1.1-1.7,2-2c1-0.3,1.9-0.4,2.9-0.3s1.8,0.5,2.5,1.1c0.8,0.6,1.1,1.4,1.1,2.3c0,2.1-0.4,5.1-1.1,9.1
			c-0.7,4-1.7,8.4-3,13.1c-1.3,4.7-3,9.6-4.9,14.5c-2,4.9-4.3,9.4-6.8,13.4c-2.6,4-5.4,7.3-8.5,9.9c-3.1,2.6-6.5,3.9-10.1,3.9
			c-3.3-0.4-6-1.7-8.2-3.9c-2.2-2.3-4-5.1-5.4-8.5c-1.4-3.4-2.3-7.3-2.9-11.5c-0.6-4.2-0.8-8.5-0.8-13c0-3.8,0.1-7.5,0.4-11.1
			c0.2-3.7,0.5-7,0.8-10.1c0.3-3,0.7-5.7,1-7.8C1564.2,786.8,1564.4,785.3,1564.5,784.5z M1564,765.3c0-2.7,0.9-5,2.6-6.9
			c1.7-1.9,3.8-2.8,6.3-2.8c2.3,0,4.4,0.9,6.1,2.8c1.7,1.9,2.6,4.2,2.6,6.9c0,2.7-0.9,5-2.6,7c-1.7,1.9-3.8,2.9-6.1,2.9
			c-2.4,0-4.5-1-6.3-2.9C1564.9,770.4,1564,768,1564,765.3z"/>
		<path class="st1" d="M1654.9,767.4c1.9-0.2,3.3-0.1,4.4,0.4c1,0.4,1.8,1,2.3,1.8c0.5,0.8,0.8,1.7,0.8,2.8s0,2.1-0.1,3.2
			c-0.2,0.5-0.4,1-0.5,1.6c-0.1,0.6-0.4,1.3-0.8,2c-0.8,1.8-1.8,4.1-2.8,6.8c-1,2.8-1.5,5.9-1.5,9.5c0,2.2,0.3,4.5,0.9,7.1
			c0.6,2.6,1.7,5.3,3.2,8.2c2.2,4.4-0.5,5.1-7.9,2c-2-1-3.7-2.6-5.1-4.9c-1.5-2.2-2.6-4.4-3.6-6.7c-1-2.6-1.9-5.5-2.7-8.6
			c-1.1,1.1-2.5,2.7-4.2,4.7c-1.6,2-3.3,4.3-4.9,6.8c-1.6,2.5-3,5.2-4.2,8c-1.2,2.8-1.8,5.6-1.9,8.3c0,1.6,0.4,3.4,1.1,5.4
			c0.8,2,1.9,3.9,3.6,5.6c1.7,1.7,3.7,3.1,6.1,4.2c2.4,1.1,5.3,1.6,8.6,1.4c4.3-0.2,8.2-1.1,11.5-2.9c3.4-1.7,6.4-4.4,9.1-7.9
			c2.7-3.5,5.1-8,7.3-13.4c2.2-5.4,4.4-11.8,6.6-19.2c0.3-0.8,1.1-1.4,2.4-1.6c1.3-0.2,2.7-0.2,4.1,0.1c1.4,0.3,2.6,0.8,3.7,1.5
			c1,0.8,1.4,1.7,1.1,2.8c-1.7,6.2-3.8,12.2-6.3,18s-5.6,11-9.2,15.6c-3.7,4.6-8,8.4-13,11.3c-5,2.9-10.7,4.6-17.2,5.1
			c-6.3-0.1-11.6-1.5-16.1-4.1c-4.4-2.6-8-5.7-10.7-9.3c-0.2,4.2-0.5,6.8-0.8,7.6c-0.8,1.7-1.8,3-3.2,3.8c-1.4,0.8-2.9,1.3-4.5,1.3
			c-1.8,0-3.4-0.5-4.8-1.4c-1.4-0.9-2.5-2.4-3.2-4.5c-0.3-0.7-0.5-1.9-0.6-3.7c-0.1-1.8-0.3-4-0.4-6.7c-0.1-2.7-0.2-5.7-0.3-9.1
			c0-3.4-0.1-7-0.1-10.8c0-5.4,0-11.2,0.1-17.3c0.1-6.1,0.2-12.2,0.4-18.2c0.2-6,0.4-11.8,0.6-17.4s0.5-10.6,0.8-15.1
			c0.3-4.5,0.7-8.1,1-11.1c0.3-2.9,0.7-4.7,1.1-5.5c0.8-1.6,2-2.8,3.5-3.6c1.5-0.8,3-1.2,4.4-1.2c1.7,0,3.2,0.7,4.6,2
			c1.4,1.4,1.9,3.3,1.5,5.8v3.7c0,2.5,0,6,0,10.4c0,4.4,0,9.3,0.1,14.9c0.1,6.8,0.2,14,0.2,21.6c0,7.7,0.1,15.1,0.1,22.5v1
			c2.8-3.9,6-7.9,9.6-12c3.6-4,7-7.7,10.4-11.1c3.4-3.3,6.5-6.1,9.2-8.2C1651.7,768.8,1653.7,767.6,1654.9,767.4z"/>
		<path class="st1" d="M1708.2,766.7c3.8,0,7.1,0.4,9.9,1.3c2.7,0.8,4.9,1.9,6.7,3.2c1.7,1.3,3.1,2.7,4.1,4.2c1,1.5,1.7,3.1,2.2,4.6
			c0.5,1.6,0.7,3,0.8,4.4s0,2.5-0.1,3.3c-0.9,5.5-2.6,10.1-5,13.6c-2.4,3.5-5.1,6.3-8.2,8.2c-3.1,2-6.3,3.3-9.6,4.1
			c-3.4,0.8-6.5,1.1-9.4,1.1c-2.6,0-4.8-0.1-6.5-0.4v0.8c0,3.1,0.2,6.1,0.6,8.9s1.1,5.3,2,7.4c0.9,2.1,2,3.8,3.4,5.1
			c1.4,1.3,2.9,1.9,4.7,1.9c3.9-0.2,7.4-1.1,10.8-2.7c3.3-1.6,6.4-3.6,9.2-6.1c2.8-2.4,5.3-5.2,7.5-8.2c2.3-3,4.2-6,5.9-9
			c1.7-3,3.1-5.9,4.4-8.6c1.2-2.7,2.2-5,3-6.8l1.3-3c0.5-0.7,1.2-1.2,2.3-1.5c1-0.4,2-0.6,3-0.6c1,0,1.8,0.3,2.5,0.8
			c0.7,0.6,0.9,1.5,0.8,2.8c-0.3,1.6-1,4-2.1,7.1c-1.1,3.1-2.7,6.6-4.8,10.5c-2.1,3.9-4.5,7.8-7.4,11.8c-2.9,4-6.1,7.6-9.7,11
			c-3.6,3.3-7.6,6-12,8.1c-4.4,2.1-9,3.1-14,3c-4.6-0.1-8.5-0.8-11.8-2.1c-3.3-1.3-6-3-8.3-4.9c-2.3-2-4.1-4.2-5.4-6.6
			c-1.4-2.4-2.4-4.8-3.1-7c-0.7-2.2-1.2-4.2-1.4-5.9c-0.2-1.7-0.4-3-0.4-3.7v-1.1c0-1.4,0.1-3.6,0.2-6.5c0.1-3,0.5-6.3,1.2-9.9
			c0.7-3.7,1.7-7.4,3.1-11.3c1.4-3.9,3.4-7.4,5.9-10.6c2.5-3.2,5.7-5.8,9.6-7.8C1697.8,767.6,1702.6,766.6,1708.2,766.7z
			 M1711.6,774.2c-2.5,0.5-4.9,1.8-7,3.9c-2.2,2.2-4,4.9-5.6,8.2c-1.6,3.3-2.9,7-3.9,11.1c-1,4-1.7,8.1-2.1,12.3
			c0.6,0,1.1,0,1.6,0.1c0.5,0,1.1,0.1,1.9,0.1c2,0,4.1-0.3,6.5-0.9c2.3-0.6,4.6-1.7,6.8-3.3c2.2-1.6,4-3.8,5.5-6.5
			c1.5-2.8,2.4-6.4,2.7-10.8c0.1-1.4,0-2.9-0.2-4.6c-0.2-1.6-0.6-3.1-1.2-4.5c-0.6-1.4-1.2-2.5-2-3.4
			C1713.7,774.8,1712.8,774.3,1711.6,774.2z"/>
	</g>
	<path class="st1" d="M1560.4,490.2c-6.1,21.7,4.4,43.8,22.2,51.1c17.9,7.3,37.1-2.3,45.2-22.8c7.9-19.9,1.5-44.3-16.2-54.1
		c-8.8-4.9-13.1-12-16.5-21.4c-2.6-7.1-5.1-14.2-7.8-21.3c-6.6-17.9-13.3-35.9-20.1-54l-31-81.8c-16.6-46.2-39.5-105.8-56.4-151.8
		c-1-2.8-2.2-5.9-0.3-8.8c2.6-2.3,2.6-2.3,4.1-2.3c37.2-0.1,77-0.1,114.2,0.2c5.2,0,11.4-1.1,16.1,1.4c14.1,7.5,21,27.9,18.2,45.4
		c-2.9,18.3-16.4,29.6-32.9,32.9c0,0-3,0.4-13.4,2.8c-6.8,1.6-14.6,8.7-15.2,15.9c-0.3,3.2-1.4,8,4.6,14.9c4.7,5.3,17.1,6,19.1,5.7
		c29.5-3.8,52.4-14.5,65.6-32.7c10.7-14.8,19.4-36.4,9.1-70.2c-9.9-32.6-34.9-49.9-65-50.3c-58.4-0.7-97.9,2.5-156.3-0.1
		c-0.6,0-2.7,0.5-5.2,1.4c-8.4,2.8-14.3,10.7-14.6,19.7c-0.1,2,0.1,3.9,0.6,5.1c44.2,118.8,85.1,228.8,129.4,347.5
		C1561.4,471.8,1563.3,479.7,1560.4,490.2z"/>
	<g>
		
			<ellipse transform="matrix(0.4314 -0.9022 0.9022 0.4314 332.7204 1825.2268)" class="st2" cx="1614.3" cy="648.7" rx="30.3" ry="30.3"/>
		
			<ellipse transform="matrix(0.8758 -0.4827 0.4827 0.8758 -88.4571 775.0833)" class="st2" cx="1461.7" cy="559.4" rx="18.1" ry="18.1"/>
		
			<ellipse transform="matrix(0.8758 -0.4827 0.4827 0.8758 -109.3727 796.6947)" class="st2" cx="1493.3" cy="610.9" rx="21.7" ry="21.7"/>
		
			<ellipse transform="matrix(0.8758 -0.4827 0.4827 0.8758 -117.6877 825.8566)" class="st2" cx="1545.8" cy="641.6" rx="24.4" ry="24.4"/>
		<ellipse transform="matrix(0.8758 -0.4827 0.4827 0.8758 -67.4906 761.6807)" class="st2" cx="1446.2" cy="512" rx="15" ry="15"/>
	</g>
	<path class="st1" d="M1753.9,487.8c-13.1-92.9-104.1-157.3-197.6-140.9c-1,0.2-2.4,0.7-3.9,1.4c-7.9,3.5-11.5,12.6-8.3,20.6l8,19.9
		c3.1-1.2,10.7-4.9,12.1-5.1c54.3-9.5,109.6,17.4,137.6,66.9c26.7,47.3,20.1,108.4-16.3,150.1c-5.2,6-10.9,11.3-17.1,16.2
		c-5.9,4.7-7.4,13-3.4,19.4l9,10.5c4.6,4.9,14.1,2.7,18.1-1C1740.5,601.4,1763,552.6,1753.9,487.8z"/>
</g>
</svg>
