<?xml version="1.0" encoding="utf-8"?>
<!-- Generator: Adobe Illustrator 21.1.0, SVG Export Plug-In . SVG Version: 6.00 Build 0)  -->
<svg version="1.1" id="Layer_1" xmlns="http://www.w3.org/2000/svg" xmlns:xlink="http://www.w3.org/1999/xlink" x="0px" y="0px"
	 viewBox="0 0 2786.1 971.3" style="enable-background:new 0 0 2786.1 971.3;" xml:space="preserve">
<style type="text/css">
	.st0{fill:#E8E5E0;}
	.st1{fill:#508C3E;}
	.st2{fill:#201916;}
</style>
<rect y="-0.9" class="st0" width="2786.1" height="972.2"/>
<g>
	<g>
		<path class="st1" d="M1346.8,615.9c-9,26.7,6.5,53.8,32.5,62.7s54.1-2.7,65.9-27.8c11.4-24.3,2-54.1-23.6-66.1
			c-12.6-5.8-19.1-14.7-24-26.4c-3.7-8.6-7.3-17.5-11.4-26c-9.8-21.9-19.5-43.9-29.3-66.1l-45.2-100.4c-24-56.5-57.4-129.5-82.2-186
			c-1.6-3.4-3.3-7.2-0.4-10.6c3.7-2.7,3.7-2.7,6.1-2.7c54.1-0.3,112.3,0,166.4,0.3c7.3,0,16.7-1.4,23.2,1.7
			c20.3,9.3,30.5,34.3,26.4,55.5c-4.1,22.3-24,36.3-48,40.4c0,0-4.5,0.3-19.5,3.4c-9.8,2.1-21.2,10.6-22.4,19.5
			c-0.4,3.8-2,9.9,6.9,18.2c6.9,6.5,24.8,7.2,27.7,7.2c43.1-4.5,76.1-17.8,95.6-40.1c15.5-18.2,28.1-44.5,13.4-86
			c-14.2-40.1-50.9-61.3-94.8-61.7c-85-0.7-142.4,3.1-227.4,0c-0.8,0-4.1,0.7-7.7,1.7c-12.2,3.4-20.8,13-21.2,24.3
			c0,2.4,0,4.8,0.8,6.2c64.3,145.6,123.7,280.3,188.4,425.9C1348,593.6,1350.9,603.2,1346.8,615.9z"/>
		<g>
			<path class="st2" d="M1385.8,794c10.5-18.4,36.7-26.2,58.6-17.4c21.9,8.8,31.2,30.9,20.7,49.3c-10.5,18.4-36.7,26.2-58.6,17.4
				C1384.6,834.5,1375.4,812.4,1385.8,794z"/>
			<path class="st2" d="M1190.4,681.3c12.8-5.9,28.9-2,35.9,8.8c7.1,10.8,2.4,24.3-10.4,30.3s-28.9,2-35.9-8.8
				C1173,700.8,1177.6,687.3,1190.4,681.3z"/>
			<path class="st2" d="M1233.9,740.5c15.4-7.1,34.7-2.4,43.1,10.5c8.5,12.9,2.9,29.2-12.5,36.3s-34.7,2.4-43.1-10.5
				C1212.9,763.9,1218.5,747.6,1233.9,740.5z"/>
			<path class="st2" d="M1308.1,775.5c17.1-7.9,38.7-2.7,48.1,11.7c9.4,14.4,3.2,32.5-13.9,40.5c-17.1,7.9-38.7,2.7-48.1-11.7
				C1284.8,801.6,1291,783.5,1308.1,775.5z"/>
			<path class="st2" d="M1169.8,626.4c10.6-4.9,24-1.7,29.8,7.3s2,20.2-8.6,25.1c-10.6,4.9-24,1.7-29.8-7.3
				C1155.3,642.6,1159.1,631.3,1169.8,626.4z"/>
		</g>
		<path class="st1" d="M1628.3,613.1c-19.1-113.8-151.4-192.9-287.7-172.7c-1.6,0.3-3.3,1-5.7,1.7c-11.4,4.1-16.7,15.4-12.2,25.4
			l11.8,24.3c4.5-1.4,15.5-5.8,17.5-6.2c78.9-11.6,159.5,21.2,200.2,81.9c39.1,57.9,29.3,132.9-23.6,184c-7.7,7.2-15.9,14-24.8,19.9
			c-8.5,5.8-11,15.8-4.9,23.6l13,12.7c6.9,6.2,20.8,3.4,26.4-1.4C1608.8,752.2,1641.8,692.6,1628.3,613.1z"/>
	</g>
</g>
</svg>
