<?xml version="1.0" encoding="utf-8"?>
<!-- Generator: Adobe Illustrator 21.1.0, SVG Export Plug-In . SVG Version: 6.00 Build 0)  -->
<svg version="1.1" id="Layer_1" xmlns="http://www.w3.org/2000/svg" xmlns:xlink="http://www.w3.org/1999/xlink" x="0px" y="0px"
	 viewBox="0 0 2786.1 972.2" style="enable-background:new 0 0 2786.1 972.2;" xml:space="preserve">
<style type="text/css">
	.st0{fill:#E8E5E0;}
	.st1{fill:#508C3E;}
	.st2{fill:#201916;}
</style>
<rect x="0.5" y="0" class="st0" width="2786.1" height="972.2"/>
<g>
	<g>
		<path class="st1" d="M1035.7,219.4c0.7-0.2,2.6-0.2,5.7,0.2c3.1,0.3,6.3,1,9.6,2.1c3.2-0.6,7-1,11.5-1.4s9.4-0.5,14.7-0.5
			c6.8,0,14.1,0.4,21.7,1.1c7.6,0.7,15.2,2.1,22.8,4c1.9,0.5,3.3,1.1,4,1.9c0.7,0.8,1.1,1.6,1.1,2.4c0,1.3-0.6,2.3-1.9,3.1
			c-1.3,0.8-2.7,1.1-4.3,0.9c-11-1.6-20.3-2.7-27.9-3.3c-7.7-0.6-14.2-0.9-19.5-0.9c-4.8,0-8.6,0.2-11.5,0.5c-0.5,5-1,10.3-1.5,15.9
			c-0.6,5.6-1.1,11.5-1.7,17.6l-1.7,17.8l21.2-0.5c3.5-0.1,7.1-0.2,10.8-0.3c3.7-0.1,7-0.1,10.1-0.3c3.1-0.1,5.8-0.2,8-0.3
			c2.3-0.1,3.9-0.1,4.8-0.3c2.6-0.2,4.7,0.1,6.3,0.9c1.5,0.9,2.3,1.9,2.3,3c0,1-0.6,2-1.8,2.8c-1.2,0.9-3,1.3-5.4,1.3
			c-0.5,0-1.8,0.1-4.1,0.2c-2.3,0.1-5.1,0.3-8.5,0.5c-3.4,0.2-7.1,0.5-11.2,0.8c-4.1,0.3-8.2,0.6-12.2,0.9
			c-4.1,0.3-7.9,0.6-11.6,0.9c-3.7,0.3-6.9,0.5-9.5,0.8c-0.7,8.6-1.3,17.1-1.8,25.7c-0.5,8.6-0.8,16.4-0.8,23.6
			c0,6.7,0.3,13.2,0.8,19.3c0.5,6.1,1.4,11.6,2.6,16.6c1.2,5,2.8,9.2,4.7,12.8c1.9,3.6,4.3,6.3,7,8.1c0.7,0.2,2.6,0.3,5.8,0.3
			c3.5,0,8-0.3,13.4-0.9c5.4-0.6,10.7-1.7,15.9-3.3s10-3.6,14.3-6.1c4.3-2.5,7.2-5.7,8.8-9.6c0.3-0.7,1-0.9,1.9-0.8
			c0.9,0.2,1.8,0.6,2.7,1.3c0.9,0.7,1.7,1.5,2.4,2.6c0.7,1,1,2,0.9,2.9c-1.4,3.8-3.6,7-6.8,9.6c-3.1,2.6-6.8,4.8-11,6.5
			c-4.2,1.7-8.6,3.1-13.4,4.1c-4.7,1-9.4,1.8-14,2.2c-4.6,0.5-8.8,0.7-12.8,0.9c-4,0.1-7.3,0.2-9.9,0.2c-5.9,0-10.8-0.5-14.6-1.5
			c-3.8-1-6.9-2.2-9.3-3.8c-2.4-1.5-4.3-3.3-5.7-5.1c-1.4-1.9-2.7-3.7-3.9-5.6v0.2l-1.4-1.9c-0.9-1.4-1.7-3.5-2.2-6.4
			c-0.6-2.9-1.1-6.4-1.5-10.5c-0.4-4.1-0.7-8.7-0.9-13.8c-0.2-5.1-0.3-10.5-0.3-16.2c0-8.3,0.2-17.2,0.5-26.5
			c0.3-9.4,0.8-18.6,1.3-27.7c0.5-9.1,1.1-17.8,1.8-26.1c0.7-8.3,1.3-15.7,2-22c0.6-6.3,1.2-11.4,1.8-15.2
			C1034.9,221.5,1035.3,219.5,1035.7,219.4z"/>
		<path class="st1" d="M1190.1,213.4c6.7,0,12.5,0.8,17.3,2.5c4.8,1.7,8.8,3.8,12,6.4c3.2,2.6,5.7,5.6,7.6,8.8
			c1.9,3.3,3.3,6.4,4.2,9.5c0.9,3.1,1.5,6,1.6,8.7c0.2,2.7,0.3,4.9,0.3,6.3c-0.3,7.2-1.3,13.3-2.8,18.3c-1.5,5-3.4,9.2-5.6,12.5
			c-2.2,3.3-4.5,5.9-7.1,7.8c-2.6,1.9-5.1,3.3-7.6,4.2c-2.5,0.9-4.8,1.5-6.9,1.6c-2.1,0.2-3.8,0.2-5.1,0.1c-2.9-0.1-6.1-0.8-9.8-2.1
			c-3.7-1.3-6.7-3.1-9.2-5.7c-0.5-0.7-0.9-1.6-1.4-2.7c-0.5-1.1-0.7-2-0.7-2.7c0-1.6,0.6-2.6,1.9-3c1.3-0.4,3.4,0.6,6.5,3
			c5,3.7,9.4,5.5,13.2,5.5c4.2-0.2,7.7-3.4,10.4-9.6c2.7-6.2,4.4-15.3,5.2-27.4c0-0.7,0.1-1.5,0.2-2.3c0.1-0.9,0.2-1.6,0.2-2.1
			c0-5.1-0.5-9.4-1.5-12.9c-1-3.5-2.2-6.4-3.8-8.6c-1.5-2.3-3.2-4-5.1-5.2c-1.8-1.2-3.6-2.1-5.3-2.6c-1.7-0.5-3.3-0.8-4.7-0.8
			c-1.4,0-2.5,0-3.2,0c-4.1,0.3-7.8,2-11,5.1c-3.3,3-6.2,6.9-8.8,11.6c-2.6,4.7-4.9,10-6.8,16s-3.6,12.2-5,18.5
			c-1.4,6.3-2.5,12.6-3.5,18.8c-1,6.2-1.7,11.8-2.3,17c-0.6,5.1-1,9.5-1.2,13.2c-0.2,3.7-0.4,6.1-0.5,7.4c-0.1,1.6-0.2,3.4-0.3,5.3
			c-0.1,1.9-0.1,3.7-0.1,5.3c0,9.8,0.8,18.1,2.3,24.8c1.5,6.7,3.5,12.2,5.8,16.4c2.3,4.2,4.9,7.5,7.8,9.8c2.9,2.3,5.6,3.9,8.1,4.8
			c2.6,0.9,4.8,1.4,6.8,1.5c1.9,0.1,3.2,0.1,3.8,0c5.9-0.2,11.3-1.9,16.2-4.9c4.9-3,9.2-6.8,13.1-11.4c3.9-4.6,7.3-9.6,10.4-15.2
			c3-5.5,5.6-10.9,7.8-16.2c2.2-5.2,4-10.1,5.4-14.6c1.4-4.5,2.5-7.9,3.2-10.3l1.2-3.6c0.6-0.8,1.4-1.3,2.5-1.6
			c1.1-0.3,2.1-0.4,3.2-0.3c1,0.1,1.9,0.5,2.6,1.1c0.7,0.6,0.9,1.5,0.7,2.7c-0.1,0.6-0.5,2.9-1.3,6.9c-0.7,4.1-2.1,9.1-3.9,15
			c-1.9,5.9-4.4,12.3-7.7,19.2c-3.3,6.8-7.3,13.4-12.2,19.5c-4.9,6.2-10.8,11.5-17.6,16.1c-6.8,4.6-14.9,7.5-24.1,8.7
			c-1.6,0.1-4.2,0.1-7.7,0s-7.5-0.9-12-2.2c-4.5-1.4-9-3.7-13.7-6.8c-4.7-3.2-9-7.8-12.8-13.8c-3.9-6-7.1-13.7-9.6-23
			c-2.5-9.4-3.8-20.9-3.8-34.8c0-0.8,0.1-3,0.3-6.7c0.2-3.7,0.5-8.2,1.1-13.7c0.6-5.5,1.5-11.6,2.7-18.3c1.2-6.7,2.9-13.6,5-20.5
			c2.1-6.9,4.7-13.6,7.9-20.2c3.1-6.6,6.9-12.4,11.4-17.5c4.5-5.1,9.7-9.2,15.7-12.2C1175.5,215,1182.4,213.4,1190.1,213.4z"/>
		<path class="st1" d="M1237.1,296c0-0.2,0-0.5-0.1-0.7c-0.1-0.2-0.1-0.5-0.1-0.7c-0.2-1.6-0.4-3.1-0.6-4.5
			c-0.2-1.4-0.3-2.9-0.3-4.5c0-6.5,1.1-12.7,3.3-18.6c2.2-5.9,5.3-11.3,9.1-16.3c3.8-5,8.3-9.4,13.5-13.4s10.8-7.2,16.8-9.9
			c6-2.7,12.2-4.6,18.7-5.9c6.5-1.3,12.9-1.7,19.3-1.4c7.9,0.5,15.5,2.2,22.7,5.2c7.3,3,13.7,7.6,19.2,13.7
			c5.5,6.1,10,13.8,13.3,23.2c3.3,9.4,5,20.6,5,33.7c0,2.3-0.1,4.7-0.3,7.2c-0.2,2.5-0.4,5.1-0.6,7.7c-0.8,8.4-2.4,16.9-4.7,25.3
			c-2.3,8.4-5.4,16.4-9.1,24.1c-3.7,7.6-8.1,14.8-13.1,21.3c-5,6.6-10.7,12.3-17,17.1c-6.3,4.9-13.1,8.6-20.6,11.4
			c-7.4,2.7-15.4,4.1-23.8,3.9c-8-0.1-14.9-1.4-20.6-3.8c-5.7-2.4-10.6-5.5-14.6-9.4c-4-3.9-7.2-8.3-9.6-13.2
			c-2.4-4.9-4.3-9.9-5.6-15.1c-1.3-5.1-2.2-10.2-2.7-15.1c-0.5-4.9-0.7-9.2-0.7-13c0-3,0.1-5.4,0.2-7.4c0.1-2,0.2-3.4,0.3-4.2v0.2
			c0.2-3.3,0.8-6.6,1.8-9.9c1-3.3,2.1-6.6,3.5-9.9c-1.1-3.7-1.9-7-2.2-10.1C1237.4,299.9,1237.2,297.6,1237.1,296z M1275.6,340.7
			c-5.1-0.3-9.6-1.3-13.5-2.9c-3.8-1.6-7.1-3.5-9.9-5.8c-0.8,3.7-1.4,7.2-1.6,10.7c-0.3,3.5-0.4,6.9-0.4,10.4c0,7.9,0.9,15.2,2.7,22
			c1.8,6.8,4.5,12.7,7.9,17.6c3.4,5,7.6,8.8,12.5,11.4c4.9,2.6,10.4,3.7,16.6,3.1c7.3-1,14.2-4.5,20.8-10.4
			c6.6-5.9,12.5-13.3,17.8-22.2c5.3-8.8,9.9-18.6,13.8-29.4c3.9-10.7,6.9-21.3,8.9-31.9c0.9-4.6,1.5-9.1,1.9-13.7
			c0.3-4.6,0.5-9,0.5-13.2c0-7.6-0.7-14.9-2.1-21.7c-1.4-6.8-3.5-12.8-6.1-18.2c-2.6-5.3-5.8-9.8-9.5-13.4
			c-3.7-3.7-7.9-6.2-12.6-7.5c-2.3-0.5-4.6-0.7-7-0.7c-5,0-10.2,1.1-15.7,3.2c-5.4,2.1-10.6,5.3-15.4,9.7
			c-4.9,4.3-9.2,9.8-13.1,16.3c-3.9,6.5-6.7,14.2-8.4,22.9c5.1-6.2,9.8-11.3,13.9-15.3c4.1-4.1,6.7-6.5,7.7-7.3
			c1.3-1,2.8-1.8,4.6-2.4c1.8-0.6,3.4-0.9,4.8-0.9c2.6,0,4.5,0.5,5.6,1.5c1.1,1,0.5,2.3-1.6,4c-8.2,6.3-15.3,13.2-21.2,20.6
			c-5.9,7.5-10.9,15.3-14.9,23.5c0.5,2.4,1.1,5.1,1.9,8c0.8,3,1.9,5.9,3.3,8.8c1.4,2.9,3.2,5.6,5.3,8.1c2.1,2.5,4.6,4.6,7.6,6.3
			c0.5,0.2,1,0.4,1.6,0.6c0.6,0.2,1.2,0.3,1.8,0.4c1.3,0.3,2.3,0.7,3.2,1c0.9,0.3,1.3,1.1,1.3,2.2c0,1.4-1.1,2.5-3.2,3.3
			C1283.4,340.6,1280.1,340.9,1275.6,340.7z"/>
	</g>
	<g>
		<path class="st2" d="M1050.9,491.4c1.9-0.5,3.5-0.6,4.7-0.5c1.2,0.2,2.2,0.5,2.9,1.1c0.7,0.5,1.2,1.3,1.5,2.2
			c0.3,0.9,0.5,1.8,0.5,2.8c0,3-0.8,5.4-2.5,7.1c-0.6,0.6-1.4,1.6-2.5,3c-1,1.4-2.1,3.2-3.1,5.4c-1,2.2-1.9,4.8-2.7,7.9
			c-0.8,3.1-1.2,6.6-1.2,10.6c0,4.8,0.8,10.4,2.4,16.7v-0.2l11.8,30.7c4.8-4.4,9.9-9.3,15.3-14.8c5.3-5.5,9.8-11.2,13.4-17
			c1-1.6,2-2.6,3.2-3.2c1.2-0.5,2.2-0.7,3.1-0.4c0.9,0.3,1.5,1.1,1.9,2.3c0.4,1.2,0.3,2.8-0.2,4.7c-1.5,3.3-3.3,6.5-5.5,9.6
			c-2.2,3.2-4.7,6.2-7.3,9.3c-2.6,3-5.4,5.9-8.3,8.6c-2.9,2.7-5.8,5.4-8.5,7.9l-3.3,2.9c1.7,4.7,3.2,9,4.6,12.7
			c1.4,3.8,2.2,6.3,2.5,7.6c0.6,3.4,0.9,6.2,0.9,8.5c0,3.5-0.5,6.4-1.5,8.8c-1,2.4-2.5,4.3-4.3,5.7c-1.8,1.5-3.9,2.5-6.2,3.1
			c-2.3,0.6-4.7,0.9-7.3,0.9c-8.4,0.2-14.4-1.1-18-4.1c-3.6-3-5.4-7.1-5.4-12.3c0-1,0.1-2.1,0.2-3.3c0.1-1.2,0.4-2.4,0.7-3.5
			c1-3.9,2.8-7.6,5.6-11.3c2.8-3.6,6.1-7.2,10-10.7c-1.5-3.9-3-7.8-4.6-11.6c-1.6-3.9-3.2-7.5-4.8-10.9c-1.6-3.4-3-6.5-4.3-9.2
			c-1.3-2.7-2.3-4.9-3.2-6.6c-0.5-1-0.9-1.8-1.3-2.6c-0.4-0.8-0.4-1.1-0.2-0.8c-1-3.1-1.6-6.2-2-9.2c-0.4-3-0.5-5.8-0.5-8.6
			c0-6.8,1.1-12.6,3.2-17.4c2.1-4.8,4.5-8.9,7.3-12.1c2.7-3.2,5.3-5.6,7.8-7.2c2.5-1.6,4.1-2.5,4.8-2.7L1050.9,491.4z M1055.5,619.9
			c0-4.7-1-10.5-3.1-17.3c-1.3,1.8-2.5,3.6-3.5,5.5c-1,1.8-1.7,3.7-2.1,5.6c-0.5,1.7-0.8,3.2-1,4.6s-0.3,2.6-0.3,3.5
			c0,3.6,0.7,5.8,2.2,6.6c1.5,0.8,2.7,1,3.8,0.6C1054.1,628.2,1055.5,625.1,1055.5,619.9z"/>
		<path class="st2" d="M1044.6,471.4c2.3,0.6,5.2,1,8.8,1.2c3.6,0.2,7.7,0.3,12.3,0.3c7.5,0,15.8-0.2,24.9-0.5l2.9-22.4
			c0.1-0.8,0.2-1.5,0.4-2.1c0.1-0.5,0.2-0.8,0.2-0.6c0-0.6,0.3-1.3,0.9-2c0.6-0.7,1.4-1.4,2.3-2.1c0.9-0.7,2-1.2,3.2-1.6
			c1.2-0.4,2.4-0.6,3.7-0.6c1.7,0,3.2,0.4,4.6,1.3c1.3,0.8,2.3,2.5,2.7,4.9c0.4,2.5,0.5,6.5,0.5,11.8c0,1.8,0,3.8,0,5.8
			c0,2.1-0.1,4.2-0.2,6.5c3.4-0.2,6.7-0.5,10-0.6c3.3-0.2,6.5-0.4,9.8-0.6c4.8-0.4,9.7-0.7,14.4-1c4.8-0.3,9.4-0.6,13.7-0.9
			c4.4-0.3,8.5-0.5,12.3-0.6c3.8-0.1,7.2-0.2,10.1-0.2c5.5,0,9.4,0.4,11.8,1.1c1.5,0.6,2.5,1.4,3,2.5c0.5,1,0.7,2,0.4,3
			c-0.3,1-1.1,1.8-2.3,2.5c-1.2,0.7-2.8,0.8-4.9,0.5c-1.8-0.2-3.9-0.5-6.2-0.6c-2.3-0.2-4.7-0.3-7.3-0.3c-7.3,0-15.8,0.4-25.6,1.2
			c-9.8,0.8-20,1.6-30.7,2.5l-9.1,0.9l-1.3,28c-0.6,10.8-1.3,21.7-1.9,32.6c-0.6,11-1,21-1,30.1c0,4.6,0.1,8.8,0.2,12.7
			c0.1,3.9,0.4,7.2,0.7,9.9c0.4,2.7,0.8,4.8,1.4,6.4c0.5,1.5,1.2,2.2,1.9,2.1c1.7-0.2,3.5-2.3,5.5-6.1c2-3.8,4-8.3,6-13.4
			c2-5.1,3.8-10.3,5.5-15.7c1.7-5.4,3.1-9.8,4.2-13.2c0.2-0.8,0.5-1.7,0.8-2.6c0.3-0.9,0.6-1.8,0.8-2.6c0.4-0.8,1.2-1.4,2.5-1.6
			c1.3-0.2,2.7-0.2,4.2,0c1.5,0.2,2.7,0.7,3.6,1.3c1,0.6,1.3,1.3,0.9,2c-0.5,0.7-0.9,2.1-1.3,4c-0.5,2.3-1.2,5.3-2.1,9
			c-0.9,3.7-2.1,7.6-3.5,11.7c-1.4,4.1-3.1,8.3-5,12.4c-1.9,4.2-4.2,7.9-6.8,11.3c-2.6,3.3-5.6,6-9,8.1c-3.4,2.1-7.2,3-11.3,2.9
			c-4.1-0.1-7.5-1.9-10.3-5.3c-2.7-3.4-4.9-7.9-6.5-13.5c-1.6-5.6-2.8-12.2-3.5-19.7c-0.7-7.5-1-15.4-1-23.6c0-11,0.5-22.3,1.4-33.8
			c0.9-11.5,1.9-22,2.8-31.6c-10.4,0.7-19.9,1.1-28.4,1.1c-3.9,0-7.4-0.1-10.5-0.2c-3.1-0.1-5.9-0.5-8.2-1.1h0.4
			c-3.2-0.6-5.6-1.6-7.3-3c-1.7-1.4-2.5-2.8-2.5-4.1c0-1.5,0.9-2.5,2.8-3.3C1037.6,470.7,1040.6,470.7,1044.6,471.4z"/>
		<path class="st2" d="M1166.1,514.9c5,0,9.2,0.5,12.7,1.6c3.5,1.1,6.4,2.5,8.6,4.1c2.2,1.6,4,3.5,5.3,5.5c1.3,2,2.2,4,2.8,6
			c0.6,2,0.9,3.9,1,5.6c0.1,1.8,0,3.2-0.1,4.3c-1.2,7.1-3.4,13-6.4,17.5c-3.1,4.5-6.6,8.1-10.5,10.6c-3.9,2.5-8.1,4.3-12.4,5.3
			c-4.4,1-8.4,1.5-12.2,1.5c-3.4,0-6.2-0.2-8.4-0.5v1.1c0,4,0.3,7.9,0.8,11.5c0.5,3.7,1.4,6.9,2.5,9.6c1.1,2.7,2.6,4.9,4.4,6.6
			c1.8,1.6,3.8,2.5,6.1,2.5c5-0.2,9.6-1.4,13.9-3.5c4.3-2.1,8.2-4.7,11.8-7.8c3.6-3.1,6.8-6.7,9.7-10.5c2.9-3.9,5.5-7.8,7.6-11.6
			c2.2-3.9,4.1-7.6,5.6-11.1c1.6-3.5,2.8-6.4,3.8-8.7l1.6-3.8c0.6-0.8,1.6-1.5,2.9-2c1.3-0.5,2.6-0.7,3.9-0.7c1.3,0,2.3,0.4,3.2,1.1
			c0.8,0.7,1.2,1.9,1.1,3.6c-0.4,2.1-1.3,5.1-2.7,9.2c-1.5,4.1-3.5,8.6-6.2,13.5c-2.7,5-5.8,10-9.5,15.2c-3.7,5.1-7.9,9.9-12.5,14.1
			s-9.8,7.8-15.4,10.4c-5.6,2.7-11.7,4-18.1,3.8c-5.9-0.1-11-1-15.3-2.7c-4.2-1.7-7.8-3.8-10.7-6.4c-2.9-2.5-5.2-5.4-7-8.5
			c-1.8-3.1-3.1-6.1-4-9c-0.9-2.8-1.5-5.4-1.8-7.6c-0.3-2.2-0.5-3.8-0.5-4.8v-1.5c0-1.8,0.1-4.6,0.3-8.5c0.2-3.8,0.7-8.1,1.5-12.8
			s2.2-9.6,4-14.6c1.8-5,4.4-9.6,7.6-13.7c3.3-4.1,7.4-7.5,12.4-10.1C1152.7,516,1158.9,514.7,1166.1,514.9z M1170.5,524.5
			c-3.3,0.6-6.3,2.3-9.1,5.1s-5.2,6.3-7.3,10.6c-2.1,4.3-3.7,9.1-5,14.3c-1.3,5.2-2.2,10.5-2.6,15.8c0.7,0,1.4,0,2.1,0.1
			c0.7,0.1,1.5,0.1,2.5,0.1c2.5,0,5.3-0.4,8.4-1.2c3-0.8,5.9-2.2,8.7-4.3c2.8-2.1,5.1-4.9,7.1-8.4c1.9-3.6,3.1-8.2,3.5-13.9
			c0.1-1.8,0-3.8-0.3-5.9c-0.3-2.1-0.8-4.1-1.5-5.8c-0.7-1.8-1.6-3.2-2.6-4.5C1173.2,525.3,1172,524.6,1170.5,524.5z"/>
		<path class="st2" d="M1262.3,517.4c5.9,0.4,11,1.6,15.3,3.6c4.2,2.1,7.7,4.7,10.5,7.8c2.8,3.1,4.8,6.8,6.2,10.9
			c1.3,4.1,2,8.4,2,12.9c0,1.2-0.1,2.5-0.2,3.7c-0.1,1.3-0.3,2.5-0.5,3.7c3.8-1.7,7.1-3.8,9.9-6.2c2.8-2.4,5.1-5.4,6.6-8.9
			c0.6-1.3,1.7-2.3,3.3-3c1.6-0.7,3.1-1,4.7-1c1.7,0,3.2,0.4,4.5,1.3c1.3,0.8,1.6,2.1,1,3.8c-2.8,6.8-7.2,12.2-13.2,16.2
			c-6,4-12.6,7.2-19.9,9.6c-1.7,4.4-3.9,8.5-6.5,12.4c-2.7,3.9-5.8,7.5-9.4,10.5s-7.7,5.7-12.1,7.7c-4.4,2.1-9.2,3.4-14.3,4
			c-2.5,0.4-5,0.5-7.3,0.5c-4.6,0-8.2-0.5-10.9-1.6c1.3,11.1,3.4,22,6.1,32.7c2.7,10.7,6.6,20.1,11.5,28.3c1.6,2.5,1.8,4.5,0.8,6
			c-1,1.5-2.9,2.2-5.5,2.2c-1.7,0-3.8-0.5-6.3-1.4c-2.5-0.9-4.8-2.1-6.8-3.5c-4.1-3.4-7.6-8.7-10.4-16c-2.8-7.3-5-15.6-6.6-25
			c-1.6-9.4-2.8-19.3-3.5-29.6c-0.7-10.4-1.1-20.3-1.1-29.9c0-6.3,0.1-12.3,0.4-18c0.2-5.7,0.5-10.8,0.9-15.3
			c0.4-4.5,0.8-8.2,1.2-11.1c0.4-2.9,0.8-4.8,1.2-5.6c1.1-2.1,2.6-3.6,4.5-4.5c1.9-1,3.8-1.5,5.6-1.5c2.3,0,4.3,0.8,6.1,2.5
			c1.8,1.7,2.4,4.2,1.9,7.6l-0.7,7.3c1.3-1.8,2.9-3.6,4.8-5.3c1.9-1.7,4.1-3.2,6.6-4.5c2.5-1.3,5.4-2.3,8.7-3
			C1254.6,517.4,1258.3,517.2,1262.3,517.4z M1229.7,566.6c0,1.9,0,3.9,0,5.9c0,2,0.1,4,0.2,6.1c3.8-2.8,8.6-4.8,14.5-6.2
			c5.9-1.3,12.3-2.7,19.1-4c2.1-0.4,4.1-0.7,6-1c1.9-0.3,3.9-0.7,6-1.2l0.5-1.5c0.4-3,0.5-6,0.5-8.9c0-8.5-1.9-15.2-5.8-20.1
			c-3.9-4.9-9.5-7.1-16.7-6.5c-3.2,0.2-6,1.3-8.4,3.1c-2.5,1.8-4.6,4-6.5,6.4c-1.8,2.5-3.4,5.1-4.7,7.8c-1.3,2.7-2.4,5.1-3.3,7.2
			c-0.2,0.6-0.5,1.2-0.7,1.7c-0.2,0.5-0.5,1.1-0.7,1.5V566.6z M1251.2,596.6c2.1-0.5,4-1.4,5.9-2.6c1.9-1.3,3.7-2.8,5.4-4.5
			c1.7-1.8,3.3-3.7,4.7-5.7c1.5-2.1,2.7-4.1,3.8-6.2l-5.6,1.1c-4,0.8-7.7,1.7-11.2,2.5c-3.5,0.8-6.4,1.7-9,2.6c-2.5,1-4.5,2.1-6,3.4
			c-1.5,1.3-2.2,2.8-2.2,4.5c0,1.3,0.7,2.6,2.1,3.9c1.4,1.3,3.6,1.9,6.6,1.9C1247.4,597.4,1249.2,597.1,1251.2,596.6z"/>
		<path class="st2" d="M1328,491.4c1.9-0.5,3.5-0.6,4.7-0.5c1.2,0.2,2.2,0.5,2.9,1.1c0.7,0.5,1.2,1.3,1.5,2.2
			c0.3,0.9,0.5,1.8,0.5,2.8c0,3-0.8,5.4-2.5,7.1c-0.6,0.6-1.4,1.6-2.5,3c-1,1.4-2.1,3.2-3.1,5.4c-1,2.2-1.9,4.8-2.7,7.9
			c-0.8,3.1-1.2,6.6-1.2,10.6c0,4.8,0.8,10.4,2.4,16.7v-0.2l11.8,30.7c4.8-4.4,9.9-9.3,15.3-14.8c5.3-5.5,9.8-11.2,13.4-17
			c1-1.6,2-2.6,3.2-3.2c1.2-0.5,2.2-0.7,3.1-0.4c0.9,0.3,1.5,1.1,1.9,2.3c0.4,1.2,0.3,2.8-0.2,4.7c-1.5,3.3-3.3,6.5-5.5,9.6
			c-2.2,3.2-4.7,6.2-7.3,9.3c-2.6,3-5.4,5.9-8.3,8.6c-2.9,2.7-5.8,5.4-8.5,7.9l-3.3,2.9c1.7,4.7,3.2,9,4.6,12.7
			c1.4,3.8,2.2,6.3,2.5,7.6c0.6,3.4,0.9,6.2,0.9,8.5c0,3.5-0.5,6.4-1.5,8.8s-2.5,4.3-4.3,5.7c-1.8,1.5-3.9,2.5-6.2,3.1
			c-2.3,0.6-4.7,0.9-7.3,0.9c-8.4,0.2-14.4-1.1-18-4.1c-3.6-3-5.4-7.1-5.4-12.3c0-1,0.1-2.1,0.2-3.3c0.1-1.2,0.4-2.4,0.7-3.5
			c1-3.9,2.8-7.6,5.6-11.3c2.8-3.6,6.1-7.2,10-10.7c-1.5-3.9-3-7.8-4.6-11.6c-1.6-3.9-3.2-7.5-4.8-10.9c-1.6-3.4-3-6.5-4.3-9.2
			c-1.3-2.7-2.3-4.9-3.2-6.6c-0.5-1-0.9-1.8-1.3-2.6c-0.4-0.8-0.4-1.1-0.2-0.8c-1-3.1-1.6-6.2-2-9.2c-0.4-3-0.5-5.8-0.5-8.6
			c0-6.8,1.1-12.6,3.2-17.4c2.1-4.8,4.5-8.9,7.3-12.1c2.7-3.2,5.3-5.6,7.8-7.2c2.5-1.6,4.1-2.5,4.8-2.7L1328,491.4z M1332.6,619.9
			c0-4.7-1-10.5-3.1-17.3c-1.3,1.8-2.5,3.6-3.5,5.5c-1,1.8-1.7,3.7-2.1,5.6c-0.5,1.7-0.8,3.2-1,4.6s-0.3,2.6-0.3,3.5
			c0,3.6,0.7,5.8,2.2,6.6c1.5,0.8,2.7,1,3.8,0.6C1331.2,628.2,1332.6,625.1,1332.6,619.9z"/>
	</g>
	<g>
		<path class="st1" d="M1075.1,733.5c6.8-0.2,12.7,0.2,17.8,1.3c5.1,1.1,9.4,2.7,13.1,4.8c3.7,2.1,6.8,4.5,9.2,7.2
			c2.5,2.7,4.5,5.6,6,8.6c1.5,3,2.6,6,3.4,9c0.8,3,1.3,5.8,1.6,8.3c0.3,2.6,0.4,4.8,0.4,6.7c0,1.9,0,3.2,0,3.9
			c0,6.2-0.9,11.6-2.8,16.4c-1.9,4.8-4.4,9-7.5,12.6c-3.1,3.6-6.7,6.7-10.7,9.2c-4,2.5-8.2,4.6-12.5,6.3c2.7,5.8,5.6,11.7,8.8,17.7
			c3.2,6,6.6,11.6,10.3,16.8c3.6,5.2,7.5,9.9,11.6,13.9c4.1,4.1,8.4,7,12.8,8.9c1.4,0.6,2.3,1.2,2.7,1.7c0.4,0.5,0.4,0.9,0.1,1.2
			c-0.4,0.3-1,0.6-2,0.8c-1,0.2-2.1,0.3-3.5,0.3c-1.4,0-2.9-0.2-4.6-0.5c-1.7-0.3-3.3-0.9-4.9-1.7c-4.7-2.5-9.2-5.8-13.5-9.8
			c-4.3-4-8.4-8.5-12.3-13.4c-3.9-4.9-7.5-10.1-10.9-15.5s-6.4-10.9-9-16.2c-1.5,0.3-3,0.6-4.4,0.8c-1.4,0.2-2.8,0.4-4.2,0.5
			c0,4.4,0,8.5-0.1,12.4c0,3.9-0.1,7.3-0.1,10.3c0,3-0.1,5.4-0.2,7.3c-0.1,1.9-0.3,3.1-0.5,3.6c-0.7,1.5-2.1,2.6-4.1,3.3
			c-2,0.7-4.1,1.1-6.3,1.1c-2.4,0-4.5-0.5-6.3-1.5c-1.8-1-2.5-2.4-2.1-4.1c0.9-4.1,1.6-9.1,2.2-14.8c0.6-5.8,1.1-11.9,1.5-18.5
			c-3.6-0.8-7-2-10.2-3.5c-3.2-1.5-5.9-3.3-8.3-5.3c-2.4-2-4.3-4.3-5.6-6.9c-1.4-2.6-2.1-5.3-2.2-8.2c0.2-3.6,1.1-6.8,2.9-9.7
			c1.8-2.9,4-5.5,6.7-7.6c2.7-2.2,5.7-4,9-5.5c3.3-1.5,6.5-2.6,9.7-3.3c0.4-7,0.9-13.3,1.5-18.9c0.6-5.5,1.4-9.8,2.5-12.7
			c0.6-1.7,1.9-3,3.7-3.8c1.8-0.8,3.6-1.2,5.4-1.2c1.9,0,3.3,0.4,4.4,1.1c1.1,0.7,1.3,1.9,0.5,3.4c-0.5,1.2-0.9,2.8-1.3,4.9
			c-0.4,2-0.7,4.4-1,7.1c-0.3,2.7-0.6,5.7-0.8,9c-0.2,3.3-0.4,6.8-0.5,10.4c3.9,0.5,7.1,1.3,9.7,2.4c2.6,1.1,4.6,2.4,6.1,3.8
			c1.5,1.4,2.5,2.8,3,4.2c0.5,1.4,0.8,2.6,0.7,3.6c-0.2,1.3-0.7,2.3-1.7,3.1c-1,0.8-2.1,1.3-3.2,1.7c-1.1,0.4-2.2,0.5-3.1,0.5
			c-0.9,0-1.4-0.3-1.5-0.8c0.1-0.4,0.1-0.9,0.2-1.4c0-0.5,0.1-1,0.1-1.4c0-2.3-0.8-4.4-2.4-6.3c-1.6-1.8-4.2-3-7.9-3.5
			c-0.2,6.3-0.3,12.8-0.3,19.3c0,6.6-0.1,13-0.1,19.3c6.6-0.9,12.2-2.3,16.8-4.2c4.6-1.9,8.4-4.1,11.4-6.6c3-2.5,5.4-5.1,7.1-7.9
			s3-5.5,3.8-8.1c0.9-2.6,1.3-4.9,1.5-7c0.1-2.1,0.2-3.7,0.2-4.9v-1.2c0.2-7.1-0.3-13.3-1.5-18.4c-1.1-5.1-2.7-9.5-4.7-13
			c-2-3.5-4.3-6.4-6.8-8.5c-2.6-2.1-5.1-3.8-7.8-4.9c-2.6-1.1-5.2-1.8-7.7-2.1c-2.5-0.3-4.7-0.4-6.4-0.3c-5.9,0.6-10.9,1.8-14.9,3.3
			c-4,1.6-7.3,3.3-9.8,5.1c-2.5,1.8-4.4,3.6-5.7,5.4c-1.3,1.8-2.2,3.2-2.8,4.1c-0.2,0.2-0.3,0.5-0.4,0.7c-0.1,0.2-0.3,0.4-0.4,0.6
			c-0.2,0.2-0.3,0.4-0.4,0.5h0.1c-0.5,0.2-1.1,0.5-1.9,0.7c-0.8,0.2-1.6,0.3-2.4,0.3c-0.8,0-1.5-0.3-2.2-0.7
			c-0.6-0.4-1.1-1.2-1.3-2.2c-0.1-0.5,0.2-1.4,0.8-2.7c0.6-1.3,1.6-2.9,3-4.6c1.4-1.7,3.2-3.5,5.3-5.3c2.2-1.9,4.8-3.6,7.9-5.2
			c3.1-1.6,6.6-3,10.7-4.1C1065.6,734.3,1070.1,733.6,1075.1,733.5z M1055.7,789c-3.9,0.9-6.9,2.2-9.2,3.9s-3.9,3.5-5.2,5.4
			c-1.2,1.9-2,3.8-2.4,5.6c-0.4,1.8-0.7,3.3-0.9,4.4c-0.2,2.3,0.1,4.5,1,6.3c0.9,1.9,2.2,3.5,3.8,4.9c1.6,1.4,3.4,2.6,5.4,3.6
			c2,1,4,1.7,6,2.3c0.2-3.6,0.3-7.3,0.5-10.9c0.2-3.6,0.3-7.1,0.5-10.6L1055.7,789z"/>
		<path class="st1" d="M1130.1,805.5c0-0.3,0-0.5,0.1-0.6c0-1.2,0.8-2.3,2.3-3.2c1.5-0.9,3.2-1.4,5.1-1.4c1.4,0,2.7,0.4,3.8,1.1
			c1.2,0.7,1.9,1.9,2.2,3.5c0.3,1.1,0.4,2.4,0.4,3.7c0,1.3,0.1,2.8,0.1,4.3c0,2.7-0.1,5.5-0.2,8.6c-0.2,3.1-0.4,6.2-0.6,9.2
			c-0.2,3.1-0.3,6.1-0.4,8.9c-0.1,2.9-0.2,5.6-0.2,8.1c0,3.9,0.2,7.1,0.6,9.5c0.4,2.5,1.3,3.6,2.6,3.5c0.7-0.2,1.6-1.1,2.6-2.7
			c1-1.7,2-3.8,3.1-6.4c1.1-2.6,2.2-5.6,3.3-8.9c1.1-3.3,2.1-6.6,3.2-9.9c1.1-3.3,2-6.4,3-9.5c0.9-3,1.7-5.6,2.4-7.8l1.6-5.2
			c0.3-0.9,0.9-1.5,1.8-1.8c0.9-0.3,1.7-0.4,2.5-0.2c0.8,0.1,1.5,0.4,2.2,1c0.7,0.5,1,1.2,1,2c0,1.8-0.3,4.4-0.9,7.8
			c-0.6,3.4-1.5,7.2-2.6,11.3c-1.1,4.1-2.6,8.3-4.3,12.5c-1.7,4.3-3.7,8.1-5.9,11.5c-2.2,3.4-4.7,6.3-7.3,8.5
			c-2.7,2.2-5.6,3.3-8.7,3.3c-2.8-0.3-5.2-1.5-7.1-3.4c-1.9-1.9-3.4-4.4-4.6-7.3c-1.2-3-2-6.3-2.5-9.9c-0.5-3.6-0.7-7.4-0.7-11.2
			c0-3.2,0.1-6.4,0.3-9.6c0.2-3.2,0.4-6.1,0.7-8.7c0.3-2.6,0.6-4.9,0.9-6.7C1129.8,807.5,1130,806.2,1130.1,805.5z M1129.7,789
			c0-2.3,0.8-4.3,2.2-5.9c1.5-1.6,3.3-2.4,5.4-2.4c2,0,3.8,0.8,5.3,2.4c1.5,1.6,2.2,3.6,2.2,5.9c0,2.4-0.8,4.4-2.2,6
			c-1.5,1.7-3.3,2.5-5.3,2.5c-2.1,0-3.9-0.8-5.4-2.5C1130.5,793.3,1129.7,791.3,1129.7,789z"/>
		<path class="st1" d="M1189,792.8c2.3,0,4.3,0.4,5.9,1.3c1.6,0.9,2.9,1.9,4.1,3.2c0.3-4.2,0.7-8.3,1.1-12.1
			c0.4-3.9,0.8-7.5,1.1-10.8c0.4-3.3,0.7-6.2,1.1-8.7c0.4-2.5,0.6-4.5,0.8-5.8c0.2-0.6,0.2-1,0.2-1.4c0-0.4,0-0.5,0-0.4
			c0-0.4,0.2-0.9,0.6-1.3s0.9-1,1.6-1.4c0.6-0.4,1.4-0.8,2.2-1.1c0.8-0.3,1.6-0.4,2.4-0.4c1.1,0,2.1,0.3,3,0.9
			c0.9,0.6,1.5,1.7,1.8,3.2c0.2,1.9,0.4,4.6,0.4,8.3c0,3.9-0.1,8.4-0.4,13.5c-0.2,5.1-0.6,10.6-1,16.3c-0.4,6.6-0.8,13.1-1.1,19.6
			c-0.3,6.5-0.5,12.4-0.5,17.8c0,5.5,0.2,10,0.5,13.4c0.4,3.4,1.1,5,2.1,4.9c1.1-0.2,2.2-1.6,3.5-4.3c1.3-2.7,2.6-5.8,3.8-9.5
			c1.3-3.7,2.4-7.4,3.5-11.3c1.1-3.8,2-7.1,2.7-9.7l1.3-4.7c0.2-0.6,0.8-0.9,1.7-1.1c0.9-0.2,1.8-0.2,2.7,0c0.9,0.2,1.7,0.4,2.4,0.9
			c0.6,0.4,0.9,0.9,0.6,1.3c0,0.1-0.1,0.4-0.2,1.1c-0.1,0.6-0.3,1.4-0.4,2.2c-0.4,2-0.9,4.5-1.6,7.5c-0.6,3-1.5,6.1-2.4,9.4
			c-1,3.3-2.1,6.6-3.5,9.8c-1.4,3.3-2.9,6.2-4.7,8.7c-1.7,2.6-3.7,4.6-6,6.1c-2.2,1.5-4.7,2.2-7.5,2.1c-3.3-0.2-5.9-2-7.8-5.5
			c-1.9-3.5-3.2-8.1-4.1-13.7c-0.7,1.5-1.4,3.1-2.3,4.6c-0.9,1.5-1.8,2.9-3,4.2c-1.1,1.3-2.4,2.3-3.8,3.2c-1.4,0.9-3,1.4-4.8,1.5
			c-4.9,0.4-8.9-0.2-12-1.9c-3.2-1.7-5.6-3.9-7.5-6.6c-1.8-2.8-3.1-5.7-3.8-9c-0.7-3.2-1.1-6.3-1.1-9.1c0-1,0-1.9,0.1-2.8
			s0.1-1.7,0.3-2.3c0-0.2,0-0.3,0.1-0.5c0-0.2,0.1-0.3,0.1-0.5c0.2-1.1,0.4-2.6,0.8-4.6c0.4-1.9,0.9-3.9,1.6-6.1
			c0.7-2.1,1.7-4.3,3-6.5c1.3-2.2,2.9-4.2,4.9-5.9c2-1.8,4.4-3.2,7.2-4.3C1181.8,793.4,1185.1,792.8,1189,792.8z M1198,820.9
			c0-2.6,0-5.2,0.1-7.9c0.1-2.7,0.2-5.3,0.4-8c-0.6-1.4-1.5-2.7-2.9-4c-1.4-1.3-3.1-1.9-5.3-1.8c-1.3,0.1-2.7,0.7-4.3,1.9
			c-1.5,1.2-3,2.9-4.3,4.9c-1.3,2.1-2.5,4.5-3.3,7.3s-1.3,5.8-1.1,8.9c0.1,5.8,0.4,10.4,1.1,13.8c0.6,3.5,1.4,6.2,2.2,8.1
			c0.8,1.9,1.6,3.2,2.4,3.8c0.8,0.6,1.5,1,1.9,1.1c1.3,0.2,2.6-0.2,3.9-1.3c1.3-1.1,2.6-2.6,3.8-4.4c1.2-1.9,2.2-3.9,3.2-6.2
			c1-2.3,1.8-4.5,2.4-6.6c-0.2-1.5-0.2-3.1-0.2-4.7S1198,822.6,1198,820.9z"/>
		<path class="st1" d="M1249.6,790.2c3.3,0,6.1,0.4,8.5,1.1c2.4,0.7,4.3,1.6,5.8,2.7c1.5,1.1,2.7,2.3,3.5,3.6c0.9,1.3,1.5,2.7,1.9,4
			c0.4,1.3,0.6,2.6,0.7,3.8c0,1.2,0,2.1-0.1,2.9c-0.8,4.8-2.2,8.7-4.3,11.7c-2.1,3-4.4,5.4-7.1,7.1c-2.6,1.7-5.4,2.9-8.3,3.5
			s-5.6,1-8.1,1c-2.3,0-4.1-0.1-5.6-0.4v0.7c0,2.7,0.2,5.2,0.5,7.7c0.4,2.4,0.9,4.6,1.7,6.4c0.8,1.8,1.7,3.3,2.9,4.4
			c1.2,1.1,2.5,1.6,4.1,1.6c3.3-0.2,6.4-0.9,9.3-2.3c2.9-1.4,5.5-3.1,7.9-5.2c2.4-2.1,4.5-4.4,6.5-7c1.9-2.6,3.6-5.2,5.1-7.8
			c1.5-2.6,2.7-5.1,3.8-7.4c1.1-2.4,1.9-4.3,2.6-5.8l1.1-2.6c0.4-0.6,1.1-1,1.9-1.3c0.9-0.3,1.8-0.5,2.6-0.5c0.9,0,1.6,0.2,2.1,0.7
			c0.6,0.5,0.8,1.3,0.7,2.4c-0.2,1.4-0.9,3.4-1.8,6.1c-1,2.7-2.4,5.7-4.1,9c-1.8,3.3-3.9,6.7-6.4,10.1c-2.5,3.4-5.3,6.6-8.4,9.5
			c-3.1,2.9-6.5,5.2-10.3,7c-3.8,1.8-7.8,2.7-12.1,2.6c-4-0.1-7.4-0.7-10.2-1.8c-2.8-1.1-5.2-2.6-7.2-4.3c-1.9-1.7-3.5-3.6-4.7-5.7
			c-1.2-2.1-2.1-4.1-2.7-6c-0.6-1.9-1-3.6-1.2-5.1c-0.2-1.5-0.3-2.6-0.3-3.2v-1c0-1.2,0.1-3.1,0.2-5.6c0.1-2.6,0.5-5.4,1-8.6
			c0.6-3.2,1.5-6.4,2.7-9.8c1.2-3.4,2.9-6.4,5.1-9.2c2.2-2.8,5-5,8.3-6.7C1240.6,790.9,1244.7,790.1,1249.6,790.2z M1252.5,796.6
			c-2.2,0.4-4.2,1.5-6.1,3.4c-1.9,1.9-3.5,4.2-4.9,7.1c-1.4,2.9-2.5,6.1-3.3,9.5c-0.9,3.5-1.4,7-1.7,10.6c0.5,0,0.9,0,1.4,0.1
			c0.4,0,1,0.1,1.6,0.1c1.7,0,3.6-0.3,5.6-0.8c2-0.5,4-1.5,5.8-2.9c1.9-1.4,3.4-3.3,4.7-5.6c1.3-2.4,2.1-5.5,2.3-9.3
			c0.1-1.2,0-2.5-0.2-3.9c-0.2-1.4-0.5-2.7-1-3.9c-0.5-1.2-1.1-2.2-1.8-3C1254.3,797.1,1253.5,796.7,1252.5,796.6z"/>
		<path class="st1" d="M1356.2,807.7c0-0.3,0-0.5,0.1-0.6c0.1-0.4,0.4-0.9,0.9-1.4s1.2-1,1.9-1.5c0.8-0.4,1.6-0.8,2.6-1.1
			s1.9-0.4,2.9-0.4c1.3,0,2.4,0.3,3.5,0.9s1.6,1.7,1.9,3.2c0.3,1.6,0.5,3.8,0.5,6.6c0,2.9-0.1,6.1-0.4,9.5c-0.3,3.4-0.6,6.9-1,10.5
			c-0.3,3.4-0.6,6.7-0.9,9.8c-0.3,3.1-0.4,5.9-0.4,8.4c0,2.6,0.2,4.7,0.6,6.4c0.4,1.7,1.1,2.4,2.1,2.2c0.7-0.1,1.6-1,2.6-2.6
			c1-1.7,2.1-3.8,3.2-6.3c1.1-2.6,2.3-5.4,3.5-8.6c1.2-3.2,2.3-6.3,3.4-9.5c1.1-3.2,2.1-6.1,3-9c0.9-2.8,1.7-5.2,2.4-7l1.2-4
			c0.2-0.6,0.8-0.9,1.7-1.1c0.9-0.2,1.8-0.2,2.8,0c1,0.2,1.8,0.4,2.4,0.8c0.6,0.4,0.9,0.9,0.6,1.3v-0.2l-1,3.4
			c-0.5,2.2-1.2,4.9-2.1,8.2c-0.9,3.3-2,6.8-3.3,10.4c-1.3,3.7-2.8,7.4-4.4,11.1c-1.6,3.7-3.4,7.1-5.5,10c-2,3-4.2,5.3-6.6,7.2
			c-2.4,1.8-4.9,2.7-7.6,2.6c-1.8-0.2-3.3-0.9-4.7-2.1c-1.3-1.1-2.5-2.6-3.4-4.3c-1-1.7-1.8-3.7-2.5-5.9c-0.7-2.2-1.2-4.6-1.5-7.1
			c-1.1,2.1-2.7,4-4.6,5.8c-1.9,1.7-4.4,2.8-7.3,3.2c-5.6,0.3-10-0.5-13.2-2.6c-3.2-2-5.6-4.5-7.2-7.5c-1.6-3-2.6-6.2-3-9.5
			c-0.4-3.4-0.6-6.3-0.7-8.7c0-1.6,0.1-3.7,0.3-6.3c0.2-2.6,0.7-5.3,1.4-8.2c0.7-2.9,1.7-5.8,3-8.8c1.3-3,2.9-5.6,5-8.1
			c2.1-2.4,4.6-4.4,7.6-6c3-1.6,6.5-2.4,10.6-2.6c3.2-0.1,5.9,0.2,7.9,0.9c2.1,0.6,3.7,1.5,4.9,2.4c1.2,1,2.1,2,2.7,3
			c0.6,1.1,1,2,1.2,2.8l0.4,1.2v-0.1c0.6,1.4,0.6,2.4-0.3,3.2c-0.9,0.7-2,1.1-3.4,1.1c-0.8,0-1.7-0.2-2.6-0.5
			c-0.9-0.4-1.7-0.9-2.3-1.6c-0.4-0.3-0.6-0.6-0.6-0.7c0-0.2-0.1-0.4-0.2-0.6c-0.4-0.9-1.1-1.9-2-3c-0.9-1.1-2.5-1.7-4.6-1.6
			c-1.2,0.1-2.5,0.9-3.9,2.4c-1.4,1.5-2.8,3.7-4,6.6c-1.3,2.8-2.4,6.3-3.3,10.3c-1,4-1.6,8.6-1.9,13.7c0,0.5,0,1.1-0.1,1.9
			c0,0.8,0,1.4,0,1.8c0,4.8,0.4,8.4,1.1,10.9s1.6,4.3,2.6,5.3s1.9,1.7,2.9,1.8c1,0.1,1.7,0.1,2.2,0.1c1,0,2-0.5,3-1.5
			c1.1-1,2.1-2.2,3-3.6c0.9-1.4,1.8-3,2.6-4.6c0.8-1.7,1.5-3.2,2.2-4.6c0-3.1,0.1-6.1,0.2-9c0.2-3,0.4-5.7,0.6-8.2
			c0.2-2.5,0.5-4.7,0.7-6.5C1355.8,809.8,1356,808.5,1356.2,807.7z"/>
		<path class="st1" d="M1438.2,774.5c1.3-0.3,2.4-0.4,3.2-0.3c0.8,0.1,1.5,0.4,1.9,0.7c0.5,0.4,0.8,0.9,1,1.5s0.3,1.2,0.3,1.9
			c0,2-0.6,3.6-1.7,4.7c-0.4,0.4-0.9,1.1-1.6,2c-0.7,0.9-1.4,2.1-2.1,3.6c-0.7,1.5-1.3,3.2-1.8,5.3c-0.5,2.1-0.8,4.4-0.8,7.1
			c0,3.2,0.5,7,1.6,11.2V812l7.9,20.5c3.2-2.9,6.6-6.2,10.2-9.9c3.6-3.7,6.6-7.5,9-11.4c0.6-1.1,1.4-1.8,2.1-2.1
			c0.8-0.4,1.5-0.4,2.1-0.2c0.6,0.2,1,0.7,1.3,1.5c0.2,0.8,0.2,1.9-0.1,3.2c-1,2.2-2.2,4.3-3.7,6.4c-1.5,2.1-3.1,4.2-4.9,6.2
			c-1.7,2-3.6,3.9-5.5,5.8c-1.9,1.8-3.9,3.6-5.7,5.3l-2.2,1.9c1.1,3.2,2.2,6,3.1,8.5c0.9,2.5,1.5,4.2,1.6,5.1
			c0.4,2.3,0.6,4.2,0.6,5.7c0,2.3-0.3,4.3-1,5.9c-0.7,1.6-1.6,2.9-2.8,3.8c-1.2,1-2.6,1.7-4.1,2.1c-1.5,0.4-3.2,0.6-4.9,0.6
			c-5.6,0.2-9.6-0.8-12-2.7c-2.4-2-3.6-4.7-3.6-8.2c0-0.6,0-1.4,0.1-2.2c0.1-0.8,0.2-1.6,0.5-2.3c0.6-2.6,1.9-5.1,3.8-7.5
			c1.9-2.4,4.1-4.8,6.7-7.2c-1-2.6-2-5.2-3.1-7.8c-1.1-2.6-2.2-5-3.2-7.3c-1.1-2.3-2-4.3-2.9-6.1c-0.9-1.8-1.6-3.3-2.1-4.4
			c-0.3-0.6-0.6-1.2-0.9-1.8c-0.2-0.5-0.3-0.7-0.1-0.5c-0.6-2.1-1.1-4.1-1.3-6.1c-0.2-2-0.4-3.9-0.4-5.8c0-4.5,0.7-8.4,2.1-11.7
			s3-5.9,4.9-8.1c1.8-2.1,3.6-3.7,5.2-4.8c1.7-1.1,2.7-1.7,3.2-1.8L1438.2,774.5z M1441.2,860.4c0-3.2-0.7-7-2.1-11.5
			c-0.9,1.2-1.7,2.4-2.4,3.6s-1.2,2.5-1.4,3.8c-0.3,1.1-0.5,2.2-0.7,3.1c-0.1,0.9-0.2,1.7-0.2,2.4c0,2.4,0.5,3.9,1.5,4.4
			c1,0.5,1.8,0.7,2.6,0.4C1440.3,865.9,1441.2,863.8,1441.2,860.4z"/>
		<path class="st1" d="M1489.4,785.2c3.9,0,7.1,0.6,9.5,1.8c2.5,1.2,4.4,2.7,5.8,4.5c1.4,1.8,2.4,3.8,2.9,6c0.5,2.2,0.8,4.3,0.8,6.4
			c0,2.4-0.2,4.6-0.7,6.5c-0.4,1.9-0.8,3.2-1.2,4v-0.1c-0.6,1.2-1.4,2.2-2.6,2.9c-1.2,0.7-2.4,1.2-3.5,1.5c-1.2,0.3-2.2,0.4-3,0.4
			c-0.8,0-1.1-0.3-1-0.7c1.1-2.3,1.9-4.6,2.4-7c0.5-2.4,0.7-4.7,0.7-7c0-1.9-0.2-3.6-0.5-5.3c-0.3-1.7-0.9-3.1-1.6-4.3
			c-0.7-1.2-1.6-2.2-2.7-2.9c-1.1-0.7-2.4-1.1-3.9-1.1c-1.2,0-2.4,0.7-3.4,2.2c-1.1,1.5-2,3.3-2.9,5.5c-0.9,2.2-1.6,4.6-2.2,7.3
			c-0.6,2.7-1.1,5.2-1.6,7.5c-0.4,2.3-0.8,4.4-1,6.2c-0.2,1.8-0.4,2.9-0.5,3.4c-0.2,1.4-0.3,2.7-0.4,3.9c-0.1,1.2-0.2,2.4-0.2,3.4
			c0,3.7,0.4,6.8,1.3,9.3c0.9,2.5,1.9,4.5,3.1,6c1.2,1.5,2.4,2.5,3.7,3.2c1.3,0.6,2.3,0.9,3.2,0.9c2.8,0,5.7-1.3,8.5-3.8
			c2.8-2.5,5.5-5.5,8.1-9.1c2.6-3.6,4.9-7.2,7-11c2.1-3.8,3.9-7,5.2-9.6c0.6-1.2,1.2-2.2,1.8-3.1c0.5-0.9,0.9-1.4,1.3-1.8
			c0.7-0.8,1.5-1.4,2.4-1.8s1.7-0.4,2.4-0.2c0.7,0.2,1.3,0.7,1.8,1.4c0.4,0.7,0.6,1.7,0.4,3c-0.1,0.6-0.6,2.1-1.4,4.3
			c-0.9,2.2-2.1,4.8-3.6,7.7c-1.5,3-3.4,6-5.6,9.3c-2.2,3.2-4.7,6.2-7.5,8.9c-2.8,2.7-5.9,5-9.2,6.9c-3.4,1.9-6.9,2.8-10.7,2.9
			c-4.7,0.2-8.7-0.2-11.9-1.1c-3.2-0.9-5.9-2.1-8-3.5c-2.1-1.5-3.7-3.1-4.9-4.9c-1.1-1.8-1.9-3.6-2.4-5.5c-0.5-1.8-0.8-3.5-0.9-5.1
			s-0.1-2.9-0.1-3.8v-1c-0.1-0.6,0-2,0.2-4.4c0.2-2.4,0.6-5.2,1.3-8.4c0.6-3.2,1.6-6.7,2.8-10.3c1.2-3.6,2.8-6.9,4.8-10
			s4.4-5.5,7.3-7.5C1482,786.2,1485.4,785.2,1489.4,785.2z"/>
		<path class="st1" d="M1521.5,804.9c0.6-0.4,1.3-0.7,2.1-0.8c0.7-0.1,1.4-0.2,2.1-0.2c0.2-1.1,0.7-2.6,1.3-4.3c0.6-1.7,1.6-3.4,3-5
			c1.4-1.6,3.3-2.9,5.7-4c2.4-1.1,5.6-1.6,9.5-1.6c4,0.1,7.2,0.9,9.8,2.5c2.6,1.6,4.6,3.5,6.1,5.9c1.5,2.4,2.5,4.9,3,7.6
			c0.5,2.7,0.7,5.2,0.7,7.5v1.3l-0.2,4.2c2.8-1.1,5.4-2.6,7.9-4.4c2.6-1.8,4.7-4.1,6.4-7h-0.1c0.4-0.6,1.1-1.3,1.9-1.8
			c0.9-0.6,1.7-0.9,2.4-0.9c0.9,0,1.5,0.3,1.8,0.9c0.3,0.6,0.1,1.7-0.7,3.3c-1.1,2.4-2.5,4.6-4.1,6.5c-1.6,1.9-3.3,3.6-5.1,5.1
			c-1.8,1.5-3.7,2.8-5.6,3.9c-1.9,1.1-3.9,2.1-5.8,2.8c-0.6,2.8-1.4,5.5-2.6,8.4c-1.1,2.8-2.7,5.4-4.6,7.6c-1.9,2.3-4.4,4.1-7.4,5.5
			c-3,1.4-6.6,2.1-10.9,2c-4.5-0.1-8.3-0.8-11.2-2.2c-3-1.4-5.3-3.1-7-5.3c-1.7-2.1-3-4.6-3.6-7.3c-0.7-2.8-1-5.5-1-8.4
			c0-2.6,0.2-5.1,0.7-7.6c0.5-2.5,1.1-4.7,1.7-6.7c0.6-2,1.4-3.7,2.1-5S1521,805.3,1521.5,804.9z M1550.4,829.2
			c-4.9-0.2-8.8-0.9-11.9-2.2c-3.1-1.3-5.6-2.9-7.4-4.8v2.1c0,2.1,0.1,4.2,0.4,6.3c0.3,2.1,0.8,3.9,1.6,5.6c0.8,1.7,1.8,3,3.1,4
			c1.3,1,3,1.6,5,1.6c1.5,0,2.8-0.3,4-1c1.2-0.7,2.3-1.6,3.2-2.8c0.9-1.2,1.8-2.5,2.5-4c0.7-1.5,1.4-3.1,1.9-4.7
			c-0.5,0-0.9,0-1.3,0.1C1551.1,829.3,1550.8,829.2,1550.4,829.2z M1549.9,820.8c1.2,0.2,2.8,0,4.9-0.4c0.2-1.5,0.4-2.9,0.5-4
			c0.1-1.1,0.2-1.8,0.2-2.1c0.1-2.6,0-5.1-0.3-7.7c-0.3-2.5-0.9-4.7-1.7-6.7c-0.9-1.9-2-3.5-3.5-4.6c-1.5-1.1-3.4-1.6-5.8-1.4
			c-1.3,0.1-2.5,0.6-3.6,1.5c-1.1,0.9-2.1,2-2.9,3.3c-0.8,1.3-1.3,2.6-1.6,3.9c-0.3,1.4-0.4,2.6-0.1,3.6l0.5,2.1
			c0.2,1.1,0.4,2.4,0.8,3.8c0.4,1.4,1,2.7,1.9,4c0.9,1.2,2.2,2.2,3.9,3.1S1547,820.7,1549.9,820.8z"/>
		<path class="st1" d="M1576.3,804.9c0.6-0.4,1.3-0.7,2.1-0.8c0.7-0.1,1.4-0.2,2.1-0.2c0.2-1.1,0.7-2.6,1.3-4.3c0.6-1.7,1.6-3.4,3-5
			c1.4-1.6,3.3-2.9,5.7-4c2.4-1.1,5.6-1.6,9.5-1.6c4,0.1,7.2,0.9,9.8,2.5c2.6,1.6,4.6,3.5,6.1,5.9c1.5,2.4,2.5,4.9,3,7.6
			c0.5,2.7,0.7,5.2,0.7,7.5v1.3l-0.2,4.2c2.8-1.1,5.4-2.6,7.9-4.4c2.6-1.8,4.7-4.1,6.4-7h-0.1c0.4-0.6,1.1-1.3,1.9-1.8
			c0.9-0.6,1.7-0.9,2.4-0.9c0.9,0,1.5,0.3,1.8,0.9c0.3,0.6,0.1,1.7-0.7,3.3c-1.1,2.4-2.5,4.6-4.1,6.5c-1.6,1.9-3.3,3.6-5.1,5.1
			c-1.8,1.5-3.7,2.8-5.6,3.9c-1.9,1.1-3.9,2.1-5.8,2.8c-0.6,2.8-1.4,5.5-2.6,8.4c-1.1,2.8-2.7,5.4-4.6,7.6c-1.9,2.3-4.4,4.1-7.4,5.5
			c-3,1.4-6.6,2.1-10.9,2c-4.5-0.1-8.3-0.8-11.2-2.2c-3-1.4-5.3-3.1-7-5.3c-1.7-2.1-3-4.6-3.6-7.3c-0.7-2.8-1-5.5-1-8.4
			c0-2.6,0.2-5.1,0.7-7.6c0.5-2.5,1.1-4.7,1.7-6.7c0.6-2,1.4-3.7,2.1-5S1575.9,805.3,1576.3,804.9z M1605.3,829.2
			c-4.9-0.2-8.8-0.9-11.9-2.2c-3.1-1.3-5.6-2.9-7.4-4.8v2.1c0,2.1,0.1,4.2,0.4,6.3c0.3,2.1,0.8,3.9,1.6,5.6c0.8,1.7,1.8,3,3.1,4
			c1.3,1,3,1.6,5,1.6c1.5,0,2.8-0.3,4-1c1.2-0.7,2.3-1.6,3.2-2.8c0.9-1.2,1.8-2.5,2.5-4c0.7-1.5,1.4-3.1,1.9-4.7
			c-0.5,0-0.9,0-1.3,0.1C1606,829.3,1605.7,829.2,1605.3,829.2z M1604.8,820.8c1.2,0.2,2.8,0,4.9-0.4c0.2-1.5,0.4-2.9,0.5-4
			c0.1-1.1,0.2-1.8,0.2-2.1c0.1-2.6,0-5.1-0.3-7.7c-0.3-2.5-0.9-4.7-1.7-6.7c-0.9-1.9-2-3.5-3.5-4.6c-1.5-1.1-3.4-1.6-5.8-1.4
			c-1.3,0.1-2.5,0.6-3.6,1.5c-1.1,0.9-2.1,2-2.9,3.3c-0.8,1.3-1.3,2.6-1.6,3.9c-0.3,1.4-0.4,2.6-0.1,3.6l0.5,2.1
			c0.2,1.1,0.4,2.4,0.8,3.8c0.4,1.4,1,2.7,1.9,4c0.9,1.2,2.2,2.2,3.9,3.1S1601.9,820.7,1604.8,820.8z"/>
		<path class="st1" d="M1597.6,761.2c1.5,0.4,3.5,0.7,5.9,0.8c2.4,0.1,5.1,0.2,8.2,0.2c5,0,10.6-0.1,16.7-0.4l2-14.9
			c0.1-0.6,0.2-1,0.2-1.4c0.1-0.4,0.1-0.5,0.1-0.4c0-0.4,0.2-0.9,0.6-1.3c0.4-0.5,0.9-1,1.5-1.4c0.6-0.4,1.3-0.8,2.1-1.1
			c0.8-0.3,1.6-0.4,2.5-0.4c1.1,0,2.1,0.3,3,0.9c0.9,0.6,1.5,1.7,1.8,3.3c0.2,1.7,0.4,4.3,0.4,7.9c0,1.2,0,2.5,0,3.9s0,2.8-0.1,4.4
			c2.3-0.2,4.5-0.3,6.7-0.4c2.2-0.1,4.4-0.3,6.6-0.4c3.2-0.2,6.5-0.5,9.7-0.7c3.2-0.2,6.2-0.4,9.2-0.6c2.9-0.2,5.6-0.3,8.2-0.4
			c2.6-0.1,4.8-0.1,6.7-0.1c3.6,0,6.3,0.2,7.9,0.7c1,0.4,1.6,1,2,1.6c0.4,0.7,0.4,1.4,0.2,2s-0.7,1.2-1.5,1.6
			c-0.8,0.4-1.9,0.5-3.3,0.3c-1.2-0.2-2.6-0.3-4.1-0.4s-3.2-0.2-4.9-0.2c-4.9,0-10.6,0.3-17.1,0.8c-6.6,0.5-13.4,1.1-20.5,1.6
			l-6.1,0.6l-0.9,18.7c-0.4,7.2-0.9,14.5-1.3,21.8c-0.4,7.3-0.6,14-0.6,20.1c0,3.1,0,5.9,0.1,8.5c0.1,2.6,0.2,4.8,0.5,6.6
			c0.2,1.8,0.5,3.2,0.9,4.3c0.4,1,0.8,1.5,1.3,1.4c1.1-0.2,2.4-1.5,3.7-4.1c1.3-2.6,2.7-5.5,4-8.9c1.3-3.4,2.6-6.9,3.7-10.5
			c1.1-3.6,2.1-6.5,2.8-8.8c0.2-0.6,0.3-1.2,0.5-1.8s0.4-1.2,0.5-1.8c0.2-0.6,0.8-0.9,1.7-1.1c0.9-0.2,1.8-0.2,2.8,0
			c1,0.2,1.8,0.4,2.4,0.9c0.6,0.4,0.9,0.9,0.6,1.3c-0.3,0.5-0.6,1.4-0.9,2.7c-0.3,1.5-0.8,3.5-1.4,6c-0.6,2.5-1.4,5.1-2.3,7.8
			s-2,5.5-3.3,8.3c-1.3,2.8-2.8,5.3-4.5,7.5c-1.7,2.2-3.7,4-6,5.4c-2.3,1.4-4.8,2-7.5,1.9c-2.8-0.1-5-1.3-6.9-3.5
			c-1.8-2.3-3.3-5.3-4.4-9c-1.1-3.8-1.9-8.2-2.3-13.2c-0.4-5-0.7-10.3-0.7-15.8c0-7.4,0.3-14.9,0.9-22.6c0.6-7.7,1.3-14.7,1.9-21.1
			c-7,0.5-13.3,0.7-19,0.7c-2.6,0-4.9,0-7-0.1c-2.1-0.1-3.9-0.3-5.5-0.7h0.2c-2.1-0.4-3.7-1.1-4.9-2c-1.1-0.9-1.7-1.8-1.7-2.7
			c0-1,0.6-1.7,1.9-2.2C1593,760.7,1594.9,760.7,1597.6,761.2z"/>
		<path class="st1" d="M1678.8,790.2c3.3,0,6.2,0.4,8.5,1.1c2.3,0.7,4.3,1.6,5.8,2.7s2.7,2.3,3.5,3.6c0.9,1.3,1.5,2.7,1.9,4
			c0.4,1.3,0.6,2.6,0.7,3.8c0,1.2,0,2.1-0.1,2.9c-0.8,4.8-2.2,8.7-4.3,11.7c-2.1,3-4.4,5.4-7,7.1c-2.6,1.7-5.4,2.9-8.3,3.5
			c-2.9,0.6-5.6,1-8.1,1c-2.3,0-4.1-0.1-5.6-0.4v0.7c0,2.7,0.2,5.2,0.5,7.7c0.4,2.4,0.9,4.6,1.7,6.4c0.8,1.8,1.7,3.3,2.9,4.4
			c1.2,1.1,2.5,1.6,4.1,1.6c3.3-0.2,6.4-0.9,9.3-2.3c2.9-1.4,5.5-3.1,7.9-5.2c2.4-2.1,4.5-4.4,6.5-7c1.9-2.6,3.6-5.2,5.1-7.8
			c1.5-2.6,2.7-5.1,3.8-7.4c1.1-2.4,1.9-4.3,2.6-5.8l1.1-2.6c0.4-0.6,1.1-1,1.9-1.3c0.9-0.3,1.8-0.5,2.6-0.5c0.9,0,1.6,0.2,2.1,0.7
			s0.8,1.3,0.7,2.4c-0.2,1.4-0.9,3.4-1.8,6.1c-1,2.7-2.4,5.7-4.1,9c-1.8,3.3-3.9,6.7-6.4,10.1c-2.5,3.4-5.3,6.6-8.4,9.5
			c-3.1,2.9-6.6,5.2-10.3,7c-3.8,1.8-7.8,2.7-12.1,2.6c-4-0.1-7.4-0.7-10.2-1.8c-2.8-1.1-5.2-2.6-7.2-4.3c-1.9-1.7-3.5-3.6-4.7-5.7
			c-1.2-2.1-2.1-4.1-2.7-6c-0.6-1.9-1-3.6-1.2-5.1c-0.2-1.5-0.3-2.6-0.3-3.2v-1c0-1.2,0.1-3.1,0.2-5.6c0.1-2.6,0.5-5.4,1-8.6
			c0.6-3.2,1.5-6.4,2.7-9.8c1.2-3.4,2.9-6.4,5.1-9.2c2.2-2.8,5-5,8.3-6.7C1669.9,790.9,1674,790.1,1678.8,790.2z M1681.7,796.6
			c-2.2,0.4-4.2,1.5-6.1,3.4c-1.9,1.9-3.5,4.2-4.9,7.1c-1.4,2.9-2.5,6.1-3.3,9.5c-0.9,3.5-1.4,7-1.8,10.6c0.5,0,0.9,0,1.4,0.1
			c0.4,0,1,0.1,1.6,0.1c1.7,0,3.6-0.3,5.6-0.8c2-0.5,4-1.5,5.8-2.9c1.9-1.4,3.4-3.3,4.7-5.6c1.3-2.4,2.1-5.5,2.3-9.3
			c0.1-1.2,0-2.5-0.2-3.9s-0.5-2.7-1-3.9c-0.5-1.2-1.1-2.2-1.8-3C1683.5,797.1,1682.7,796.7,1681.7,796.6z"/>
		<path class="st1" d="M1749.5,794.4c1.4-0.6,2.7-0.8,4-0.6c1.3,0.2,2.4,0.5,3.4,1c1,0.5,1.8,1.2,2.4,1.9c0.6,0.8,0.9,1.5,0.9,2.1
			c0,0.3-0.1,0.8-0.3,1.5c-0.2,0.7-0.4,1.5-0.7,2.4c-0.5,1.5-1,3.2-1.5,5.2c-0.5,2-1,4.1-1.4,6.1c-0.4,2.1-0.7,4-0.9,5.9
			c-0.2,1.9-0.2,3.5,0.1,4.7l1,3.5c0.2,0.7,0.3,1.4,0.6,2.1c0.2,0.7,0.3,1.2,0.3,1.6c0,1.3-0.5,2.1-1.6,2.4c-1.1,0.3-3.1-0.1-5.9-1
			c-2.4-0.8-4.1-2.7-5.3-5.8c-1.2-3-1.8-6.4-1.8-10.1c0-1.1,0-2.2,0.1-3.2c0.1-1,0.2-2,0.4-3.1c-2.2,2.4-4.2,5-5.9,7.9
			c-1.7,2.9-3.3,5.9-4.6,8.9c-1.3,3-2.5,6-3.5,9c-1,3-1.8,5.6-2.5,8.1v0.5c0,2.1-0.1,3.9-0.2,5.4c-0.2,1.5-0.4,2.5-0.7,3.1
			c-0.6,1.5-1.6,2.6-2.8,3.3c-1.2,0.7-2.6,1.1-4,1.1c-1.5,0-2.8-0.4-4-1.2c-1.2-0.8-2.1-2.1-2.8-3.9c-0.3-0.9-0.6-2.4-0.9-4.4
			c-0.2-2-0.5-4.4-0.7-7.1s-0.3-5.6-0.4-8.8c-0.1-3.2-0.1-6.4-0.1-9.6c0-3,0-5.9,0.1-8.7c0.1-2.8,0.2-5.4,0.4-7.7
			c0.2-2.3,0.4-4.3,0.6-6c0.2-1.7,0.6-2.8,1-3.5c0.7-1.4,1.7-2.4,3-3.1c1.3-0.7,2.6-1,3.8-1c1.5,0,2.8,0.6,3.9,1.8
			c1.2,1.2,1.6,2.9,1.4,5c0,0.6,0,1.5,0.1,2.7c0,1.1,0.1,2.4,0.2,3.8c0.1,1.4,0.2,2.9,0.2,4.5c0.1,1.6,0.2,3.1,0.4,4.7l0.9,12.1
			c1-3.3,2.2-6.7,3.6-10.1c1.5-3.4,3.1-6.6,5-9.6c1.9-3,4.1-5.8,6.6-8.2C1743.6,797.7,1746.4,795.8,1749.5,794.4z"/>
	</g>
	<path class="st1" d="M1756.6,502.9c-15.3-76.6-94.1-125.9-171.1-107.8c-0.8,0.2-1.9,0.7-3.2,1.3c-6.4,3.2-9,11-5.9,17.5l7.6,16.2
		c2.5-1.2,8.7-4.6,9.8-4.8c44.7-10.5,92,9.2,117.6,49.1c24.5,38.1,21.9,89.2-6.5,125.6c-4,5.2-8.6,9.9-13.5,14.2
		c-4.7,4.2-5.6,11.2-1.9,16.3l7.9,8.3c4.1,3.9,11.9,1.6,15-1.7C1750.8,598,1767.3,556.3,1756.6,502.9z"/>
	<g>
		
			<ellipse transform="matrix(0.4936 -0.8697 0.8697 0.4936 265.595 1748.069)" class="st2" cx="1633.9" cy="646" rx="31.8" ry="31.8"/>
		
			<ellipse transform="matrix(0.9075 -0.4201 0.4201 0.9075 -144.0994 664.0982)" class="st2" cx="1435.7" cy="659.2" rx="19" ry="19"/>
		
			<ellipse transform="matrix(0.9075 -0.4201 0.4201 0.9075 -137.4934 687.263)" class="st2" cx="1491.6" cy="655.8" rx="22.8" ry="22.8"/>
		
			<ellipse transform="matrix(0.9075 -0.4201 0.4201 0.9075 -130.2681 713.512)" class="st2" cx="1554.8" cy="652.5" rx="25.7" ry="25.7"/>
		
			<ellipse transform="matrix(0.9075 -0.4201 0.4201 0.9075 -150.1039 642.9963)" class="st2" cx="1384.8" cy="662.3" rx="15.8" ry="15.8"/>
	</g>
	<path class="st1" d="M1639.6,473c-9.2-5-13.8-12.4-17.4-22.2c-2.7-7.4-5.4-14.7-8.2-22.1c-7-18.6-14-37.2-21.1-56.1l-29-75.6
		l-0.2,0.1l-40.4-108.8c-5.5-14.6-11-29.2-16.5-43.9c-0.4-1.1-0.8-2.3-1.1-3.4L1490,98.6c-3.3-8.9-11.6-14.9-21-15.3
		c-0.5,0-1.1,0-1.6-0.1c-0.7,0-2.9,0.6-5.5,1.4c-8.8,2.9-15,11.1-15.3,20.5c-0.1,2.1,0.1,4,0.6,5.3
		c46.5,123.3,89.5,237.6,136.1,360.8c3.5,9.3,5.5,17.5,2.4,28.4c-6.4,22.5,4.6,45.5,23.4,53.1c18.8,7.6,39-2.4,47.5-23.6
		C1664.9,508.5,1658.2,483.1,1639.6,473z"/>
</g>
</svg>
