<?xml version="1.0" encoding="utf-8"?>
<!-- Generator: Adobe Illustrator 21.1.0, SVG Export Plug-In . SVG Version: 6.00 Build 0)  -->
<svg version="1.1" id="Layer_1" xmlns="http://www.w3.org/2000/svg" xmlns:xlink="http://www.w3.org/1999/xlink" x="0px" y="0px"
	 viewBox="0 0 2786.1 972.2" style="enable-background:new 0 0 2786.1 972.2;" xml:space="preserve">
<style type="text/css">
	.st0{fill:#E8E5E0;}
	.st1{fill:#508C3E;}
	.st2{fill:#201916;}
</style>
<rect x="0" y="0" class="st0" width="2786.1" height="972.2"/>
<g>
	<path class="st1" d="M1629,636c-18.8-94.1-115.4-154.6-210.1-132.4c-0.9,0.3-2.4,0.9-3.9,1.5c-7.9,3.9-10.9,13.7-7.3,21.6l9.4,19.7
		c3-1.5,10.6-5.5,12.1-6.1c55-12.8,113,11.2,144.5,60.4c30.1,46.8,26.7,109.6-7.9,154.3c-4.9,6.4-10.6,12.1-16.4,17.6
		c-5.8,5.2-6.7,13.7-2.4,20l9.7,10c4.9,4.9,14.6,1.8,18.5-2.1C1622,752.6,1642.1,701.6,1629,636z"/>
	<g>
		
			<ellipse transform="matrix(0.4936 -0.8697 0.8697 0.4936 42.7056 1697.0175)" class="st2" cx="1478.6" cy="811.8" rx="39.2" ry="39.2"/>
		
			<ellipse transform="matrix(0.9075 -0.4201 0.4201 0.9075 -233.5202 595.4905)" class="st2" cx="1235.2" cy="827.9" rx="23.4" ry="23.4"/>
		
			<ellipse transform="matrix(0.9075 -0.4201 0.4201 0.9075 -225.3804 623.9265)" class="st2" cx="1303.8" cy="823.6" rx="27.9" ry="27.9"/>
		
			<ellipse transform="matrix(0.9075 -0.4201 0.4201 0.9075 -216.5703 656.0862)" class="st2" cx="1381.2" cy="819.7" rx="31.6" ry="31.6"/>
		
			<ellipse transform="matrix(0.9075 -0.4201 0.4201 0.9075 -240.9796 569.5799)" class="st2" cx="1172.6" cy="831.9" rx="19.4" ry="19.4"/>
	</g>
	<path class="st1" d="M1485.4,599.2c-11.2-6.1-17-15.2-21.3-27.3c-3.3-9.1-6.7-18.2-10-27c-8.5-22.8-17.3-45.9-25.8-68.9l-35.8-92.6
		h-0.3l-49.5-133.6c-6.7-17.9-13.7-35.8-20.3-53.8c-0.6-1.2-0.9-2.7-1.2-4.3l-19.4-52.2c-3.9-10.9-14.3-18.2-25.8-18.8
		c-0.6,0-1.2,0-2.1,0c-0.9,0-3.6,0.6-6.7,1.8c-10.9,3.6-18.5,13.7-18.8,25.2c0,2.7,0,4.9,0.6,6.7c57.1,151.2,109.9,291.8,167,443.1
		c4.3,11.5,6.7,21.6,3,34.9c-7.9,27.6,5.8,55.9,28.8,65.3c23.1,9.4,48-3,58.3-29.2C1516.6,643,1508.1,611.7,1485.4,599.2z"/>
</g>
</svg>
