<?xml version="1.0" encoding="utf-8"?>
<!-- Generator: Adobe Illustrator 21.1.0, SVG Export Plug-In . SVG Version: 6.00 Build 0)  -->
<svg version="1.1" id="Layer_1" xmlns="http://www.w3.org/2000/svg" xmlns:xlink="http://www.w3.org/1999/xlink" x="0px" y="0px"
	 viewBox="0 0 120.2 134.7" style="enable-background:new 0 0 120.2 134.7;" xml:space="preserve">
<style type="text/css">
	.st0{fill:#241F1C;}
	.st1{fill:#508C3E;}
</style>
<g>
	<g>
		<ellipse transform="matrix(0.5605 -0.8281 0.8281 0.5605 31.2544 75.8957)" class="st0" cx="87.1" cy="8.5" rx="5.5" ry="5.5"/>
		<ellipse transform="matrix(0.9377 -0.3473 0.3473 0.9377 -2.9798 40.7378)" class="st0" cx="112.2" cy="28.7" rx="3.3" ry="3.3"/>
		<ellipse transform="matrix(0.9377 -0.3473 0.3473 0.9377 0.2572 38.6155)" class="st0" cx="107.9" cy="18.6" rx="3.9" ry="3.9"/>
		<ellipse transform="matrix(0.9377 -0.3473 0.3473 0.9377 2.1199 35.2034)" class="st0" cx="99.3" cy="11.7" rx="4.4" ry="4.4"/>
		<ellipse transform="matrix(0.9377 -0.3473 0.3473 0.9377 -5.9809 41.8088)" class="st0" cx="113.6" cy="37.6" rx="2.7" ry="2.7"/>
	</g>
	<path class="st1" d="M83.9,21.6c1-0.2,1.8-0.3,2.4-0.2c0.6,0.1,1.1,0.3,1.5,0.6c0.4,0.3,0.6,0.7,0.8,1.1c0.2,0.5,0.2,1,0.2,1.5
		c0,1.6-0.4,2.8-1.3,3.7c-0.3,0.3-0.7,0.8-1.3,1.6c-0.5,0.7-1.1,1.6-1.6,2.8c-0.5,1.1-1,2.5-1.4,4.1s-0.6,3.4-0.6,5.5
		c0,2.5,0.4,5.4,1.2,8.7v-0.1l6.1,15.9c2.5-2.3,5.1-4.8,7.9-7.7c2.8-2.9,5.1-5.8,7-8.8c0.5-0.8,1.1-1.4,1.6-1.6
		c0.6-0.3,1.1-0.3,1.6-0.2c0.5,0.2,0.8,0.5,1,1.2c0.2,0.6,0.2,1.4-0.1,2.4c-0.8,1.7-1.7,3.4-2.9,5s-2.4,3.2-3.8,4.8
		c-1.4,1.6-2.8,3.1-4.3,4.5s-3,2.8-4.4,4.1L91.8,72c0.9,2.4,1.7,4.6,2.4,6.6c0.7,1.9,1.1,3.3,1.3,4c0.3,1.8,0.5,3.2,0.5,4.4
		c0,1.8-0.3,3.3-0.8,4.6c-0.5,1.2-1.3,2.2-2.2,3s-2,1.3-3.2,1.6c-1.2,0.3-2.4,0.5-3.8,0.5c-4.3,0.1-7.4-0.6-9.3-2.1
		c-1.9-1.5-2.8-3.7-2.8-6.4c0-0.5,0-1.1,0.1-1.7s0.2-1.2,0.4-1.8c0.5-2,1.5-4,2.9-5.8c1.4-1.9,3.2-3.7,5.2-5.6c-0.8-2-1.6-4-2.4-6
		c-0.8-2-1.7-3.9-2.5-5.6c-0.8-1.8-1.6-3.3-2.2-4.8c-0.7-1.4-1.2-2.6-1.6-3.4c-0.3-0.5-0.5-1-0.7-1.4s-0.2-0.5-0.1-0.4
		c-0.5-1.6-0.8-3.2-1-4.8c-0.2-1.5-0.3-3-0.3-4.5c0-3.5,0.6-6.5,1.6-9c1.1-2.5,2.4-4.6,3.8-6.3c1.4-1.7,2.8-2.9,4-3.7
		c1.3-0.8,2.1-1.3,2.5-1.4L83.9,21.6z M86.2,88.1c0-2.4-0.5-5.4-1.6-8.9c-0.7,0.9-1.3,1.9-1.8,2.8s-0.9,1.9-1.1,2.9
		c-0.3,0.9-0.4,1.7-0.5,2.4c-0.1,0.7-0.1,1.3-0.1,1.8c0,1.9,0.4,3,1.1,3.4c0.8,0.4,1.4,0.5,2,0.3C85.5,92.4,86.2,90.8,86.2,88.1z"/>
	<g>
		<g>
			<path class="st1" d="M5.7,24.1c0.1,0,0.4,0,0.9,0c0.5,0.1,1,0.2,1.5,0.3c0.5-0.1,1.1-0.2,1.8-0.2s1.4-0.1,2.3-0.1
				c1.1,0,2.2,0.1,3.4,0.2s2.4,0.3,3.5,0.6c0.3,0.1,0.5,0.2,0.6,0.3c0.1,0.1,0.2,0.2,0.2,0.4c0,0.2-0.1,0.4-0.3,0.5
				s-0.4,0.2-0.7,0.1c-1.7-0.2-3.1-0.4-4.3-0.5s-2.2-0.1-3-0.1c-0.7,0-1.3,0-1.8,0.1c-0.1,0.8-0.2,1.6-0.2,2.5
				c-0.1,0.9-0.2,1.8-0.3,2.7L9,33.6l3.3-0.1c0.5,0,1.1,0,1.7,0c0.6,0,1.1,0,1.6,0s0.9,0,1.2,0c0.4,0,0.6,0,0.7,0c0.4,0,0.7,0,1,0.1
				c0.2,0.1,0.4,0.3,0.4,0.5s-0.1,0.3-0.3,0.4s-0.5,0.2-0.8,0.2c-0.1,0-0.3,0-0.6,0c-0.4,0-0.8,0-1.3,0.1c-0.5,0-1.1,0.1-1.7,0.1
				c-0.6,0-1.3,0.1-1.9,0.1c-0.6,0-1.2,0.1-1.8,0.1S9.4,35.2,9,35.2c-0.1,1.3-0.2,2.6-0.3,4c-0.1,1.3-0.1,2.5-0.1,3.7c0,1,0,2,0.1,3
				c0.1,0.9,0.2,1.8,0.4,2.6c0.2,0.8,0.4,1.4,0.7,2s0.7,1,1.1,1.3c0.1,0,0.4,0.1,0.9,0.1s1.2,0,2.1-0.1c0.8-0.1,1.7-0.3,2.5-0.5
				s1.5-0.6,2.2-0.9s1.1-0.9,1.4-1.5c0.1-0.1,0.2-0.1,0.3-0.1s0.3,0.1,0.4,0.2c0.1,0.1,0.3,0.2,0.4,0.4c0.1,0.2,0.2,0.3,0.1,0.4
				c-0.2,0.6-0.6,1.1-1,1.5c-0.5,0.4-1.1,0.7-1.7,1c-0.6,0.3-1.3,0.5-2.1,0.6c-0.7,0.2-1.5,0.3-2.2,0.3c-0.7,0.1-1.4,0.1-2,0.1
				s-1.1,0-1.5,0c-0.9,0-1.7-0.1-2.3-0.2c-0.6-0.2-1.1-0.3-1.4-0.6c-0.4-0.2-0.7-0.5-0.9-0.8s-0.4-0.6-0.6-0.9l0,0l-0.2-0.3
				C5.2,50.3,5,50,5,49.5c-0.1-0.5-0.2-1-0.2-1.6c-0.1-0.6-0.1-1.3-0.1-2.1c0-0.8,0-1.6,0-2.5c0-1.3,0-2.7,0.1-4.1s0.1-2.9,0.2-4.3
				c0.1-1.4,0.2-2.7,0.3-4s0.2-2.4,0.3-3.4s0.2-1.8,0.3-2.4C5.6,24.4,5.7,24.1,5.7,24.1z"/>
			<path class="st1" d="M29.6,23.2c1,0,1.9,0.1,2.7,0.4c0.7,0.3,1.4,0.6,1.9,1s0.9,0.9,1.2,1.4s0.5,1,0.6,1.5s0.2,0.9,0.3,1.4
				c0,0.4,0,0.8,0,1c-0.1,1.1-0.2,2.1-0.4,2.8c-0.2,0.8-0.5,1.4-0.9,1.9c-0.3,0.5-0.7,0.9-1.1,1.2c-0.4,0.3-0.8,0.5-1.2,0.6
				s-0.7,0.2-1.1,0.3c-0.3,0-0.6,0-0.8,0c-0.4,0-0.9-0.1-1.5-0.3c-0.6-0.2-1-0.5-1.4-0.9c-0.1-0.1-0.1-0.2-0.2-0.4
				c-0.1-0.2-0.1-0.3-0.1-0.4c0-0.2,0.1-0.4,0.3-0.5s0.5,0.1,1,0.5c0.8,0.6,1.5,0.8,2,0.8c0.7,0,1.2-0.5,1.6-1.5
				c0.4-1,0.7-2.4,0.8-4.2c0-0.1,0-0.2,0-0.4c0-0.1,0-0.2,0-0.3c0-0.8-0.1-1.5-0.2-2c-0.2-0.5-0.3-1-0.6-1.3
				c-0.2-0.4-0.5-0.6-0.8-0.8c-0.3-0.2-0.6-0.3-0.8-0.4c-0.3-0.1-0.5-0.1-0.7-0.1s-0.4,0-0.5,0c-0.6,0.1-1.2,0.3-1.7,0.8
				s-1,1.1-1.4,1.8c-0.4,0.7-0.8,1.5-1.1,2.5c-0.3,0.9-0.6,1.9-0.8,2.9s-0.4,1.9-0.5,2.9c-0.2,1-0.3,1.8-0.4,2.6
				c-0.1,0.8-0.2,1.5-0.2,2s-0.1,0.9-0.1,1.1s0,0.5,0,0.8s0,0.6,0,0.8c0,1.5,0.1,2.8,0.4,3.8c0.2,1,0.5,1.9,0.9,2.5
				c0.4,0.7,0.8,1.2,1.2,1.5c0.4,0.4,0.9,0.6,1.3,0.7c0.4,0.1,0.7,0.2,1,0.2s0.5,0,0.6,0c0.9,0,1.8-0.3,2.5-0.8
				c0.8-0.5,1.4-1.1,2-1.8c0.6-0.7,1.1-1.5,1.6-2.3c0.5-0.9,0.9-1.7,1.2-2.5s0.6-1.6,0.8-2.3c0.2-0.7,0.4-1.2,0.5-1.6l0.2-0.6
				c0.1-0.1,0.2-0.2,0.4-0.3c0.2,0,0.3-0.1,0.5,0c0.2,0,0.3,0.1,0.4,0.2c0.1,0.1,0.1,0.2,0.1,0.4c0,0.1-0.1,0.4-0.2,1.1
				c-0.1,0.6-0.3,1.4-0.6,2.3s-0.7,1.9-1.2,3s-1.1,2.1-1.9,3c-0.8,1-1.7,1.8-2.7,2.5c-1.1,0.7-2.3,1.2-3.7,1.4c-0.2,0-0.6,0-1.2,0
				s-1.2-0.1-1.9-0.3c-0.7-0.2-1.4-0.6-2.1-1.1c-0.7-0.5-1.4-1.2-2-2.1s-1.1-2.1-1.5-3.6c-0.4-1.4-0.6-3.2-0.6-5.4c0-0.1,0-0.5,0-1
				c0-0.6,0.1-1.3,0.2-2.1c0.1-0.8,0.2-1.8,0.4-2.8s0.4-2.1,0.8-3.2c0.3-1.1,0.7-2.1,1.2-3.1s1.1-1.9,1.8-2.7
				c0.7-0.8,1.5-1.4,2.4-1.9C27.3,23.4,28.4,23.2,29.6,23.2z"/>
			<path class="st1" d="M36.9,35.9v-0.1v-0.1c0-0.2-0.1-0.5-0.1-0.7s0-0.5,0-0.7c0-1,0.2-2,0.5-2.9s0.8-1.7,1.4-2.5
				c0.6-0.8,1.3-1.5,2.1-2.1s1.7-1.1,2.6-1.5c0.9-0.4,1.9-0.7,2.9-0.9c1-0.2,2-0.3,3-0.2c1.2,0.1,2.4,0.3,3.5,0.8s2.1,1.2,3,2.1
				s1.5,2.1,2.1,3.6c0.5,1.4,0.8,3.2,0.8,5.2c0,0.4,0,0.7,0,1.1s-0.1,0.8-0.1,1.2c-0.1,1.3-0.4,2.6-0.7,3.9s-0.8,2.5-1.4,3.7
				c-0.6,1.2-1.3,2.3-2,3.3c-0.8,1-1.7,1.9-2.6,2.6c-1,0.8-2,1.3-3.2,1.8c-1.1,0.4-2.4,0.6-3.7,0.6c-1.2,0-2.3-0.2-3.2-0.6
				s-1.6-0.9-2.3-1.5c-0.6-0.6-1.1-1.3-1.5-2c-0.4-0.8-0.7-1.5-0.9-2.3s-0.3-1.6-0.4-2.3c-0.1-0.8-0.1-1.4-0.1-2c0-0.5,0-0.8,0-1.2
				c0-0.3,0-0.5,0.1-0.6l0,0c0-0.5,0.1-1,0.3-1.5s0.3-1,0.5-1.5c-0.2-0.6-0.3-1.1-0.3-1.6C36.9,36.6,36.9,36.2,36.9,35.9z
				 M42.8,42.9c-0.8-0.1-1.5-0.2-2.1-0.5c-0.6-0.2-1.1-0.5-1.5-0.9c-0.1,0.6-0.2,1.1-0.3,1.7c0,0.5-0.1,1.1-0.1,1.6
				c0,1.2,0.1,2.4,0.4,3.4c0.3,1.1,0.7,2,1.2,2.7c0.5,0.8,1.2,1.4,1.9,1.8c0.8,0.4,1.6,0.6,2.6,0.5c1.1-0.2,2.2-0.7,3.2-1.6
				s1.9-2.1,2.8-3.4c0.8-1.4,1.5-2.9,2.1-4.5c0.6-1.7,1.1-3.3,1.4-4.9c0.1-0.7,0.2-1.4,0.3-2.1s0.1-1.4,0.1-2c0-1.2-0.1-2.3-0.3-3.3
				c-0.2-1.1-0.5-2-0.9-2.8s-0.9-1.5-1.5-2.1s-1.2-1-1.9-1.2c-0.4-0.1-0.7-0.1-1.1-0.1c-0.8,0-1.6,0.2-2.4,0.5
				c-0.8,0.3-1.6,0.8-2.4,1.5c-0.8,0.7-1.4,1.5-2,2.5s-1,2.2-1.3,3.5c0.8-1,1.5-1.7,2.1-2.4c0.6-0.6,1-1,1.2-1.1
				c0.2-0.2,0.4-0.3,0.7-0.4s0.5-0.1,0.7-0.1c0.4,0,0.7,0.1,0.9,0.2c0.2,0.2,0.1,0.4-0.3,0.6c-1.3,1-2.4,2-3.3,3.2
				c-0.9,1.2-1.7,2.4-2.3,3.6c0.1,0.4,0.2,0.8,0.3,1.2c0.1,0.5,0.3,0.9,0.5,1.4c0.2,0.4,0.5,0.9,0.8,1.3s0.7,0.7,1.2,1
				c0.1,0,0.2,0.1,0.3,0.1s0.2,0,0.3,0.1c0.2,0.1,0.4,0.1,0.5,0.2s0.2,0.2,0.2,0.3c0,0.2-0.2,0.4-0.5,0.5
				C44,42.8,43.5,42.9,42.8,42.9z"/>
		</g>
	</g>
	<g>
		<path class="st0" d="M8.1,66.2c0.3-0.1,0.5-0.1,0.7-0.1s0.3,0.1,0.4,0.2c0.1,0.1,0.2,0.2,0.2,0.3c0,0.1,0.1,0.3,0.1,0.4
			c0,0.5-0.1,0.8-0.4,1.1c-0.1,0.1-0.2,0.2-0.4,0.5c-0.2,0.2-0.3,0.5-0.5,0.8s-0.3,0.7-0.4,1.2c-0.1,0.5-0.2,1-0.2,1.6
			c0,0.7,0.1,1.6,0.4,2.6l0,0l1.8,4.7c0.7-0.7,1.5-1.4,2.4-2.3c0.8-0.9,1.5-1.7,2.1-2.6c0.2-0.2,0.3-0.4,0.5-0.5s0.3-0.1,0.5-0.1
			c0.1,0,0.2,0.2,0.3,0.4c0.1,0.2,0,0.4,0,0.7c-0.2,0.5-0.5,1-0.9,1.5c-0.3,0.5-0.7,1-1.1,1.4c-0.4,0.5-0.8,0.9-1.3,1.3
			c-0.4,0.4-0.9,0.8-1.3,1.2l-0.5,0.4c0.3,0.7,0.5,1.4,0.7,2s0.3,1,0.4,1.2c0.1,0.5,0.1,1,0.1,1.3c0,0.5-0.1,1-0.2,1.4
			c-0.2,0.4-0.4,0.7-0.7,0.9c-0.3,0.2-0.6,0.4-1,0.5s-0.7,0.1-1.1,0.1c-1.3,0-2.2-0.2-2.8-0.6c-0.6-0.5-0.8-1.1-0.8-1.9
			c0-0.2,0-0.3,0-0.5s0.1-0.4,0.1-0.5c0.1-0.6,0.4-1.2,0.9-1.7C6.5,82.5,7,82,7.6,81.4c-0.2-0.6-0.5-1.2-0.7-1.8
			c-0.3-0.6-0.5-1.2-0.7-1.7s-0.5-1-0.7-1.4s-0.4-0.8-0.5-1c-0.1-0.1-0.1-0.3-0.2-0.4c-0.1-0.1-0.1-0.2,0-0.1
			c-0.1-0.5-0.3-1-0.3-1.4c-0.1-0.5-0.1-0.9-0.1-1.3c0-1,0.2-1.9,0.5-2.7c0.3-0.7,0.7-1.4,1.1-1.9c0.4-0.5,0.8-0.9,1.2-1.1
			C7.7,66.4,7.9,66.2,8.1,66.2L8.1,66.2z M8.8,86c0-0.7-0.2-1.6-0.5-2.7c-0.2,0.3-0.4,0.6-0.5,0.8c-0.2,0.3-0.3,0.6-0.3,0.9
			c-0.1,0.3-0.1,0.5-0.2,0.7c0,0.2,0,0.4,0,0.5c0,0.6,0.1,0.9,0.3,1s0.4,0.2,0.6,0.1C8.6,87.3,8.8,86.8,8.8,86z"/>
		<path class="st0" d="M7.1,63.1c0.4,0.1,0.8,0.2,1.4,0.2c0.6,0,1.2,0,1.9,0c1.2,0,2.4,0,3.9-0.1l0.5-3.5c0-0.1,0-0.2,0.1-0.3
			c0-0.1,0-0.1,0-0.1c0-0.1,0-0.2,0.1-0.3c0.1-0.1,0.2-0.2,0.4-0.3c0.1-0.1,0.3-0.2,0.5-0.3c0.2-0.1,0.4-0.1,0.6-0.1
			c0.3,0,0.5,0.1,0.7,0.2s0.3,0.4,0.4,0.8c0.1,0.4,0.1,1,0.1,1.8c0,0.3,0,0.6,0,0.9s0,0.7,0,1c0.5,0,1-0.1,1.5-0.1s1-0.1,1.5-0.1
			c0.7-0.1,1.5-0.1,2.2-0.2c0.7,0,1.4-0.1,2.1-0.1c0.7,0,1.3-0.1,1.9-0.1c0.6,0,1.1,0,1.6,0c0.8,0,1.5,0.1,1.8,0.2
			c0.2,0.1,0.4,0.2,0.5,0.4c0.1,0.2,0.1,0.3,0.1,0.5c0,0.1-0.2,0.3-0.4,0.4S30.1,64,29.7,64c-0.3,0-0.6-0.1-1-0.1s-0.7,0-1.1,0
			c-1.1,0-2.4,0.1-4,0.2c-1.5,0.1-3.1,0.2-4.7,0.4l-1.4,0.1l-0.2,4.3c-0.1,1.7-0.2,3.3-0.3,5s-0.1,3.2-0.1,4.6c0,0.7,0,1.4,0,2
			S17,81.6,17,82c0.1,0.4,0.1,0.7,0.2,1c0.1,0.2,0.2,0.3,0.3,0.3c0.3,0,0.5-0.4,0.9-0.9c0.3-0.6,0.6-1.3,0.9-2.1
			c0.3-0.8,0.6-1.6,0.9-2.4c0.3-0.8,0.5-1.5,0.6-2c0-0.1,0.1-0.3,0.1-0.4s0.1-0.3,0.1-0.4c0.1-0.1,0.2-0.2,0.4-0.3
			c0.2,0,0.4,0,0.6,0c0.2,0,0.4,0.1,0.6,0.2c0.1,0.1,0.2,0.2,0.1,0.3c-0.1,0.1-0.1,0.3-0.2,0.6c-0.1,0.4-0.2,0.8-0.3,1.4
			s-0.3,1.2-0.5,1.8c-0.2,0.6-0.5,1.3-0.8,1.9s-0.7,1.2-1.1,1.7c-0.4,0.5-0.9,0.9-1.4,1.3c-0.5,0.3-1.1,0.5-1.7,0.4
			c-0.6,0-1.2-0.3-1.6-0.8c-0.4-0.5-0.8-1.2-1-2.1c-0.3-0.9-0.4-1.9-0.5-3c-0.1-1.2-0.2-2.4-0.2-3.7c0-1.7,0.1-3.4,0.2-5.2
			c0.1-1.8,0.3-3.4,0.4-4.9c-1.6,0.1-3.1,0.2-4.4,0.2c-0.6,0-1.1,0-1.6,0s-0.9-0.1-1.3-0.2h0.1c-0.5-0.1-0.9-0.2-1.1-0.5
			c-0.3-0.2-0.4-0.4-0.4-0.6s0.1-0.4,0.4-0.5C6,63,6.5,63,7.1,63.1z"/>
		<path class="st0" d="M25.9,69.8c0.8,0,1.4,0.1,2,0.3c0.5,0.2,1,0.4,1.3,0.6c0.3,0.3,0.6,0.5,0.8,0.8s0.3,0.6,0.4,0.9
			s0.1,0.6,0.2,0.9c0,0.3,0,0.5,0,0.7c-0.2,1.1-0.5,2-1,2.7s-1,1.3-1.6,1.6c-0.6,0.4-1.3,0.7-1.9,0.8c-0.7,0.2-1.3,0.2-1.9,0.2
			c-0.5,0-1,0-1.3-0.1v0.2c0,0.6,0,1.2,0.1,1.8c0.1,0.6,0.2,1.1,0.4,1.5s0.4,0.8,0.7,1c0.3,0.3,0.6,0.4,0.9,0.4
			c0.8,0,1.5-0.2,2.1-0.5c0.7-0.3,1.3-0.7,1.8-1.2c0.6-0.5,1.1-1,1.5-1.6s0.8-1.2,1.2-1.8c0.3-0.6,0.6-1.2,0.9-1.7
			c0.2-0.5,0.4-1,0.6-1.3l0.3-0.6c0.1-0.1,0.2-0.2,0.4-0.3C34,75,34.2,75,34.4,75c0.2,0,0.4,0.1,0.5,0.2s0.2,0.3,0.2,0.6
			c-0.1,0.3-0.2,0.8-0.4,1.4s-0.5,1.3-1,2.1c-0.4,0.8-0.9,1.6-1.5,2.3c-0.6,0.8-1.2,1.5-1.9,2.2s-1.5,1.2-2.4,1.6S26.1,86,25.1,86
			c-0.9,0-1.7-0.2-2.4-0.4c-0.7-0.3-1.2-0.6-1.7-1c-0.4-0.4-0.8-0.8-1.1-1.3s-0.5-1-0.6-1.4s-0.2-0.8-0.3-1.2c0-0.3-0.1-0.6-0.1-0.7
			v-0.4c0-0.3,0-0.7,0-1.3c0-0.6,0.1-1.3,0.2-2c0.1-0.7,0.3-1.5,0.6-2.3s0.7-1.5,1.2-2.1s1.1-1.2,1.9-1.6
			C23.8,70,24.8,69.8,25.9,69.8z M26.6,71.3c-0.5,0.1-1,0.4-1.4,0.8s-0.8,1-1.1,1.6c-0.3,0.7-0.6,1.4-0.8,2.2
			c-0.2,0.8-0.3,1.6-0.4,2.4c0.1,0,0.2,0,0.3,0s0.2,0,0.4,0c0.4,0,0.8-0.1,1.3-0.2s0.9-0.3,1.3-0.7c0.4-0.3,0.8-0.8,1.1-1.3
			c0.3-0.6,0.5-1.3,0.5-2.1c0-0.3,0-0.6,0-0.9s-0.1-0.6-0.2-0.9c-0.1-0.3-0.2-0.5-0.4-0.7C27,71.4,26.8,71.3,26.6,71.3z"/>
		<path class="st0" d="M40.8,70.2c0.9,0.1,1.7,0.2,2.4,0.6c0.7,0.3,1.2,0.7,1.6,1.2c0.4,0.5,0.7,1,1,1.7c0.2,0.6,0.3,1.3,0.3,2
			c0,0.2,0,0.4,0,0.6s0,0.4-0.1,0.6c0.6-0.3,1.1-0.6,1.5-1s0.8-0.8,1-1.4c0.1-0.2,0.3-0.4,0.5-0.5s0.5-0.2,0.7-0.2
			c0.3,0,0.5,0.1,0.7,0.2s0.2,0.3,0.2,0.6c-0.4,1-1.1,1.9-2,2.5s-2,1.1-3.1,1.5c-0.3,0.7-0.6,1.3-1,1.9s-0.9,1.2-1.5,1.6
			c-0.6,0.5-1.2,0.9-1.9,1.2c-0.7,0.3-1.4,0.5-2.2,0.6C38.5,84,38.1,84,37.8,84c-0.7,0-1.3-0.1-1.7-0.3c0.2,1.7,0.5,3.4,0.9,5.1
			c0.4,1.6,1,3.1,1.8,4.4c0.2,0.4,0.3,0.7,0.1,0.9s-0.4,0.3-0.9,0.3c-0.3,0-0.6-0.1-1-0.2s-0.7-0.3-1.1-0.5
			c-0.6-0.5-1.2-1.3-1.6-2.5c-0.4-1.1-0.8-2.4-1-3.9c-0.3-1.5-0.4-3-0.5-4.6s-0.2-3.1-0.2-4.6c0-1,0-1.9,0.1-2.8
			c0-0.9,0.1-1.7,0.1-2.4c0.1-0.7,0.1-1.3,0.2-1.7c0.1-0.4,0.1-0.7,0.2-0.9c0.2-0.3,0.4-0.6,0.7-0.7s0.6-0.2,0.9-0.2
			c0.4,0,0.7,0.1,0.9,0.4c0.3,0.3,0.4,0.7,0.3,1.2l-0.1,1.1c0.2-0.3,0.5-0.6,0.7-0.8c0.3-0.3,0.6-0.5,1-0.7s0.8-0.4,1.3-0.5
			C39.6,70.2,40.1,70.1,40.8,70.2z M35.7,77.8c0,0.3,0,0.6,0,0.9s0,0.6,0,0.9c0.6-0.4,1.3-0.7,2.2-1c0.9-0.2,1.9-0.4,3-0.6
			c0.3-0.1,0.6-0.1,0.9-0.2c0.3,0,0.6-0.1,0.9-0.2l0.1-0.2c0.1-0.5,0.1-0.9,0.1-1.4c0-1.3-0.3-2.3-0.9-3.1c-0.6-0.8-1.5-1.1-2.6-1
			c-0.5,0-0.9,0.2-1.3,0.5c-0.4,0.3-0.7,0.6-1,1s-0.5,0.8-0.7,1.2c-0.2,0.4-0.4,0.8-0.5,1.1c0,0.1-0.1,0.2-0.1,0.3
			c0,0.1-0.1,0.2-0.1,0.2L35.7,77.8L35.7,77.8z M39.1,82.4c0.3-0.1,0.6-0.2,0.9-0.4c0.3-0.2,0.6-0.4,0.8-0.7
			c0.3-0.3,0.5-0.6,0.7-0.9s0.4-0.6,0.6-1l-0.9,0.2c-0.6,0.1-1.2,0.3-1.7,0.4s-1,0.3-1.4,0.4c-0.4,0.2-0.7,0.3-0.9,0.5
			s-0.3,0.4-0.3,0.7c0,0.2,0.1,0.4,0.3,0.6s0.6,0.3,1,0.3C38.5,82.5,38.8,82.5,39.1,82.4z"/>
		<path class="st0" d="M50.9,66.2c0.3-0.1,0.5-0.1,0.7-0.1s0.3,0.1,0.4,0.2c0.1,0.1,0.2,0.2,0.2,0.3c0,0.1,0.1,0.3,0.1,0.4
			c0,0.5-0.1,0.8-0.4,1.1c-0.1,0.1-0.2,0.2-0.4,0.5c-0.2,0.2-0.3,0.5-0.5,0.8s-0.3,0.7-0.4,1.2c-0.1,0.5-0.2,1-0.2,1.6
			c0,0.7,0.1,1.6,0.4,2.6l0,0l1.8,4.7c0.7-0.7,1.5-1.4,2.4-2.3c0.8-0.9,1.5-1.7,2.1-2.6c0.2-0.2,0.3-0.4,0.5-0.5s0.3-0.1,0.5-0.1
			c0.1,0,0.2,0.2,0.3,0.4c0.1,0.2,0,0.4,0,0.7c-0.2,0.5-0.5,1-0.9,1.5c-0.3,0.5-0.7,1-1.1,1.4c-0.4,0.5-0.8,0.9-1.3,1.3
			c-0.4,0.4-0.9,0.8-1.3,1.2l-0.5,0.4c0.3,0.7,0.5,1.4,0.7,2s0.3,1,0.4,1.2c0.1,0.5,0.1,1,0.1,1.3c0,0.5-0.1,1-0.2,1.4
			c-0.2,0.4-0.4,0.7-0.7,0.9c-0.3,0.2-0.6,0.4-1,0.5s-0.7,0.1-1.1,0.1c-1.3,0-2.2-0.2-2.8-0.6c-0.6-0.5-0.8-1.1-0.8-1.9
			c0-0.2,0-0.3,0-0.5s0.1-0.4,0.1-0.5c0.1-0.6,0.4-1.2,0.9-1.7c0.4-0.6,0.9-1.1,1.5-1.7c-0.2-0.6-0.5-1.2-0.7-1.8
			c-0.3-0.6-0.5-1.2-0.7-1.7s-0.5-1-0.7-1.4s-0.4-0.8-0.5-1c-0.1-0.1-0.1-0.3-0.2-0.4c-0.1-0.1-0.1-0.2,0-0.1
			c-0.1-0.5-0.3-1-0.3-1.4c-0.1-0.5-0.1-0.9-0.1-1.3c0-1,0.2-1.9,0.5-2.7c0.3-0.7,0.7-1.4,1.1-1.9c0.4-0.5,0.8-0.9,1.2-1.1
			C50.5,66.4,50.8,66.2,50.9,66.2L50.9,66.2z M51.6,86c0-0.7-0.2-1.6-0.5-2.7c-0.2,0.3-0.4,0.6-0.5,0.8c-0.2,0.3-0.3,0.6-0.3,0.9
			c-0.1,0.3-0.1,0.5-0.2,0.7c0,0.2,0,0.4,0,0.5c0,0.6,0.1,0.9,0.3,1s0.4,0.2,0.6,0.1C51.4,87.3,51.6,86.8,51.6,86z"/>
	</g>
	<g>
		<g>
			<path class="st1" d="M5,105.4c1.1-1.3,2.2-2.2,3.4-2.9c1.2-0.6,2.4-1,3.6-1.2c0.2,0,0.5,0,0.7-0.1c0.2,0,0.5,0,0.7,0
				c1.2,0,2.4,0.2,3.4,0.5c1.1,0.4,2,0.9,2.8,1.6s1.4,1.5,1.9,2.5s0.7,2.1,0.6,3.4c0,0.5-0.1,0.9-0.3,1.3s-0.4,0.8-0.6,1.2
				c-0.2,0.4-0.5,0.7-0.8,1s-0.6,0.6-1,0.9c-0.8,0.6-1.7,1.1-2.6,1.6c0.1,0.1,0.3,0.2,0.5,0.4c0.2,0.2,0.4,0.4,0.6,0.7
				c0.2,0.3,0.4,0.6,0.5,1s0.2,0.8,0.1,1.3c-0.1,0.7-0.3,1.3-0.6,1.9c-0.3,0.5-0.8,1-1.3,1.4s-1.1,0.7-1.7,1
				c-0.6,0.3-1.2,0.5-1.8,0.6c-0.6,0.2-1.2,0.3-1.7,0.4s-0.9,0.1-1.2,0.1c-1.1-0.1-2-0.2-2.8-0.6c-0.8-0.3-1.4-0.7-1.9-1.1
				s-0.8-0.8-1.1-1.3c-0.2-0.4-0.3-0.8-0.4-1.1c0.1-0.8,0.3-1.4,0.7-1.9s0.9-0.9,1.4-1.2c0.5-0.3,1-0.5,1.4-0.7
				c0.5-0.1,0.8-0.2,1-0.3h0.1h0.1c-0.1-0.8-0.2-1.6-0.2-2.4c-0.1-0.9-0.1-1.7-0.1-2.5s-0.1-1.7-0.1-2.4c0-0.8,0-1.4,0-2
				c0-0.5,0-1,0-1.3s0-0.5,0.1-0.6l0,0c0.1-0.1,0.2-0.2,0.5-0.3c0.2-0.1,0.5-0.1,0.7-0.1s0.4,0,0.6,0.1c0.2,0,0.4,0.1,0.5,0.2
				s0.3,0.2,0.3,0.4c0.1,0.2,0.1,0.3,0.1,0.6c0,0,0,0.2,0,0.6S11,107,11,107.7s-0.1,1.4-0.1,2.2s0,1.7,0,2.5c0,0.6,0,1.2,0,1.8
				c0,0.6,0,1.2,0.1,1.8c0.4,0,0.7,0.1,1,0.2s0.5,0.2,0.7,0.3c0.2,0.1,0.3,0.2,0.4,0.4c0.1,0.1,0.2,0.2,0.3,0.3v0.1
				c0.1,0.1,0.1,0.3,0.1,0.4c0,0.2,0,0.3-0.1,0.4s-0.2,0.1-0.4,0.1s-0.4-0.2-0.7-0.5s-0.7-0.4-1.3-0.6c0.1,1,0.3,1.7,0.6,2.2l0,0
				c0.1,0.2,0.2,0.4,0.2,0.6s-0.1,0.4-0.3,0.5s-0.5,0.1-0.9,0s-0.8-0.3-0.9-0.5c-0.2-0.2-0.3-0.5-0.4-0.7c-0.1-0.3-0.1-0.6-0.2-0.9
				c-0.1-0.4-0.1-0.8-0.2-1.2c0,0-0.1,0-0.2,0c-0.6,0.1-1.1,0.3-1.4,0.6c-0.4,0.3-0.6,0.6-0.9,0.9c-0.2,0.3-0.3,0.7-0.4,1
				s-0.1,0.6-0.1,0.7c0,0.4,0.2,0.8,0.5,1.1c0.3,0.3,0.7,0.6,1.1,0.8c0.4,0.2,0.9,0.3,1.4,0.4s0.9,0.1,1.3,0c1.3-0.2,2.3-0.4,3-0.8
				s1.3-0.8,1.7-1.2c0.4-0.4,0.6-0.9,0.7-1.3c0.1-0.4,0.2-0.8,0.2-1.1c0-0.3-0.1-0.6-0.2-0.9c-0.1-0.3-0.3-0.6-0.6-0.9
				c-0.2-0.3-0.5-0.5-0.9-0.7c-0.3-0.2-0.7-0.3-1.1-0.3c-0.3,0-0.4-0.1-0.4-0.2s0.1-0.2,0.3-0.4c0.2-0.1,0.4-0.3,0.7-0.4
				s0.5-0.2,0.7-0.2c0.6-0.1,1.1-0.2,1.5-0.5c0.4-0.2,0.8-0.5,1.1-0.9c0.3-0.3,0.6-0.7,0.8-1c0.2-0.4,0.4-0.7,0.5-1.1s0.2-0.7,0.3-1
				s0.1-0.5,0.1-0.7c-0.1-1.2-0.3-2.2-0.7-3s-0.9-1.5-1.4-2c-0.6-0.5-1.2-0.9-1.9-1.1s-1.4-0.3-2.1-0.3c-0.2,0-0.4,0-0.6,0
				c-0.2,0-0.4,0-0.6,0.1l0,0c-0.7,0.1-1.4,0.2-2,0.5c-0.6,0.2-1.2,0.5-1.6,0.8c-0.5,0.3-0.9,0.6-1.2,0.8c-0.3,0.3-0.6,0.5-0.8,0.7
				c-0.1,0.1-0.2,0.1-0.3,0.1c-0.2,0-0.3,0-0.4,0c-0.1,0-0.2-0.1-0.3-0.1C5,105.5,5,105.4,5,105.4z"/>
			<path class="st1" d="M27.6,109.4c0.6,0,1.1,0.1,1.5,0.2s0.7,0.3,1,0.5s0.5,0.4,0.6,0.6s0.3,0.5,0.3,0.7c0.1,0.2,0.1,0.5,0.1,0.7
				s0,0.4,0,0.5c-0.1,0.8-0.4,1.5-0.8,2.1c-0.4,0.5-0.8,0.9-1.2,1.2c-0.5,0.3-0.9,0.5-1.5,0.6c-0.5,0.1-1,0.2-1.4,0.2s-0.7,0-1-0.1
				v0.1c0,0.5,0,0.9,0.1,1.4c0.1,0.4,0.2,0.8,0.3,1.1c0.1,0.3,0.3,0.6,0.5,0.8c0.2,0.2,0.4,0.3,0.7,0.3c0.6,0,1.1-0.2,1.6-0.4
				c0.5-0.2,1-0.5,1.4-0.9s0.8-0.8,1.1-1.2c0.3-0.5,0.6-0.9,0.9-1.4c0.3-0.5,0.5-0.9,0.7-1.3s0.3-0.8,0.4-1l0.2-0.4
				c0.1-0.1,0.2-0.2,0.3-0.2s0.3-0.1,0.5-0.1c0.1,0,0.3,0,0.4,0.1c0.1,0.1,0.1,0.2,0.1,0.4c0,0.2-0.1,0.6-0.3,1.1s-0.4,1-0.7,1.6
				s-0.7,1.2-1.1,1.8c-0.4,0.6-0.9,1.2-1.5,1.7c-0.5,0.5-1.2,0.9-1.8,1.2s-1.4,0.5-2.1,0.5c-0.7,0-1.3-0.1-1.8-0.3
				c-0.5-0.2-0.9-0.4-1.3-0.7c-0.3-0.3-0.6-0.6-0.8-1s-0.4-0.7-0.5-1.1c-0.1-0.3-0.2-0.6-0.2-0.9s-0.1-0.5-0.1-0.6V117
				c0-0.2,0-0.5,0-1c0-0.4,0.1-0.9,0.2-1.5c0.1-0.6,0.3-1.1,0.5-1.7s0.5-1.1,0.9-1.6s0.9-0.9,1.5-1.2
				C26,109.5,26.8,109.4,27.6,109.4z M28.1,110.5c-0.4,0.1-0.7,0.3-1.1,0.6c-0.3,0.3-0.6,0.7-0.9,1.2c-0.2,0.5-0.4,1.1-0.6,1.7
				c-0.1,0.6-0.3,1.2-0.3,1.9c0.1,0,0.2,0,0.2,0c0.1,0,0.2,0,0.3,0c0.3,0,0.6,0,1-0.1s0.7-0.3,1-0.5s0.6-0.6,0.8-1s0.4-1,0.4-1.6
				c0-0.2,0-0.4,0-0.7c0-0.2-0.1-0.5-0.2-0.7c-0.1-0.2-0.2-0.4-0.3-0.5C28.4,110.6,28.3,110.6,28.1,110.5z"/>
			<path class="st1" d="M44.6,109.4c0.6,0,1.1,0.1,1.5,0.2s0.7,0.3,1,0.5s0.5,0.4,0.6,0.6s0.3,0.5,0.3,0.7c0.1,0.2,0.1,0.5,0.1,0.7
				s0,0.4,0,0.5c-0.1,0.8-0.4,1.5-0.8,2.1c-0.4,0.5-0.8,0.9-1.2,1.2c-0.5,0.3-0.9,0.5-1.5,0.6c-0.5,0.1-1,0.2-1.4,0.2s-0.7,0-1-0.1
				v0.1c0,0.5,0,0.9,0.1,1.4c0.1,0.4,0.2,0.8,0.3,1.1c0.1,0.3,0.3,0.6,0.5,0.8c0.2,0.2,0.4,0.3,0.7,0.3c0.6,0,1.1-0.2,1.6-0.4
				c0.5-0.2,1-0.5,1.4-0.9s0.8-0.8,1.1-1.2c0.3-0.5,0.6-0.9,0.9-1.4c0.3-0.5,0.5-0.9,0.7-1.3s0.3-0.8,0.4-1l0.2-0.4
				c0.1-0.1,0.2-0.2,0.3-0.2c0.2-0.1,0.3-0.1,0.5-0.1c0.1,0,0.3,0,0.4,0.1c0.1,0.1,0.1,0.2,0.1,0.4c0,0.2-0.1,0.6-0.3,1.1
				s-0.4,1-0.7,1.6s-0.7,1.2-1.1,1.8c-0.4,0.6-0.9,1.2-1.5,1.7c-0.5,0.5-1.2,0.9-1.8,1.2s-1.4,0.5-2.1,0.5c-0.7,0-1.3-0.1-1.8-0.3
				c-0.5-0.2-0.9-0.4-1.3-0.7c-0.3-0.3-0.6-0.6-0.8-1s-0.4-0.7-0.5-1.1c-0.1-0.3-0.2-0.6-0.2-0.9s-0.1-0.5-0.1-0.6V117
				c0-0.2,0-0.5,0-1c0-0.4,0.1-0.9,0.2-1.5c0.1-0.6,0.3-1.1,0.5-1.7s0.5-1.1,0.9-1.6s0.9-0.9,1.5-1.2
				C43,109.5,43.7,109.4,44.6,109.4z M45.1,110.5c-0.4,0.1-0.7,0.3-1.1,0.6c-0.3,0.3-0.6,0.7-0.9,1.2c-0.2,0.5-0.4,1.1-0.6,1.7
				c-0.1,0.6-0.3,1.2-0.3,1.9c0.1,0,0.2,0,0.2,0c0.1,0,0.2,0,0.3,0c0.3,0,0.6,0,1-0.1s0.7-0.3,1-0.5s0.6-0.6,0.8-1s0.4-1,0.4-1.6
				c0-0.2,0-0.4,0-0.7c0-0.2-0.1-0.5-0.2-0.7c-0.1-0.2-0.2-0.4-0.3-0.5C45.4,110.6,45.3,110.6,45.1,110.5z"/>
			<path class="st1" d="M54.6,108.5c0.7,0,1.2,0.1,1.7,0.3c0.4,0.2,0.8,0.5,1,0.8s0.4,0.7,0.5,1.1s0.1,0.8,0.1,1.1
				c0,0.4,0,0.8-0.1,1.1c-0.1,0.3-0.1,0.6-0.2,0.7l0,0c-0.1,0.2-0.3,0.4-0.5,0.5s-0.4,0.2-0.6,0.3c-0.2,0.1-0.4,0.1-0.5,0.1
				s-0.2,0-0.2-0.1c0.2-0.4,0.3-0.8,0.4-1.2c0.1-0.4,0.1-0.8,0.1-1.2c0-0.3,0-0.6-0.1-0.9s-0.1-0.5-0.3-0.8
				c-0.1-0.2-0.3-0.4-0.5-0.5s-0.4-0.2-0.7-0.2c-0.2,0-0.4,0.1-0.6,0.4c-0.2,0.3-0.4,0.6-0.5,1s-0.3,0.8-0.4,1.3
				c-0.1,0.5-0.2,0.9-0.3,1.3s-0.1,0.8-0.2,1.1c0,0.3-0.1,0.5-0.1,0.6c0,0.2-0.1,0.5-0.1,0.7s0,0.4,0,0.6c0,0.7,0.1,1.2,0.2,1.6
				c0.1,0.4,0.3,0.8,0.5,1.1c0.2,0.3,0.4,0.4,0.6,0.6c0.2,0.1,0.4,0.2,0.6,0.2c0.5,0,1-0.2,1.5-0.7c0.5-0.4,1-1,1.4-1.6
				s0.9-1.3,1.2-1.9c0.4-0.7,0.7-1.2,0.9-1.7c0.1-0.2,0.2-0.4,0.3-0.5s0.2-0.3,0.2-0.3c0.1-0.1,0.3-0.2,0.4-0.3
				c0.2-0.1,0.3-0.1,0.4,0c0.1,0,0.2,0.1,0.3,0.2s0.1,0.3,0.1,0.5c0,0.1-0.1,0.4-0.2,0.7c-0.1,0.4-0.4,0.8-0.6,1.4
				c-0.3,0.5-0.6,1.1-1,1.6c-0.4,0.6-0.8,1.1-1.3,1.6s-1,0.9-1.6,1.2c-0.6,0.3-1.2,0.5-1.9,0.5c-0.8,0-1.5,0-2.1-0.2s-1-0.4-1.4-0.6
				c-0.4-0.3-0.7-0.5-0.9-0.9c-0.2-0.3-0.3-0.6-0.4-1c-0.1-0.3-0.1-0.6-0.1-0.9s0-0.5,0-0.7v-0.2c0-0.1,0-0.4,0-0.8s0.1-0.9,0.2-1.5
				c0.1-0.6,0.3-1.2,0.5-1.8c0.2-0.6,0.5-1.2,0.8-1.7s0.8-1,1.3-1.3C53.3,108.7,53.9,108.5,54.6,108.5z"/>
			<path class="st1" d="M60.2,112c0.1-0.1,0.2-0.1,0.4-0.1c0.1,0,0.2,0,0.4,0c0-0.2,0.1-0.5,0.2-0.8c0.1-0.3,0.3-0.6,0.5-0.9
				s0.6-0.5,1-0.7s1-0.3,1.7-0.3s1.3,0.2,1.7,0.4c0.5,0.3,0.8,0.6,1.1,1s0.4,0.9,0.5,1.3c0.1,0.5,0.1,0.9,0.1,1.3v0.2v0.7
				c0.5-0.2,0.9-0.5,1.4-0.8c0.4-0.3,0.8-0.7,1.1-1.2l0,0c0.1-0.1,0.2-0.2,0.3-0.3c0.2-0.1,0.3-0.1,0.4-0.1c0.2,0,0.3,0.1,0.3,0.2
				s0,0.3-0.1,0.6c-0.2,0.4-0.4,0.8-0.7,1.1c-0.3,0.3-0.6,0.6-0.9,0.9c-0.3,0.3-0.7,0.5-1,0.7s-0.7,0.4-1,0.5
				c-0.1,0.5-0.2,1-0.4,1.5s-0.5,0.9-0.8,1.3s-0.8,0.7-1.3,1c-0.5,0.2-1.2,0.4-1.9,0.4c-0.8,0-1.5-0.1-2-0.4
				c-0.5-0.2-0.9-0.6-1.2-0.9c-0.3-0.4-0.5-0.8-0.6-1.3s-0.2-1-0.2-1.5s0-0.9,0.1-1.3s0.2-0.8,0.3-1.2c0.1-0.4,0.2-0.7,0.4-0.9
				C60,112.2,60.2,112.1,60.2,112z M65.3,116.2c-0.9,0-1.5-0.2-2.1-0.4c-0.5-0.2-1-0.5-1.3-0.8v0.4c0,0.4,0,0.7,0.1,1.1
				c0,0.4,0.1,0.7,0.3,1c0.1,0.3,0.3,0.5,0.5,0.7s0.5,0.3,0.9,0.3c0.3,0,0.5-0.1,0.7-0.2s0.4-0.3,0.6-0.5c0.2-0.2,0.3-0.4,0.4-0.7
				c0.1-0.3,0.2-0.5,0.3-0.8c-0.1,0-0.2,0-0.2,0S65.4,116.3,65.3,116.2z M65.2,114.8c0.2,0,0.5,0,0.9-0.1c0-0.3,0.1-0.5,0.1-0.7
				s0-0.3,0-0.4c0-0.5,0-0.9-0.1-1.3c0-0.4-0.1-0.8-0.3-1.2c-0.1-0.3-0.4-0.6-0.6-0.8c-0.3-0.2-0.6-0.3-1-0.2
				c-0.2,0-0.4,0.1-0.6,0.3c-0.2,0.2-0.4,0.4-0.5,0.6s-0.2,0.5-0.3,0.7s-0.1,0.5,0,0.6l0.1,0.4c0,0.2,0.1,0.4,0.1,0.7
				c0.1,0.2,0.2,0.5,0.3,0.7c0.2,0.2,0.4,0.4,0.7,0.5C64.3,114.7,64.7,114.8,65.2,114.8z"/>
			<path class="st1" d="M72.2,102.1c0.3-0.3,0.6-0.5,0.9-0.7c0.3-0.1,0.7-0.2,1-0.2s0.6,0.1,0.9,0.2c0.3,0.1,0.6,0.3,0.8,0.5
				s0.4,0.5,0.6,0.8c0.1,0.3,0.2,0.6,0.2,1c0,1.6-0.2,3-0.5,4.3s-0.7,2.5-1.1,3.6c-0.4,1.1-0.9,2-1.4,2.8s-0.9,1.5-1.3,2
				c0.1,0.7,0.1,1.3,0.2,1.8c0.1,0.5,0.2,0.9,0.3,1.2c0.1,0.3,0.2,0.5,0.3,0.7c0.1,0.1,0.1,0.2,0.2,0.2c0.2,0,0.5-0.2,0.8-0.6
				s0.7-0.8,1-1.3c0.4-0.5,0.7-1.1,1.1-1.7c0.4-0.6,0.7-1.2,1-1.7s0.5-1,0.7-1.4s0.3-0.6,0.3-0.6c0-0.1,0.1-0.2,0.2-0.3
				c0.1-0.1,0.3-0.1,0.4-0.1c0.1,0,0.3,0,0.4,0.1c0.1,0.1,0.2,0.2,0.3,0.4c0,0.2-0.1,0.5-0.3,0.9s-0.4,0.9-0.7,1.5
				c-0.3,0.5-0.6,1.1-0.9,1.7c-0.3,0.6-0.7,1.1-1,1.6s-0.6,0.9-0.8,1.3s-0.4,0.6-0.5,0.7c-0.3,0.3-0.6,0.5-1,0.7
				c-0.4,0.1-0.7,0.2-1.1,0.2c-0.3,0-0.6-0.1-0.9-0.2c-0.3-0.1-0.5-0.3-0.7-0.5c-0.4-0.4-0.7-0.9-1-1.5s-0.5-1.2-0.7-1.9
				c-0.2-0.7-0.3-1.3-0.4-2.1c-0.1-0.7-0.1-1.4-0.1-2.2c0-1.2,0.1-2.4,0.3-3.7c0.2-1.2,0.4-2.3,0.7-3.4c0.3-1,0.6-1.9,0.9-2.7
				C71.6,102.9,71.9,102.4,72.2,102.1z M72.3,114.8c0.4-0.8,0.7-1.5,1-2.3s0.5-1.6,0.7-2.3c0.2-0.8,0.3-1.5,0.4-2.2
				c0.1-0.7,0.2-1.3,0.2-1.9s0.1-1.1,0.1-1.5s0-0.7,0-0.9v-0.2c0-0.8-0.1-1.3-0.3-1.3c-0.1,0-0.2,0.1-0.4,0.4
				c-0.1,0.3-0.3,0.6-0.4,1.1c-0.2,1-0.4,2-0.6,3c-0.2,1-0.3,1.9-0.4,2.8c-0.1,0.9-0.2,1.7-0.3,2.5s-0.1,1.5-0.1,2.1L72.3,114.8
				L72.3,114.8z"/>
			<path class="st1" d="M77.8,112c0.1-0.1,0.2-0.1,0.4-0.1s0.2,0,0.4,0c0-0.2,0.1-0.5,0.2-0.8c0.1-0.3,0.3-0.6,0.5-0.9
				s0.6-0.5,1-0.7s1-0.3,1.7-0.3s1.3,0.2,1.7,0.4c0.5,0.3,0.8,0.6,1.1,1s0.4,0.9,0.5,1.3c0.1,0.5,0.1,0.9,0.1,1.3v0.2v0.7
				c0.5-0.2,0.9-0.5,1.4-0.8c0.4-0.3,0.8-0.7,1.1-1.2l0,0c0.1-0.1,0.2-0.2,0.3-0.3c0.2-0.1,0.3-0.1,0.4-0.1c0.2,0,0.3,0.1,0.3,0.2
				s0,0.3-0.1,0.6c-0.2,0.4-0.4,0.8-0.7,1.1c-0.3,0.3-0.6,0.6-0.9,0.9c-0.3,0.3-0.7,0.5-1,0.7s-0.7,0.4-1,0.5
				c-0.1,0.5-0.2,1-0.4,1.5s-0.5,0.9-0.8,1.3s-0.8,0.7-1.3,1c-0.5,0.2-1.2,0.4-1.9,0.4c-0.8,0-1.5-0.1-2-0.4
				c-0.5-0.2-0.9-0.6-1.2-0.9c-0.3-0.4-0.5-0.8-0.6-1.3s-0.2-1-0.2-1.5s0-0.9,0.1-1.3s0.2-0.8,0.3-1.2c0.1-0.4,0.2-0.7,0.4-0.9
				C77.6,112.2,77.7,112.1,77.8,112z M82.9,116.2c-0.9,0-1.5-0.2-2.1-0.4c-0.5-0.2-1-0.5-1.3-0.8v0.4c0,0.4,0,0.7,0.1,1.1
				s0.1,0.7,0.3,1c0.1,0.3,0.3,0.5,0.5,0.7s0.5,0.3,0.9,0.3c0.3,0,0.5-0.1,0.7-0.2s0.4-0.3,0.6-0.5c0.2-0.2,0.3-0.4,0.4-0.7
				c0.1-0.3,0.2-0.5,0.3-0.8c-0.1,0-0.2,0-0.2,0C83,116.3,82.9,116.3,82.9,116.2z M82.8,114.8c0.2,0,0.5,0,0.9-0.1
				c0-0.3,0.1-0.5,0.1-0.7s0-0.3,0-0.4c0-0.5,0-0.9-0.1-1.3c0-0.4-0.1-0.8-0.3-1.2c-0.1-0.3-0.4-0.6-0.6-0.8c-0.3-0.2-0.6-0.3-1-0.2
				c-0.2,0-0.4,0.1-0.6,0.3c-0.2,0.2-0.4,0.4-0.5,0.6s-0.2,0.5-0.3,0.7s-0.1,0.5,0,0.6l0.1,0.4c0,0.2,0.1,0.4,0.1,0.7
				c0.1,0.2,0.2,0.5,0.3,0.7c0.2,0.2,0.4,0.4,0.7,0.5C81.9,114.7,82.3,114.8,82.8,114.8z"/>
			<path class="st1" d="M91.8,109.1c0.6,0,1,0,1.4,0.1s0.7,0.3,0.9,0.4c0.2,0.2,0.4,0.3,0.5,0.5s0.2,0.3,0.2,0.5l0.1,0.2l0,0
				c0.1,0.2,0.1,0.4,0,0.5s-0.2,0.2-0.4,0.2h0.2c0.3,0,0.5,0,0.8,0.1c0.2,0.1,0.4,0.1,0.5,0.2s0.2,0.3,0.2,0.7c0,0.3,0,0.6-0.1,1
				c0,0.4-0.1,0.9-0.2,1.4c-0.1,0.5-0.2,1.1-0.3,1.7s-0.3,1.3-0.4,1.9c0.9-1,1.8-2,2.5-3c0.7-0.9,1.3-1.8,1.7-2.6
				c0-0.1,0.1-0.1,0.3-0.1c0.1,0,0.3,0,0.4,0.1c0.1,0.1,0.3,0.1,0.4,0.2c0.1,0.1,0.1,0.2,0.1,0.4c-0.3,0.6-0.6,1.3-1,1.9
				c-0.4,0.7-0.9,1.3-1.4,2s-1.1,1.4-1.7,2c-0.6,0.7-1.2,1.3-1.8,2c-0.3,1-0.5,1.9-0.8,2.8s-0.5,1.8-0.8,2.6
				c-0.3,0.8-0.5,1.5-0.8,2.1s-0.5,1-0.7,1.3c-0.5,0.5-1,1-1.5,1.3s-1.1,0.4-1.5,0.4c-0.6,0-1-0.2-1.4-0.5c-0.4-0.4-0.6-0.9-0.6-1.5
				c0-0.4,0.1-0.9,0.2-1.3c0.1-0.4,0.4-0.8,0.7-1.3s0.8-1,1.3-1.6s1.1-1.2,1.7-1.9c0.6-0.7,1.3-1.3,1.9-2.1c0.1-0.5,0.1-0.9,0.2-1.4
				c0.1-0.4,0.1-0.9,0.2-1.4c-0.3,0.2-0.7,0.4-1.1,0.4c-0.7,0-1.2,0-1.7-0.2s-0.9-0.4-1.2-0.7c-0.3-0.3-0.6-0.6-0.8-1
				s-0.3-0.7-0.4-1.1c-0.1-0.4-0.2-0.8-0.2-1.1c0-0.4-0.1-0.7-0.1-1c0-0.4,0-0.9,0.1-1.5s0.3-1.2,0.6-1.7c0.3-0.6,0.8-1,1.4-1.4
				C89.9,109.4,90.7,109.2,91.8,109.1z M89.3,130.1c0.5-0.4,0.9-1.1,1.3-2.1c0.4-1,0.7-2.1,1-3.4c-0.5,0.5-0.9,1-1.3,1.5
				c-0.4,0.5-0.8,1-1.1,1.4s-0.5,0.9-0.7,1.3s-0.2,0.8-0.2,1.1c0,0.1,0,0.2,0.1,0.4c0,0.2,0.1,0.2,0.2,0.2c0.1,0,0.2,0,0.3-0.1
				C89,130.3,89.2,130.2,89.3,130.1z M93.1,112.6c0-0.3,0.1-0.5,0.3-0.7s0.5-0.3,0.8-0.3l0,0c-0.1,0-0.3,0-0.4-0.1
				c-0.2-0.1-0.3-0.2-0.4-0.3c-0.1-0.1-0.1-0.1-0.1-0.1s0-0.1-0.1-0.1c-0.1-0.2-0.2-0.3-0.3-0.5c-0.2-0.2-0.4-0.3-0.8-0.3
				c-0.2,0-0.5,0.1-0.7,0.2s-0.5,0.3-0.7,0.6s-0.4,0.7-0.5,1.2s-0.2,1.2-0.3,2.1c0,0.1,0,0.2,0,0.3c0,0.1,0,0.2,0,0.3
				c0,0.8,0.1,1.5,0.2,2c0.1,0.5,0.3,0.8,0.5,1s0.4,0.3,0.6,0.4c0.2,0,0.3,0,0.4,0c0.2,0,0.5-0.2,0.7-0.5s0.4-0.7,0.6-1
				c0.1-0.6,0.1-1.1,0.1-1.6s0.1-0.9,0.1-1.3s0.1-0.7,0.1-0.9C93.1,112.8,93.1,112.7,93.1,112.6z"/>
			<path class="st1" d="M99,112.1c0-0.1,0-0.1,0-0.1c0-0.2,0.1-0.4,0.4-0.6c0.3-0.2,0.6-0.2,0.9-0.2c0.2,0,0.5,0.1,0.7,0.2
				s0.3,0.3,0.4,0.6c0,0.2,0.1,0.4,0.1,0.7c0,0.2,0,0.5,0,0.8c0,0.5,0,1,0,1.5s-0.1,1.1-0.1,1.6s-0.1,1.1-0.1,1.6s0,1,0,1.4
				c0,0.7,0,1.2,0.1,1.7c0.1,0.4,0.2,0.6,0.4,0.6c0.1,0,0.3-0.2,0.4-0.5c0.2-0.3,0.4-0.7,0.5-1.1c0.2-0.5,0.4-1,0.6-1.6
				c0.2-0.6,0.4-1.2,0.6-1.7c0.2-0.6,0.4-1.1,0.5-1.7c0.2-0.5,0.3-1,0.4-1.4l0.3-0.9c0.1-0.2,0.2-0.3,0.3-0.3c0.1-0.1,0.3-0.1,0.4,0
				s0.3,0.1,0.4,0.2c0.1,0.1,0.2,0.2,0.2,0.4c0,0.3-0.1,0.8-0.2,1.4c-0.1,0.6-0.3,1.3-0.5,2s-0.4,1.4-0.7,2.2c-0.3,0.7-0.6,1.4-1,2
				s-0.8,1.1-1.3,1.5s-1,0.6-1.5,0.6c-0.5-0.1-0.9-0.3-1.2-0.6c-0.3-0.3-0.6-0.8-0.8-1.3s-0.4-1.1-0.4-1.7c-0.1-0.6-0.1-1.3-0.1-2
				c0-0.6,0-1.1,0.1-1.7c0-0.6,0.1-1.1,0.1-1.5c0-0.5,0.1-0.9,0.1-1.2C99,112.4,99,112.2,99,112.1z M98.9,109.2c0-0.4,0.1-0.8,0.4-1
				c0.3-0.3,0.6-0.4,0.9-0.4c0.4,0,0.7,0.1,0.9,0.4c0.3,0.3,0.4,0.6,0.4,1s-0.1,0.8-0.4,1.1c-0.3,0.3-0.6,0.4-0.9,0.4
				c-0.4,0-0.7-0.1-0.9-0.4C99.1,110,98.9,109.6,98.9,109.2z"/>
			<path class="st1" d="M109.3,108.5c0.7,0,1.2,0.1,1.7,0.3c0.4,0.2,0.8,0.5,1,0.8s0.4,0.7,0.5,1.1s0.1,0.8,0.1,1.1
				c0,0.4,0,0.8-0.1,1.1c-0.1,0.3-0.1,0.6-0.2,0.7l0,0c-0.1,0.2-0.3,0.4-0.5,0.5s-0.4,0.2-0.6,0.3c-0.2,0.1-0.4,0.1-0.5,0.1
				s-0.2,0-0.2-0.1c0.2-0.4,0.3-0.8,0.4-1.2c0.1-0.4,0.1-0.8,0.1-1.2c0-0.3,0-0.6-0.1-0.9s-0.1-0.5-0.3-0.8
				c-0.1-0.2-0.3-0.4-0.5-0.5s-0.4-0.2-0.7-0.2c-0.2,0-0.4,0.1-0.6,0.4c-0.2,0.3-0.4,0.6-0.5,1s-0.3,0.8-0.4,1.3
				c-0.1,0.5-0.2,0.9-0.3,1.3s-0.1,0.8-0.2,1.1c0,0.3-0.1,0.5-0.1,0.6c0,0.2-0.1,0.5-0.1,0.7s0,0.4,0,0.6c0,0.7,0.1,1.2,0.2,1.6
				c0.1,0.4,0.3,0.8,0.5,1.1c0.2,0.3,0.4,0.4,0.7,0.6c0.2,0.1,0.4,0.2,0.6,0.2c0.5,0,1-0.2,1.5-0.7c0.5-0.4,1-1,1.4-1.6
				s0.9-1.3,1.2-1.9c0.4-0.7,0.7-1.2,0.9-1.7c0.1-0.2,0.2-0.4,0.3-0.5c0.1-0.1,0.2-0.3,0.2-0.3c0.1-0.1,0.3-0.2,0.4-0.3
				c0.2-0.1,0.3-0.1,0.4,0c0.1,0,0.2,0.1,0.3,0.2c0.1,0.1,0.1,0.3,0.1,0.5c0,0.1-0.1,0.4-0.2,0.7c-0.1,0.4-0.4,0.8-0.6,1.4
				c-0.3,0.5-0.6,1.1-1,1.6c-0.4,0.6-0.8,1.1-1.3,1.6s-1,0.9-1.6,1.2c-0.6,0.3-1.2,0.5-1.9,0.5c-0.8,0-1.5,0-2.1-0.2s-1-0.4-1.4-0.6
				c-0.4-0.3-0.7-0.5-0.9-0.9c-0.2-0.3-0.3-0.6-0.4-1c-0.1-0.3-0.1-0.6-0.1-0.9s0-0.5,0-0.7v-0.2c0-0.1,0-0.4,0-0.8s0.1-0.9,0.2-1.5
				c0.1-0.6,0.3-1.2,0.5-1.8c0.2-0.6,0.5-1.2,0.8-1.7s0.8-1,1.3-1.3S108.6,108.5,109.3,108.5z"/>
		</g>
	</g>
</g>
</svg>
