<?xml version="1.0" encoding="utf-8"?>
<!-- Generator: Adobe Illustrator 21.1.0, SVG Export Plug-In . SVG Version: 6.00 Build 0)  -->
<svg version="1.1" id="Layer_1" xmlns="http://www.w3.org/2000/svg" xmlns:xlink="http://www.w3.org/1999/xlink" x="0px" y="0px"
	 viewBox="0 0 244.1 259.9" style="enable-background:new 0 0 244.1 259.9;" xml:space="preserve">
<style type="text/css">
	.st0{fill:#508C3E;}
	.st1{fill:#201916;}
	.st2{opacity:0.7;}
</style>
<g>
	<g>
		<g>
			<path class="st0" d="M54.2,69.8c0.1,0,0.5,0,1,0c0.5,0.1,1.1,0.2,1.7,0.4c0.6-0.1,1.2-0.2,2-0.2s1.6-0.1,2.6-0.1
				c1.2,0,2.5,0.1,3.8,0.2c1.3,0.1,2.7,0.4,4,0.7c0.3,0.1,0.6,0.2,0.7,0.3c0.1,0.1,0.2,0.3,0.2,0.4c0,0.2-0.1,0.4-0.3,0.5
				c-0.2,0.1-0.5,0.2-0.8,0.2c-1.9-0.3-3.6-0.5-4.9-0.6c-1.3-0.1-2.5-0.2-3.4-0.2c-0.8,0-1.5,0-2,0.1c-0.1,0.9-0.2,1.8-0.3,2.8
				c-0.1,1-0.2,2-0.3,3.1l-0.3,3.1l3.7-0.1c0.6,0,1.3,0,1.9,0c0.6,0,1.2,0,1.8,0c0.5,0,1,0,1.4,0c0.4,0,0.7,0,0.8,0
				c0.5,0,0.8,0,1.1,0.2c0.3,0.2,0.4,0.3,0.4,0.5c0,0.2-0.1,0.3-0.3,0.5c-0.2,0.2-0.5,0.2-1,0.2c-0.1,0-0.3,0-0.7,0
				c-0.4,0-0.9,0.1-1.5,0.1c-0.6,0-1.3,0.1-2,0.1c-0.7,0.1-1.4,0.1-2.2,0.2c-0.7,0.1-1.4,0.1-2.1,0.2c-0.7,0.1-1.2,0.1-1.7,0.1
				c-0.1,1.5-0.2,3-0.3,4.5c-0.1,1.5-0.1,2.9-0.1,4.2c0,1.2,0,2.3,0.1,3.4c0.1,1.1,0.2,2.1,0.5,2.9c0.2,0.9,0.5,1.6,0.8,2.3
				c0.3,0.6,0.8,1.1,1.2,1.4c0.1,0,0.5,0.1,1,0.1c0.6,0,1.4-0.1,2.4-0.2c0.9-0.1,1.9-0.3,2.8-0.6c0.9-0.3,1.8-0.6,2.5-1.1
				c0.8-0.4,1.3-1,1.6-1.7c0.1-0.1,0.2-0.2,0.3-0.1c0.2,0,0.3,0.1,0.5,0.2c0.2,0.1,0.3,0.3,0.4,0.5c0.1,0.2,0.2,0.4,0.2,0.5
				c-0.2,0.7-0.6,1.2-1.2,1.7c-0.6,0.5-1.2,0.8-1.9,1.1c-0.7,0.3-1.5,0.5-2.4,0.7c-0.8,0.2-1.7,0.3-2.5,0.4
				c-0.8,0.1-1.6,0.1-2.3,0.2c-0.7,0-1.3,0-1.8,0c-1,0-1.9-0.1-2.6-0.3c-0.7-0.2-1.2-0.4-1.6-0.7s-0.8-0.6-1-0.9
				c-0.3-0.3-0.5-0.7-0.7-1v0l-0.2-0.3c-0.2-0.2-0.3-0.6-0.4-1.1c-0.1-0.5-0.2-1.1-0.3-1.9c-0.1-0.7-0.1-1.5-0.2-2.4
				c0-0.9,0-1.8,0-2.9c0-1.5,0-3,0.1-4.7c0.1-1.7,0.1-3.3,0.2-4.9c0.1-1.6,0.2-3.1,0.3-4.6c0.1-1.5,0.2-2.8,0.3-3.9
				c0.1-1.1,0.2-2,0.3-2.7C54,70.2,54.1,69.9,54.2,69.8z"/>
			<path class="st0" d="M81.4,68.8c1.2,0,2.2,0.1,3.1,0.4c0.8,0.3,1.5,0.7,2.1,1.1c0.6,0.5,1,1,1.3,1.6c0.3,0.6,0.6,1.1,0.7,1.7
				c0.2,0.5,0.3,1.1,0.3,1.5c0,0.5,0,0.9,0,1.1c-0.1,1.3-0.2,2.3-0.5,3.2c-0.3,0.9-0.6,1.6-1,2.2c-0.4,0.6-0.8,1-1.3,1.4
				c-0.5,0.3-0.9,0.6-1.3,0.7c-0.4,0.2-0.9,0.3-1.2,0.3c-0.4,0-0.7,0-0.9,0c-0.5,0-1.1-0.1-1.7-0.4c-0.6-0.2-1.2-0.6-1.6-1
				c-0.1-0.1-0.2-0.3-0.2-0.5c-0.1-0.2-0.1-0.3-0.1-0.5c0-0.3,0.1-0.5,0.3-0.5c0.2-0.1,0.6,0.1,1.1,0.5c0.9,0.6,1.7,1,2.3,1
				c0.7,0,1.4-0.6,1.8-1.7c0.5-1.1,0.8-2.7,0.9-4.8c0-0.1,0-0.3,0-0.4c0-0.2,0-0.3,0-0.4c0-0.9-0.1-1.7-0.3-2.3
				c-0.2-0.6-0.4-1.1-0.7-1.5s-0.6-0.7-0.9-0.9c-0.3-0.2-0.6-0.4-0.9-0.5c-0.3-0.1-0.6-0.1-0.8-0.1c-0.3,0-0.4,0-0.6,0
				c-0.7,0.1-1.4,0.4-1.9,0.9c-0.6,0.5-1.1,1.2-1.6,2c-0.5,0.8-0.9,1.8-1.2,2.8c-0.3,1.1-0.6,2.1-0.9,3.3c-0.2,1.1-0.4,2.2-0.6,3.3
				c-0.2,1.1-0.3,2.1-0.4,3c-0.1,0.9-0.2,1.7-0.2,2.3s-0.1,1.1-0.1,1.3c0,0.3,0,0.6,0,0.9c0,0.3,0,0.7,0,0.9c0,1.7,0.1,3.2,0.4,4.4
				c0.3,1.2,0.6,2.2,1,2.9c0.4,0.7,0.9,1.3,1.4,1.7c0.5,0.4,1,0.7,1.4,0.8c0.5,0.2,0.9,0.3,1.2,0.3c0.3,0,0.6,0,0.7,0
				c1,0,2-0.3,2.9-0.9s1.6-1.2,2.3-2c0.7-0.8,1.3-1.7,1.8-2.7c0.5-1,1-1.9,1.4-2.9c0.4-0.9,0.7-1.8,1-2.6c0.3-0.8,0.4-1.4,0.6-1.8
				l0.2-0.6c0.1-0.1,0.2-0.2,0.4-0.3c0.2-0.1,0.4-0.1,0.6,0c0.2,0,0.3,0.1,0.5,0.2c0.1,0.1,0.2,0.3,0.1,0.5c0,0.1-0.1,0.5-0.2,1.2
				c-0.1,0.7-0.4,1.6-0.7,2.6c-0.3,1-0.8,2.2-1.4,3.4c-0.6,1.2-1.3,2.4-2.2,3.4c-0.9,1.1-1.9,2-3.1,2.8c-1.2,0.8-2.6,1.3-4.3,1.5
				c-0.3,0-0.7,0-1.4,0c-0.6,0-1.3-0.2-2.1-0.4c-0.8-0.2-1.6-0.6-2.4-1.2c-0.8-0.6-1.6-1.4-2.3-2.4c-0.7-1.1-1.2-2.4-1.7-4.1
				c-0.4-1.7-0.7-3.7-0.7-6.1c0-0.1,0-0.5,0-1.2c0-0.6,0.1-1.4,0.2-2.4c0.1-1,0.3-2,0.5-3.2c0.2-1.2,0.5-2.4,0.9-3.6
				c0.4-1.2,0.8-2.4,1.4-3.6c0.6-1.2,1.2-2.2,2-3.1c0.8-0.9,1.7-1.6,2.8-2.2C78.8,69,80,68.8,81.4,68.8z"/>
			<path class="st0" d="M89.7,83.3c0,0,0-0.1,0-0.1c0,0,0-0.1,0-0.1c0-0.3-0.1-0.5-0.1-0.8c0-0.3,0-0.5,0-0.8c0-1.1,0.2-2.2,0.6-3.3
				c0.4-1,0.9-2,1.6-2.9c0.7-0.9,1.5-1.7,2.4-2.4s1.9-1.3,3-1.8c1.1-0.5,2.2-0.8,3.3-1c1.1-0.2,2.3-0.3,3.4-0.2
				c1.4,0.1,2.7,0.4,4,0.9c1.3,0.5,2.4,1.3,3.4,2.4c1,1.1,1.8,2.4,2.3,4.1c0.6,1.7,0.9,3.6,0.9,5.9c0,0.4,0,0.8,0,1.3
				c0,0.4-0.1,0.9-0.1,1.4c-0.1,1.5-0.4,3-0.8,4.5c-0.4,1.5-0.9,2.9-1.6,4.2c-0.7,1.3-1.4,2.6-2.3,3.8c-0.9,1.2-1.9,2.2-3,3
				c-1.1,0.9-2.3,1.5-3.6,2c-1.3,0.5-2.7,0.7-4.2,0.7c-1.4,0-2.6-0.2-3.6-0.7c-1-0.4-1.9-1-2.6-1.7c-0.7-0.7-1.3-1.5-1.7-2.3
				c-0.4-0.9-0.8-1.8-1-2.7c-0.2-0.9-0.4-1.8-0.5-2.7c-0.1-0.9-0.1-1.6-0.1-2.3c0-0.5,0-1,0-1.3c0-0.4,0-0.6,0.1-0.7v0
				c0-0.6,0.1-1.2,0.3-1.8c0.2-0.6,0.4-1.2,0.6-1.8c-0.2-0.6-0.3-1.2-0.4-1.8C89.7,84,89.7,83.6,89.7,83.3z M96.5,91.2
				c-0.9-0.1-1.7-0.2-2.4-0.5c-0.7-0.3-1.3-0.6-1.7-1c-0.1,0.6-0.2,1.3-0.3,1.9C92,92.2,92,92.8,92,93.4c0,1.4,0.2,2.7,0.5,3.9
				c0.3,1.2,0.8,2.2,1.4,3.1c0.6,0.9,1.3,1.5,2.2,2c0.9,0.5,1.8,0.6,2.9,0.5c1.3-0.2,2.5-0.8,3.7-1.8c1.2-1,2.2-2.3,3.1-3.9
				c0.9-1.6,1.7-3.3,2.4-5.2c0.7-1.9,1.2-3.8,1.6-5.6c0.2-0.8,0.3-1.6,0.3-2.4c0.1-0.8,0.1-1.6,0.1-2.3c0-1.3-0.1-2.6-0.4-3.8
				c-0.3-1.2-0.6-2.3-1.1-3.2c-0.5-0.9-1-1.7-1.7-2.4c-0.7-0.6-1.4-1.1-2.2-1.3c-0.4-0.1-0.8-0.1-1.2-0.1c-0.9,0-1.8,0.2-2.8,0.6
				c-1,0.4-1.9,0.9-2.7,1.7c-0.9,0.8-1.6,1.7-2.3,2.9c-0.7,1.1-1.2,2.5-1.5,4c0.9-1.1,1.7-2,2.4-2.7c0.7-0.7,1.2-1.1,1.4-1.3
				c0.2-0.2,0.5-0.3,0.8-0.4c0.3-0.1,0.6-0.2,0.8-0.2c0.5,0,0.8,0.1,1,0.3c0.2,0.2,0.1,0.4-0.3,0.7c-1.4,1.1-2.7,2.3-3.7,3.6
				c-1,1.3-1.9,2.7-2.6,4.2c0.1,0.4,0.2,0.9,0.3,1.4c0.1,0.5,0.3,1,0.6,1.6c0.3,0.5,0.6,1,0.9,1.4c0.4,0.4,0.8,0.8,1.3,1.1
				c0.1,0,0.2,0.1,0.3,0.1c0.1,0,0.2,0.1,0.3,0.1c0.2,0.1,0.4,0.1,0.6,0.2c0.2,0.1,0.2,0.2,0.2,0.4c0,0.2-0.2,0.4-0.6,0.6
				C97.8,91.2,97.2,91.3,96.5,91.2z"/>
		</g>
		<g>
			<path class="st1" d="M56.8,117.8c0.3-0.1,0.6-0.1,0.8-0.1c0.2,0,0.4,0.1,0.5,0.2c0.1,0.1,0.2,0.2,0.3,0.4
				c0.1,0.2,0.1,0.3,0.1,0.5c0,0.5-0.1,1-0.4,1.2c-0.1,0.1-0.3,0.3-0.4,0.5c-0.2,0.2-0.4,0.6-0.5,0.9c-0.2,0.4-0.3,0.8-0.5,1.4
				c-0.1,0.5-0.2,1.2-0.2,1.9c0,0.9,0.1,1.8,0.4,2.9v0l2.1,5.4c0.9-0.8,1.8-1.6,2.7-2.6c0.9-1,1.7-2,2.4-3c0.2-0.3,0.4-0.5,0.6-0.6
				c0.2-0.1,0.4-0.1,0.5-0.1c0.2,0.1,0.3,0.2,0.3,0.4c0.1,0.2,0.1,0.5,0,0.8c-0.3,0.6-0.6,1.1-1,1.7c-0.4,0.6-0.8,1.1-1.3,1.6
				c-0.5,0.5-0.9,1-1.5,1.5c-0.5,0.5-1,0.9-1.5,1.4l-0.6,0.5c0.3,0.8,0.6,1.6,0.8,2.2c0.2,0.7,0.4,1.1,0.4,1.3
				c0.1,0.6,0.2,1.1,0.2,1.5c0,0.6-0.1,1.1-0.3,1.6s-0.4,0.8-0.8,1c-0.3,0.3-0.7,0.4-1.1,0.5c-0.4,0.1-0.8,0.2-1.3,0.2
				c-1.5,0-2.5-0.2-3.2-0.7c-0.6-0.5-1-1.2-1-2.2c0-0.2,0-0.4,0-0.6c0-0.2,0.1-0.4,0.1-0.6c0.2-0.7,0.5-1.3,1-2
				c0.5-0.6,1.1-1.3,1.8-1.9c-0.3-0.7-0.5-1.4-0.8-2.1c-0.3-0.7-0.6-1.3-0.8-1.9c-0.3-0.6-0.5-1.1-0.8-1.6c-0.2-0.5-0.4-0.9-0.6-1.2
				c-0.1-0.2-0.2-0.3-0.2-0.5c-0.1-0.1-0.1-0.2,0-0.1c-0.2-0.6-0.3-1.1-0.4-1.6c-0.1-0.5-0.1-1-0.1-1.5c0-1.2,0.2-2.2,0.6-3.1
				c0.4-0.9,0.8-1.6,1.3-2.1c0.5-0.6,0.9-1,1.4-1.3C56.4,118,56.7,117.9,56.8,117.8L56.8,117.8z M57.6,140.4c0-0.8-0.2-1.8-0.5-3
				c-0.2,0.3-0.4,0.6-0.6,1c-0.2,0.3-0.3,0.7-0.4,1c-0.1,0.3-0.1,0.6-0.2,0.8c0,0.2,0,0.5,0,0.6c0,0.6,0.1,1,0.4,1.2
				c0.3,0.1,0.5,0.2,0.7,0.1C57.4,141.9,57.6,141.4,57.6,140.4z"/>
			<path class="st1" d="M55.7,114.3c0.4,0.1,0.9,0.2,1.6,0.2c0.6,0,1.4,0,2.2,0c1.3,0,2.8,0,4.4-0.1l0.5-3.9c0-0.1,0-0.3,0.1-0.4
				c0-0.1,0-0.1,0-0.1c0-0.1,0.1-0.2,0.2-0.4c0.1-0.1,0.2-0.3,0.4-0.4c0.2-0.1,0.3-0.2,0.6-0.3c0.2-0.1,0.4-0.1,0.6-0.1
				c0.3,0,0.6,0.1,0.8,0.2c0.2,0.1,0.4,0.4,0.5,0.9c0.1,0.4,0.1,1.1,0.1,2.1c0,0.3,0,0.7,0,1c0,0.4,0,0.7,0,1.2
				c0.6,0,1.2-0.1,1.8-0.1c0.6,0,1.2-0.1,1.7-0.1c0.9-0.1,1.7-0.1,2.5-0.2c0.8-0.1,1.6-0.1,2.4-0.2c0.8-0.1,1.5-0.1,2.2-0.1
				c0.7,0,1.3,0,1.8,0c1,0,1.7,0.1,2.1,0.2c0.3,0.1,0.4,0.3,0.5,0.4c0.1,0.2,0.1,0.4,0.1,0.5c-0.1,0.2-0.2,0.3-0.4,0.4
				c-0.2,0.1-0.5,0.1-0.9,0.1c-0.3,0-0.7-0.1-1.1-0.1c-0.4,0-0.8,0-1.3,0c-1.3,0-2.8,0.1-4.5,0.2c-1.7,0.1-3.5,0.3-5.4,0.4l-1.6,0.2
				l-0.2,4.9c-0.1,1.9-0.2,3.8-0.3,5.8c-0.1,1.9-0.2,3.7-0.2,5.3c0,0.8,0,1.6,0,2.2c0,0.7,0.1,1.3,0.1,1.7c0.1,0.5,0.1,0.9,0.2,1.1
				c0.1,0.3,0.2,0.4,0.3,0.4c0.3,0,0.6-0.4,1-1.1c0.4-0.7,0.7-1.5,1.1-2.4c0.4-0.9,0.7-1.8,1-2.8c0.3-1,0.5-1.7,0.7-2.3
				c0-0.1,0.1-0.3,0.1-0.5c0.1-0.2,0.1-0.3,0.1-0.5c0.1-0.1,0.2-0.2,0.4-0.3c0.2,0,0.5,0,0.7,0c0.3,0,0.5,0.1,0.6,0.2
				c0.2,0.1,0.2,0.2,0.2,0.4c-0.1,0.1-0.2,0.4-0.2,0.7c-0.1,0.4-0.2,0.9-0.4,1.6c-0.2,0.7-0.4,1.3-0.6,2.1c-0.2,0.7-0.5,1.5-0.9,2.2
				c-0.3,0.7-0.7,1.4-1.2,2c-0.5,0.6-1,1.1-1.6,1.4c-0.6,0.4-1.3,0.5-2,0.5c-0.7,0-1.3-0.3-1.8-0.9c-0.5-0.6-0.9-1.4-1.2-2.4
				c-0.3-1-0.5-2.2-0.6-3.5c-0.1-1.3-0.2-2.7-0.2-4.2c0-1.9,0.1-3.9,0.2-6c0.2-2,0.3-3.9,0.5-5.6c-1.8,0.1-3.5,0.2-5,0.2
				c-0.7,0-1.3,0-1.9,0c-0.6,0-1-0.1-1.4-0.2h0.1c-0.6-0.1-1-0.3-1.3-0.5c-0.3-0.2-0.4-0.5-0.4-0.7c0-0.3,0.2-0.4,0.5-0.6
				C54.5,114.1,55,114.1,55.7,114.3z"/>
			<path class="st1" d="M77.2,121.9c0.9,0,1.6,0.1,2.2,0.3c0.6,0.2,1.1,0.4,1.5,0.7c0.4,0.3,0.7,0.6,0.9,1c0.2,0.4,0.4,0.7,0.5,1.1
				s0.2,0.7,0.2,1c0,0.3,0,0.6,0,0.8c-0.2,1.3-0.6,2.3-1.1,3.1c-0.5,0.8-1.2,1.4-1.9,1.9c-0.7,0.4-1.4,0.8-2.2,0.9
				c-0.8,0.2-1.5,0.3-2.1,0.3c-0.6,0-1.1,0-1.5-0.1v0.2c0,0.7,0,1.4,0.1,2c0.1,0.6,0.2,1.2,0.4,1.7c0.2,0.5,0.5,0.9,0.8,1.2
				c0.3,0.3,0.7,0.4,1.1,0.4c0.9,0,1.7-0.2,2.5-0.6c0.8-0.4,1.5-0.8,2.1-1.4c0.6-0.6,1.2-1.2,1.7-1.9c0.5-0.7,1-1.4,1.3-2.1
				c0.4-0.7,0.7-1.3,1-2c0.3-0.6,0.5-1.1,0.7-1.5l0.3-0.7c0.1-0.1,0.3-0.3,0.5-0.4c0.2-0.1,0.5-0.1,0.7-0.1c0.2,0,0.4,0.1,0.6,0.2
				c0.1,0.1,0.2,0.3,0.2,0.6c-0.1,0.4-0.2,0.9-0.5,1.6c-0.3,0.7-0.6,1.5-1.1,2.4c-0.5,0.9-1,1.8-1.7,2.7c-0.7,0.9-1.4,1.7-2.2,2.5
				c-0.8,0.8-1.7,1.4-2.7,1.8c-1,0.5-2.1,0.7-3.2,0.7c-1,0-1.9-0.2-2.7-0.5c-0.7-0.3-1.4-0.7-1.9-1.1c-0.5-0.4-0.9-1-1.2-1.5
				c-0.3-0.6-0.5-1.1-0.7-1.6c-0.2-0.5-0.3-1-0.3-1.3c-0.1-0.4-0.1-0.7-0.1-0.8v-0.3c0-0.3,0-0.8,0-1.5c0-0.7,0.1-1.4,0.3-2.3
				c0.1-0.8,0.4-1.7,0.7-2.6c0.3-0.9,0.8-1.7,1.3-2.4c0.6-0.7,1.3-1.3,2.2-1.8C74.8,122.1,75.9,121.9,77.2,121.9z M77.9,123.6
				c-0.6,0.1-1.1,0.4-1.6,0.9c-0.5,0.5-0.9,1.1-1.3,1.9c-0.4,0.8-0.7,1.6-0.9,2.5c-0.2,0.9-0.4,1.8-0.5,2.8c0.1,0,0.3,0,0.4,0
				c0.1,0,0.3,0,0.4,0c0.4,0,0.9-0.1,1.5-0.2c0.5-0.1,1-0.4,1.5-0.8c0.5-0.4,0.9-0.9,1.2-1.5c0.3-0.6,0.5-1.4,0.6-2.5
				c0-0.3,0-0.7,0-1c-0.1-0.4-0.1-0.7-0.3-1c-0.1-0.3-0.3-0.6-0.5-0.8C78.4,123.8,78.2,123.6,77.9,123.6z"/>
			<path class="st1" d="M94.1,122.4c1,0.1,1.9,0.3,2.7,0.6c0.7,0.4,1.4,0.8,1.9,1.4c0.5,0.6,0.9,1.2,1.1,1.9
				c0.2,0.7,0.4,1.5,0.4,2.3c0,0.2,0,0.4,0,0.7c0,0.2-0.1,0.4-0.1,0.7c0.7-0.3,1.2-0.7,1.7-1.1c0.5-0.4,0.9-1,1.2-1.6
				c0.1-0.2,0.3-0.4,0.6-0.5c0.3-0.1,0.6-0.2,0.8-0.2c0.3,0,0.6,0.1,0.8,0.2c0.2,0.1,0.3,0.4,0.2,0.7c-0.5,1.2-1.3,2.1-2.3,2.9
				c-1.1,0.7-2.2,1.3-3.5,1.7c-0.3,0.8-0.7,1.5-1.2,2.2c-0.5,0.7-1,1.3-1.7,1.9s-1.4,1-2.1,1.4c-0.8,0.4-1.6,0.6-2.5,0.7
				c-0.4,0.1-0.9,0.1-1.3,0.1c-0.8,0-1.5-0.1-1.9-0.3c0.2,2,0.6,3.9,1.1,5.8c0.5,1.9,1.2,3.5,2,5c0.3,0.4,0.3,0.8,0.1,1.1
				c-0.2,0.3-0.5,0.4-1,0.4c-0.3,0-0.7-0.1-1.1-0.2c-0.4-0.2-0.8-0.4-1.2-0.6c-0.7-0.6-1.3-1.5-1.8-2.8c-0.5-1.3-0.9-2.8-1.2-4.4
				c-0.3-1.7-0.5-3.4-0.6-5.2s-0.2-3.6-0.2-5.3c0-1.1,0-2.2,0.1-3.2c0-1,0.1-1.9,0.2-2.7c0.1-0.8,0.1-1.4,0.2-2
				c0.1-0.5,0.1-0.8,0.2-1c0.2-0.4,0.5-0.6,0.8-0.8c0.3-0.2,0.7-0.3,1-0.3c0.4,0,0.8,0.1,1.1,0.4c0.3,0.3,0.4,0.7,0.3,1.3l-0.1,1.3
				c0.2-0.3,0.5-0.6,0.8-0.9c0.3-0.3,0.7-0.6,1.2-0.8c0.4-0.2,1-0.4,1.5-0.5S93.4,122.3,94.1,122.4z M88.4,131.1c0,0.3,0,0.7,0,1
				s0,0.7,0,1.1c0.7-0.5,1.5-0.9,2.6-1.1c1-0.2,2.2-0.5,3.4-0.7c0.4-0.1,0.7-0.1,1.1-0.2c0.3-0.1,0.7-0.1,1.1-0.2l0.1-0.3
				c0.1-0.5,0.1-1.1,0.1-1.6c0-1.5-0.3-2.7-1-3.5c-0.7-0.9-1.7-1.2-2.9-1.1c-0.6,0-1.1,0.2-1.5,0.5c-0.4,0.3-0.8,0.7-1.1,1.1
				c-0.3,0.4-0.6,0.9-0.8,1.4c-0.2,0.5-0.4,0.9-0.6,1.3c0,0.1-0.1,0.2-0.1,0.3c0,0.1-0.1,0.2-0.1,0.3V131.1z M92.2,136.3
				c0.4-0.1,0.7-0.2,1-0.5c0.3-0.2,0.6-0.5,0.9-0.8c0.3-0.3,0.6-0.6,0.8-1c0.3-0.4,0.5-0.7,0.7-1.1l-1,0.2c-0.7,0.1-1.4,0.3-2,0.4
				c-0.6,0.1-1.1,0.3-1.6,0.5c-0.4,0.2-0.8,0.4-1.1,0.6c-0.3,0.2-0.4,0.5-0.4,0.8c0,0.2,0.1,0.5,0.4,0.7c0.2,0.2,0.6,0.3,1.2,0.3
				C91.5,136.5,91.8,136.4,92.2,136.3z"/>
			<path class="st1" d="M105.7,117.8c0.3-0.1,0.6-0.1,0.8-0.1c0.2,0,0.4,0.1,0.5,0.2c0.1,0.1,0.2,0.2,0.3,0.4
				c0.1,0.2,0.1,0.3,0.1,0.5c0,0.5-0.1,1-0.4,1.2c-0.1,0.1-0.3,0.3-0.4,0.5c-0.2,0.2-0.4,0.6-0.5,0.9c-0.2,0.4-0.3,0.8-0.5,1.4
				c-0.1,0.5-0.2,1.2-0.2,1.9c0,0.9,0.1,1.8,0.4,2.9v0l2.1,5.4c0.9-0.8,1.8-1.6,2.7-2.6c0.9-1,1.7-2,2.4-3c0.2-0.3,0.4-0.5,0.6-0.6
				c0.2-0.1,0.4-0.1,0.5-0.1c0.2,0.1,0.3,0.2,0.3,0.4c0.1,0.2,0.1,0.5,0,0.8c-0.3,0.6-0.6,1.1-1,1.7c-0.4,0.6-0.8,1.1-1.3,1.6
				c-0.5,0.5-0.9,1-1.5,1.5c-0.5,0.5-1,0.9-1.5,1.4l-0.6,0.5c0.3,0.8,0.6,1.6,0.8,2.2c0.2,0.7,0.4,1.1,0.4,1.3
				c0.1,0.6,0.2,1.1,0.2,1.5c0,0.6-0.1,1.1-0.3,1.6s-0.4,0.8-0.8,1c-0.3,0.3-0.7,0.4-1.1,0.5s-0.8,0.2-1.3,0.2
				c-1.5,0-2.5-0.2-3.2-0.7c-0.6-0.5-1-1.2-1-2.2c0-0.2,0-0.4,0-0.6c0-0.2,0.1-0.4,0.1-0.6c0.2-0.7,0.5-1.3,1-2
				c0.5-0.6,1.1-1.3,1.8-1.9c-0.3-0.7-0.5-1.4-0.8-2.1c-0.3-0.7-0.6-1.3-0.8-1.9c-0.3-0.6-0.5-1.1-0.8-1.6c-0.2-0.5-0.4-0.9-0.6-1.2
				c-0.1-0.2-0.2-0.3-0.2-0.5c-0.1-0.1-0.1-0.2,0-0.1c-0.2-0.6-0.3-1.1-0.4-1.6c-0.1-0.5-0.1-1-0.1-1.5c0-1.2,0.2-2.2,0.6-3.1
				c0.4-0.9,0.8-1.6,1.3-2.1c0.5-0.6,0.9-1,1.4-1.3C105.2,118,105.5,117.9,105.7,117.8L105.7,117.8z M106.5,140.4
				c0-0.8-0.2-1.8-0.5-3c-0.2,0.3-0.4,0.6-0.6,1c-0.2,0.3-0.3,0.7-0.4,1c-0.1,0.3-0.1,0.6-0.2,0.8c0,0.2,0,0.5,0,0.6
				c0,0.6,0.1,1,0.4,1.2c0.3,0.1,0.5,0.2,0.7,0.1C106.3,141.9,106.5,141.4,106.5,140.4z"/>
		</g>
	</g>
	<g>
		<g>
			<path class="st0" d="M67.1,158.6c2.1-0.1,3.9,0.1,5.4,0.4c1.5,0.3,2.9,0.8,4,1.5c1.1,0.6,2.1,1.4,2.8,2.2
				c0.8,0.8,1.4,1.7,1.8,2.6c0.5,0.9,0.8,1.8,1,2.7c0.2,0.9,0.4,1.8,0.5,2.5c0.1,0.8,0.1,1.5,0.1,2c0,0.6,0,1,0,1.2
				c0,1.9-0.3,3.5-0.8,5c-0.6,1.5-1.3,2.7-2.3,3.8c-0.9,1.1-2,2-3.3,2.8c-1.2,0.8-2.5,1.4-3.8,1.9c0.8,1.8,1.7,3.6,2.7,5.4
				c1,1.8,2,3.5,3.1,5.1c1.1,1.6,2.3,3,3.5,4.2c1.2,1.2,2.5,2.1,3.9,2.7c0.4,0.2,0.7,0.4,0.8,0.5c0.1,0.1,0.1,0.3,0,0.4
				c-0.1,0.1-0.3,0.2-0.6,0.2c-0.3,0.1-0.7,0.1-1.1,0.1c-0.4,0-0.9,0-1.4-0.1c-0.5-0.1-1-0.3-1.5-0.5c-1.4-0.8-2.8-1.8-4.1-3
				c-1.3-1.2-2.6-2.6-3.8-4.1c-1.2-1.5-2.3-3.1-3.3-4.7s-1.9-3.3-2.8-4.9c-0.5,0.1-0.9,0.2-1.3,0.2c-0.4,0.1-0.9,0.1-1.3,0.2
				c0,1.3,0,2.6,0,3.8c0,1.2,0,2.2,0,3.1c0,0.9,0,1.7-0.1,2.2c0,0.6-0.1,0.9-0.2,1.1c-0.2,0.4-0.6,0.8-1.3,1
				c-0.6,0.2-1.3,0.3-1.9,0.3c-0.7,0-1.4-0.1-1.9-0.4c-0.5-0.3-0.8-0.7-0.6-1.3c0.3-1.3,0.5-2.8,0.7-4.5c0.2-1.7,0.3-3.6,0.5-5.6
				c-1.1-0.2-2.1-0.6-3.1-1.1c-1-0.5-1.8-1-2.5-1.6c-0.7-0.6-1.3-1.3-1.7-2.1c-0.4-0.8-0.6-1.6-0.7-2.5c0-1.1,0.3-2.1,0.9-3
				c0.5-0.9,1.2-1.7,2.1-2.3c0.8-0.7,1.7-1.2,2.8-1.7c1-0.4,2-0.8,3-1c0.1-2.1,0.3-4.1,0.4-5.7c0.2-1.7,0.4-3,0.8-3.9
				c0.2-0.5,0.6-0.9,1.1-1.1c0.6-0.2,1.1-0.4,1.6-0.4c0.6,0,1,0.1,1.3,0.3c0.3,0.2,0.4,0.6,0.2,1c-0.1,0.4-0.3,0.9-0.4,1.5
				c-0.1,0.6-0.2,1.3-0.3,2.2c-0.1,0.8-0.2,1.7-0.2,2.8c-0.1,1-0.1,2.1-0.2,3.2c1.2,0.1,2.2,0.4,3,0.7c0.8,0.3,1.4,0.7,1.9,1.1
				c0.5,0.4,0.8,0.8,0.9,1.3c0.2,0.4,0.2,0.8,0.2,1.1c0,0.4-0.2,0.7-0.5,0.9c-0.3,0.2-0.6,0.4-1,0.5c-0.3,0.1-0.7,0.2-0.9,0.1
				c-0.3,0-0.4-0.1-0.5-0.2c0-0.1,0-0.3,0.1-0.4c0-0.2,0-0.3,0-0.4c0-0.7-0.2-1.3-0.7-1.9c-0.5-0.6-1.3-0.9-2.4-1.1
				c0,1.9-0.1,3.9-0.1,5.9s0,4,0,5.9c2-0.3,3.7-0.7,5.1-1.3c1.4-0.6,2.5-1.2,3.5-2c0.9-0.8,1.6-1.6,2.2-2.4c0.5-0.9,0.9-1.7,1.2-2.5
				c0.3-0.8,0.4-1.5,0.4-2.1c0-0.6,0.1-1.1,0.1-1.5v-0.4c0-2.2-0.1-4-0.4-5.6c-0.3-1.6-0.8-2.9-1.4-4c-0.6-1.1-1.3-1.9-2.1-2.6
				c-0.8-0.7-1.6-1.2-2.4-1.5c-0.8-0.3-1.6-0.6-2.3-0.6c-0.8-0.1-1.4-0.1-2-0.1c-1.8,0.2-3.3,0.5-4.5,1c-1.2,0.5-2.2,1-3,1.6
				c-0.8,0.6-1.3,1.1-1.7,1.6c-0.4,0.5-0.7,1-0.8,1.3c0,0.1-0.1,0.1-0.1,0.2c0,0.1-0.1,0.1-0.1,0.2c0,0.1-0.1,0.1-0.1,0.1h0
				c-0.1,0.1-0.3,0.1-0.6,0.2c-0.2,0.1-0.5,0.1-0.7,0.1c-0.2,0-0.5-0.1-0.7-0.2c-0.2-0.1-0.3-0.4-0.4-0.7c0-0.1,0.1-0.4,0.2-0.8
				c0.2-0.4,0.5-0.9,0.9-1.4c0.4-0.5,1-1.1,1.6-1.6c0.7-0.6,1.5-1.1,2.4-1.6c0.9-0.5,2-0.9,3.3-1.2
				C64.1,158.9,65.5,158.7,67.1,158.6z M61.1,175.5c-1.2,0.3-2.1,0.7-2.8,1.2c-0.7,0.5-1.2,1.1-1.6,1.6c-0.4,0.6-0.6,1.1-0.7,1.7
				c-0.1,0.6-0.2,1-0.3,1.3c-0.1,0.7,0,1.4,0.3,1.9c0.3,0.6,0.7,1.1,1.1,1.5c0.5,0.4,1,0.8,1.6,1.1c0.6,0.3,1.2,0.5,1.8,0.7
				c0-1.1,0.1-2.2,0.1-3.3c0-1.1,0.1-2.2,0.1-3.2L61.1,175.5z"/>
			<path class="st0" d="M83.8,180.6c0-0.1,0-0.2,0-0.2c0-0.4,0.2-0.7,0.7-1c0.5-0.3,1-0.4,1.6-0.4c0.4,0,0.8,0.1,1.2,0.3
				c0.4,0.2,0.6,0.6,0.7,1.1c0.1,0.3,0.1,0.7,0.1,1.1s0,0.8,0,1.3c0,0.8,0,1.7-0.1,2.6c0,0.9-0.1,1.9-0.2,2.8c0,0.9-0.1,1.8-0.1,2.7
				c0,0.9-0.1,1.7-0.1,2.5c0,1.2,0.1,2.1,0.2,2.9c0.1,0.7,0.4,1.1,0.8,1.1c0.2,0,0.5-0.3,0.8-0.8c0.3-0.5,0.6-1.2,0.9-2
				c0.3-0.8,0.7-1.7,1-2.7c0.3-1,0.7-2,1-3c0.3-1,0.6-2,0.9-2.9c0.3-0.9,0.5-1.7,0.7-2.4l0.5-1.6c0.1-0.3,0.3-0.4,0.5-0.5
				c0.3-0.1,0.5-0.1,0.8-0.1c0.2,0,0.5,0.1,0.7,0.3c0.2,0.2,0.3,0.4,0.3,0.6c0,0.5-0.1,1.3-0.3,2.4s-0.4,2.2-0.8,3.4
				c-0.3,1.2-0.8,2.5-1.3,3.8c-0.5,1.3-1.1,2.5-1.8,3.5c-0.7,1-1.4,1.9-2.2,2.6c-0.8,0.7-1.7,1-2.7,1c-0.9-0.1-1.6-0.4-2.2-1
				c-0.6-0.6-1-1.3-1.4-2.2c-0.4-0.9-0.6-1.9-0.8-3c-0.1-1.1-0.2-2.2-0.2-3.4c0-1,0-2,0.1-2.9c0.1-1,0.1-1.8,0.2-2.6
				c0.1-0.8,0.2-1.5,0.3-2.1C83.7,181.2,83.8,180.8,83.8,180.6z M83.7,175.5c0-0.7,0.2-1.3,0.7-1.8c0.5-0.5,1-0.7,1.6-0.7
				c0.6,0,1.2,0.2,1.6,0.7c0.5,0.5,0.7,1.1,0.7,1.8s-0.2,1.3-0.7,1.8c-0.5,0.5-1,0.8-1.6,0.8c-0.6,0-1.2-0.3-1.6-0.8
				C83.9,176.9,83.7,176.2,83.7,175.5z"/>
			<path class="st0" d="M101.7,176.7c0.7,0,1.3,0.1,1.8,0.4c0.5,0.3,0.9,0.6,1.2,1c0.1-1.3,0.2-2.5,0.3-3.7c0.1-1.2,0.2-2.3,0.4-3.3
				c0.1-1,0.2-1.9,0.3-2.7c0.1-0.8,0.2-1.4,0.2-1.8c0-0.2,0.1-0.3,0.1-0.4c0-0.1,0-0.2,0-0.1c0-0.1,0.1-0.3,0.2-0.4
				c0.1-0.1,0.3-0.3,0.5-0.4c0.2-0.1,0.4-0.2,0.7-0.3c0.2-0.1,0.5-0.1,0.7-0.1c0.3,0,0.7,0.1,0.9,0.3c0.3,0.2,0.5,0.5,0.6,1
				c0.1,0.6,0.1,1.4,0.1,2.5c0,1.2,0,2.6-0.1,4.1c-0.1,1.6-0.2,3.2-0.3,5c-0.1,2-0.2,4-0.3,6c-0.1,2-0.1,3.8-0.1,5.4
				c0,1.7,0.1,3,0.2,4.1s0.3,1.5,0.6,1.5c0.3,0,0.7-0.5,1.1-1.3c0.4-0.8,0.8-1.8,1.2-2.9c0.4-1.1,0.7-2.3,1.1-3.4
				c0.3-1.2,0.6-2.1,0.8-2.9l0.4-1.4c0.1-0.2,0.2-0.3,0.5-0.3s0.5,0,0.8,0s0.5,0.1,0.7,0.3c0.2,0.1,0.3,0.3,0.2,0.4
				c0,0,0,0.1-0.1,0.3c0,0.2-0.1,0.4-0.1,0.7c-0.1,0.6-0.3,1.4-0.5,2.3c-0.2,0.9-0.4,1.9-0.7,2.9c-0.3,1-0.7,2-1.1,3
				c-0.4,1-0.9,1.9-1.4,2.7c-0.5,0.8-1.1,1.4-1.8,1.9c-0.7,0.5-1.4,0.7-2.3,0.6c-1,0-1.8-0.6-2.4-1.7c-0.6-1.1-1-2.5-1.3-4.2
				c-0.2,0.5-0.4,0.9-0.7,1.4c-0.3,0.5-0.6,0.9-0.9,1.3c-0.3,0.4-0.7,0.7-1.2,1c-0.4,0.3-0.9,0.4-1.5,0.5c-1.5,0.1-2.7-0.1-3.7-0.6
				c-1-0.5-1.7-1.2-2.3-2c-0.6-0.8-0.9-1.7-1.2-2.7c-0.2-1-0.3-1.9-0.3-2.8c0-0.3,0-0.6,0-0.8c0-0.3,0-0.5,0.1-0.7c0,0,0-0.1,0-0.1
				c0,0,0-0.1,0-0.1c0-0.3,0.1-0.8,0.2-1.4c0.1-0.6,0.3-1.2,0.5-1.8c0.2-0.7,0.5-1.3,0.9-2c0.4-0.7,0.9-1.3,1.5-1.8s1.3-1,2.2-1.3
				C99.5,176.9,100.5,176.7,101.7,176.7z M104.4,185.3c0-0.8,0-1.6,0-2.4c0-0.8,0.1-1.6,0.1-2.4c-0.2-0.4-0.5-0.8-0.9-1.2
				c-0.4-0.4-1-0.6-1.6-0.6c-0.4,0-0.8,0.2-1.3,0.6c-0.5,0.4-0.9,0.9-1.3,1.5c-0.4,0.6-0.7,1.4-1,2.2s-0.4,1.8-0.3,2.7
				c0,1.7,0.1,3.2,0.3,4.2c0.2,1.1,0.4,1.9,0.7,2.5c0.2,0.6,0.5,1,0.7,1.2c0.2,0.2,0.4,0.3,0.6,0.3c0.4,0.1,0.8-0.1,1.2-0.4
				c0.4-0.3,0.8-0.8,1.1-1.3c0.4-0.6,0.7-1.2,1-1.9c0.3-0.7,0.5-1.4,0.7-2c0-0.5-0.1-0.9-0.1-1.4
				C104.4,186.3,104.4,185.8,104.4,185.3z"/>
			<path class="st0" d="M120.1,175.9c1,0,1.9,0.1,2.6,0.3c0.7,0.2,1.3,0.5,1.8,0.8c0.5,0.3,0.8,0.7,1.1,1.1s0.4,0.8,0.6,1.2
				c0.1,0.4,0.2,0.8,0.2,1.1c0,0.4,0,0.6,0,0.9c-0.2,1.5-0.7,2.6-1.3,3.6c-0.6,0.9-1.3,1.6-2.1,2.2c-0.8,0.5-1.6,0.9-2.5,1.1
				c-0.9,0.2-1.7,0.3-2.5,0.3c-0.7,0-1.3,0-1.7-0.1v0.2c0,0.8,0.1,1.6,0.2,2.3c0.1,0.7,0.3,1.4,0.5,2c0.2,0.6,0.5,1,0.9,1.3
				c0.4,0.3,0.8,0.5,1.2,0.5c1,0,2-0.3,2.8-0.7c0.9-0.4,1.7-0.9,2.4-1.6c0.7-0.6,1.4-1.4,2-2.1c0.6-0.8,1.1-1.6,1.6-2.4
				c0.4-0.8,0.8-1.5,1.1-2.3s0.6-1.3,0.8-1.8l0.3-0.8c0.1-0.2,0.3-0.3,0.6-0.4c0.3-0.1,0.5-0.1,0.8-0.1c0.3,0,0.5,0.1,0.6,0.2
				s0.2,0.4,0.2,0.7c-0.1,0.4-0.3,1-0.6,1.9c-0.3,0.8-0.7,1.7-1.3,2.8c-0.5,1-1.2,2-1.9,3.1c-0.8,1-1.6,2-2.5,2.9
				c-0.9,0.9-2,1.6-3.1,2.1c-1.1,0.5-2.4,0.8-3.7,0.8c-1.2,0-2.2-0.2-3.1-0.6c-0.9-0.3-1.6-0.8-2.2-1.3c-0.6-0.5-1.1-1.1-1.4-1.7
				c-0.4-0.6-0.6-1.3-0.8-1.8c-0.2-0.6-0.3-1.1-0.4-1.6c-0.1-0.5-0.1-0.8-0.1-1v-0.3c0-0.4,0-0.9,0.1-1.7c0-0.8,0.1-1.6,0.3-2.6
				c0.2-1,0.4-2,0.8-3c0.4-1,0.9-2,1.6-2.8c0.7-0.8,1.5-1.5,2.5-2C117.4,176.1,118.7,175.9,120.1,175.9z M121,177.9
				c-0.7,0.1-1.3,0.5-1.8,1c-0.6,0.6-1.1,1.3-1.5,2.2c-0.4,0.9-0.8,1.8-1,2.9c-0.3,1.1-0.4,2.1-0.5,3.2c0.1,0,0.3,0,0.4,0
				c0.1,0,0.3,0,0.5,0c0.5,0,1.1-0.1,1.7-0.2c0.6-0.2,1.2-0.4,1.8-0.9c0.6-0.4,1-1,1.4-1.7s0.6-1.7,0.7-2.8c0-0.4,0-0.8-0.1-1.2
				c-0.1-0.4-0.2-0.8-0.3-1.2c-0.1-0.4-0.3-0.7-0.5-0.9C121.6,178,121.3,177.9,121,177.9z"/>
			<path class="st0" d="M142.8,180.4c0.2-0.1,0.4-0.2,0.6-0.2c0.2,0,0.4-0.1,0.6-0.1c0.1-0.3,0.2-0.8,0.4-1.3c0.2-0.5,0.5-1,0.9-1.5
				c0.4-0.5,1-0.9,1.7-1.2c0.7-0.3,1.7-0.5,2.9-0.5c1.2,0,2.2,0.3,3,0.8c0.8,0.5,1.4,1.1,1.9,1.8c0.5,0.7,0.8,1.5,0.9,2.3
				c0.2,0.8,0.2,1.6,0.2,2.3v0.4l-0.1,1.3c0.8-0.3,1.6-0.8,2.4-1.3c0.8-0.6,1.4-1.3,1.9-2.1h0c0.1-0.2,0.3-0.4,0.6-0.6
				c0.3-0.2,0.5-0.3,0.7-0.3c0.3,0,0.4,0.1,0.5,0.3c0.1,0.2,0,0.5-0.2,1c-0.3,0.7-0.8,1.4-1.2,2c-0.5,0.6-1,1.1-1.6,1.6
				c-0.6,0.5-1.1,0.9-1.7,1.2c-0.6,0.3-1.2,0.6-1.8,0.8c-0.2,0.8-0.4,1.7-0.8,2.5c-0.3,0.9-0.8,1.6-1.4,2.3
				c-0.6,0.7-1.3,1.2-2.3,1.7c-0.9,0.4-2,0.6-3.3,0.6c-1.4,0-2.5-0.2-3.4-0.7c-0.9-0.4-1.6-1-2.1-1.6c-0.5-0.7-0.9-1.4-1.1-2.2
				c-0.2-0.8-0.3-1.7-0.3-2.5c0-0.8,0.1-1.6,0.2-2.3c0.1-0.7,0.3-1.4,0.5-2c0.2-0.6,0.4-1.1,0.6-1.5
				C142.5,180.8,142.6,180.5,142.8,180.4z M151.6,187.8c-1.5,0-2.7-0.3-3.6-0.7c-0.9-0.4-1.7-0.9-2.3-1.5v0.6c0,0.6,0,1.3,0.1,1.9
				c0.1,0.6,0.2,1.2,0.5,1.7c0.2,0.5,0.5,0.9,0.9,1.2c0.4,0.3,0.9,0.5,1.5,0.5c0.4,0,0.8-0.1,1.2-0.3c0.4-0.2,0.7-0.5,1-0.8
				c0.3-0.4,0.5-0.8,0.8-1.2c0.2-0.5,0.4-0.9,0.6-1.4c-0.1,0-0.3,0-0.4,0C151.8,187.8,151.7,187.8,151.6,187.8z M151.4,185.2
				c0.4,0,0.9,0,1.5-0.1c0.1-0.5,0.1-0.9,0.2-1.2c0-0.3,0.1-0.5,0.1-0.6c0-0.8,0-1.6-0.1-2.3c-0.1-0.8-0.3-1.4-0.5-2
				c-0.3-0.6-0.6-1.1-1.1-1.4c-0.5-0.3-1-0.5-1.8-0.4c-0.4,0-0.8,0.2-1.1,0.5c-0.3,0.3-0.6,0.6-0.9,1c-0.2,0.4-0.4,0.8-0.5,1.2
				c-0.1,0.4-0.1,0.8,0,1.1l0.1,0.6c0,0.3,0.1,0.7,0.2,1.2c0.1,0.4,0.3,0.8,0.6,1.2c0.3,0.4,0.7,0.7,1.2,0.9
				C149.9,185,150.6,185.2,151.4,185.2z"/>
			<path class="st0" d="M170.1,173c0.7,0,1.3,0.2,1.8,0.5c0.5,0.3,0.8,0.7,1.1,1.3c0.3,0.5,0.5,1.2,0.6,1.9c0.1,0.8,0.2,1.6,0.2,2.5
				c0,1.5-0.1,3.1-0.3,4.9c-0.2,1.8-0.5,3.5-0.7,5.2c-0.2,1.4-0.4,2.8-0.6,4s-0.2,2.4-0.2,3.3c0,0.7,0.1,1.3,0.2,1.7
				c0.1,0.4,0.3,0.6,0.6,0.6c0.1-0.1,0.3-0.5,0.6-1.2s0.7-1.6,1.2-2.7s0.9-2.2,1.5-3.4c0.5-1.2,1-2.4,1.5-3.5
				c0.2-0.6,0.5-1.2,0.7-1.7c0.2-0.5,0.4-1,0.6-1.4c0.2-0.4,0.3-0.8,0.5-1c0.1-0.3,0.2-0.4,0.3-0.5c0.1-0.2,0.4-0.3,0.7-0.4
				c0.3-0.1,0.6-0.1,0.9-0.1c0.3,0,0.5,0.2,0.7,0.3c0.2,0.2,0.2,0.4,0.1,0.7l-2.3,5.8c-0.8,2.1-1.5,3.9-2.1,5.3
				c-0.6,1.4-1.2,2.5-1.7,3.3c-0.6,0.8-1.2,1.4-1.8,1.7c-0.7,0.3-1.5,0.4-2.4,0.3c-0.7-0.1-1.2-0.3-1.7-0.6
				c-0.5-0.3-0.8-0.8-1.1-1.3c-0.3-0.6-0.5-1.2-0.6-1.9c-0.1-0.7-0.2-1.5-0.2-2.4c0-1.4,0.1-2.9,0.3-4.5s0.5-3.1,0.7-4.6
				c0.2-1.2,0.4-2.4,0.5-3.5c0.2-1.1,0.2-2.1,0.2-2.8c0-0.6,0-1.1-0.1-1.4c-0.1-0.3-0.3-0.5-0.5-0.6c-0.2,0-0.6,0.2-1,0.8
				c-0.4,0.6-0.8,1.3-1.3,2.3c-0.5,0.9-0.9,2-1.4,3.3c-0.5,1.2-0.9,2.5-1.4,3.7c-0.4,1.3-0.8,2.5-1.1,3.7c-0.3,1.2-0.6,2.2-0.7,3.2
				c0,0.2,0,0.5,0.1,0.6c0,0.2,0.1,0.3,0.1,0.4c0.3,0.6,0.2,1.2-0.2,1.7c-0.4,0.5-1,0.8-1.8,0.8c-0.2,0-0.5,0-0.7-0.1
				c-0.2,0-0.5-0.1-0.8-0.3c-0.3-0.1-0.5-0.4-0.7-0.8c-0.2-0.4-0.3-0.9-0.4-1.6c-0.1-0.6-0.2-1.3-0.2-2.1c0-0.8-0.1-1.6-0.1-2.4
				c0-1,0-1.9,0.1-2.9c0.1-1,0.1-1.9,0.2-2.8c0.1-0.9,0.2-1.6,0.3-2.3c0.1-0.7,0.2-1.2,0.4-1.5c-0.2,0-0.3-0.1-0.2-0.2
				c0-0.1,0.2-0.2,0.4-0.3c0.2-0.1,0.5-0.2,0.8-0.3c0.3-0.1,0.7-0.1,1.1-0.1c0.5,0,1,0.1,1.4,0.2c0.4,0.2,0.6,0.5,0.5,0.9
				c0,0,0,0.1,0,0.2c0,0.1,0,0.2,0,0.3l-0.2,4.5c0.4-1.3,0.9-2.7,1.4-4.2c0.6-1.5,1.2-2.8,1.8-4c0.7-1.2,1.4-2.3,2.2-3.1
				C168.5,173.4,169.3,173,170.1,173z"/>
		</g>
	</g>
	<g>
		<g>
			<g>
				
					<ellipse transform="matrix(0.7959 -0.6054 0.6054 0.7959 0.9157 111.8041)" class="st1" cx="166.3" cy="54.5" rx="6.8" ry="6.8"/>
				
					<ellipse transform="matrix(0.9996 -2.922560e-02 2.922560e-02 0.9996 -2.4867 5.5168)" class="st1" cx="187.5" cy="87.8" rx="4" ry="4"/>
				
					<ellipse transform="matrix(0.9996 -2.922560e-02 2.922560e-02 0.9996 -2.0947 5.4815)" class="st1" cx="186.5" cy="74.4" rx="4.8" ry="4.8"/>
				
					<ellipse transform="matrix(0.9996 -2.922560e-02 2.922560e-02 0.9996 -1.7629 5.2635)" class="st1" cx="179.2" cy="62.9" rx="5.5" ry="5.5"/>
				
					<ellipse transform="matrix(0.9996 -2.922560e-02 2.922560e-02 0.9996 -2.8091 5.4704)" class="st1" cx="185.7" cy="98.8" rx="3.3" ry="3.3"/>
			</g>
			<path class="st0" d="M124.2,90.2c2.2,20.8,22,35.9,43,33c0.1,0,0.2,0,0.3-0.1c2.1-0.6,3.2-3,2.4-5.1l-0.5-1.3
				c-0.5-1.4-2.4-1.9-3.5-1.8c0,0-0.1,0-0.9,0c-12.3,0.7-23.7-4.8-29.6-16.1c-5.6-10.8-3.6-24.3,4.8-33.4c1.2-1.3,2.5-2.4,3.9-3.5
				c1.4-1,1.8-2.8,0.9-4.3l-1.9-2.4c-1-1.1-3.1-0.7-4.1,0.1C128.1,64.9,122.6,75.6,124.2,90.2z"/>
		</g>
		<g class="st2">
			<path class="st0" d="M138.5,88c1.6,14.2,15.3,24.4,29.6,22.3c0.2,0,0.4-0.1,0.6-0.2c1.2-0.5,1.8-1.1,1.5-2.3c0,0-0.5-2.7-1.1-3.4
				c-0.4-0.4-1.8,0.2-2,0.3c-8.3,1.2-16.6-3.1-20.7-10.7c-3.9-7.3-2.6-16.6,3.1-22.8c0.8-0.9,1.7-1.7,2.7-2.4c0.9-0.7,1.2-2,0.6-2.9
				l-1.3-1.6c-0.7-0.8-2.1-0.5-2.8,0.1C141,70.7,137.4,78,138.5,88z"/>
		</g>
		<path class="st0" d="M172.2,123.8c-0.7-1.7-1.5-3.5-2.4-5.5c-1.4,0.3-2.8,0.6-4.3,0.7c-3.8,0.2-7.6-0.5-11.1-1.8
			c-2.7,2.8-5,5.5-6.9,8.3c-1.9,2.9-3.2,5.8-3.7,8.7c-0.2,0.8-0.4,1.7-0.4,2.6c0,0.9,0,1.7,0,2.5c0.2,3.9,1.8,6.9,4.6,9
			c2.9,2.1,7.4,2.8,13.7,2.3c1.9-0.1,3.7-0.4,5.4-1c1.7-0.6,3.2-1.4,4.5-2.6c1.3-1.2,2.3-2.7,3-4.5c0.7-1.8,0.9-4.1,0.8-6.7
			c-0.1-1.7-0.5-3.9-1.1-6.4C174.2,128.4,173.5,126.6,172.2,123.8z M158.7,145.8c-0.8,0.3-1.8,0.2-2.9-0.3c-1.1-0.5-1.8-2.2-1.9-4.9
			c0-0.7,0-1.6,0-2.7c0.1-1.1,0.3-2.2,0.5-3.5c0.2-1.5,0.6-2.9,1.3-4.3c0.7-1.4,1.5-2.8,2.4-4.3c1.8,5,2.9,9.3,3.1,12.8
			C161.5,142.6,160.6,145,158.7,145.8z"/>
	</g>
</g>
</svg>
