<?xml version="1.0" encoding="utf-8"?>
<!-- Generator: Adobe Illustrator 21.1.0, SVG Export Plug-In . SVG Version: 6.00 Build 0)  -->
<svg version="1.1" id="Layer_1" xmlns="http://www.w3.org/2000/svg" xmlns:xlink="http://www.w3.org/1999/xlink" x="0px" y="0px"
	 viewBox="0 0 244.1 259.9" style="enable-background:new 0 0 244.1 259.9;" xml:space="preserve">
<style type="text/css">
	.st0{fill:#508C3E;}
	.st1{fill:#201916;}
</style>
<g>
	<g>
		<path class="st0" d="M51.1,77.3c0.1,0,0.5,0,1.1,0c0.6,0.1,1.3,0.2,1.9,0.4c0.6-0.1,1.4-0.2,2.3-0.3c0.9-0.1,1.9-0.1,2.9-0.1
			c1.4,0,2.8,0.1,4.3,0.2c1.5,0.1,3,0.4,4.5,0.8c0.4,0.1,0.7,0.2,0.8,0.4c0.1,0.2,0.2,0.3,0.2,0.5c0,0.3-0.1,0.5-0.4,0.6
			C68.6,80,68.3,80.1,68,80c-2.2-0.3-4-0.5-5.6-0.6c-1.5-0.1-2.8-0.2-3.9-0.2c-1,0-1.7,0-2.3,0.1c-0.1,1-0.2,2.1-0.3,3.2
			c-0.1,1.1-0.2,2.3-0.3,3.5l-0.3,3.5l4.2-0.1c0.7,0,1.4,0,2.1-0.1c0.7,0,1.4,0,2-0.1c0.6,0,1.1,0,1.6-0.1c0.5,0,0.8,0,1-0.1
			c0.5,0,0.9,0,1.2,0.2c0.3,0.2,0.5,0.4,0.5,0.6c0,0.2-0.1,0.4-0.4,0.6c-0.2,0.2-0.6,0.3-1.1,0.3c-0.1,0-0.4,0-0.8,0
			c-0.5,0-1,0.1-1.7,0.1c-0.7,0-1.4,0.1-2.2,0.2c-0.8,0.1-1.6,0.1-2.4,0.2c-0.8,0.1-1.6,0.1-2.3,0.2c-0.7,0.1-1.4,0.1-1.9,0.2
			c-0.1,1.7-0.3,3.4-0.4,5.1c-0.1,1.7-0.2,3.3-0.2,4.7c0,1.3,0.1,2.6,0.2,3.8c0.1,1.2,0.3,2.3,0.5,3.3c0.2,1,0.6,1.8,0.9,2.6
			c0.4,0.7,0.9,1.3,1.4,1.6c0.1,0,0.5,0.1,1.2,0.1c0.7,0,1.6-0.1,2.7-0.2c1.1-0.1,2.1-0.3,3.2-0.6c1-0.3,2-0.7,2.8-1.2
			c0.9-0.5,1.4-1.1,1.8-1.9c0.1-0.1,0.2-0.2,0.4-0.2c0.2,0,0.4,0.1,0.5,0.3c0.2,0.1,0.3,0.3,0.5,0.5c0.1,0.2,0.2,0.4,0.2,0.6
			c-0.3,0.8-0.7,1.4-1.3,1.9c-0.6,0.5-1.4,1-2.2,1.3c-0.8,0.3-1.7,0.6-2.7,0.8c-0.9,0.2-1.9,0.4-2.8,0.4c-0.9,0.1-1.8,0.1-2.6,0.2
			c-0.8,0-1.5,0-2,0c-1.2,0-2.2-0.1-2.9-0.3c-0.8-0.2-1.4-0.4-1.9-0.8s-0.9-0.6-1.1-1c-0.3-0.4-0.5-0.7-0.8-1.1v0l-0.3-0.4
			c-0.2-0.3-0.3-0.7-0.4-1.3c-0.1-0.6-0.2-1.3-0.3-2.1c-0.1-0.8-0.1-1.7-0.2-2.7c0-1-0.1-2.1-0.1-3.2c0-1.7,0-3.4,0.1-5.3
			c0.1-1.9,0.2-3.7,0.3-5.5c0.1-1.8,0.2-3.5,0.4-5.2c0.1-1.7,0.3-3.1,0.4-4.4c0.1-1.3,0.2-2.3,0.4-3C50.9,77.7,51,77.3,51.1,77.3z"
			/>
		<path class="st0" d="M81.8,76.1c1.3,0,2.5,0.2,3.4,0.5c1,0.3,1.8,0.8,2.4,1.3c0.6,0.5,1.1,1.1,1.5,1.8c0.4,0.6,0.7,1.3,0.8,1.9
			c0.2,0.6,0.3,1.2,0.3,1.7c0,0.5,0.1,1,0.1,1.3c-0.1,1.4-0.3,2.6-0.6,3.7c-0.3,1-0.7,1.8-1.1,2.5c-0.4,0.7-0.9,1.2-1.4,1.6
			c-0.5,0.4-1,0.7-1.5,0.8c-0.5,0.2-1,0.3-1.4,0.3c-0.4,0-0.8,0-1,0c-0.6,0-1.2-0.2-1.9-0.4c-0.7-0.2-1.3-0.6-1.8-1.1
			c-0.1-0.1-0.2-0.3-0.3-0.5c-0.1-0.2-0.1-0.4-0.1-0.5c0-0.3,0.1-0.5,0.4-0.6c0.3-0.1,0.7,0.1,1.3,0.6c1,0.7,1.9,1.1,2.6,1.1
			c0.8,0,1.5-0.7,2.1-1.9c0.5-1.2,0.9-3,1-5.5c0-0.1,0-0.3,0-0.5c0-0.2,0-0.3,0-0.4c0-1-0.1-1.9-0.3-2.6c-0.2-0.7-0.4-1.3-0.8-1.7
			s-0.6-0.8-1-1c-0.4-0.2-0.7-0.4-1.1-0.5c-0.3-0.1-0.7-0.2-0.9-0.2c-0.3,0-0.5,0-0.6,0c-0.8,0.1-1.6,0.4-2.2,1
			c-0.6,0.6-1.2,1.4-1.8,2.3c-0.5,0.9-1,2-1.4,3.2c-0.4,1.2-0.7,2.4-1,3.7s-0.5,2.5-0.7,3.7c-0.2,1.2-0.3,2.4-0.5,3.4
			c-0.1,1-0.2,1.9-0.2,2.6c0,0.7-0.1,1.2-0.1,1.5c0,0.3,0,0.7-0.1,1.1c0,0.4,0,0.7,0,1.1c0,2,0.2,3.6,0.5,4.9
			c0.3,1.3,0.7,2.4,1.2,3.3c0.5,0.8,1,1.5,1.6,1.9c0.6,0.5,1.1,0.8,1.6,1c0.5,0.2,1,0.3,1.3,0.3c0.4,0,0.6,0,0.7,0
			c1.2,0,2.3-0.4,3.2-1s1.8-1.4,2.6-2.3c0.8-0.9,1.5-1.9,2.1-3c0.6-1.1,1.1-2.2,1.6-3.2c0.4-1,0.8-2,1.1-2.9c0.3-0.9,0.5-1.6,0.6-2
			l0.2-0.7c0.1-0.2,0.3-0.3,0.5-0.3c0.2-0.1,0.4-0.1,0.6-0.1c0.2,0,0.4,0.1,0.5,0.2c0.1,0.1,0.2,0.3,0.1,0.5c0,0.1-0.1,0.6-0.3,1.4
			c-0.1,0.8-0.4,1.8-0.8,3c-0.4,1.2-0.9,2.5-1.5,3.8c-0.6,1.4-1.5,2.7-2.4,3.9c-1,1.2-2.1,2.3-3.5,3.2c-1.4,0.9-3,1.5-4.8,1.7
			c-0.3,0-0.8,0-1.5,0c-0.7,0-1.5-0.2-2.4-0.4c-0.9-0.3-1.8-0.7-2.7-1.4c-0.9-0.6-1.8-1.6-2.6-2.7c-0.8-1.2-1.4-2.7-1.9-4.6
			c-0.5-1.9-0.8-4.2-0.8-6.9c0-0.2,0-0.6,0.1-1.3c0-0.7,0.1-1.6,0.2-2.7c0.1-1.1,0.3-2.3,0.5-3.7c0.2-1.3,0.6-2.7,1-4.1
			c0.4-1.4,0.9-2.7,1.6-4c0.6-1.3,1.4-2.5,2.3-3.5c0.9-1,1.9-1.8,3.1-2.4C78.9,76.4,80.3,76.1,81.8,76.1z"/>
		<path class="st0" d="M91.2,92.5c0,0,0-0.1,0-0.1c0,0,0-0.1,0-0.1c0-0.3-0.1-0.6-0.1-0.9c0-0.3-0.1-0.6-0.1-0.9
			c0-1.3,0.2-2.5,0.7-3.7c0.4-1.2,1-2.3,1.8-3.2c0.8-1,1.7-1.9,2.7-2.7c1-0.8,2.2-1.4,3.3-2c1.2-0.5,2.4-0.9,3.7-1.2
			c1.3-0.2,2.6-0.3,3.8-0.3c1.6,0.1,3.1,0.4,4.5,1c1.4,0.6,2.7,1.5,3.8,2.7c1.1,1.2,2,2.8,2.6,4.6c0.7,1.9,1,4.1,1,6.7
			c0,0.5,0,0.9-0.1,1.4c0,0.5-0.1,1-0.1,1.5c-0.2,1.7-0.5,3.4-0.9,5c-0.5,1.7-1.1,3.3-1.8,4.8c-0.7,1.5-1.6,2.9-2.6,4.2
			c-1,1.3-2.1,2.4-3.4,3.4s-2.6,1.7-4.1,2.3c-1.5,0.5-3.1,0.8-4.7,0.8c-1.6,0-3-0.3-4.1-0.7c-1.1-0.5-2.1-1.1-2.9-1.9
			c-0.8-0.8-1.4-1.6-1.9-2.6c-0.5-1-0.8-2-1.1-3c-0.3-1-0.4-2-0.5-3c-0.1-1-0.1-1.8-0.1-2.6c0-0.6,0-1.1,0-1.5c0-0.4,0-0.7,0.1-0.8
			v0c0-0.7,0.2-1.3,0.4-2c0.2-0.7,0.4-1.3,0.7-2c-0.2-0.7-0.4-1.4-0.4-2C91.2,93.3,91.2,92.9,91.2,92.5z M98.9,101.4
			c-1-0.1-1.9-0.3-2.7-0.6c-0.8-0.3-1.4-0.7-2-1.2c-0.2,0.7-0.3,1.4-0.3,2.1c-0.1,0.7-0.1,1.4-0.1,2.1c0,1.6,0.2,3,0.5,4.4
			c0.4,1.4,0.9,2.5,1.6,3.5c0.7,1,1.5,1.7,2.5,2.3c1,0.5,2.1,0.7,3.3,0.6c1.5-0.2,2.8-0.9,4.1-2.1c1.3-1.2,2.5-2.7,3.5-4.4
			c1.1-1.8,2-3.7,2.7-5.9c0.8-2.1,1.4-4.3,1.8-6.3c0.2-0.9,0.3-1.8,0.4-2.7c0.1-0.9,0.1-1.8,0.1-2.6c0-1.5-0.1-3-0.4-4.3
			c-0.3-1.4-0.7-2.6-1.2-3.6c-0.5-1.1-1.2-1.9-1.9-2.7c-0.7-0.7-1.6-1.2-2.5-1.5c-0.5-0.1-0.9-0.1-1.4-0.1c-1,0-2,0.2-3.1,0.6
			c-1.1,0.4-2.1,1.1-3.1,1.9c-1,0.9-1.8,1.9-2.6,3.2c-0.8,1.3-1.3,2.8-1.7,4.6c1-1.2,1.9-2.2,2.8-3.1c0.8-0.8,1.3-1.3,1.5-1.4
			c0.2-0.2,0.6-0.4,0.9-0.5c0.4-0.1,0.7-0.2,1-0.2c0.5,0,0.9,0.1,1.1,0.3c0.2,0.2,0.1,0.5-0.3,0.8c-1.6,1.3-3,2.6-4.2,4.1
			c-1.2,1.5-2.2,3.1-3,4.7c0.1,0.5,0.2,1,0.4,1.6c0.2,0.6,0.4,1.2,0.7,1.8c0.3,0.6,0.6,1.1,1.1,1.6c0.4,0.5,0.9,0.9,1.5,1.3
			c0.1,0,0.2,0.1,0.3,0.1c0.1,0,0.2,0.1,0.4,0.1c0.3,0.1,0.5,0.1,0.6,0.2c0.2,0.1,0.3,0.2,0.3,0.4c0,0.3-0.2,0.5-0.6,0.7
			C100.4,101.4,99.7,101.5,98.9,101.4z"/>
	</g>
	<g>
		<path class="st1" d="M54,130.8c0.4-0.1,0.7-0.1,0.9-0.1c0.2,0,0.4,0.1,0.6,0.2c0.1,0.1,0.2,0.3,0.3,0.4c0.1,0.2,0.1,0.4,0.1,0.6
			c0,0.6-0.2,1.1-0.5,1.4c-0.1,0.1-0.3,0.3-0.5,0.6c-0.2,0.3-0.4,0.6-0.6,1.1c-0.2,0.4-0.4,1-0.5,1.6c-0.2,0.6-0.2,1.3-0.2,2.1
			c0,1,0.2,2.1,0.5,3.3v0l2.4,6.1c1-0.9,2-1.9,3-3c1.1-1.1,2-2.2,2.7-3.4c0.2-0.3,0.4-0.5,0.6-0.6c0.2-0.1,0.4-0.1,0.6-0.1
			c0.2,0.1,0.3,0.2,0.4,0.5c0.1,0.2,0.1,0.6,0,0.9c-0.3,0.7-0.7,1.3-1.1,1.9c-0.4,0.6-0.9,1.2-1.5,1.8c-0.5,0.6-1.1,1.2-1.7,1.7
			c-0.6,0.5-1.1,1.1-1.7,1.6l-0.7,0.6c0.3,0.9,0.6,1.8,0.9,2.5c0.3,0.7,0.4,1.3,0.5,1.5c0.1,0.7,0.2,1.2,0.2,1.7
			c0,0.7-0.1,1.3-0.3,1.8c-0.2,0.5-0.5,0.9-0.9,1.1c-0.4,0.3-0.8,0.5-1.2,0.6c-0.5,0.1-0.9,0.2-1.5,0.2c-1.7,0-2.9-0.2-3.6-0.8
			c-0.7-0.6-1.1-1.4-1.1-2.4c0-0.2,0-0.4,0-0.7c0-0.2,0.1-0.5,0.1-0.7c0.2-0.8,0.6-1.5,1.1-2.2c0.6-0.7,1.2-1.4,2-2.1
			c-0.3-0.8-0.6-1.5-0.9-2.3c-0.3-0.8-0.6-1.5-1-2.2c-0.3-0.7-0.6-1.3-0.9-1.8c-0.3-0.5-0.5-1-0.6-1.3c-0.1-0.2-0.2-0.4-0.3-0.5
			c-0.1-0.2-0.1-0.2,0-0.2c-0.2-0.6-0.3-1.2-0.4-1.8c-0.1-0.6-0.1-1.2-0.1-1.7c0-1.4,0.2-2.5,0.6-3.5c0.4-1,0.9-1.8,1.5-2.4
			c0.5-0.6,1.1-1.1,1.6-1.4C53.4,131.1,53.8,130.9,54,130.8L54,130.8z M54.9,156.5c0-0.9-0.2-2.1-0.6-3.4c-0.3,0.4-0.5,0.7-0.7,1.1
			c-0.2,0.4-0.3,0.7-0.4,1.1c-0.1,0.3-0.2,0.6-0.2,0.9c0,0.3-0.1,0.5-0.1,0.7c0,0.7,0.1,1.2,0.4,1.3c0.3,0.2,0.5,0.2,0.8,0.1
			C54.6,158.1,54.9,157.5,54.9,156.5z"/>
		<path class="st1" d="M52.7,126.8c0.5,0.1,1,0.2,1.8,0.2c0.7,0,1.5,0.1,2.4,0.1c1.5,0,3.2,0,5-0.1l0.6-4.5c0-0.2,0-0.3,0.1-0.4
			c0-0.1,0-0.2,0-0.1c0-0.1,0.1-0.3,0.2-0.4c0.1-0.1,0.3-0.3,0.5-0.4c0.2-0.1,0.4-0.2,0.6-0.3c0.2-0.1,0.5-0.1,0.7-0.1
			c0.3,0,0.6,0.1,0.9,0.3c0.3,0.2,0.5,0.5,0.5,1c0.1,0.5,0.1,1.3,0.1,2.4c0,0.4,0,0.7,0,1.2c0,0.4,0,0.8,0,1.3c0.7,0,1.3-0.1,2-0.1
			c0.7,0,1.3-0.1,2-0.1c1-0.1,1.9-0.1,2.9-0.2c1-0.1,1.9-0.1,2.7-0.2c0.9-0.1,1.7-0.1,2.4-0.1c0.8,0,1.4,0,2,0
			c1.1,0,1.9,0.1,2.4,0.2c0.3,0.1,0.5,0.3,0.6,0.5c0.1,0.2,0.1,0.4,0.1,0.6c-0.1,0.2-0.2,0.4-0.5,0.5c-0.2,0.1-0.6,0.2-1,0.1
			c-0.4,0-0.8-0.1-1.2-0.1c-0.5,0-0.9-0.1-1.5-0.1c-1.5,0-3.2,0.1-5.1,0.2c-2,0.2-4,0.3-6.1,0.5l-1.8,0.2l-0.3,5.6
			c-0.1,2.2-0.3,4.3-0.4,6.5c-0.1,2.2-0.2,4.2-0.2,6c0,0.9,0,1.8,0,2.5c0,0.8,0.1,1.4,0.1,2c0.1,0.5,0.2,1,0.3,1.3
			c0.1,0.3,0.2,0.4,0.4,0.4c0.3,0,0.7-0.5,1.1-1.2c0.4-0.8,0.8-1.7,1.2-2.7s0.8-2.1,1.1-3.1c0.3-1.1,0.6-2,0.8-2.6
			c0-0.2,0.1-0.3,0.2-0.5c0.1-0.2,0.1-0.4,0.2-0.5c0.1-0.2,0.2-0.3,0.5-0.3c0.3,0,0.5,0,0.8,0c0.3,0,0.5,0.1,0.7,0.3
			c0.2,0.1,0.3,0.3,0.2,0.4c-0.1,0.1-0.2,0.4-0.3,0.8c-0.1,0.5-0.2,1.1-0.4,1.8c-0.2,0.7-0.4,1.5-0.7,2.3c-0.3,0.8-0.6,1.7-1,2.5
			c-0.4,0.8-0.8,1.6-1.4,2.2c-0.5,0.7-1.1,1.2-1.8,1.6c-0.7,0.4-1.4,0.6-2.2,0.6c-0.8,0-1.5-0.4-2-1.1c-0.5-0.7-1-1.6-1.3-2.7
			c-0.3-1.1-0.6-2.4-0.7-3.9c-0.1-1.5-0.2-3.1-0.2-4.7c0-2.2,0.1-4.4,0.3-6.7c0.2-2.3,0.4-4.4,0.6-6.3c-2.1,0.1-4,0.2-5.7,0.2
			c-0.8,0-1.5,0-2.1,0c-0.6,0-1.2-0.1-1.6-0.2h0.1c-0.6-0.1-1.1-0.3-1.5-0.6c-0.3-0.3-0.5-0.5-0.5-0.8c0-0.3,0.2-0.5,0.6-0.7
			C51.3,126.7,51.9,126.7,52.7,126.8z"/>
		<path class="st1" d="M77,135.5c1,0,1.8,0.1,2.5,0.3c0.7,0.2,1.3,0.5,1.7,0.8c0.4,0.3,0.8,0.7,1.1,1.1c0.3,0.4,0.4,0.8,0.6,1.2
			c0.1,0.4,0.2,0.8,0.2,1.1c0,0.4,0,0.6,0,0.9c-0.2,1.4-0.7,2.6-1.3,3.5c-0.6,0.9-1.3,1.6-2.1,2.1c-0.8,0.5-1.6,0.9-2.5,1.1
			c-0.9,0.2-1.7,0.3-2.4,0.3c-0.7,0-1.2,0-1.7-0.1v0.2c0,0.8,0.1,1.6,0.2,2.3c0.1,0.7,0.3,1.4,0.5,1.9c0.2,0.5,0.5,1,0.9,1.3
			c0.3,0.3,0.8,0.5,1.2,0.5c1,0,1.9-0.3,2.8-0.7c0.9-0.4,1.6-0.9,2.4-1.6c0.7-0.6,1.4-1.3,1.9-2.1c0.6-0.8,1.1-1.5,1.5-2.3
			c0.4-0.8,0.8-1.5,1.1-2.2c0.3-0.7,0.6-1.3,0.8-1.7l0.3-0.8c0.1-0.2,0.3-0.3,0.6-0.4c0.3-0.1,0.5-0.1,0.8-0.1
			c0.3,0,0.5,0.1,0.6,0.2c0.2,0.1,0.2,0.4,0.2,0.7c-0.1,0.4-0.3,1-0.5,1.8c-0.3,0.8-0.7,1.7-1.2,2.7c-0.5,1-1.2,2-1.9,3
			c-0.7,1-1.6,2-2.5,2.8c-0.9,0.9-2,1.5-3.1,2.1c-1.1,0.5-2.3,0.8-3.6,0.8c-1.2,0-2.2-0.2-3-0.5c-0.8-0.3-1.6-0.8-2.1-1.3
			c-0.6-0.5-1-1.1-1.4-1.7c-0.4-0.6-0.6-1.2-0.8-1.8c-0.2-0.6-0.3-1.1-0.4-1.5c-0.1-0.4-0.1-0.8-0.1-1v-0.3c0-0.4,0-0.9,0.1-1.7
			c0-0.8,0.1-1.6,0.3-2.6s0.4-1.9,0.8-2.9c0.4-1,0.9-1.9,1.5-2.7c0.7-0.8,1.5-1.5,2.5-2C74.3,135.7,75.5,135.5,77,135.5z
			 M77.8,137.4c-0.7,0.1-1.3,0.5-1.8,1c-0.6,0.6-1,1.3-1.5,2.1c-0.4,0.9-0.7,1.8-1,2.8c-0.3,1-0.4,2.1-0.5,3.2c0.1,0,0.3,0,0.4,0
			c0.1,0,0.3,0,0.5,0c0.5,0,1.1-0.1,1.7-0.2c0.6-0.2,1.2-0.4,1.7-0.9c0.6-0.4,1-1,1.4-1.7c0.4-0.7,0.6-1.6,0.7-2.8
			c0-0.4,0-0.8-0.1-1.2c-0.1-0.4-0.2-0.8-0.3-1.2c-0.1-0.4-0.3-0.6-0.5-0.9C78.4,137.6,78.1,137.5,77.8,137.4z"/>
		<path class="st1" d="M96.2,136c1.2,0.1,2.2,0.3,3,0.7c0.8,0.4,1.5,0.9,2.1,1.6c0.6,0.6,1,1.4,1.2,2.2c0.3,0.8,0.4,1.7,0.4,2.6
			c0,0.2,0,0.5,0,0.7c0,0.3-0.1,0.5-0.1,0.7c0.7-0.3,1.4-0.7,2-1.2c0.6-0.5,1-1.1,1.3-1.8c0.1-0.3,0.3-0.5,0.7-0.6
			c0.3-0.1,0.6-0.2,0.9-0.2c0.3,0,0.6,0.1,0.9,0.3c0.3,0.2,0.3,0.4,0.2,0.8c-0.6,1.4-1.4,2.4-2.6,3.2c-1.2,0.8-2.5,1.4-4,1.9
			c-0.3,0.9-0.8,1.7-1.3,2.5c-0.5,0.8-1.2,1.5-1.9,2.1c-0.7,0.6-1.5,1.1-2.4,1.5c-0.9,0.4-1.8,0.7-2.8,0.8c-0.5,0.1-1,0.1-1.5,0.1
			c-0.9,0-1.6-0.1-2.2-0.3c0.3,2.2,0.7,4.4,1.2,6.5c0.5,2.1,1.3,4,2.3,5.7c0.3,0.5,0.4,0.9,0.2,1.2c-0.2,0.3-0.6,0.4-1.1,0.4
			c-0.3,0-0.8-0.1-1.3-0.3c-0.5-0.2-0.9-0.4-1.4-0.7c-0.8-0.7-1.5-1.7-2.1-3.2c-0.6-1.5-1-3.1-1.3-5c-0.3-1.9-0.6-3.8-0.7-5.9
			c-0.1-2.1-0.2-4.1-0.2-6c0-1.3,0-2.5,0.1-3.6c0-1.1,0.1-2.2,0.2-3c0.1-0.9,0.2-1.6,0.2-2.2c0.1-0.6,0.2-1,0.2-1.1
			c0.2-0.4,0.5-0.7,0.9-0.9c0.4-0.2,0.8-0.3,1.1-0.3c0.5,0,0.9,0.2,1.2,0.5c0.3,0.3,0.5,0.8,0.4,1.5l-0.1,1.5c0.3-0.4,0.6-0.7,1-1.1
			c0.4-0.3,0.8-0.6,1.3-0.9c0.5-0.3,1.1-0.5,1.7-0.6C94.6,136,95.4,136,96.2,136z M89.7,145.9c0,0.4,0,0.8,0,1.2s0,0.8,0,1.2
			c0.7-0.6,1.7-1,2.9-1.2c1.2-0.3,2.5-0.5,3.8-0.8c0.4-0.1,0.8-0.1,1.2-0.2c0.4-0.1,0.8-0.1,1.2-0.2l0.1-0.3
			c0.1-0.6,0.1-1.2,0.1-1.8c0-1.7-0.4-3-1.2-4c-0.8-1-1.9-1.4-3.3-1.3c-0.6,0-1.2,0.3-1.7,0.6c-0.5,0.4-0.9,0.8-1.3,1.3
			c-0.4,0.5-0.7,1-0.9,1.6c-0.3,0.5-0.5,1-0.7,1.4c0,0.1-0.1,0.2-0.1,0.3c0,0.1-0.1,0.2-0.1,0.3V145.9z M93.9,151.8
			c0.4-0.1,0.8-0.3,1.2-0.5c0.4-0.3,0.7-0.6,1.1-0.9c0.3-0.4,0.7-0.7,0.9-1.1c0.3-0.4,0.5-0.8,0.8-1.2l-1.1,0.2
			c-0.8,0.2-1.5,0.3-2.2,0.5c-0.7,0.2-1.3,0.3-1.8,0.5c-0.5,0.2-0.9,0.4-1.2,0.7c-0.3,0.3-0.4,0.6-0.4,0.9c0,0.3,0.1,0.5,0.4,0.8
			c0.3,0.3,0.7,0.4,1.3,0.4C93.2,152,93.6,151.9,93.9,151.8z"/>
		<path class="st1" d="M109.3,130.8c0.4-0.1,0.7-0.1,0.9-0.1c0.2,0,0.4,0.1,0.6,0.2c0.1,0.1,0.2,0.3,0.3,0.4
			c0.1,0.2,0.1,0.4,0.1,0.6c0,0.6-0.2,1.1-0.5,1.4c-0.1,0.1-0.3,0.3-0.5,0.6c-0.2,0.3-0.4,0.6-0.6,1.1c-0.2,0.4-0.4,1-0.5,1.6
			c-0.2,0.6-0.2,1.3-0.2,2.1c0,1,0.2,2.1,0.5,3.3v0l2.4,6.1c1-0.9,2-1.9,3-3c1.1-1.1,2-2.2,2.7-3.4c0.2-0.3,0.4-0.5,0.6-0.6
			c0.2-0.1,0.4-0.1,0.6-0.1c0.2,0.1,0.3,0.2,0.4,0.5c0.1,0.2,0.1,0.6,0,0.9c-0.3,0.7-0.7,1.3-1.1,1.9c-0.4,0.6-0.9,1.2-1.5,1.8
			c-0.5,0.6-1.1,1.2-1.7,1.7c-0.6,0.5-1.1,1.1-1.7,1.6l-0.7,0.6c0.3,0.9,0.6,1.8,0.9,2.5c0.3,0.7,0.4,1.3,0.5,1.5
			c0.1,0.7,0.2,1.2,0.2,1.7c0,0.7-0.1,1.3-0.3,1.8c-0.2,0.5-0.5,0.9-0.9,1.1c-0.4,0.3-0.8,0.5-1.2,0.6c-0.5,0.1-0.9,0.2-1.5,0.2
			c-1.7,0-2.9-0.2-3.6-0.8c-0.7-0.6-1.1-1.4-1.1-2.4c0-0.2,0-0.4,0-0.7c0-0.2,0.1-0.5,0.1-0.7c0.2-0.8,0.6-1.5,1.1-2.2
			c0.6-0.7,1.2-1.4,2-2.1c-0.3-0.8-0.6-1.5-0.9-2.3c-0.3-0.8-0.6-1.5-1-2.2c-0.3-0.7-0.6-1.3-0.9-1.8c-0.3-0.5-0.5-1-0.6-1.3
			c-0.1-0.2-0.2-0.4-0.3-0.5c-0.1-0.2-0.1-0.2,0-0.2c-0.2-0.6-0.3-1.2-0.4-1.8c-0.1-0.6-0.1-1.2-0.1-1.7c0-1.4,0.2-2.5,0.6-3.5
			c0.4-1,0.9-1.8,1.5-2.4c0.5-0.6,1.1-1.1,1.6-1.4C108.7,131.1,109.1,130.9,109.3,130.8L109.3,130.8z M110.2,156.5
			c0-0.9-0.2-2.1-0.6-3.4c-0.3,0.4-0.5,0.7-0.7,1.1c-0.2,0.4-0.3,0.7-0.4,1.1c-0.1,0.3-0.2,0.6-0.2,0.9c0,0.3-0.1,0.5-0.1,0.7
			c0,0.7,0.1,1.2,0.4,1.3c0.3,0.2,0.5,0.2,0.8,0.1C109.9,158.1,110.2,157.5,110.2,156.5z"/>
	</g>
	<g>
		<path class="st0" d="M60.3,173.1c1.6-0.1,3,0,4.1,0.3c1.2,0.3,2.2,0.6,3,1.1c0.9,0.5,1.6,1,2.1,1.7c0.6,0.6,1,1.3,1.4,2
			c0.3,0.7,0.6,1.4,0.8,2.1c0.2,0.7,0.3,1.3,0.4,1.9c0.1,0.6,0.1,1.1,0.1,1.5s0,0.7,0,0.9c0,1.4-0.2,2.7-0.6,3.8
			c-0.4,1.1-1,2.1-1.7,2.9c-0.7,0.8-1.6,1.5-2.5,2.1c-0.9,0.6-1.9,1.1-2.9,1.5c0.6,1.4,1.3,2.7,2,4.1c0.7,1.4,1.5,2.7,2.4,3.9
			c0.8,1.2,1.7,2.3,2.7,3.2c0.9,0.9,1.9,1.6,3,2.1c0.3,0.2,0.5,0.3,0.6,0.4c0.1,0.1,0.1,0.2,0,0.3c-0.1,0.1-0.2,0.1-0.5,0.2
			c-0.2,0-0.5,0.1-0.8,0.1c-0.3,0-0.7,0-1.1-0.1c-0.4-0.1-0.8-0.2-1.1-0.4c-1.1-0.6-2.1-1.3-3.1-2.3s-2-2-2.9-3.1
			c-0.9-1.1-1.7-2.3-2.5-3.6c-0.8-1.3-1.5-2.5-2.1-3.8c-0.4,0.1-0.7,0.1-1,0.2c-0.3,0-0.7,0.1-1,0.1c0,1,0,2,0,2.9
			c0,0.9,0,1.7,0,2.4c0,0.7,0,1.3-0.1,1.7c0,0.4-0.1,0.7-0.1,0.8c-0.2,0.3-0.5,0.6-1,0.8c-0.5,0.2-1,0.3-1.5,0.3
			c-0.6,0-1.1-0.1-1.5-0.3c-0.4-0.2-0.6-0.5-0.5-1c0.2-1,0.4-2.1,0.5-3.4c0.1-1.3,0.3-2.8,0.4-4.3c-0.8-0.2-1.6-0.5-2.4-0.8
			c-0.7-0.3-1.4-0.8-1.9-1.2c-0.6-0.5-1-1-1.3-1.6c-0.3-0.6-0.5-1.2-0.5-1.9c0-0.8,0.3-1.6,0.7-2.3c0.4-0.7,0.9-1.3,1.6-1.8
			c0.6-0.5,1.3-0.9,2.1-1.3c0.8-0.3,1.5-0.6,2.3-0.8c0.1-1.6,0.2-3.1,0.3-4.4s0.3-2.3,0.6-2.9c0.2-0.4,0.4-0.7,0.9-0.9
			c0.4-0.2,0.8-0.3,1.3-0.3c0.4,0,0.8,0.1,1,0.3c0.3,0.2,0.3,0.4,0.1,0.8c-0.1,0.3-0.2,0.7-0.3,1.1c-0.1,0.5-0.2,1-0.2,1.6
			c-0.1,0.6-0.1,1.3-0.2,2.1c0,0.8-0.1,1.6-0.1,2.4c0.9,0.1,1.7,0.3,2.3,0.6c0.6,0.3,1.1,0.6,1.4,0.9c0.3,0.3,0.6,0.6,0.7,1
			c0.1,0.3,0.2,0.6,0.2,0.8c0,0.3-0.2,0.5-0.4,0.7s-0.5,0.3-0.7,0.4c-0.3,0.1-0.5,0.1-0.7,0.1c-0.2,0-0.3-0.1-0.4-0.2
			c0-0.1,0-0.2,0-0.3s0-0.2,0-0.3c0-0.5-0.2-1-0.5-1.5c-0.4-0.4-1-0.7-1.8-0.8c0,1.5-0.1,3-0.1,4.5c0,1.5,0,3,0,4.5
			c1.5-0.2,2.8-0.5,3.9-1c1.1-0.4,1.9-0.9,2.6-1.5c0.7-0.6,1.3-1.2,1.6-1.8c0.4-0.6,0.7-1.3,0.9-1.9c0.2-0.6,0.3-1.1,0.3-1.6
			c0-0.5,0-0.9,0-1.1v-0.3c0-1.7-0.1-3.1-0.3-4.3c-0.3-1.2-0.6-2.2-1.1-3c-0.5-0.8-1-1.5-1.6-2c-0.6-0.5-1.2-0.9-1.8-1.1
			c-0.6-0.3-1.2-0.4-1.8-0.5c-0.6-0.1-1.1-0.1-1.5-0.1c-1.4,0.2-2.5,0.4-3.4,0.8c-0.9,0.4-1.7,0.8-2.3,1.2c-0.6,0.4-1,0.8-1.3,1.3
			c-0.3,0.4-0.5,0.7-0.6,1c0,0.1-0.1,0.1-0.1,0.2s-0.1,0.1-0.1,0.1c0,0.1-0.1,0.1-0.1,0.1h0c-0.1,0.1-0.3,0.1-0.4,0.2
			c-0.2,0.1-0.4,0.1-0.5,0.1c-0.2,0-0.4-0.1-0.5-0.2c-0.2-0.1-0.3-0.3-0.3-0.5c0-0.1,0-0.3,0.2-0.6c0.1-0.3,0.4-0.7,0.7-1.1
			c0.3-0.4,0.7-0.8,1.2-1.2c0.5-0.4,1.1-0.8,1.8-1.2c0.7-0.4,1.5-0.7,2.5-0.9C58.1,173.3,59.1,173.1,60.3,173.1z M55.8,186
			c-0.9,0.2-1.6,0.5-2.1,0.9c-0.5,0.4-0.9,0.8-1.2,1.3c-0.3,0.4-0.5,0.9-0.6,1.3c-0.1,0.4-0.2,0.8-0.2,1c-0.1,0.5,0,1,0.2,1.5
			c0.2,0.4,0.5,0.8,0.9,1.1s0.8,0.6,1.3,0.8c0.5,0.2,0.9,0.4,1.4,0.5c0-0.8,0.1-1.7,0.1-2.5c0-0.8,0.1-1.7,0.1-2.5L55.8,186z"/>
		<path class="st0" d="M73.1,189.8c0-0.1,0-0.1,0-0.1c0-0.3,0.2-0.5,0.5-0.7c0.4-0.2,0.8-0.3,1.2-0.3c0.3,0,0.6,0.1,0.9,0.3
			c0.3,0.2,0.4,0.4,0.5,0.8c0.1,0.3,0.1,0.5,0.1,0.9c0,0.3,0,0.6,0,1c0,0.6,0,1.3-0.1,2c0,0.7-0.1,1.4-0.1,2.1
			c0,0.7-0.1,1.4-0.1,2.1c0,0.7,0,1.3,0,1.9c0,0.9,0,1.6,0.1,2.2c0.1,0.6,0.3,0.8,0.6,0.8c0.2,0,0.4-0.2,0.6-0.6
			c0.2-0.4,0.5-0.9,0.7-1.5c0.3-0.6,0.5-1.3,0.8-2.1c0.3-0.8,0.5-1.5,0.7-2.3c0.2-0.8,0.5-1.5,0.7-2.2c0.2-0.7,0.4-1.3,0.5-1.8
			l0.4-1.2c0.1-0.2,0.2-0.3,0.4-0.4c0.2-0.1,0.4-0.1,0.6-0.1c0.2,0,0.4,0.1,0.5,0.2c0.2,0.1,0.2,0.3,0.2,0.5c0,0.4-0.1,1-0.2,1.8
			c-0.1,0.8-0.3,1.7-0.6,2.6c-0.3,0.9-0.6,1.9-1,2.9c-0.4,1-0.8,1.9-1.4,2.7c-0.5,0.8-1.1,1.5-1.7,2c-0.6,0.5-1.3,0.8-2,0.8
			c-0.7-0.1-1.2-0.3-1.6-0.8c-0.4-0.5-0.8-1-1.1-1.7c-0.3-0.7-0.5-1.4-0.6-2.3c-0.1-0.8-0.2-1.7-0.2-2.6c0-0.8,0-1.5,0.1-2.2
			c0-0.7,0.1-1.4,0.2-2c0.1-0.6,0.1-1.1,0.2-1.6C73,190.3,73,190,73.1,189.8z M73,186c0-0.5,0.2-1,0.5-1.4c0.3-0.4,0.8-0.6,1.3-0.6
			c0.5,0,0.9,0.2,1.2,0.6c0.3,0.4,0.5,0.8,0.5,1.4c0,0.5-0.2,1-0.5,1.4c-0.3,0.4-0.8,0.6-1.2,0.6c-0.5,0-0.9-0.2-1.3-0.6
			C73.1,187,73,186.5,73,186z"/>
		<path class="st0" d="M86.7,186.9c0.5,0,1,0.1,1.4,0.3c0.4,0.2,0.7,0.4,0.9,0.7c0.1-1,0.2-1.9,0.3-2.8c0.1-0.9,0.2-1.7,0.3-2.5
			c0.1-0.8,0.2-1.4,0.3-2c0.1-0.6,0.1-1,0.2-1.4c0-0.1,0.1-0.2,0.1-0.3c0-0.1,0-0.1,0-0.1c0-0.1,0-0.2,0.1-0.3
			c0.1-0.1,0.2-0.2,0.4-0.3c0.2-0.1,0.3-0.2,0.5-0.3c0.2-0.1,0.4-0.1,0.6-0.1c0.3,0,0.5,0.1,0.7,0.2s0.3,0.4,0.4,0.7
			c0.1,0.4,0.1,1.1,0.1,1.9c0,0.9,0,1.9-0.1,3.1c-0.1,1.2-0.1,2.5-0.2,3.8c-0.1,1.5-0.2,3-0.3,4.5c-0.1,1.5-0.1,2.9-0.1,4.1
			c0,1.3,0,2.3,0.1,3.1c0.1,0.8,0.2,1.2,0.5,1.1c0.2,0,0.5-0.4,0.8-1c0.3-0.6,0.6-1.4,0.9-2.2s0.6-1.7,0.8-2.6
			c0.3-0.9,0.5-1.6,0.6-2.2l0.3-1.1c0.1-0.1,0.2-0.2,0.4-0.3c0.2,0,0.4,0,0.6,0c0.2,0,0.4,0.1,0.5,0.2c0.2,0.1,0.2,0.2,0.1,0.3
			c0,0,0,0.1,0,0.3s-0.1,0.3-0.1,0.5c-0.1,0.5-0.2,1.1-0.4,1.7c-0.2,0.7-0.3,1.4-0.6,2.2c-0.2,0.8-0.5,1.5-0.8,2.3
			c-0.3,0.8-0.7,1.4-1.1,2c-0.4,0.6-0.9,1.1-1.4,1.4c-0.5,0.4-1.1,0.5-1.7,0.5c-0.8,0-1.4-0.5-1.8-1.3c-0.4-0.8-0.8-1.9-1-3.2
			c-0.2,0.4-0.3,0.7-0.5,1.1c-0.2,0.4-0.4,0.7-0.7,1c-0.3,0.3-0.6,0.5-0.9,0.7c-0.3,0.2-0.7,0.3-1.1,0.4c-1.1,0.1-2.1-0.1-2.8-0.4
			c-0.7-0.4-1.3-0.9-1.7-1.5c-0.4-0.6-0.7-1.3-0.9-2.1c-0.2-0.8-0.3-1.5-0.3-2.1c0-0.2,0-0.4,0-0.6c0-0.2,0-0.4,0.1-0.5
			c0,0,0-0.1,0-0.1c0,0,0-0.1,0-0.1c0-0.3,0.1-0.6,0.2-1.1c0.1-0.4,0.2-0.9,0.4-1.4c0.2-0.5,0.4-1,0.7-1.5c0.3-0.5,0.7-1,1.1-1.4
			c0.5-0.4,1-0.7,1.7-1C85,187,85.8,186.9,86.7,186.9z M88.8,193.4c0-0.6,0-1.2,0-1.8c0-0.6,0-1.2,0.1-1.9c-0.1-0.3-0.4-0.6-0.7-0.9
			c-0.3-0.3-0.7-0.4-1.2-0.4c-0.3,0-0.6,0.2-1,0.5c-0.4,0.3-0.7,0.7-1,1.1c-0.3,0.5-0.6,1-0.8,1.7c-0.2,0.6-0.3,1.3-0.3,2.1
			c0,1.3,0.1,2.4,0.3,3.2c0.2,0.8,0.3,1.4,0.5,1.9c0.2,0.4,0.4,0.7,0.6,0.9c0.2,0.2,0.3,0.2,0.5,0.3c0.3,0.1,0.6,0,0.9-0.3
			c0.3-0.3,0.6-0.6,0.9-1c0.3-0.4,0.5-0.9,0.7-1.4c0.2-0.5,0.4-1,0.6-1.5c0-0.4-0.1-0.7-0.1-1.1C88.8,194.2,88.8,193.8,88.8,193.4z"
			/>
		<path class="st0" d="M100.8,186.3c0.8,0,1.4,0.1,2,0.3c0.5,0.2,1,0.4,1.3,0.6c0.3,0.3,0.6,0.5,0.8,0.8c0.2,0.3,0.3,0.6,0.4,0.9
			c0.1,0.3,0.1,0.6,0.2,0.9c0,0.3,0,0.5,0,0.7c-0.2,1.1-0.5,2-1,2.7c-0.5,0.7-1,1.3-1.6,1.6c-0.6,0.4-1.3,0.7-1.9,0.8
			c-0.7,0.2-1.3,0.2-1.9,0.2c-0.5,0-1,0-1.3-0.1v0.2c0,0.6,0,1.2,0.1,1.8c0.1,0.6,0.2,1.1,0.4,1.5c0.2,0.4,0.4,0.8,0.7,1
			c0.3,0.3,0.6,0.4,0.9,0.4c0.8,0,1.5-0.2,2.2-0.5c0.7-0.3,1.3-0.7,1.8-1.2c0.6-0.5,1.1-1,1.5-1.6c0.5-0.6,0.8-1.2,1.2-1.8
			c0.3-0.6,0.6-1.2,0.9-1.7c0.2-0.5,0.4-1,0.6-1.4l0.3-0.6c0.1-0.1,0.2-0.2,0.5-0.3c0.2-0.1,0.4-0.1,0.6-0.1c0.2,0,0.4,0.1,0.5,0.2
			c0.1,0.1,0.2,0.3,0.2,0.6c-0.1,0.3-0.2,0.8-0.4,1.4c-0.2,0.6-0.5,1.3-1,2.1c-0.4,0.8-0.9,1.6-1.5,2.4c-0.6,0.8-1.2,1.5-1.9,2.2
			s-1.5,1.2-2.4,1.6c-0.9,0.4-1.8,0.6-2.8,0.6c-0.9,0-1.7-0.2-2.4-0.4c-0.7-0.3-1.2-0.6-1.7-1c-0.5-0.4-0.8-0.8-1.1-1.3
			s-0.5-1-0.6-1.4c-0.1-0.4-0.2-0.8-0.3-1.2c0-0.3-0.1-0.6-0.1-0.7v-0.2c0-0.3,0-0.7,0-1.3c0-0.6,0.1-1.3,0.2-2
			c0.1-0.7,0.3-1.5,0.6-2.3s0.7-1.5,1.2-2.1c0.5-0.6,1.1-1.2,1.9-1.6C98.7,186.4,99.6,186.2,100.8,186.3z M101.4,187.8
			c-0.5,0.1-1,0.4-1.4,0.8c-0.4,0.4-0.8,1-1.1,1.6c-0.3,0.7-0.6,1.4-0.8,2.2c-0.2,0.8-0.3,1.6-0.4,2.5c0.1,0,0.2,0,0.3,0
			c0.1,0,0.2,0,0.4,0c0.4,0,0.8-0.1,1.3-0.2c0.5-0.1,0.9-0.3,1.4-0.7c0.4-0.3,0.8-0.8,1.1-1.3c0.3-0.6,0.5-1.3,0.5-2.2
			c0-0.3,0-0.6,0-0.9c0-0.3-0.1-0.6-0.2-0.9c-0.1-0.3-0.2-0.5-0.4-0.7C101.9,187.9,101.7,187.8,101.4,187.8z"/>
		<path class="st0" d="M125.5,190.3c0-0.1,0-0.1,0-0.1c0-0.1,0.1-0.2,0.2-0.3c0.1-0.1,0.3-0.2,0.5-0.3s0.4-0.2,0.6-0.3
			c0.2-0.1,0.5-0.1,0.7-0.1c0.3,0,0.6,0.1,0.8,0.2c0.2,0.1,0.4,0.4,0.4,0.7c0.1,0.4,0.1,0.9,0.1,1.5c0,0.7,0,1.4-0.1,2.2
			c-0.1,0.8-0.1,1.6-0.2,2.4c-0.1,0.8-0.1,1.5-0.2,2.3s-0.1,1.4-0.1,2c0,0.6,0,1.1,0.1,1.5c0.1,0.4,0.3,0.6,0.5,0.5
			c0.2,0,0.4-0.2,0.6-0.6c0.2-0.4,0.5-0.9,0.7-1.5c0.3-0.6,0.5-1.3,0.8-2c0.3-0.7,0.5-1.5,0.8-2.2c0.3-0.7,0.5-1.4,0.7-2.1
			c0.2-0.7,0.4-1.2,0.5-1.6l0.3-0.9c0.1-0.1,0.2-0.2,0.4-0.3c0.2,0,0.4,0,0.6,0c0.2,0,0.4,0.1,0.6,0.2c0.2,0.1,0.2,0.2,0.1,0.3v-0.1
			l-0.2,0.8c-0.1,0.5-0.3,1.1-0.5,1.9c-0.2,0.8-0.5,1.6-0.8,2.4c-0.3,0.9-0.6,1.7-1,2.6s-0.8,1.6-1.3,2.3c-0.5,0.7-1,1.2-1.5,1.7
			c-0.6,0.4-1.1,0.6-1.8,0.6c-0.4-0.1-0.8-0.2-1.1-0.5s-0.6-0.6-0.8-1c-0.2-0.4-0.4-0.8-0.6-1.4c-0.2-0.5-0.3-1.1-0.4-1.6
			c-0.3,0.5-0.6,0.9-1.1,1.3c-0.5,0.4-1,0.7-1.7,0.7c-1.3,0.1-2.3-0.1-3.1-0.6c-0.7-0.5-1.3-1.1-1.7-1.7c-0.4-0.7-0.6-1.4-0.7-2.2
			c-0.1-0.8-0.2-1.5-0.2-2c0-0.4,0-0.9,0.1-1.4c0-0.6,0.2-1.2,0.3-1.9c0.2-0.7,0.4-1.4,0.7-2c0.3-0.7,0.7-1.3,1.2-1.9
			c0.5-0.6,1.1-1,1.8-1.4c0.7-0.4,1.5-0.6,2.4-0.6c0.8,0,1.4,0,1.8,0.2c0.5,0.2,0.9,0.3,1.1,0.6c0.3,0.2,0.5,0.5,0.6,0.7
			c0.1,0.2,0.2,0.5,0.3,0.6l0.1,0.3v0c0.2,0.3,0.1,0.6-0.1,0.7c-0.2,0.2-0.5,0.3-0.8,0.3c-0.2,0-0.4,0-0.6-0.1
			c-0.2-0.1-0.4-0.2-0.5-0.4c-0.1-0.1-0.1-0.1-0.1-0.2c0,0,0-0.1-0.1-0.1c-0.1-0.2-0.2-0.4-0.5-0.7c-0.2-0.3-0.6-0.4-1.1-0.4
			c-0.3,0-0.6,0.2-0.9,0.6c-0.3,0.4-0.6,0.9-0.9,1.5s-0.5,1.4-0.8,2.4c-0.2,0.9-0.4,2-0.5,3.2c0,0.1,0,0.3,0,0.5c0,0.2,0,0.3,0,0.4
			c0,1.1,0.1,1.9,0.3,2.5c0.2,0.6,0.4,1,0.6,1.2c0.2,0.3,0.5,0.4,0.7,0.4c0.2,0,0.4,0,0.5,0c0.2,0,0.5-0.1,0.7-0.3s0.5-0.5,0.7-0.8
			c0.2-0.3,0.4-0.7,0.6-1.1c0.2-0.4,0.4-0.7,0.5-1.1c0-0.7,0-1.4,0.1-2.1c0-0.7,0.1-1.3,0.1-1.9c0.1-0.6,0.1-1.1,0.2-1.5
			C125.4,190.8,125.5,190.5,125.5,190.3z"/>
		<path class="st0" d="M148.9,186.2c0.9,0.1,1.6,0.3,2.3,0.6c0.6,0.4,1.1,0.8,1.5,1.4c0.4,0.6,0.7,1.3,0.9,2
			c0.2,0.8,0.3,1.6,0.3,2.4c0,0.2,0,0.3,0,0.5c0,0.2,0,0.3,0,0.5c0.6-0.3,1.1-0.6,1.6-1c0.5-0.4,0.8-0.9,1.1-1.5
			c0.1-0.2,0.2-0.3,0.4-0.3c0.2-0.1,0.4-0.1,0.6,0c0.2,0,0.4,0.1,0.5,0.2c0.1,0.1,0.2,0.3,0.1,0.5c-0.2,0.5-0.4,1-0.7,1.3
			c-0.3,0.4-0.6,0.7-1,1c-0.4,0.3-0.9,0.6-1.4,0.8c-0.5,0.2-1,0.4-1.5,0.6c-0.2,0.9-0.5,1.8-0.9,2.7c-0.4,0.9-0.8,1.6-1.3,2.3
			c-0.5,0.7-1.1,1.2-1.7,1.6c-0.6,0.4-1.2,0.6-1.9,0.6c-0.7-0.1-1.2-0.2-1.7-0.4s-0.9-0.4-1.2-0.7c-0.3-0.3-0.6-0.6-0.8-0.9
			c-0.2-0.3-0.3-0.7-0.4-1.1c-0.3,0.3-0.7,0.5-1.2,0.5c-0.3,0-0.6-0.1-0.9-0.3s-0.5-0.5-0.7-0.9c-0.1-0.2-0.1-0.5-0.2-0.9
			c0-0.4-0.1-0.9-0.1-1.5c0-0.6-0.1-1.2-0.1-1.9c0-0.7,0-1.5,0-2.3c0-1.4,0-2.8,0.1-4.2c0.1-1.5,0.2-2.9,0.4-4.2
			c0.2-1.3,0.5-2.5,0.8-3.6c0.3-1.1,0.8-1.8,1.3-2.3c0.3-0.3,0.6-0.5,1-0.6c0.3-0.1,0.7-0.2,0.9-0.2c0.3,0,0.6,0.1,0.8,0.2
			s0.3,0.3,0.3,0.6c0,0.1,0,0.2-0.1,0.3c0,0.1-0.1,0.3-0.2,0.4c-0.2,0.3-0.4,0.8-0.5,1.4c-0.2,0.6-0.3,1.3-0.4,2.1
			c-0.1,0.8-0.2,1.7-0.3,2.6c-0.1,0.9-0.1,1.9-0.2,2.9c0.4-0.4,1-0.8,1.6-1C147,186.3,147.9,186.2,148.9,186.2z M144.6,193
			c0,0.8,0,1.5-0.1,2.1c0,0.6,0,1.2-0.1,1.7c0.2-0.3,0.6-0.6,0.9-0.8s0.8-0.4,1.3-0.6c0.5-0.2,1-0.3,1.5-0.4
			c0.5-0.1,1.1-0.2,1.6-0.4l1.1-0.2c0-0.1,0-0.2,0-0.3c0-0.1,0-0.2,0.1-0.2v0c0-0.1,0-0.2,0-0.3c0-0.1,0-0.2,0-0.3
			c0-0.5-0.1-1-0.2-1.6c-0.1-0.6-0.3-1.2-0.6-1.8c-0.3-0.6-0.6-1-1.1-1.4c-0.4-0.4-0.9-0.5-1.5-0.5c-0.5,0-0.9,0.2-1.2,0.4
			c-0.3,0.2-0.6,0.5-0.8,0.9c-0.2,0.3-0.4,0.7-0.5,1.1c-0.1,0.4-0.2,0.7-0.3,1c0,0.2-0.1,0.3-0.1,0.5c0,0.1-0.1,0.3-0.1,0.4V193z
			 M147.8,200.8c0.3-0.1,0.6-0.3,0.9-0.6c0.3-0.3,0.5-0.7,0.7-1.1c0.2-0.5,0.4-0.9,0.6-1.5c0.2-0.5,0.3-1,0.5-1.5
			c-0.6,0.2-1.2,0.3-1.8,0.5c-0.6,0.2-1.1,0.4-1.5,0.6c-0.4,0.2-0.7,0.5-1,0.8c-0.2,0.3-0.3,0.7-0.3,1.1c0,0.2,0.1,0.3,0.1,0.6
			c0,0.2,0.1,0.4,0.3,0.6c0.1,0.2,0.3,0.4,0.5,0.5C147.1,200.9,147.4,200.9,147.8,200.8z"/>
		<path class="st0" d="M156.5,189.8c0-0.1,0-0.1,0-0.1c0-0.3,0.2-0.5,0.5-0.7c0.4-0.2,0.8-0.3,1.2-0.3c0.3,0,0.6,0.1,0.9,0.3
			c0.3,0.2,0.4,0.4,0.5,0.8c0.1,0.3,0.1,0.5,0.1,0.9c0,0.3,0,0.6,0,1c0,0.6,0,1.3-0.1,2c0,0.7-0.1,1.4-0.1,2.1
			c0,0.7-0.1,1.4-0.1,2.1c0,0.7,0,1.3,0,1.9c0,0.9,0,1.6,0.1,2.2c0.1,0.6,0.3,0.8,0.6,0.8c0.2,0,0.4-0.2,0.6-0.6
			c0.2-0.4,0.5-0.9,0.7-1.5c0.3-0.6,0.5-1.3,0.8-2.1c0.3-0.8,0.5-1.5,0.7-2.3c0.2-0.8,0.5-1.5,0.7-2.2c0.2-0.7,0.4-1.3,0.6-1.8
			l0.4-1.2c0.1-0.2,0.2-0.3,0.4-0.4c0.2-0.1,0.4-0.1,0.6-0.1c0.2,0,0.4,0.1,0.5,0.2c0.2,0.1,0.2,0.3,0.2,0.5c0,0.4-0.1,1-0.2,1.8
			c-0.1,0.8-0.3,1.7-0.6,2.6c-0.3,0.9-0.6,1.9-1,2.9c-0.4,1-0.9,1.9-1.4,2.7c-0.5,0.8-1.1,1.5-1.7,2c-0.6,0.5-1.3,0.8-2,0.8
			c-0.7-0.1-1.2-0.3-1.6-0.8c-0.4-0.5-0.8-1-1.1-1.7c-0.3-0.7-0.5-1.4-0.6-2.3c-0.1-0.8-0.2-1.7-0.2-2.6c0-0.8,0-1.5,0.1-2.2
			c0-0.7,0.1-1.4,0.2-2c0.1-0.6,0.1-1.1,0.2-1.6C156.4,190.3,156.5,190,156.5,189.8z M156.4,186c0-0.5,0.2-1,0.5-1.4
			c0.3-0.4,0.8-0.6,1.3-0.6c0.5,0,0.9,0.2,1.2,0.6c0.3,0.4,0.5,0.8,0.5,1.4c0,0.5-0.2,1-0.5,1.4c-0.3,0.4-0.8,0.6-1.2,0.6
			c-0.5,0-0.9-0.2-1.3-0.6S156.4,186.5,156.4,186z"/>
		<path class="st0" d="M174.6,186.4c0.4,0,0.7,0,0.9,0.1s0.4,0.2,0.5,0.4c0.1,0.2,0.2,0.3,0.2,0.6s0,0.4,0,0.6
			c0,0.1-0.1,0.2-0.1,0.3c0,0.1-0.1,0.3-0.2,0.4c-0.2,0.4-0.4,0.8-0.6,1.4c-0.2,0.6-0.3,1.2-0.3,1.9c0,0.4,0.1,0.9,0.2,1.4
			c0.1,0.5,0.3,1.1,0.6,1.6c0.4,0.9-0.1,1-1.6,0.4c-0.4-0.2-0.7-0.5-1-1c-0.3-0.4-0.5-0.9-0.7-1.3c-0.2-0.5-0.4-1.1-0.5-1.7
			c-0.2,0.2-0.5,0.5-0.8,0.9c-0.3,0.4-0.7,0.9-1,1.4c-0.3,0.5-0.6,1-0.8,1.6c-0.2,0.6-0.4,1.1-0.4,1.7c0,0.3,0.1,0.7,0.2,1.1
			c0.2,0.4,0.4,0.8,0.7,1.1c0.3,0.3,0.7,0.6,1.2,0.8c0.5,0.2,1.1,0.3,1.7,0.3c0.9,0,1.6-0.2,2.3-0.6c0.7-0.3,1.3-0.9,1.8-1.6
			c0.5-0.7,1-1.6,1.5-2.7c0.4-1.1,0.9-2.4,1.3-3.8c0.1-0.2,0.2-0.3,0.5-0.3s0.5,0,0.8,0c0.3,0.1,0.5,0.2,0.7,0.3
			c0.2,0.2,0.3,0.3,0.2,0.6c-0.3,1.2-0.8,2.4-1.3,3.6c-0.5,1.2-1.1,2.2-1.8,3.1c-0.7,0.9-1.6,1.7-2.6,2.3c-1,0.6-2.1,0.9-3.4,1
			c-1.3,0-2.3-0.3-3.2-0.8c-0.9-0.5-1.6-1.1-2.1-1.9c0,0.8-0.1,1.4-0.2,1.5c-0.2,0.3-0.4,0.6-0.6,0.8c-0.3,0.2-0.6,0.3-0.9,0.3
			c-0.4,0-0.7-0.1-1-0.3c-0.3-0.2-0.5-0.5-0.6-0.9c-0.1-0.1-0.1-0.4-0.1-0.7c0-0.4-0.1-0.8-0.1-1.3c0-0.5,0-1.1-0.1-1.8
			c0-0.7,0-1.4,0-2.2c0-1.1,0-2.2,0-3.5s0-2.4,0.1-3.6s0.1-2.4,0.1-3.5c0-1.1,0.1-2.1,0.2-3c0.1-0.9,0.1-1.6,0.2-2.2
			c0.1-0.6,0.1-0.9,0.2-1.1c0.2-0.3,0.4-0.6,0.7-0.7c0.3-0.2,0.6-0.2,0.9-0.2c0.3,0,0.6,0.1,0.9,0.4c0.3,0.3,0.4,0.7,0.3,1.2v0.7
			c0,0.5,0,1.2,0,2.1c0,0.9,0,1.9,0,3c0,1.4,0,2.8,0,4.3c0,1.5,0,3,0,4.5v0.2c0.6-0.8,1.2-1.6,1.9-2.4c0.7-0.8,1.4-1.5,2.1-2.2
			c0.7-0.7,1.3-1.2,1.8-1.6C173.9,186.7,174.3,186.4,174.6,186.4z"/>
		<path class="st0" d="M185.2,186.3c0.8,0,1.4,0.1,2,0.3c0.5,0.2,1,0.4,1.3,0.6c0.3,0.3,0.6,0.5,0.8,0.8c0.2,0.3,0.3,0.6,0.4,0.9
			c0.1,0.3,0.1,0.6,0.2,0.9c0,0.3,0,0.5,0,0.7c-0.2,1.1-0.5,2-1,2.7c-0.5,0.7-1,1.3-1.6,1.6c-0.6,0.4-1.3,0.7-1.9,0.8
			c-0.7,0.2-1.3,0.2-1.9,0.2c-0.5,0-1,0-1.3-0.1v0.2c0,0.6,0,1.2,0.1,1.8c0.1,0.6,0.2,1.1,0.4,1.5c0.2,0.4,0.4,0.8,0.7,1
			c0.3,0.3,0.6,0.4,0.9,0.4c0.8,0,1.5-0.2,2.2-0.5c0.7-0.3,1.3-0.7,1.8-1.2c0.6-0.5,1.1-1,1.5-1.6c0.5-0.6,0.8-1.2,1.2-1.8
			c0.3-0.6,0.6-1.2,0.9-1.7c0.2-0.5,0.4-1,0.6-1.4l0.3-0.6c0.1-0.1,0.2-0.2,0.5-0.3c0.2-0.1,0.4-0.1,0.6-0.1c0.2,0,0.4,0.1,0.5,0.2
			c0.1,0.1,0.2,0.3,0.2,0.6c-0.1,0.3-0.2,0.8-0.4,1.4c-0.2,0.6-0.5,1.3-1,2.1c-0.4,0.8-0.9,1.6-1.5,2.4c-0.6,0.8-1.2,1.5-1.9,2.2
			c-0.7,0.7-1.5,1.2-2.4,1.6c-0.9,0.4-1.8,0.6-2.8,0.6c-0.9,0-1.7-0.2-2.4-0.4s-1.2-0.6-1.7-1c-0.5-0.4-0.8-0.8-1.1-1.3
			c-0.3-0.5-0.5-1-0.6-1.4c-0.1-0.4-0.2-0.8-0.3-1.2c0-0.3-0.1-0.6-0.1-0.7v-0.2c0-0.3,0-0.7,0-1.3c0-0.6,0.1-1.3,0.2-2
			c0.1-0.7,0.3-1.5,0.6-2.3s0.7-1.5,1.2-2.1c0.5-0.6,1.1-1.2,1.9-1.6C183.2,186.4,184.1,186.2,185.2,186.3z M185.9,187.8
			c-0.5,0.1-1,0.4-1.4,0.8c-0.4,0.4-0.8,1-1.1,1.6c-0.3,0.7-0.6,1.4-0.8,2.2c-0.2,0.8-0.3,1.6-0.4,2.5c0.1,0,0.2,0,0.3,0
			c0.1,0,0.2,0,0.4,0c0.4,0,0.8-0.1,1.3-0.2c0.5-0.1,0.9-0.3,1.4-0.7c0.4-0.3,0.8-0.8,1.1-1.3c0.3-0.6,0.5-1.3,0.5-2.2
			c0-0.3,0-0.6,0-0.9c0-0.3-0.1-0.6-0.2-0.9c-0.1-0.3-0.2-0.5-0.4-0.7C186.3,187.9,186.1,187.8,185.9,187.8z"/>
	</g>
	<path class="st0" d="M155.7,131c-1.2,4.3,0.9,8.8,4.4,10.2c3.6,1.5,7.4-0.5,9-4.6c1.6-4,0.3-8.9-3.2-10.8c-1.8-1-2.6-2.4-3.3-4.3
		c-0.5-1.4-1-2.8-1.6-4.3c-1.3-3.6-2.7-7.2-4-10.8l-6.2-16.4c-3.3-9.2-7.9-21.2-11.3-30.4c-0.2-0.6-0.4-1.2-0.1-1.8
		c0.5-0.5,0.5-0.5,0.8-0.5c7.4,0,15.4,0,22.8,0c1,0,2.3-0.2,3.2,0.3c2.8,1.5,4.2,5.6,3.6,9.1c-0.6,3.7-3.3,5.9-6.6,6.6
		c0,0-0.6,0.1-2.7,0.6c-1.4,0.3-2.9,1.7-3,3.2c-0.1,0.6-0.3,1.6,0.9,3c0.9,1.1,3.4,1.2,3.8,1.1c5.9-0.8,10.5-2.9,13.1-6.5
		c2.1-3,3.9-7.3,1.8-14c-2-6.5-7-10-13-10.1c-11.7-0.1-19.6,0.5-31.3,0c-0.1,0-0.5,0.1-1,0.3c-1.7,0.6-2.9,2.1-2.9,3.9
		c0,0.4,0,0.8,0.1,1c8.8,23.7,17,45.8,25.9,69.5C155.9,127.3,156.3,128.9,155.7,131z"/>
	<g>
		
			<ellipse transform="matrix(0.4314 -0.9022 0.9022 0.4314 -52.0884 242.6644)" class="st1" cx="166.5" cy="162.7" rx="6.1" ry="6.1"/>
		<ellipse transform="matrix(0.8758 -0.4827 0.4827 0.8758 -53.0112 83.613)" class="st1" cx="136" cy="144.8" rx="3.6" ry="3.6"/>
		
			<ellipse transform="matrix(0.8758 -0.4827 0.4827 0.8758 -57.1935 87.9345)" class="st1" cx="142.3" cy="155.1" rx="4.3" ry="4.3"/>
		
			<ellipse transform="matrix(0.8758 -0.4827 0.4827 0.8758 -58.8562 93.7658)" class="st1" cx="152.8" cy="161.2" rx="4.9" ry="4.9"/>
		<ellipse transform="matrix(0.8758 -0.4827 0.4827 0.8758 -48.8187 80.9329)" class="st1" cx="132.8" cy="135.3" rx="3" ry="3"/>
	</g>
	<path class="st0" d="M194.4,130.5c-2.6-18.6-20.8-31.5-39.5-28.2c-0.2,0-0.5,0.1-0.8,0.3c-1.6,0.7-2.3,2.5-1.7,4.1l1.6,4
		c0.6-0.2,2.1-1,2.4-1c10.9-1.9,21.9,3.5,27.5,13.4c5.3,9.5,4,21.7-3.3,30c-1,1.2-2.2,2.3-3.4,3.2c-1.2,0.9-1.5,2.6-0.7,3.9l1.8,2.1
		c0.9,1,2.8,0.5,3.6-0.2C191.7,153.2,196.2,143.4,194.4,130.5z"/>
</g>
</svg>
