<?xml version="1.0" encoding="utf-8"?>
<!-- Generator: Adobe Illustrator 21.1.0, SVG Export Plug-In . SVG Version: 6.00 Build 0)  -->
<svg version="1.1" id="Layer_1" xmlns="http://www.w3.org/2000/svg" xmlns:xlink="http://www.w3.org/1999/xlink" x="0px" y="0px"
	 viewBox="0 0 244.1 259.9" style="enable-background:new 0 0 244.1 259.9;" xml:space="preserve">
<style type="text/css">
	.st0{fill:#508C3E;}
	.st1{fill:#201916;}
</style>
<g>
	<g>
		<path class="st0" d="M60.2,72.7c0.1,0,0.5,0,1.1,0c0.6,0.1,1.2,0.2,1.9,0.4c0.6-0.1,1.4-0.2,2.2-0.3c0.9-0.1,1.8-0.1,2.9-0.1
			c1.3,0,2.7,0.1,4.2,0.2c1.5,0.1,3,0.4,4.4,0.8c0.4,0.1,0.6,0.2,0.8,0.4c0.1,0.2,0.2,0.3,0.2,0.5c0,0.2-0.1,0.4-0.4,0.6
			c-0.2,0.2-0.5,0.2-0.8,0.2c-2.1-0.3-3.9-0.5-5.4-0.6c-1.5-0.1-2.8-0.2-3.8-0.2c-0.9,0-1.7,0-2.2,0.1c-0.1,1-0.2,2-0.3,3.1
			c-0.1,1.1-0.2,2.2-0.3,3.4l-0.3,3.5l4.1-0.1c0.7,0,1.4,0,2.1,0c0.7,0,1.4,0,2-0.1c0.6,0,1.1,0,1.6,0c0.4,0,0.8,0,0.9,0
			c0.5,0,0.9,0,1.2,0.2c0.3,0.2,0.4,0.4,0.4,0.6c0,0.2-0.1,0.4-0.3,0.6c-0.2,0.2-0.6,0.2-1,0.2c-0.1,0-0.4,0-0.8,0
			c-0.4,0-1,0.1-1.6,0.1c-0.7,0-1.4,0.1-2.2,0.2c-0.8,0.1-1.6,0.1-2.4,0.2c-0.8,0.1-1.5,0.1-2.3,0.2c-0.7,0.1-1.3,0.1-1.9,0.2
			c-0.1,1.7-0.2,3.3-0.3,5c-0.1,1.7-0.2,3.2-0.2,4.6c0,1.3,0,2.6,0.2,3.8c0.1,1.2,0.3,2.3,0.5,3.2c0.2,1,0.5,1.8,0.9,2.5
			c0.4,0.7,0.8,1.2,1.4,1.6c0.1,0,0.5,0.1,1.1,0.1c0.7,0,1.6-0.1,2.6-0.2c1-0.1,2.1-0.3,3.1-0.6c1-0.3,2-0.7,2.8-1.2
			c0.8-0.5,1.4-1.1,1.7-1.9c0.1-0.1,0.2-0.2,0.4-0.1c0.2,0,0.4,0.1,0.5,0.2c0.2,0.1,0.3,0.3,0.5,0.5c0.1,0.2,0.2,0.4,0.2,0.6
			c-0.3,0.7-0.7,1.4-1.3,1.9c-0.6,0.5-1.3,0.9-2.1,1.3c-0.8,0.3-1.7,0.6-2.6,0.8c-0.9,0.2-1.8,0.3-2.7,0.4c-0.9,0.1-1.7,0.1-2.5,0.2
			c-0.8,0-1.4,0-1.9,0c-1.2,0-2.1-0.1-2.9-0.3c-0.7-0.2-1.3-0.4-1.8-0.7c-0.5-0.3-0.8-0.6-1.1-1c-0.3-0.4-0.5-0.7-0.7-1.1v0
			l-0.3-0.4c-0.2-0.3-0.3-0.7-0.4-1.3c-0.1-0.6-0.2-1.3-0.3-2.1c-0.1-0.8-0.1-1.7-0.2-2.7c0-1-0.1-2-0.1-3.1c0-1.6,0-3.3,0.1-5.2
			c0.1-1.8,0.2-3.6,0.2-5.4c0.1-1.8,0.2-3.5,0.3-5.1c0.1-1.6,0.3-3.1,0.4-4.3c0.1-1.2,0.2-2.2,0.3-3C60,73.1,60.1,72.8,60.2,72.7z"
			/>
		<path class="st0" d="M90.2,71.6c1.3,0,2.4,0.2,3.4,0.5c0.9,0.3,1.7,0.7,2.3,1.3c0.6,0.5,1.1,1.1,1.5,1.7c0.4,0.6,0.6,1.3,0.8,1.9
			c0.2,0.6,0.3,1.2,0.3,1.7c0,0.5,0.1,0.9,0.1,1.2c-0.1,1.4-0.2,2.6-0.6,3.6c-0.3,1-0.7,1.8-1.1,2.4c-0.4,0.6-0.9,1.2-1.4,1.5
			c-0.5,0.4-1,0.6-1.5,0.8c-0.5,0.2-0.9,0.3-1.3,0.3c-0.4,0-0.7,0-1,0c-0.6,0-1.2-0.2-1.9-0.4c-0.7-0.2-1.3-0.6-1.8-1.1
			c-0.1-0.1-0.2-0.3-0.3-0.5c-0.1-0.2-0.1-0.4-0.1-0.5c0-0.3,0.1-0.5,0.4-0.6c0.2-0.1,0.7,0.1,1.3,0.6c1,0.7,1.8,1.1,2.6,1.1
			c0.8,0,1.5-0.7,2-1.9c0.5-1.2,0.9-3,1-5.3c0-0.1,0-0.3,0-0.4c0-0.2,0-0.3,0-0.4c0-1-0.1-1.8-0.3-2.5c-0.2-0.7-0.4-1.2-0.7-1.7
			c-0.3-0.4-0.6-0.8-1-1c-0.4-0.2-0.7-0.4-1-0.5c-0.3-0.1-0.6-0.2-0.9-0.2c-0.3,0-0.5,0-0.6,0c-0.8,0.1-1.5,0.4-2.1,1
			c-0.6,0.6-1.2,1.3-1.7,2.3c-0.5,0.9-1,1.9-1.3,3.1c-0.4,1.2-0.7,2.4-1,3.6c-0.3,1.2-0.5,2.5-0.7,3.7c-0.2,1.2-0.3,2.3-0.4,3.3
			c-0.1,1-0.2,1.9-0.2,2.6c0,0.7-0.1,1.2-0.1,1.4c0,0.3,0,0.7-0.1,1c0,0.4,0,0.7,0,1c0,1.9,0.1,3.5,0.4,4.8c0.3,1.3,0.7,2.4,1.1,3.2
			c0.5,0.8,1,1.5,1.5,1.9c0.6,0.4,1.1,0.8,1.6,0.9c0.5,0.2,0.9,0.3,1.3,0.3c0.4,0,0.6,0,0.7,0c1.2,0,2.2-0.4,3.2-1s1.8-1.3,2.5-2.2
			c0.8-0.9,1.4-1.9,2-3c0.6-1.1,1.1-2.1,1.5-3.2c0.4-1,0.8-2,1.1-2.8c0.3-0.9,0.5-1.5,0.6-2l0.2-0.7c0.1-0.2,0.3-0.3,0.5-0.3
			c0.2-0.1,0.4-0.1,0.6,0c0.2,0,0.4,0.1,0.5,0.2c0.1,0.1,0.2,0.3,0.1,0.5c0,0.1-0.1,0.6-0.2,1.3c-0.1,0.8-0.4,1.8-0.8,2.9
			c-0.4,1.2-0.9,2.4-1.5,3.7c-0.6,1.3-1.4,2.6-2.4,3.8c-1,1.2-2.1,2.2-3.4,3.1c-1.3,0.9-2.9,1.5-4.7,1.7c-0.3,0-0.8,0-1.5,0
			s-1.5-0.2-2.3-0.4c-0.9-0.3-1.8-0.7-2.7-1.3c-0.9-0.6-1.7-1.5-2.5-2.7c-0.8-1.2-1.4-2.7-1.9-4.5c-0.5-1.8-0.7-4.1-0.7-6.8
			c0-0.2,0-0.6,0.1-1.3c0-0.7,0.1-1.6,0.2-2.7c0.1-1.1,0.3-2.3,0.5-3.6c0.2-1.3,0.6-2.6,1-4c0.4-1.3,0.9-2.7,1.5-3.9
			c0.6-1.3,1.3-2.4,2.2-3.4c0.9-1,1.9-1.8,3.1-2.4C87.4,71.9,88.7,71.6,90.2,71.6z"/>
		<path class="st0" d="M99.4,87.6c0,0,0-0.1,0-0.1c0,0,0-0.1,0-0.1c0-0.3-0.1-0.6-0.1-0.9c0-0.3-0.1-0.6-0.1-0.9
			c0-1.3,0.2-2.5,0.7-3.6c0.4-1.1,1-2.2,1.8-3.2c0.7-1,1.6-1.8,2.6-2.6c1-0.8,2.1-1.4,3.3-1.9c1.2-0.5,2.4-0.9,3.6-1.2
			c1.3-0.2,2.5-0.3,3.8-0.3c1.5,0.1,3,0.4,4.4,1c1.4,0.6,2.7,1.5,3.7,2.7c1.1,1.2,1.9,2.7,2.6,4.5c0.6,1.8,1,4,1,6.6
			c0,0.4,0,0.9-0.1,1.4c0,0.5-0.1,1-0.1,1.5c-0.2,1.6-0.5,3.3-0.9,4.9c-0.5,1.6-1,3.2-1.8,4.7c-0.7,1.5-1.6,2.9-2.6,4.2
			c-1,1.3-2.1,2.4-3.3,3.3c-1.2,0.9-2.6,1.7-4,2.2c-1.4,0.5-3,0.8-4.6,0.8c-1.6,0-2.9-0.3-4-0.7c-1.1-0.5-2.1-1.1-2.8-1.8
			c-0.8-0.8-1.4-1.6-1.9-2.6c-0.5-1-0.8-1.9-1.1-2.9c-0.3-1-0.4-2-0.5-2.9c-0.1-1-0.1-1.8-0.1-2.5c0-0.6,0-1.1,0-1.5
			c0-0.4,0-0.7,0.1-0.8v0c0-0.6,0.2-1.3,0.4-1.9c0.2-0.6,0.4-1.3,0.7-1.9c-0.2-0.7-0.4-1.4-0.4-2C99.4,88.4,99.4,88,99.4,87.6z
			 M106.9,96.3c-1-0.1-1.9-0.3-2.6-0.6c-0.7-0.3-1.4-0.7-1.9-1.1c-0.2,0.7-0.3,1.4-0.3,2.1c-0.1,0.7-0.1,1.3-0.1,2
			c0,1.5,0.2,3,0.5,4.3c0.4,1.3,0.9,2.5,1.5,3.4c0.7,1,1.5,1.7,2.4,2.2c1,0.5,2,0.7,3.2,0.6c1.4-0.2,2.8-0.9,4.1-2
			c1.3-1.2,2.4-2.6,3.5-4.3c1-1.7,1.9-3.6,2.7-5.7c0.8-2.1,1.3-4.2,1.7-6.2c0.2-0.9,0.3-1.8,0.4-2.7c0.1-0.9,0.1-1.7,0.1-2.6
			c0-1.5-0.1-2.9-0.4-4.2c-0.3-1.3-0.7-2.5-1.2-3.5c-0.5-1-1.1-1.9-1.8-2.6c-0.7-0.7-1.5-1.2-2.4-1.5c-0.4-0.1-0.9-0.1-1.4-0.1
			c-1,0-2,0.2-3,0.6c-1.1,0.4-2.1,1-3,1.9c-0.9,0.8-1.8,1.9-2.5,3.2c-0.8,1.3-1.3,2.8-1.6,4.5c1-1.2,1.9-2.2,2.7-3
			c0.8-0.8,1.3-1.3,1.5-1.4c0.2-0.2,0.5-0.4,0.9-0.5c0.4-0.1,0.7-0.2,0.9-0.2c0.5,0,0.9,0.1,1.1,0.3c0.2,0.2,0.1,0.5-0.3,0.8
			c-1.6,1.2-3,2.6-4.1,4c-1.2,1.5-2.1,3-2.9,4.6c0.1,0.5,0.2,1,0.4,1.6c0.2,0.6,0.4,1.2,0.6,1.7c0.3,0.6,0.6,1.1,1,1.6
			c0.4,0.5,0.9,0.9,1.5,1.2c0.1,0,0.2,0.1,0.3,0.1c0.1,0,0.2,0.1,0.3,0.1c0.2,0.1,0.5,0.1,0.6,0.2c0.2,0.1,0.2,0.2,0.2,0.4
			c0,0.3-0.2,0.5-0.6,0.7C108.4,96.3,107.7,96.4,106.9,96.3z"/>
	</g>
	<g>
		<path class="st1" d="M63.1,125.7c0.4-0.1,0.7-0.1,0.9-0.1c0.2,0,0.4,0.1,0.6,0.2c0.1,0.1,0.2,0.2,0.3,0.4c0.1,0.2,0.1,0.4,0.1,0.5
			c0,0.6-0.2,1-0.5,1.4c-0.1,0.1-0.3,0.3-0.5,0.6c-0.2,0.3-0.4,0.6-0.6,1c-0.2,0.4-0.4,0.9-0.5,1.5c-0.2,0.6-0.2,1.3-0.2,2.1
			c0,0.9,0.2,2,0.5,3.3v0l2.3,6c0.9-0.8,1.9-1.8,3-2.9c1-1.1,1.9-2.2,2.6-3.3c0.2-0.3,0.4-0.5,0.6-0.6c0.2-0.1,0.4-0.1,0.6-0.1
			c0.2,0.1,0.3,0.2,0.4,0.4c0.1,0.2,0.1,0.5,0,0.9c-0.3,0.6-0.6,1.3-1.1,1.9c-0.4,0.6-0.9,1.2-1.4,1.8c-0.5,0.6-1,1.1-1.6,1.7
			c-0.6,0.5-1.1,1-1.7,1.5l-0.6,0.6c0.3,0.9,0.6,1.7,0.9,2.5c0.3,0.7,0.4,1.2,0.5,1.5c0.1,0.7,0.2,1.2,0.2,1.7
			c0,0.7-0.1,1.3-0.3,1.7c-0.2,0.5-0.5,0.8-0.8,1.1c-0.4,0.3-0.8,0.5-1.2,0.6s-0.9,0.2-1.4,0.2c-1.6,0-2.8-0.2-3.5-0.8
			c-0.7-0.6-1.1-1.4-1.1-2.4c0-0.2,0-0.4,0-0.6c0-0.2,0.1-0.5,0.1-0.7c0.2-0.8,0.6-1.5,1.1-2.2c0.5-0.7,1.2-1.4,1.9-2.1
			c-0.3-0.8-0.6-1.5-0.9-2.3c-0.3-0.8-0.6-1.5-0.9-2.1c-0.3-0.7-0.6-1.3-0.8-1.8c-0.2-0.5-0.5-1-0.6-1.3c-0.1-0.2-0.2-0.4-0.2-0.5
			c-0.1-0.2-0.1-0.2,0-0.2c-0.2-0.6-0.3-1.2-0.4-1.8c-0.1-0.6-0.1-1.1-0.1-1.7c0-1.3,0.2-2.5,0.6-3.4c0.4-0.9,0.9-1.7,1.4-2.4
			c0.5-0.6,1-1.1,1.5-1.4C62.6,125.9,62.9,125.8,63.1,125.7L63.1,125.7z M64,150.7c0-0.9-0.2-2-0.6-3.4c-0.3,0.4-0.5,0.7-0.7,1.1
			c-0.2,0.4-0.3,0.7-0.4,1.1c-0.1,0.3-0.2,0.6-0.2,0.9s-0.1,0.5-0.1,0.7c0,0.7,0.1,1.1,0.4,1.3c0.3,0.2,0.5,0.2,0.7,0.1
			C63.8,152.3,64,151.7,64,150.7z"/>
		<path class="st1" d="M61.9,121.8c0.4,0.1,1,0.2,1.7,0.2c0.7,0,1.5,0.1,2.4,0.1c1.5,0,3.1,0,4.9-0.1l0.6-4.4c0-0.2,0-0.3,0.1-0.4
			c0-0.1,0-0.1,0-0.1c0-0.1,0.1-0.2,0.2-0.4c0.1-0.1,0.3-0.3,0.4-0.4c0.2-0.1,0.4-0.2,0.6-0.3c0.2-0.1,0.5-0.1,0.7-0.1
			c0.3,0,0.6,0.1,0.9,0.2c0.3,0.2,0.4,0.5,0.5,1c0.1,0.5,0.1,1.3,0.1,2.3c0,0.4,0,0.7,0,1.1c0,0.4,0,0.8,0,1.3
			c0.7,0,1.3-0.1,1.9-0.1c0.6,0,1.3-0.1,1.9-0.1c0.9-0.1,1.9-0.1,2.8-0.2c0.9-0.1,1.8-0.1,2.7-0.2c0.8-0.1,1.6-0.1,2.4-0.1
			c0.7,0,1.4,0,2,0c1.1,0,1.8,0.1,2.3,0.2c0.3,0.1,0.5,0.3,0.6,0.5c0.1,0.2,0.1,0.4,0.1,0.6c-0.1,0.2-0.2,0.3-0.4,0.5
			c-0.2,0.1-0.6,0.2-1,0.1c-0.4,0-0.8-0.1-1.2-0.1c-0.4,0-0.9-0.1-1.4-0.1c-1.4,0-3.1,0.1-5,0.2c-1.9,0.2-3.9,0.3-6,0.5l-1.8,0.2
			l-0.2,5.4c-0.1,2.1-0.3,4.2-0.4,6.3c-0.1,2.1-0.2,4.1-0.2,5.9c0,0.9,0,1.7,0,2.5c0,0.8,0.1,1.4,0.1,1.9c0.1,0.5,0.2,0.9,0.3,1.2
			c0.1,0.3,0.2,0.4,0.4,0.4c0.3,0,0.7-0.4,1.1-1.2s0.8-1.6,1.2-2.6c0.4-1,0.7-2,1.1-3.1c0.3-1,0.6-1.9,0.8-2.6
			c0-0.2,0.1-0.3,0.2-0.5c0.1-0.2,0.1-0.3,0.2-0.5c0.1-0.2,0.2-0.3,0.5-0.3c0.3,0,0.5,0,0.8,0c0.3,0,0.5,0.1,0.7,0.2
			c0.2,0.1,0.2,0.2,0.2,0.4c-0.1,0.1-0.2,0.4-0.2,0.8c-0.1,0.4-0.2,1-0.4,1.8c-0.2,0.7-0.4,1.5-0.7,2.3c-0.3,0.8-0.6,1.6-1,2.4
			c-0.4,0.8-0.8,1.5-1.3,2.2c-0.5,0.6-1.1,1.2-1.8,1.6c-0.7,0.4-1.4,0.6-2.2,0.6c-0.8,0-1.5-0.4-2-1c-0.5-0.7-1-1.5-1.3-2.6
			c-0.3-1.1-0.5-2.4-0.7-3.8c-0.1-1.5-0.2-3-0.2-4.6c0-2.1,0.1-4.3,0.3-6.6c0.2-2.2,0.4-4.3,0.6-6.2c-2,0.1-3.9,0.2-5.5,0.2
			c-0.8,0-1.4,0-2.1,0c-0.6,0-1.1-0.1-1.6-0.2h0.1c-0.6-0.1-1.1-0.3-1.4-0.6c-0.3-0.3-0.5-0.5-0.5-0.8c0-0.3,0.2-0.5,0.5-0.6
			C60.5,121.7,61.1,121.7,61.9,121.8z"/>
		<path class="st1" d="M85.6,130.3c1,0,1.8,0.1,2.5,0.3c0.7,0.2,1.2,0.5,1.7,0.8c0.4,0.3,0.8,0.7,1,1.1c0.2,0.4,0.4,0.8,0.5,1.2
			c0.1,0.4,0.2,0.8,0.2,1.1c0,0.3,0,0.6,0,0.8c-0.2,1.4-0.7,2.5-1.3,3.4c-0.6,0.9-1.3,1.6-2.1,2.1c-0.8,0.5-1.6,0.8-2.4,1
			c-0.8,0.2-1.6,0.3-2.4,0.3c-0.7,0-1.2,0-1.6-0.1v0.2c0,0.8,0.1,1.5,0.2,2.2c0.1,0.7,0.3,1.3,0.5,1.9c0.2,0.5,0.5,1,0.8,1.3
			c0.3,0.3,0.7,0.5,1.2,0.5c1,0,1.9-0.3,2.7-0.7c0.8-0.4,1.6-0.9,2.3-1.5c0.7-0.6,1.3-1.3,1.9-2.1c0.6-0.8,1.1-1.5,1.5-2.3
			c0.4-0.8,0.8-1.5,1.1-2.2s0.6-1.2,0.7-1.7l0.3-0.7c0.1-0.2,0.3-0.3,0.6-0.4c0.3-0.1,0.5-0.1,0.8-0.1c0.2,0,0.5,0.1,0.6,0.2
			c0.2,0.1,0.2,0.4,0.2,0.7c-0.1,0.4-0.2,1-0.5,1.8c-0.3,0.8-0.7,1.7-1.2,2.6c-0.5,1-1.1,2-1.9,3c-0.7,1-1.5,1.9-2.4,2.8
			c-0.9,0.8-1.9,1.5-3,2c-1.1,0.5-2.3,0.8-3.5,0.7c-1.2,0-2.1-0.2-3-0.5c-0.8-0.3-1.5-0.7-2.1-1.2c-0.6-0.5-1-1-1.4-1.7
			c-0.3-0.6-0.6-1.2-0.8-1.8c-0.2-0.6-0.3-1-0.4-1.5c-0.1-0.4-0.1-0.7-0.1-0.9v-0.3c0-0.4,0-0.9,0.1-1.6c0-0.7,0.1-1.6,0.3-2.5
			s0.4-1.9,0.8-2.8c0.4-1,0.8-1.9,1.5-2.7c0.6-0.8,1.4-1.5,2.4-2C82.9,130.5,84.1,130.2,85.6,130.3z M86.4,132.1
			c-0.6,0.1-1.2,0.4-1.8,1c-0.5,0.5-1,1.2-1.4,2.1c-0.4,0.8-0.7,1.8-1,2.8c-0.2,1-0.4,2-0.5,3.1c0.1,0,0.3,0,0.4,0
			c0.1,0,0.3,0,0.5,0c0.5,0,1-0.1,1.6-0.2c0.6-0.2,1.2-0.4,1.7-0.8c0.5-0.4,1-0.9,1.4-1.6c0.4-0.7,0.6-1.6,0.7-2.7
			c0-0.4,0-0.7-0.1-1.1c-0.1-0.4-0.2-0.8-0.3-1.1c-0.1-0.3-0.3-0.6-0.5-0.9C86.9,132.3,86.7,132.1,86.4,132.1z"/>
		<path class="st1" d="M104.3,130.7c1.2,0.1,2.1,0.3,3,0.7c0.8,0.4,1.5,0.9,2.1,1.5c0.5,0.6,0.9,1.3,1.2,2.1
			c0.3,0.8,0.4,1.6,0.4,2.5c0,0.2,0,0.5,0,0.7c0,0.2-0.1,0.5-0.1,0.7c0.7-0.3,1.4-0.7,1.9-1.2c0.6-0.5,1-1,1.3-1.7
			c0.1-0.3,0.3-0.5,0.6-0.6c0.3-0.1,0.6-0.2,0.9-0.2c0.3,0,0.6,0.1,0.9,0.2c0.2,0.2,0.3,0.4,0.2,0.7c-0.5,1.3-1.4,2.4-2.6,3.1
			c-1.2,0.8-2.5,1.4-3.9,1.9c-0.3,0.8-0.8,1.7-1.3,2.4c-0.5,0.8-1.1,1.5-1.8,2.1s-1.5,1.1-2.4,1.5c-0.9,0.4-1.8,0.7-2.8,0.8
			c-0.5,0.1-1,0.1-1.4,0.1c-0.9,0-1.6-0.1-2.1-0.3c0.3,2.2,0.7,4.3,1.2,6.4c0.5,2.1,1.3,3.9,2.2,5.5c0.3,0.5,0.4,0.9,0.2,1.2
			c-0.2,0.3-0.6,0.4-1.1,0.4c-0.3,0-0.7-0.1-1.2-0.3c-0.5-0.2-0.9-0.4-1.3-0.7c-0.8-0.7-1.5-1.7-2-3.1c-0.5-1.4-1-3-1.3-4.9
			c-0.3-1.8-0.5-3.7-0.7-5.8c-0.1-2-0.2-4-0.2-5.8c0-1.2,0-2.4,0.1-3.5c0-1.1,0.1-2.1,0.2-3c0.1-0.9,0.1-1.6,0.2-2.2
			c0.1-0.6,0.2-0.9,0.2-1.1c0.2-0.4,0.5-0.7,0.9-0.9c0.4-0.2,0.7-0.3,1.1-0.3c0.4,0,0.8,0.2,1.2,0.5c0.3,0.3,0.5,0.8,0.4,1.5
			l-0.1,1.4c0.3-0.4,0.6-0.7,0.9-1c0.4-0.3,0.8-0.6,1.3-0.9c0.5-0.2,1.1-0.4,1.7-0.6C102.8,130.7,103.5,130.7,104.3,130.7z
			 M97.9,140.3c0,0.4,0,0.8,0,1.1c0,0.4,0,0.8,0,1.2c0.7-0.5,1.7-0.9,2.8-1.2c1.2-0.3,2.4-0.5,3.7-0.8c0.4-0.1,0.8-0.1,1.2-0.2
			c0.4-0.1,0.8-0.1,1.2-0.2l0.1-0.3c0.1-0.6,0.1-1.2,0.1-1.7c0-1.7-0.4-3-1.1-3.9c-0.8-1-1.8-1.4-3.3-1.3c-0.6,0-1.2,0.2-1.6,0.6
			c-0.5,0.4-0.9,0.8-1.3,1.3c-0.4,0.5-0.7,1-0.9,1.5c-0.3,0.5-0.5,1-0.6,1.4c0,0.1-0.1,0.2-0.1,0.3c0,0.1-0.1,0.2-0.1,0.3V140.3z
			 M102.1,146.2c0.4-0.1,0.8-0.3,1.1-0.5c0.4-0.2,0.7-0.5,1-0.9c0.3-0.3,0.6-0.7,0.9-1.1c0.3-0.4,0.5-0.8,0.7-1.2l-1.1,0.2
			c-0.8,0.2-1.5,0.3-2.2,0.5c-0.7,0.2-1.3,0.3-1.8,0.5c-0.5,0.2-0.9,0.4-1.2,0.7c-0.3,0.2-0.4,0.5-0.4,0.9c0,0.3,0.1,0.5,0.4,0.8
			c0.3,0.2,0.7,0.4,1.3,0.4C101.4,146.3,101.7,146.3,102.1,146.2z"/>
		<path class="st1" d="M117.1,125.7c0.4-0.1,0.7-0.1,0.9-0.1c0.2,0,0.4,0.1,0.6,0.2c0.1,0.1,0.2,0.2,0.3,0.4
			c0.1,0.2,0.1,0.4,0.1,0.5c0,0.6-0.2,1-0.5,1.4c-0.1,0.1-0.3,0.3-0.5,0.6c-0.2,0.3-0.4,0.6-0.6,1c-0.2,0.4-0.4,0.9-0.5,1.5
			c-0.2,0.6-0.2,1.3-0.2,2.1c0,0.9,0.2,2,0.5,3.3v0l2.3,6c0.9-0.8,1.9-1.8,3-2.9c1-1.1,1.9-2.2,2.6-3.3c0.2-0.3,0.4-0.5,0.6-0.6
			c0.2-0.1,0.4-0.1,0.6-0.1c0.2,0.1,0.3,0.2,0.4,0.4c0.1,0.2,0.1,0.5,0,0.9c-0.3,0.6-0.6,1.3-1.1,1.9c-0.4,0.6-0.9,1.2-1.4,1.8
			c-0.5,0.6-1,1.1-1.6,1.7c-0.6,0.5-1.1,1-1.7,1.5l-0.6,0.6c0.3,0.9,0.6,1.7,0.9,2.5c0.3,0.7,0.4,1.2,0.5,1.5
			c0.1,0.7,0.2,1.2,0.2,1.7c0,0.7-0.1,1.3-0.3,1.7c-0.2,0.5-0.5,0.8-0.8,1.1c-0.4,0.3-0.8,0.5-1.2,0.6s-0.9,0.2-1.4,0.2
			c-1.6,0-2.8-0.2-3.5-0.8c-0.7-0.6-1.1-1.4-1.1-2.4c0-0.2,0-0.4,0-0.6c0-0.2,0.1-0.5,0.1-0.7c0.2-0.8,0.6-1.5,1.1-2.2
			c0.5-0.7,1.2-1.4,1.9-2.1c-0.3-0.8-0.6-1.5-0.9-2.3c-0.3-0.8-0.6-1.5-0.9-2.1c-0.3-0.7-0.6-1.3-0.8-1.8c-0.2-0.5-0.5-1-0.6-1.3
			c-0.1-0.2-0.2-0.4-0.2-0.5c-0.1-0.2-0.1-0.2,0-0.2c-0.2-0.6-0.3-1.2-0.4-1.8c-0.1-0.6-0.1-1.1-0.1-1.7c0-1.3,0.2-2.5,0.6-3.4
			c0.4-0.9,0.9-1.7,1.4-2.4c0.5-0.6,1-1.1,1.5-1.4C116.5,125.9,116.9,125.8,117.1,125.7L117.1,125.7z M118,150.7
			c0-0.9-0.2-2-0.6-3.4c-0.3,0.4-0.5,0.7-0.7,1.1c-0.2,0.4-0.3,0.7-0.4,1.1c-0.1,0.3-0.2,0.6-0.2,0.9c0,0.3-0.1,0.5-0.1,0.7
			c0,0.7,0.1,1.1,0.4,1.3c0.3,0.2,0.5,0.2,0.7,0.1C117.7,152.3,118,151.7,118,150.7z"/>
	</g>
	<g>
		<path class="st0" d="M67.8,172.8c1.3,0,2.5,0,3.5,0.3c1,0.2,1.8,0.5,2.6,0.9c0.7,0.4,1.3,0.9,1.8,1.4c0.5,0.5,0.9,1.1,1.2,1.7
			c0.3,0.6,0.5,1.2,0.7,1.7c0.1,0.6,0.3,1.1,0.3,1.6c0.1,0.5,0.1,0.9,0.1,1.3c0,0.4,0,0.6,0,0.8c0,1.2-0.2,2.3-0.5,3.2
			c-0.4,0.9-0.8,1.7-1.5,2.4c-0.6,0.7-1.3,1.3-2.1,1.8c-0.8,0.5-1.6,0.9-2.4,1.2c0.5,1.1,1.1,2.3,1.7,3.5c0.6,1.2,1.3,2.3,2,3.3
			c0.7,1,1.5,1.9,2.3,2.7c0.8,0.8,1.6,1.4,2.5,1.7c0.3,0.1,0.4,0.2,0.5,0.3c0.1,0.1,0.1,0.2,0,0.2c-0.1,0.1-0.2,0.1-0.4,0.2
			c-0.2,0-0.4,0.1-0.7,0.1c-0.3,0-0.6,0-0.9-0.1c-0.3-0.1-0.6-0.2-1-0.3c-0.9-0.5-1.8-1.1-2.6-1.9c-0.8-0.8-1.6-1.6-2.4-2.6
			c-0.8-1-1.5-2-2.1-3c-0.7-1.1-1.2-2.1-1.8-3.2c-0.3,0.1-0.6,0.1-0.9,0.2c-0.3,0-0.5,0.1-0.8,0.1c0,0.9,0,1.7,0,2.4
			c0,0.8,0,1.4,0,2c0,0.6,0,1.1,0,1.4c0,0.4-0.1,0.6-0.1,0.7c-0.1,0.3-0.4,0.5-0.8,0.6c-0.4,0.1-0.8,0.2-1.2,0.2
			c-0.5,0-0.9-0.1-1.2-0.3c-0.3-0.2-0.5-0.5-0.4-0.8c0.2-0.8,0.3-1.8,0.4-2.9c0.1-1.1,0.2-2.3,0.3-3.6c-0.7-0.2-1.4-0.4-2-0.7
			c-0.6-0.3-1.2-0.6-1.6-1c-0.5-0.4-0.8-0.8-1.1-1.3c-0.3-0.5-0.4-1-0.4-1.6c0-0.7,0.2-1.3,0.6-1.9c0.3-0.6,0.8-1.1,1.3-1.5
			c0.5-0.4,1.1-0.8,1.8-1.1c0.6-0.3,1.3-0.5,1.9-0.6c0.1-1.4,0.2-2.6,0.3-3.7c0.1-1.1,0.3-1.9,0.5-2.5c0.1-0.3,0.4-0.6,0.7-0.7
			c0.4-0.2,0.7-0.2,1.1-0.2c0.4,0,0.7,0.1,0.9,0.2c0.2,0.1,0.2,0.4,0.1,0.7c-0.1,0.2-0.2,0.6-0.2,0.9c-0.1,0.4-0.1,0.9-0.2,1.4
			c-0.1,0.5-0.1,1.1-0.2,1.8c0,0.6-0.1,1.3-0.1,2c0.8,0.1,1.4,0.3,1.9,0.5c0.5,0.2,0.9,0.5,1.2,0.7c0.3,0.3,0.5,0.5,0.6,0.8
			c0.1,0.3,0.1,0.5,0.1,0.7c0,0.3-0.1,0.5-0.3,0.6c-0.2,0.1-0.4,0.3-0.6,0.3c-0.2,0.1-0.4,0.1-0.6,0.1c-0.2,0-0.3-0.1-0.3-0.2
			c0-0.1,0-0.2,0-0.3c0-0.1,0-0.2,0-0.3c0-0.5-0.2-0.9-0.5-1.2c-0.3-0.4-0.8-0.6-1.5-0.7c0,1.2-0.1,2.5-0.1,3.8c0,1.3,0,2.5,0,3.8
			c1.3-0.2,2.4-0.4,3.3-0.8c0.9-0.4,1.6-0.8,2.2-1.3c0.6-0.5,1.1-1,1.4-1.5c0.3-0.5,0.6-1.1,0.7-1.6c0.2-0.5,0.3-1,0.3-1.4
			c0-0.4,0-0.7,0-0.9v-0.2c0-1.4-0.1-2.6-0.3-3.6c-0.2-1-0.5-1.8-0.9-2.5c-0.4-0.7-0.8-1.2-1.3-1.7c-0.5-0.4-1-0.7-1.5-1
			c-0.5-0.2-1-0.4-1.5-0.4c-0.5-0.1-0.9-0.1-1.3-0.1c-1.1,0.1-2.1,0.3-2.9,0.7c-0.8,0.3-1.4,0.6-1.9,1c-0.5,0.4-0.9,0.7-1.1,1.1
			c-0.3,0.3-0.4,0.6-0.5,0.8c0,0-0.1,0.1-0.1,0.1c0,0-0.1,0.1-0.1,0.1c0,0-0.1,0.1-0.1,0.1h0c-0.1,0-0.2,0.1-0.4,0.1
			c-0.2,0-0.3,0.1-0.5,0.1c-0.2,0-0.3-0.1-0.4-0.1c-0.1-0.1-0.2-0.2-0.3-0.4c0-0.1,0-0.3,0.2-0.5c0.1-0.3,0.3-0.6,0.6-0.9
			c0.3-0.3,0.6-0.7,1-1c0.4-0.4,0.9-0.7,1.5-1c0.6-0.3,1.3-0.6,2.1-0.8S66.9,172.8,67.8,172.8z M64.1,183.6
			c-0.8,0.2-1.4,0.4-1.8,0.8s-0.8,0.7-1,1.1c-0.2,0.4-0.4,0.7-0.5,1.1c-0.1,0.4-0.1,0.6-0.2,0.9c0,0.5,0,0.9,0.2,1.2
			c0.2,0.4,0.4,0.7,0.7,1c0.3,0.3,0.7,0.5,1.1,0.7c0.4,0.2,0.8,0.3,1.2,0.4c0-0.7,0.1-1.4,0.1-2.1c0-0.7,0.1-1.4,0.1-2.1L64.1,183.6
			z"/>
		<path class="st0" d="M78.5,186.8c0-0.1,0-0.1,0-0.1c0-0.2,0.1-0.4,0.4-0.6c0.3-0.2,0.6-0.3,1-0.3c0.3,0,0.5,0.1,0.7,0.2
			c0.2,0.1,0.4,0.4,0.4,0.7c0.1,0.2,0.1,0.5,0.1,0.7c0,0.3,0,0.5,0,0.8c0,0.5,0,1.1,0,1.7c0,0.6-0.1,1.2-0.1,1.8
			c0,0.6-0.1,1.2-0.1,1.7c0,0.6,0,1.1,0,1.6c0,0.8,0,1.4,0.1,1.9s0.2,0.7,0.5,0.7c0.1,0,0.3-0.2,0.5-0.5c0.2-0.3,0.4-0.7,0.6-1.3
			c0.2-0.5,0.4-1.1,0.6-1.7c0.2-0.6,0.4-1.3,0.6-1.9c0.2-0.6,0.4-1.3,0.6-1.8c0.2-0.6,0.3-1.1,0.5-1.5l0.3-1
			c0.1-0.2,0.2-0.3,0.3-0.3c0.2-0.1,0.3-0.1,0.5,0c0.2,0,0.3,0.1,0.4,0.2c0.1,0.1,0.2,0.2,0.2,0.4c0,0.3-0.1,0.9-0.2,1.5
			c-0.1,0.7-0.3,1.4-0.5,2.2c-0.2,0.8-0.5,1.6-0.8,2.4c-0.3,0.8-0.7,1.6-1.1,2.2c-0.4,0.7-0.9,1.2-1.4,1.7s-1.1,0.6-1.7,0.6
			c-0.6-0.1-1-0.3-1.4-0.7s-0.7-0.9-0.9-1.4c-0.2-0.6-0.4-1.2-0.5-1.9c-0.1-0.7-0.1-1.4-0.1-2.2c0-0.6,0-1.3,0.1-1.9
			c0-0.6,0.1-1.2,0.1-1.7c0.1-0.5,0.1-0.9,0.2-1.3C78.5,187.2,78.5,187,78.5,186.8z M78.5,183.6c0-0.5,0.1-0.8,0.4-1.2
			c0.3-0.3,0.6-0.5,1.1-0.5c0.4,0,0.7,0.2,1,0.5c0.3,0.3,0.4,0.7,0.4,1.2c0,0.5-0.1,0.8-0.4,1.2c-0.3,0.3-0.6,0.5-1,0.5
			c-0.4,0-0.8-0.2-1.1-0.5C78.6,184.5,78.5,184.1,78.5,183.6z"/>
		<path class="st0" d="M90,184.4c0.5,0,0.8,0.1,1.1,0.2s0.6,0.4,0.8,0.6c0.1-0.8,0.1-1.6,0.2-2.4c0.1-0.8,0.2-1.5,0.2-2.1
			c0.1-0.6,0.1-1.2,0.2-1.7c0.1-0.5,0.1-0.9,0.2-1.1c0-0.1,0-0.2,0-0.3s0-0.1,0-0.1c0-0.1,0-0.2,0.1-0.3s0.2-0.2,0.3-0.3
			c0.1-0.1,0.3-0.2,0.4-0.2c0.2-0.1,0.3-0.1,0.5-0.1c0.2,0,0.4,0.1,0.6,0.2c0.2,0.1,0.3,0.3,0.4,0.6c0,0.4,0.1,0.9,0.1,1.6
			c0,0.8,0,1.6-0.1,2.6c0,1-0.1,2.1-0.2,3.2c-0.1,1.3-0.2,2.5-0.2,3.8c-0.1,1.3-0.1,2.4-0.1,3.5c0,1.1,0,1.9,0.1,2.6
			c0.1,0.7,0.2,1,0.4,0.9c0.2,0,0.4-0.3,0.7-0.8c0.3-0.5,0.5-1.1,0.7-1.9c0.2-0.7,0.5-1.4,0.7-2.2s0.4-1.4,0.5-1.9l0.3-0.9
			c0-0.1,0.2-0.2,0.3-0.2c0.2,0,0.4,0,0.5,0c0.2,0,0.3,0.1,0.5,0.2c0.1,0.1,0.2,0.2,0.1,0.3c0,0,0,0.1,0,0.2c0,0.1-0.1,0.3-0.1,0.4
			c-0.1,0.4-0.2,0.9-0.3,1.5c-0.1,0.6-0.3,1.2-0.5,1.8c-0.2,0.6-0.4,1.3-0.7,1.9c-0.3,0.6-0.6,1.2-0.9,1.7s-0.7,0.9-1.2,1.2
			c-0.4,0.3-0.9,0.4-1.5,0.4c-0.6,0-1.2-0.4-1.5-1.1c-0.4-0.7-0.6-1.6-0.8-2.7c-0.1,0.3-0.3,0.6-0.4,0.9c-0.2,0.3-0.4,0.6-0.6,0.8
			c-0.2,0.2-0.5,0.4-0.7,0.6c-0.3,0.2-0.6,0.3-0.9,0.3c-0.9,0.1-1.7,0-2.3-0.4c-0.6-0.3-1.1-0.8-1.5-1.3c-0.4-0.5-0.6-1.1-0.7-1.7
			c-0.1-0.6-0.2-1.2-0.2-1.8c0-0.2,0-0.4,0-0.5c0-0.2,0-0.3,0.1-0.4c0,0,0-0.1,0-0.1c0,0,0-0.1,0-0.1c0-0.2,0.1-0.5,0.2-0.9
			c0.1-0.4,0.2-0.8,0.3-1.2c0.1-0.4,0.3-0.8,0.6-1.3c0.2-0.4,0.6-0.8,0.9-1.2c0.4-0.3,0.9-0.6,1.4-0.8
			C88.6,184.5,89.2,184.4,90,184.4z M91.8,189.8c0-0.5,0-1,0-1.5c0-0.5,0-1,0.1-1.6c-0.1-0.3-0.3-0.5-0.6-0.8
			c-0.3-0.3-0.6-0.4-1-0.4c-0.3,0-0.5,0.1-0.8,0.4c-0.3,0.2-0.6,0.6-0.8,1c-0.3,0.4-0.5,0.9-0.7,1.4s-0.2,1.1-0.2,1.7
			c0,1.1,0.1,2,0.2,2.7c0.1,0.7,0.3,1.2,0.4,1.6c0.2,0.4,0.3,0.6,0.5,0.7c0.2,0.1,0.3,0.2,0.4,0.2c0.3,0,0.5,0,0.8-0.2
			s0.5-0.5,0.7-0.9c0.2-0.4,0.4-0.8,0.6-1.2c0.2-0.4,0.3-0.9,0.5-1.3c0-0.3,0-0.6,0-0.9S91.8,190.2,91.8,189.8z"/>
		<path class="st0" d="M101.8,183.8c0.6,0,1.2,0.1,1.7,0.2c0.5,0.1,0.8,0.3,1.1,0.5c0.3,0.2,0.5,0.4,0.7,0.7
			c0.2,0.3,0.3,0.5,0.4,0.8c0.1,0.3,0.1,0.5,0.1,0.7c0,0.2,0,0.4,0,0.6c-0.2,0.9-0.4,1.7-0.8,2.3c-0.4,0.6-0.9,1.1-1.4,1.4
			c-0.5,0.3-1.1,0.6-1.6,0.7c-0.6,0.1-1.1,0.2-1.6,0.2c-0.4,0-0.8,0-1.1-0.1v0.1c0,0.5,0,1,0.1,1.5c0.1,0.5,0.2,0.9,0.3,1.2
			c0.1,0.4,0.3,0.6,0.6,0.9c0.2,0.2,0.5,0.3,0.8,0.3c0.6,0,1.3-0.2,1.8-0.4s1.1-0.6,1.5-1c0.5-0.4,0.9-0.9,1.3-1.4
			c0.4-0.5,0.7-1,1-1.5s0.5-1,0.7-1.4c0.2-0.5,0.4-0.8,0.5-1.1l0.2-0.5c0.1-0.1,0.2-0.2,0.4-0.3c0.2-0.1,0.3-0.1,0.5-0.1
			s0.3,0,0.4,0.1c0.1,0.1,0.2,0.3,0.1,0.5c0,0.3-0.2,0.7-0.4,1.2c-0.2,0.5-0.5,1.1-0.8,1.8c-0.3,0.6-0.8,1.3-1.2,2
			c-0.5,0.7-1,1.3-1.6,1.8c-0.6,0.6-1.3,1-2,1.4c-0.7,0.3-1.5,0.5-2.3,0.5c-0.8,0-1.4-0.1-2-0.4c-0.6-0.2-1-0.5-1.4-0.8
			c-0.4-0.3-0.7-0.7-0.9-1.1c-0.2-0.4-0.4-0.8-0.5-1.2c-0.1-0.4-0.2-0.7-0.2-1c0-0.3-0.1-0.5-0.1-0.6v-0.2c0-0.2,0-0.6,0-1.1
			c0-0.5,0.1-1.1,0.2-1.7c0.1-0.6,0.3-1.2,0.5-1.9c0.2-0.7,0.6-1.2,1-1.8c0.4-0.5,1-1,1.6-1.3C100.1,184,100.9,183.8,101.8,183.8z
			 M102.4,185.1c-0.4,0.1-0.8,0.3-1.2,0.7c-0.4,0.4-0.7,0.8-0.9,1.4c-0.3,0.6-0.5,1.2-0.7,1.9c-0.2,0.7-0.3,1.4-0.3,2.1
			c0.1,0,0.2,0,0.3,0c0.1,0,0.2,0,0.3,0c0.3,0,0.7-0.1,1.1-0.2c0.4-0.1,0.8-0.3,1.1-0.6c0.4-0.3,0.7-0.6,0.9-1.1
			c0.3-0.5,0.4-1.1,0.4-1.8c0-0.2,0-0.5,0-0.8c0-0.3-0.1-0.5-0.2-0.8c-0.1-0.2-0.2-0.4-0.3-0.6C102.7,185.2,102.6,185.1,102.4,185.1
			z"/>
		<path class="st0" d="M122.6,187.2c0-0.1,0-0.1,0-0.1c0-0.1,0.1-0.2,0.2-0.3s0.2-0.2,0.4-0.3c0.1-0.1,0.3-0.2,0.5-0.2
			c0.2-0.1,0.4-0.1,0.6-0.1c0.3,0,0.5,0.1,0.7,0.2c0.2,0.1,0.3,0.3,0.4,0.6c0.1,0.3,0.1,0.7,0.1,1.3c0,0.6,0,1.2-0.1,1.9
			c-0.1,0.7-0.1,1.4-0.2,2c-0.1,0.7-0.1,1.3-0.2,1.9c-0.1,0.6-0.1,1.2-0.1,1.6c0,0.5,0,0.9,0.1,1.2c0.1,0.3,0.2,0.5,0.4,0.4
			c0.1,0,0.3-0.2,0.5-0.5c0.2-0.3,0.4-0.7,0.6-1.2c0.2-0.5,0.4-1.1,0.7-1.7c0.2-0.6,0.4-1.2,0.7-1.8c0.2-0.6,0.4-1.2,0.6-1.7
			c0.2-0.6,0.3-1,0.5-1.4l0.2-0.8c0-0.1,0.2-0.2,0.3-0.2c0.2,0,0.4,0,0.5,0c0.2,0,0.3,0.1,0.5,0.2c0.1,0.1,0.2,0.2,0.1,0.3v0
			l-0.2,0.7c-0.1,0.4-0.2,1-0.4,1.6c-0.2,0.6-0.4,1.3-0.6,2c-0.3,0.7-0.5,1.4-0.9,2.2c-0.3,0.7-0.7,1.4-1.1,1.9
			c-0.4,0.6-0.8,1-1.3,1.4c-0.5,0.4-1,0.5-1.5,0.5c-0.3,0-0.6-0.2-0.9-0.4c-0.3-0.2-0.5-0.5-0.7-0.8c-0.2-0.3-0.4-0.7-0.5-1.1
			c-0.1-0.4-0.2-0.9-0.3-1.4c-0.2,0.4-0.5,0.8-0.9,1.1c-0.4,0.3-0.9,0.5-1.4,0.6c-1.1,0.1-1.9-0.1-2.6-0.5c-0.6-0.4-1.1-0.9-1.4-1.5
			c-0.3-0.6-0.5-1.2-0.6-1.9c-0.1-0.7-0.1-1.2-0.1-1.7c0-0.3,0-0.7,0.1-1.2c0-0.5,0.1-1,0.3-1.6c0.1-0.6,0.3-1.1,0.6-1.7
			c0.2-0.6,0.6-1.1,1-1.6c0.4-0.5,0.9-0.9,1.5-1.2c0.6-0.3,1.3-0.5,2.1-0.5c0.6,0,1.1,0,1.5,0.2c0.4,0.1,0.7,0.3,1,0.5
			c0.2,0.2,0.4,0.4,0.5,0.6c0.1,0.2,0.2,0.4,0.2,0.5l0.1,0.2v0c0.1,0.3,0.1,0.5-0.1,0.6c-0.2,0.1-0.4,0.2-0.7,0.2
			c-0.2,0-0.3,0-0.5-0.1c-0.2-0.1-0.3-0.2-0.4-0.3c-0.1-0.1-0.1-0.1-0.1-0.1c0,0,0-0.1,0-0.1c-0.1-0.2-0.2-0.4-0.4-0.6
			c-0.2-0.2-0.5-0.3-0.9-0.3c-0.2,0-0.5,0.2-0.8,0.5c-0.3,0.3-0.5,0.7-0.8,1.3c-0.2,0.6-0.5,1.2-0.7,2c-0.2,0.8-0.3,1.7-0.4,2.7
			c0,0.1,0,0.2,0,0.4c0,0.2,0,0.3,0,0.4c0,0.9,0.1,1.6,0.2,2.1c0.1,0.5,0.3,0.8,0.5,1c0.2,0.2,0.4,0.3,0.6,0.3c0.2,0,0.3,0,0.4,0
			c0.2,0,0.4-0.1,0.6-0.3c0.2-0.2,0.4-0.4,0.6-0.7c0.2-0.3,0.4-0.6,0.5-0.9c0.2-0.3,0.3-0.6,0.4-0.9c0-0.6,0-1.2,0-1.8
			c0-0.6,0.1-1.1,0.1-1.6c0-0.5,0.1-0.9,0.1-1.3S122.5,187.4,122.6,187.2z"/>
		<path class="st0" d="M138.5,180.8c0.3-0.1,0.5-0.1,0.6-0.1c0.2,0,0.3,0.1,0.4,0.1c0.1,0.1,0.2,0.2,0.2,0.3c0,0.1,0.1,0.2,0.1,0.4
			c0,0.4-0.1,0.7-0.3,0.9c-0.1,0.1-0.2,0.2-0.3,0.4c-0.1,0.2-0.3,0.4-0.4,0.7c-0.1,0.3-0.3,0.6-0.4,1c-0.1,0.4-0.2,0.9-0.2,1.4
			c0,0.6,0.1,1.4,0.3,2.2v0l1.5,4c0.6-0.6,1.3-1.2,2-1.9c0.7-0.7,1.3-1.5,1.7-2.2c0.1-0.2,0.3-0.3,0.4-0.4c0.1-0.1,0.3-0.1,0.4,0
			c0.1,0,0.2,0.1,0.2,0.3c0,0.2,0,0.4,0,0.6c-0.2,0.4-0.4,0.8-0.7,1.3c-0.3,0.4-0.6,0.8-0.9,1.2c-0.3,0.4-0.7,0.8-1.1,1.1
			c-0.4,0.4-0.7,0.7-1.1,1l-0.4,0.4c0.2,0.6,0.4,1.2,0.6,1.7c0.2,0.5,0.3,0.8,0.3,1c0.1,0.4,0.1,0.8,0.1,1.1c0,0.5-0.1,0.8-0.2,1.1
			c-0.1,0.3-0.3,0.6-0.6,0.7c-0.2,0.2-0.5,0.3-0.8,0.4c-0.3,0.1-0.6,0.1-0.9,0.1c-1.1,0-1.9-0.1-2.3-0.5c-0.5-0.4-0.7-0.9-0.7-1.6
			c0-0.1,0-0.3,0-0.4c0-0.2,0-0.3,0.1-0.4c0.1-0.5,0.4-1,0.7-1.5c0.4-0.5,0.8-0.9,1.3-1.4c-0.2-0.5-0.4-1-0.6-1.5
			c-0.2-0.5-0.4-1-0.6-1.4c-0.2-0.4-0.4-0.8-0.6-1.2s-0.3-0.6-0.4-0.9c-0.1-0.1-0.1-0.2-0.2-0.3c0-0.1-0.1-0.1,0-0.1
			c-0.1-0.4-0.2-0.8-0.3-1.2s-0.1-0.8-0.1-1.1c0-0.9,0.1-1.6,0.4-2.3c0.3-0.6,0.6-1.2,0.9-1.6c0.4-0.4,0.7-0.7,1-0.9
			C138.2,181,138.4,180.9,138.5,180.8L138.5,180.8z M139.1,197.5c0-0.6-0.1-1.4-0.4-2.2c-0.2,0.2-0.3,0.5-0.5,0.7
			c-0.1,0.2-0.2,0.5-0.3,0.7c-0.1,0.2-0.1,0.4-0.1,0.6c0,0.2,0,0.3,0,0.5c0,0.5,0.1,0.8,0.3,0.9s0.4,0.1,0.5,0.1
			C138.9,198.6,139.1,198.2,139.1,197.5z"/>
		<path class="st0" d="M148.5,182.9c0.8,0,1.4,0.1,1.9,0.3c0.5,0.2,0.9,0.5,1.1,0.9c0.3,0.4,0.5,0.7,0.6,1.2
			c0.1,0.4,0.2,0.8,0.2,1.3c0,0.5,0,0.9-0.1,1.3c-0.1,0.4-0.2,0.6-0.2,0.8v0c-0.1,0.2-0.3,0.4-0.5,0.6c-0.2,0.1-0.5,0.2-0.7,0.3
			c-0.2,0.1-0.4,0.1-0.6,0.1c-0.2,0-0.2-0.1-0.2-0.1c0.2-0.4,0.4-0.9,0.5-1.4c0.1-0.5,0.1-0.9,0.1-1.4c0-0.4,0-0.7-0.1-1
			c-0.1-0.3-0.2-0.6-0.3-0.8c-0.1-0.2-0.3-0.4-0.5-0.6c-0.2-0.1-0.5-0.2-0.8-0.2c-0.2,0-0.5,0.1-0.7,0.4c-0.2,0.3-0.4,0.6-0.6,1.1
			c-0.2,0.4-0.3,0.9-0.4,1.4c-0.1,0.5-0.2,1-0.3,1.5c-0.1,0.5-0.2,0.9-0.2,1.2c0,0.3-0.1,0.6-0.1,0.7c0,0.3-0.1,0.5-0.1,0.8
			c0,0.2,0,0.5,0,0.7c0,0.7,0.1,1.3,0.2,1.8s0.4,0.9,0.6,1.2c0.2,0.3,0.5,0.5,0.7,0.6c0.2,0.1,0.5,0.2,0.6,0.2
			c0.6,0,1.1-0.2,1.7-0.7c0.5-0.5,1.1-1.1,1.6-1.8s0.9-1.4,1.4-2.2c0.4-0.7,0.7-1.4,1-1.9c0.1-0.2,0.2-0.4,0.3-0.6
			c0.1-0.2,0.2-0.3,0.2-0.3c0.1-0.2,0.3-0.3,0.5-0.3s0.3-0.1,0.5,0c0.1,0,0.3,0.1,0.3,0.3c0.1,0.1,0.1,0.3,0.1,0.6
			c0,0.1-0.1,0.4-0.3,0.8c-0.2,0.4-0.4,0.9-0.7,1.5c-0.3,0.6-0.7,1.2-1.1,1.8c-0.4,0.6-0.9,1.2-1.5,1.7c-0.5,0.5-1.1,1-1.8,1.3
			c-0.7,0.4-1.4,0.6-2.1,0.6c-0.9,0-1.7,0-2.3-0.2c-0.6-0.2-1.1-0.4-1.6-0.7c-0.4-0.3-0.7-0.6-0.9-1c-0.2-0.4-0.4-0.7-0.5-1.1
			c-0.1-0.4-0.1-0.7-0.2-1c0-0.3,0-0.6,0-0.7v-0.2c0-0.1,0-0.4,0-0.9c0-0.5,0.1-1,0.2-1.6c0.1-0.6,0.3-1.3,0.5-2
			c0.2-0.7,0.5-1.3,0.9-1.9c0.4-0.6,0.9-1.1,1.4-1.5C147,183.1,147.7,182.9,148.5,182.9z"/>
		<path class="st0" d="M154.7,186.7c0.1-0.1,0.3-0.1,0.4-0.2c0.1,0,0.3,0,0.4,0c0-0.2,0.1-0.5,0.2-0.8c0.1-0.3,0.3-0.7,0.6-1
			c0.3-0.3,0.6-0.6,1.1-0.8c0.5-0.2,1.1-0.3,1.8-0.3c0.8,0,1.4,0.2,1.9,0.5c0.5,0.3,0.9,0.7,1.2,1.1c0.3,0.5,0.5,0.9,0.6,1.5
			c0.1,0.5,0.1,1,0.1,1.5v0.3l0,0.8c0.5-0.2,1.1-0.5,1.5-0.9c0.5-0.4,0.9-0.8,1.2-1.4h0c0.1-0.1,0.2-0.2,0.4-0.4
			c0.2-0.1,0.3-0.2,0.5-0.2c0.2,0,0.3,0.1,0.3,0.2c0.1,0.1,0,0.3-0.1,0.6c-0.2,0.5-0.5,0.9-0.8,1.3c-0.3,0.4-0.6,0.7-1,1
			c-0.4,0.3-0.7,0.5-1.1,0.8c-0.4,0.2-0.8,0.4-1.1,0.5c-0.1,0.5-0.3,1.1-0.5,1.6s-0.5,1-0.9,1.5c-0.4,0.4-0.9,0.8-1.4,1.1
			c-0.6,0.3-1.3,0.4-2.1,0.4c-0.9,0-1.6-0.2-2.2-0.4s-1-0.6-1.4-1c-0.3-0.4-0.6-0.9-0.7-1.4c-0.1-0.5-0.2-1.1-0.2-1.6
			c0-0.5,0-1,0.1-1.5c0.1-0.5,0.2-0.9,0.3-1.3c0.1-0.4,0.3-0.7,0.4-1C154.5,187,154.6,186.8,154.7,186.7z M160.3,191.4
			c-0.9,0-1.7-0.2-2.3-0.4c-0.6-0.3-1.1-0.6-1.4-0.9v0.4c0,0.4,0,0.8,0.1,1.2c0.1,0.4,0.2,0.8,0.3,1.1c0.1,0.3,0.3,0.6,0.6,0.8
			c0.3,0.2,0.6,0.3,1,0.3c0.3,0,0.5-0.1,0.8-0.2c0.2-0.1,0.4-0.3,0.6-0.5c0.2-0.2,0.3-0.5,0.5-0.8c0.1-0.3,0.3-0.6,0.4-0.9
			c-0.1,0-0.2,0-0.2,0C160.5,191.5,160.4,191.4,160.3,191.4z M160.3,189.8c0.2,0,0.6,0,0.9-0.1c0-0.3,0.1-0.6,0.1-0.8
			c0-0.2,0-0.3,0-0.4c0-0.5,0-1-0.1-1.5c-0.1-0.5-0.2-0.9-0.3-1.3c-0.2-0.4-0.4-0.7-0.7-0.9c-0.3-0.2-0.7-0.3-1.1-0.3
			c-0.3,0-0.5,0.1-0.7,0.3c-0.2,0.2-0.4,0.4-0.6,0.6c-0.1,0.2-0.3,0.5-0.3,0.8c-0.1,0.3-0.1,0.5,0,0.7l0.1,0.4
			c0,0.2,0.1,0.5,0.2,0.7c0.1,0.3,0.2,0.5,0.4,0.8c0.2,0.2,0.4,0.4,0.8,0.6C159.3,189.7,159.7,189.8,160.3,189.8z"/>
		<path class="st0" d="M165.4,186.7c0.1-0.1,0.3-0.1,0.4-0.2c0.1,0,0.3,0,0.4,0c0-0.2,0.1-0.5,0.2-0.8c0.1-0.3,0.3-0.7,0.6-1
			c0.3-0.3,0.6-0.6,1.1-0.8c0.5-0.2,1.1-0.3,1.8-0.3c0.8,0,1.4,0.2,1.9,0.5c0.5,0.3,0.9,0.7,1.2,1.1c0.3,0.5,0.5,0.9,0.6,1.5
			c0.1,0.5,0.1,1,0.1,1.5v0.3l0,0.8c0.5-0.2,1.1-0.5,1.5-0.9c0.5-0.4,0.9-0.8,1.2-1.4h0c0.1-0.1,0.2-0.2,0.4-0.4
			c0.2-0.1,0.3-0.2,0.5-0.2c0.2,0,0.3,0.1,0.3,0.2c0.1,0.1,0,0.3-0.1,0.6c-0.2,0.5-0.5,0.9-0.8,1.3c-0.3,0.4-0.6,0.7-1,1
			c-0.4,0.3-0.7,0.5-1.1,0.8c-0.4,0.2-0.8,0.4-1.1,0.5c-0.1,0.5-0.3,1.1-0.5,1.6s-0.5,1-0.9,1.5c-0.4,0.4-0.9,0.8-1.4,1.1
			c-0.6,0.3-1.3,0.4-2.1,0.4c-0.9,0-1.6-0.2-2.2-0.4s-1-0.6-1.4-1c-0.3-0.4-0.6-0.9-0.7-1.4c-0.1-0.5-0.2-1.1-0.2-1.6
			c0-0.5,0-1,0.1-1.5c0.1-0.5,0.2-0.9,0.3-1.3c0.1-0.4,0.3-0.7,0.4-1C165.2,187,165.3,186.8,165.4,186.7z M171,191.4
			c-0.9,0-1.7-0.2-2.3-0.4c-0.6-0.3-1.1-0.6-1.4-0.9v0.4c0,0.4,0,0.8,0.1,1.2c0.1,0.4,0.2,0.8,0.3,1.1c0.1,0.3,0.3,0.6,0.6,0.8
			c0.3,0.2,0.6,0.3,1,0.3c0.3,0,0.5-0.1,0.8-0.2c0.2-0.1,0.4-0.3,0.6-0.5c0.2-0.2,0.3-0.5,0.5-0.8c0.1-0.3,0.3-0.6,0.4-0.9
			c-0.1,0-0.2,0-0.2,0C171.2,191.5,171.1,191.4,171,191.4z M170.9,189.8c0.2,0,0.6,0,0.9-0.1c0-0.3,0.1-0.6,0.1-0.8
			c0-0.2,0-0.3,0-0.4c0-0.5,0-1-0.1-1.5c-0.1-0.5-0.2-0.9-0.3-1.3c-0.2-0.4-0.4-0.7-0.7-0.9c-0.3-0.2-0.7-0.3-1.1-0.3
			c-0.3,0-0.5,0.1-0.7,0.3c-0.2,0.2-0.4,0.4-0.6,0.6c-0.1,0.2-0.3,0.5-0.3,0.8c-0.1,0.3-0.1,0.5,0,0.7l0.1,0.4
			c0,0.2,0.1,0.5,0.2,0.7c0.1,0.3,0.2,0.5,0.4,0.8c0.2,0.2,0.4,0.4,0.8,0.6C169.9,189.7,170.4,189.8,170.9,189.8z"/>
		<path class="st0" d="M169.5,178.2c0.3,0.1,0.7,0.1,1.1,0.2c0.5,0,1,0,1.6,0c1,0,2.1,0,3.2-0.1l0.4-2.9c0-0.1,0-0.2,0-0.3
			c0-0.1,0-0.1,0-0.1c0-0.1,0-0.2,0.1-0.3c0.1-0.1,0.2-0.2,0.3-0.3c0.1-0.1,0.3-0.2,0.4-0.2c0.2-0.1,0.3-0.1,0.5-0.1
			c0.2,0,0.4,0.1,0.6,0.2c0.2,0.1,0.3,0.3,0.4,0.6c0,0.3,0.1,0.8,0.1,1.5c0,0.2,0,0.5,0,0.8s0,0.6,0,0.9c0.4,0,0.9-0.1,1.3-0.1
			c0.4,0,0.9-0.1,1.3-0.1c0.6,0,1.3-0.1,1.9-0.1c0.6,0,1.2-0.1,1.8-0.1c0.6,0,1.1-0.1,1.6-0.1c0.5,0,0.9,0,1.3,0
			c0.7,0,1.2,0,1.5,0.1c0.2,0.1,0.3,0.2,0.4,0.3c0.1,0.1,0.1,0.3,0,0.4c0,0.1-0.1,0.2-0.3,0.3c-0.2,0.1-0.4,0.1-0.6,0.1
			c-0.2,0-0.5-0.1-0.8-0.1c-0.3,0-0.6,0-0.9,0c-0.9,0-2.1,0.1-3.3,0.2c-1.3,0.1-2.6,0.2-4,0.3l-1.2,0.1L178,183
			c-0.1,1.4-0.2,2.8-0.3,4.2c-0.1,1.4-0.1,2.7-0.1,3.9c0,0.6,0,1.2,0,1.7c0,0.5,0,0.9,0.1,1.3c0,0.4,0.1,0.6,0.2,0.8
			c0.1,0.2,0.2,0.3,0.2,0.3c0.2,0,0.5-0.3,0.7-0.8c0.3-0.5,0.5-1.1,0.8-1.7c0.3-0.7,0.5-1.3,0.7-2c0.2-0.7,0.4-1.3,0.5-1.7
			c0-0.1,0.1-0.2,0.1-0.3c0-0.1,0.1-0.2,0.1-0.3c0-0.1,0.2-0.2,0.3-0.2c0.2,0,0.4,0,0.5,0c0.2,0,0.3,0.1,0.5,0.2
			c0.1,0.1,0.2,0.2,0.1,0.3c-0.1,0.1-0.1,0.3-0.2,0.5c-0.1,0.3-0.2,0.7-0.3,1.2c-0.1,0.5-0.3,1-0.5,1.5c-0.2,0.5-0.4,1.1-0.7,1.6
			c-0.3,0.5-0.5,1-0.9,1.5c-0.3,0.4-0.7,0.8-1.2,1.1c-0.4,0.3-0.9,0.4-1.5,0.4c-0.5,0-1-0.2-1.3-0.7c-0.4-0.4-0.6-1-0.9-1.8
			c-0.2-0.7-0.4-1.6-0.5-2.6c-0.1-1-0.1-2-0.1-3.1c0-1.4,0.1-2.9,0.2-4.4c0.1-1.5,0.2-2.9,0.4-4.1c-1.4,0.1-2.6,0.1-3.7,0.1
			c-0.5,0-1,0-1.4,0c-0.4,0-0.8-0.1-1.1-0.1h0c-0.4-0.1-0.7-0.2-0.9-0.4c-0.2-0.2-0.3-0.4-0.3-0.5c0-0.2,0.1-0.3,0.4-0.4
			C168.6,178.1,169,178.1,169.5,178.2z"/>
		<path class="st0" d="M185.4,183.8c0.6,0,1.2,0.1,1.7,0.2c0.5,0.1,0.8,0.3,1.1,0.5c0.3,0.2,0.5,0.4,0.7,0.7
			c0.2,0.3,0.3,0.5,0.4,0.8c0.1,0.3,0.1,0.5,0.1,0.7c0,0.2,0,0.4,0,0.6c-0.2,0.9-0.4,1.7-0.8,2.3s-0.9,1.1-1.4,1.4
			c-0.5,0.3-1.1,0.6-1.6,0.7c-0.6,0.1-1.1,0.2-1.6,0.2c-0.4,0-0.8,0-1.1-0.1v0.1c0,0.5,0,1,0.1,1.5c0.1,0.5,0.2,0.9,0.3,1.2
			c0.1,0.4,0.3,0.6,0.6,0.9c0.2,0.2,0.5,0.3,0.8,0.3c0.6,0,1.2-0.2,1.8-0.4c0.6-0.3,1.1-0.6,1.5-1c0.5-0.4,0.9-0.9,1.3-1.4
			c0.4-0.5,0.7-1,1-1.5c0.3-0.5,0.5-1,0.7-1.4c0.2-0.5,0.4-0.8,0.5-1.1l0.2-0.5c0.1-0.1,0.2-0.2,0.4-0.3c0.2-0.1,0.3-0.1,0.5-0.1
			s0.3,0,0.4,0.1c0.1,0.1,0.2,0.3,0.1,0.5c0,0.3-0.2,0.7-0.4,1.2c-0.2,0.5-0.5,1.1-0.8,1.8c-0.3,0.6-0.8,1.3-1.2,2
			c-0.5,0.7-1,1.3-1.6,1.8c-0.6,0.6-1.3,1-2,1.4c-0.7,0.3-1.5,0.5-2.4,0.5c-0.8,0-1.4-0.1-2-0.4c-0.6-0.2-1-0.5-1.4-0.8
			c-0.4-0.3-0.7-0.7-0.9-1.1c-0.2-0.4-0.4-0.8-0.5-1.2c-0.1-0.4-0.2-0.7-0.2-1c0-0.3-0.1-0.5-0.1-0.6v-0.2c0-0.2,0-0.6,0-1.1
			c0-0.5,0.1-1.1,0.2-1.7c0.1-0.6,0.3-1.2,0.5-1.9c0.2-0.7,0.6-1.2,1-1.8c0.4-0.5,1-1,1.6-1.3C183.6,184,184.4,183.8,185.4,183.8z
			 M185.9,185.1c-0.4,0.1-0.8,0.3-1.2,0.7c-0.4,0.4-0.7,0.8-0.9,1.4c-0.3,0.6-0.5,1.2-0.7,1.9c-0.2,0.7-0.3,1.4-0.3,2.1
			c0.1,0,0.2,0,0.3,0c0.1,0,0.2,0,0.3,0c0.3,0,0.7-0.1,1.1-0.2c0.4-0.1,0.8-0.3,1.1-0.6s0.7-0.6,0.9-1.1c0.3-0.5,0.4-1.1,0.4-1.8
			c0-0.2,0-0.5,0-0.8c0-0.3-0.1-0.5-0.2-0.8c-0.1-0.2-0.2-0.4-0.3-0.6C186.3,185.2,186.1,185.1,185.9,185.1z"/>
		<path class="st0" d="M199.1,184.7c0.3-0.1,0.5-0.2,0.8-0.1c0.3,0,0.5,0.1,0.7,0.2c0.2,0.1,0.3,0.2,0.5,0.4
			c0.1,0.1,0.2,0.3,0.2,0.4c0,0.1,0,0.2-0.1,0.3c0,0.1-0.1,0.3-0.1,0.5c-0.1,0.3-0.2,0.6-0.3,1c-0.1,0.4-0.2,0.8-0.3,1.2
			c-0.1,0.4-0.1,0.8-0.2,1.2c0,0.4,0,0.7,0,0.9l0.2,0.7c0,0.1,0.1,0.3,0.1,0.4c0,0.1,0.1,0.2,0.1,0.3c0,0.3-0.1,0.4-0.3,0.5
			c-0.2,0.1-0.6,0-1.1-0.2c-0.5-0.2-0.8-0.5-1-1.1c-0.2-0.6-0.3-1.2-0.3-2c0-0.2,0-0.4,0-0.6c0-0.2,0-0.4,0.1-0.6
			c-0.4,0.5-0.8,1-1.1,1.5c-0.3,0.6-0.6,1.1-0.9,1.7c-0.3,0.6-0.5,1.2-0.7,1.7c-0.2,0.6-0.4,1.1-0.5,1.6v0.1c0,0.4,0,0.8,0,1.1
			c0,0.3-0.1,0.5-0.1,0.6c-0.1,0.3-0.3,0.5-0.5,0.6c-0.2,0.1-0.5,0.2-0.8,0.2c-0.3,0-0.5-0.1-0.8-0.2c-0.2-0.2-0.4-0.4-0.5-0.8
			c-0.1-0.2-0.1-0.5-0.2-0.9c0-0.4-0.1-0.9-0.1-1.4c0-0.5-0.1-1.1-0.1-1.7c0-0.6,0-1.2,0-1.9c0-0.6,0-1.2,0-1.7c0-0.6,0-1.1,0.1-1.5
			c0-0.4,0.1-0.8,0.1-1.2c0-0.3,0.1-0.5,0.2-0.7c0.1-0.3,0.3-0.5,0.6-0.6c0.3-0.1,0.5-0.2,0.7-0.2c0.3,0,0.5,0.1,0.8,0.3
			c0.2,0.2,0.3,0.6,0.3,1c0,0.1,0,0.3,0,0.5c0,0.2,0,0.5,0,0.7c0,0.3,0,0.6,0,0.9c0,0.3,0,0.6,0.1,0.9l0.2,2.4
			c0.2-0.6,0.4-1.3,0.7-2c0.3-0.7,0.6-1.3,1-1.9c0.4-0.6,0.8-1.1,1.3-1.6S198.5,184.9,199.1,184.7z"/>
	</g>
	<path class="st0" d="M200.5,127.9c-3-14.9-18.3-24.5-33.3-21c-0.2,0-0.4,0.1-0.6,0.3c-1.2,0.6-1.7,2.1-1.2,3.4l1.5,3.2
		c0.5-0.2,1.7-0.9,1.9-0.9c8.7-2,17.9,1.8,22.9,9.6c4.8,7.4,4.3,17.4-1.3,24.5c-0.8,1-1.7,1.9-2.6,2.8c-0.9,0.8-1.1,2.2-0.4,3.2
		l1.5,1.6c0.8,0.8,2.3,0.3,2.9-0.3C199.4,146.4,202.6,138.3,200.5,127.9z"/>
	<g>
		
			<ellipse transform="matrix(0.4936 -0.8697 0.8697 0.4936 -46.0417 232.4721)" class="st1" cx="176.6" cy="155.8" rx="6.2" ry="6.2"/>
		<ellipse transform="matrix(0.9075 -0.4201 0.4201 0.9075 -53.7502 72.6328)" class="st1" cx="138" cy="158.4" rx="3.7" ry="3.7"/>
		
			<ellipse transform="matrix(0.9075 -0.4201 0.4201 0.9075 -52.4643 77.1422)" class="st1" cx="148.9" cy="157.7" rx="4.4" ry="4.4"/>
		<ellipse transform="matrix(0.9075 -0.4201 0.4201 0.9075 -51.0578 82.2519)" class="st1" cx="161.2" cy="157" rx="5" ry="5"/>
		<ellipse transform="matrix(0.9075 -0.4201 0.4201 0.9075 -54.9191 68.5251)" class="st1" cx="128.1" cy="159" rx="3.1" ry="3.1"/>
	</g>
	<path class="st0" d="M177.7,122.1c-1.8-1-2.7-2.4-3.4-4.3c-0.5-1.4-1.1-2.9-1.6-4.3c-1.4-3.6-2.7-7.2-4.1-10.9L163,87.8l0,0
		l-7.9-21.2c-1.1-2.8-2.1-5.7-3.2-8.5c-0.1-0.2-0.2-0.4-0.2-0.7l-3.1-8.3c-0.6-1.7-2.3-2.9-4.1-3c-0.1,0-0.2,0-0.3,0
		c-0.1,0-0.6,0.1-1.1,0.3c-1.7,0.6-2.9,2.2-3,4c0,0.4,0,0.8,0.1,1c9,24,17.4,46.3,26.5,70.2c0.7,1.8,1.1,3.4,0.5,5.5
		c-1.2,4.4,0.9,8.9,4.6,10.3c3.7,1.5,7.6-0.5,9.3-4.6C182.7,129,181.3,124.1,177.7,122.1z"/>
</g>
</svg>
