<?xml version="1.0" encoding="utf-8"?>
<!-- Generator: Adobe Illustrator 21.1.0, SVG Export Plug-In . SVG Version: 6.00 Build 0)  -->
<svg version="1.1" id="Layer_1" xmlns="http://www.w3.org/2000/svg" xmlns:xlink="http://www.w3.org/1999/xlink" x="0px" y="0px"
	 viewBox="0 0 244.1 259.9" style="enable-background:new 0 0 244.1 259.9;" xml:space="preserve">
<style type="text/css">
	.st0{fill:#241F1C;}
	.st1{fill:#508C3E;}
</style>
<g>
	<g>
		
			<ellipse transform="matrix(0.5605 -0.8281 0.8281 0.5605 32.7084 162.9787)" class="st0" cx="169.9" cy="50.7" rx="6.8" ry="6.8"/>
		
			<ellipse transform="matrix(0.9377 -0.3473 0.3473 0.9377 -13.7663 74.4909)" class="st0" cx="200.9" cy="75.6" rx="4.1" ry="4.1"/>
		<ellipse transform="matrix(0.9377 -0.3473 0.3473 0.9377 -9.7518 71.8708)" class="st0" cx="195.6" cy="63.1" rx="4.9" ry="4.9"/>
		<ellipse transform="matrix(0.9377 -0.3473 0.3473 0.9377 -7.4291 67.632)" class="st0" cx="184.9" cy="54.5" rx="5.5" ry="5.5"/>
		
			<ellipse transform="matrix(0.9377 -0.3473 0.3473 0.9377 -17.4986 75.8333)" class="st0" cx="202.8" cy="86.7" rx="3.4" ry="3.4"/>
	</g>
	<path class="st1" d="M165.8,67c1.2-0.3,2.3-0.4,3-0.3c0.8,0.1,1.4,0.4,1.9,0.7c0.5,0.3,0.8,0.8,1,1.4c0.2,0.6,0.3,1.2,0.3,1.8
		c0,1.9-0.5,3.5-1.6,4.5c-0.4,0.4-0.9,1-1.6,1.9c-0.7,0.9-1.3,2-2,3.4c-0.7,1.4-1.2,3.1-1.8,5.1c-0.5,2-0.8,4.3-0.8,6.8
		c0,3.1,0.5,6.7,1.5,10.7V103l7.6,19.7c3.1-2.8,6.4-6,9.8-9.5c3.4-3.5,6.3-7.2,8.6-10.9c0.6-1,1.3-1.7,2-2c0.7-0.4,1.4-0.4,2-0.2
		c0.6,0.2,1,0.7,1.2,1.5c0.2,0.8,0.2,1.8-0.1,3c-0.9,2.1-2.1,4.2-3.6,6.2c-1.4,2-3,4-4.7,5.9c-1.7,1.9-3.4,3.8-5.3,5.5
		c-1.9,1.7-3.7,3.4-5.5,5.1l-2.1,1.9c1.1,3,2.1,5.8,3,8.2c0.9,2.4,1.4,4,1.6,4.9c0.4,2.2,0.6,4,0.6,5.5c0,2.3-0.3,4.1-1,5.7
		c-0.7,1.5-1.6,2.7-2.7,3.7c-1.2,0.9-2.5,1.6-4,2c-1.5,0.4-3,0.6-4.7,0.6c-5.4,0.2-9.2-0.7-11.5-2.6c-2.3-1.9-3.5-4.5-3.5-7.9
		c0-0.6,0-1.3,0.1-2.1c0.1-0.8,0.2-1.5,0.5-2.2c0.6-2.5,1.8-4.9,3.6-7.2c1.8-2.3,3.9-4.6,6.4-6.9c-0.9-2.5-1.9-5-3-7.5
		c-1.1-2.5-2.1-4.8-3.1-7c-1-2.2-1.9-4.1-2.7-5.9c-0.8-1.8-1.5-3.2-2-4.3c-0.3-0.6-0.6-1.2-0.8-1.7c-0.2-0.5-0.3-0.7-0.1-0.5
		c-0.6-2-1.1-4-1.3-5.9c-0.2-1.9-0.4-3.8-0.4-5.5c0-4.4,0.7-8.1,2-11.2c1.4-3.1,2.9-5.7,4.7-7.8c1.8-2.1,3.4-3.6,5-4.6
		c1.6-1,2.6-1.6,3.1-1.7L165.8,67z M168.7,149.5c0-3-0.7-6.7-2-11.1c-0.9,1.2-1.6,2.3-2.3,3.5c-0.7,1.2-1.1,2.4-1.3,3.6
		c-0.3,1.1-0.5,2.1-0.6,3c-0.1,0.9-0.2,1.7-0.2,2.3c0,2.3,0.5,3.8,1.4,4.3c0.9,0.5,1.8,0.6,2.4,0.4
		C167.8,154.8,168.7,152.8,168.7,149.5z"/>
	<g>
		<g>
			<g>
				<path class="st1" d="M68.9,70.1c0.1,0,0.5,0,1.1,0c0.6,0.1,1.2,0.2,1.8,0.4c0.6-0.1,1.3-0.2,2.2-0.3s1.8-0.1,2.8-0.1
					c1.3,0,2.7,0.1,4.2,0.2c1.5,0.1,2.9,0.4,4.4,0.8c0.4,0.1,0.6,0.2,0.8,0.4c0.1,0.2,0.2,0.3,0.2,0.5c0,0.2-0.1,0.4-0.4,0.6
					c-0.2,0.2-0.5,0.2-0.8,0.2c-2.1-0.3-3.9-0.5-5.4-0.6c-1.5-0.1-2.7-0.2-3.7-0.2c-0.9,0-1.7,0-2.2,0.1c-0.1,1-0.2,2-0.3,3.1
					c-0.1,1.1-0.2,2.2-0.3,3.4l-0.3,3.4l4.1-0.1c0.7,0,1.4,0,2.1,0c0.7,0,1.3,0,1.9,0c0.6,0,1.1,0,1.5,0c0.4,0,0.7,0,0.9,0
					c0.5,0,0.9,0,1.2,0.2c0.3,0.2,0.4,0.4,0.4,0.6c0,0.2-0.1,0.4-0.3,0.5c-0.2,0.2-0.6,0.2-1,0.2c-0.1,0-0.4,0-0.8,0
					c-0.4,0-1,0.1-1.6,0.1c-0.6,0-1.4,0.1-2.2,0.1c-0.8,0.1-1.6,0.1-2.3,0.2c-0.8,0.1-1.5,0.1-2.2,0.2c-0.7,0.1-1.3,0.1-1.8,0.1
					c-0.1,1.6-0.2,3.3-0.3,4.9c-0.1,1.6-0.1,3.2-0.1,4.5c0,1.3,0,2.5,0.1,3.7c0.1,1.2,0.3,2.2,0.5,3.2c0.2,1,0.5,1.8,0.9,2.5
					c0.4,0.7,0.8,1.2,1.3,1.6c0.1,0,0.5,0.1,1.1,0.1c0.7,0,1.5-0.1,2.6-0.2c1-0.1,2-0.3,3.1-0.6s1.9-0.7,2.7-1.2s1.4-1.1,1.7-1.8
					c0.1-0.1,0.2-0.2,0.4-0.1c0.2,0,0.3,0.1,0.5,0.2c0.2,0.1,0.3,0.3,0.5,0.5c0.1,0.2,0.2,0.4,0.2,0.6c-0.3,0.7-0.7,1.3-1.3,1.8
					c-0.6,0.5-1.3,0.9-2.1,1.2c-0.8,0.3-1.7,0.6-2.6,0.8c-0.9,0.2-1.8,0.3-2.7,0.4c-0.9,0.1-1.7,0.1-2.5,0.2c-0.8,0-1.4,0-1.9,0
					c-1.1,0-2.1-0.1-2.8-0.3c-0.7-0.2-1.3-0.4-1.8-0.7c-0.5-0.3-0.8-0.6-1.1-1c-0.3-0.4-0.5-0.7-0.7-1.1v0l-0.3-0.4
					c-0.2-0.3-0.3-0.7-0.4-1.2c-0.1-0.6-0.2-1.2-0.3-2c-0.1-0.8-0.1-1.7-0.2-2.6c0-1,0-2,0-3.1c0-1.6,0-3.3,0.1-5.1
					c0.1-1.8,0.1-3.6,0.2-5.3c0.1-1.7,0.2-3.4,0.3-5c0.1-1.6,0.3-3,0.4-4.2c0.1-1.2,0.2-2.2,0.3-2.9C68.7,70.5,68.8,70.1,68.9,70.1z
					"/>
				<path class="st1" d="M98.5,69c1.3,0,2.4,0.2,3.3,0.5c0.9,0.3,1.7,0.7,2.3,1.2c0.6,0.5,1.1,1.1,1.5,1.7c0.4,0.6,0.6,1.2,0.8,1.8
					c0.2,0.6,0.3,1.1,0.3,1.7c0,0.5,0,0.9,0,1.2c-0.1,1.4-0.2,2.6-0.5,3.5c-0.3,1-0.7,1.8-1.1,2.4c-0.4,0.6-0.9,1.1-1.4,1.5
					c-0.5,0.4-1,0.6-1.5,0.8c-0.5,0.2-0.9,0.3-1.3,0.3c-0.4,0-0.7,0-1,0c-0.5,0-1.2-0.2-1.9-0.4c-0.7-0.2-1.3-0.6-1.8-1.1
					c-0.1-0.1-0.2-0.3-0.3-0.5C96,83.4,96,83.2,96,83.1c0-0.3,0.1-0.5,0.4-0.6c0.2-0.1,0.7,0.1,1.2,0.6c1,0.7,1.8,1.1,2.5,1.1
					c0.8,0,1.5-0.7,2-1.8c0.5-1.2,0.8-2.9,1-5.3c0-0.1,0-0.3,0-0.4c0-0.2,0-0.3,0-0.4c0-1-0.1-1.8-0.3-2.5c-0.2-0.7-0.4-1.2-0.7-1.7
					c-0.3-0.4-0.6-0.8-1-1c-0.4-0.2-0.7-0.4-1-0.5c-0.3-0.1-0.6-0.1-0.9-0.1c-0.3,0-0.5,0-0.6,0c-0.8,0.1-1.5,0.4-2.1,1
					c-0.6,0.6-1.2,1.3-1.7,2.2c-0.5,0.9-0.9,1.9-1.3,3.1c-0.4,1.1-0.7,2.3-1,3.5c-0.3,1.2-0.5,2.4-0.7,3.6c-0.2,1.2-0.3,2.3-0.4,3.2
					c-0.1,1-0.2,1.8-0.2,2.5c0,0.7-0.1,1.2-0.1,1.4c0,0.3,0,0.6,0,1c0,0.4,0,0.7,0,1c0,1.9,0.1,3.5,0.4,4.8c0.3,1.3,0.7,2.3,1.1,3.2
					c0.4,0.8,0.9,1.4,1.5,1.9c0.5,0.4,1.1,0.7,1.6,0.9c0.5,0.2,0.9,0.3,1.3,0.3c0.4,0,0.6,0,0.7,0c1.1,0,2.2-0.4,3.1-0.9
					c0.9-0.6,1.8-1.3,2.5-2.2c0.7-0.9,1.4-1.8,2-2.9c0.6-1.1,1.1-2.1,1.5-3.1c0.4-1,0.8-1.9,1-2.8c0.3-0.9,0.5-1.5,0.6-2l0.2-0.7
					c0.1-0.2,0.3-0.3,0.5-0.3c0.2-0.1,0.4-0.1,0.6,0c0.2,0,0.4,0.1,0.5,0.2c0.1,0.1,0.2,0.3,0.1,0.5c0,0.1-0.1,0.6-0.2,1.3
					c-0.1,0.8-0.4,1.7-0.8,2.9c-0.4,1.1-0.9,2.4-1.5,3.7c-0.6,1.3-1.4,2.6-2.3,3.7c-0.9,1.2-2.1,2.2-3.4,3.1
					c-1.3,0.9-2.9,1.4-4.6,1.7c-0.3,0-0.8,0-1.5,0s-1.4-0.2-2.3-0.4c-0.9-0.3-1.7-0.7-2.6-1.3c-0.9-0.6-1.7-1.5-2.5-2.6
					c-0.7-1.1-1.4-2.6-1.8-4.4c-0.5-1.8-0.7-4-0.7-6.7c0-0.2,0-0.6,0-1.3c0-0.7,0.1-1.6,0.2-2.6c0.1-1.1,0.3-2.2,0.5-3.5
					c0.2-1.3,0.5-2.6,1-3.9c0.4-1.3,0.9-2.6,1.5-3.9c0.6-1.3,1.3-2.4,2.2-3.3c0.9-1,1.9-1.8,3-2.3C95.7,69.3,97,69,98.5,69z"/>
				<path class="st1" d="M107.5,84.8c0,0,0-0.1,0-0.1c0,0,0-0.1,0-0.1c0-0.3-0.1-0.6-0.1-0.9c0-0.3,0-0.6,0-0.9
					c0-1.2,0.2-2.4,0.6-3.6c0.4-1.1,1-2.2,1.7-3.1c0.7-1,1.6-1.8,2.6-2.6c1-0.8,2.1-1.4,3.2-1.9c1.2-0.5,2.3-0.9,3.6-1.1
					c1.2-0.2,2.5-0.3,3.7-0.3c1.5,0.1,3,0.4,4.4,1c1.4,0.6,2.6,1.5,3.7,2.6c1.1,1.2,1.9,2.7,2.5,4.4c0.6,1.8,1,4,1,6.5
					c0,0.4,0,0.9,0,1.4c0,0.5-0.1,1-0.1,1.5c-0.2,1.6-0.5,3.2-0.9,4.8c-0.4,1.6-1,3.1-1.7,4.6c-0.7,1.5-1.6,2.8-2.5,4.1
					c-1,1.3-2,2.4-3.3,3.3c-1.2,0.9-2.5,1.7-3.9,2.2c-1.4,0.5-2.9,0.8-4.6,0.8c-1.5,0-2.8-0.3-3.9-0.7c-1.1-0.5-2-1.1-2.8-1.8
					c-0.8-0.7-1.4-1.6-1.8-2.5c-0.5-0.9-0.8-1.9-1.1-2.9c-0.3-1-0.4-1.9-0.5-2.9c-0.1-0.9-0.1-1.8-0.1-2.5c0-0.6,0-1,0-1.4
					c0-0.4,0-0.7,0.1-0.8v0c0-0.6,0.2-1.3,0.3-1.9c0.2-0.6,0.4-1.3,0.7-1.9c-0.2-0.7-0.4-1.3-0.4-1.9
					C107.6,85.5,107.5,85.1,107.5,84.8z M114.9,93.3c-1-0.1-1.8-0.3-2.6-0.6c-0.7-0.3-1.4-0.7-1.9-1.1c-0.2,0.7-0.3,1.4-0.3,2.1
					c-0.1,0.7-0.1,1.3-0.1,2c0,1.5,0.2,2.9,0.5,4.2c0.3,1.3,0.9,2.4,1.5,3.4s1.5,1.7,2.4,2.2c0.9,0.5,2,0.7,3.2,0.6
					c1.4-0.2,2.7-0.9,4-2c1.3-1.1,2.4-2.6,3.4-4.3c1-1.7,1.9-3.6,2.6-5.6c0.7-2.1,1.3-4.1,1.7-6.1c0.2-0.9,0.3-1.8,0.4-2.6
					c0.1-0.9,0.1-1.7,0.1-2.5c0-1.5-0.1-2.9-0.4-4.2c-0.3-1.3-0.7-2.5-1.2-3.5c-0.5-1-1.1-1.9-1.8-2.6c-0.7-0.7-1.5-1.2-2.4-1.4
					c-0.4-0.1-0.9-0.1-1.3-0.1c-1,0-2,0.2-3,0.6c-1,0.4-2,1-3,1.9c-0.9,0.8-1.8,1.9-2.5,3.1c-0.7,1.2-1.3,2.7-1.6,4.4
					c1-1.2,1.9-2.2,2.7-2.9c0.8-0.8,1.3-1.2,1.5-1.4c0.2-0.2,0.5-0.3,0.9-0.5c0.3-0.1,0.7-0.2,0.9-0.2c0.5,0,0.9,0.1,1.1,0.3
					c0.2,0.2,0.1,0.4-0.3,0.8c-1.6,1.2-2.9,2.5-4.1,4c-1.1,1.4-2.1,2.9-2.9,4.5c0.1,0.5,0.2,1,0.4,1.5c0.2,0.6,0.4,1.1,0.6,1.7
					c0.3,0.6,0.6,1.1,1,1.6c0.4,0.5,0.9,0.9,1.5,1.2c0.1,0,0.2,0.1,0.3,0.1c0.1,0,0.2,0.1,0.3,0.1c0.2,0.1,0.4,0.1,0.6,0.2
					c0.2,0.1,0.2,0.2,0.2,0.4c0,0.3-0.2,0.5-0.6,0.6C116.4,93.3,115.7,93.4,114.9,93.3z"/>
			</g>
			<g>
				<path d="M71.8,122.2c0.4-0.1,0.7-0.1,0.9-0.1c0.2,0,0.4,0.1,0.6,0.2c0.1,0.1,0.2,0.2,0.3,0.4c0.1,0.2,0.1,0.4,0.1,0.5
					c0,0.6-0.2,1-0.5,1.4c-0.1,0.1-0.3,0.3-0.5,0.6c-0.2,0.3-0.4,0.6-0.6,1c-0.2,0.4-0.4,0.9-0.5,1.5c-0.2,0.6-0.2,1.3-0.2,2
					c0,0.9,0.2,2,0.5,3.2v0l2.3,5.9c0.9-0.8,1.9-1.8,2.9-2.8c1-1.1,1.9-2.1,2.6-3.3c0.2-0.3,0.4-0.5,0.6-0.6
					c0.2-0.1,0.4-0.1,0.6-0.1c0.2,0.1,0.3,0.2,0.4,0.4c0.1,0.2,0.1,0.5,0,0.9c-0.3,0.6-0.6,1.2-1.1,1.8c-0.4,0.6-0.9,1.2-1.4,1.8
					c-0.5,0.6-1,1.1-1.6,1.7c-0.6,0.5-1.1,1-1.6,1.5l-0.6,0.6c0.3,0.9,0.6,1.7,0.9,2.4c0.3,0.7,0.4,1.2,0.5,1.5
					c0.1,0.7,0.2,1.2,0.2,1.6c0,0.7-0.1,1.2-0.3,1.7c-0.2,0.5-0.5,0.8-0.8,1.1c-0.3,0.3-0.7,0.5-1.2,0.6s-0.9,0.2-1.4,0.2
					c-1.6,0-2.8-0.2-3.4-0.8c-0.7-0.6-1-1.4-1-2.4c0-0.2,0-0.4,0-0.6c0-0.2,0.1-0.5,0.1-0.7c0.2-0.7,0.5-1.5,1.1-2.2
					c0.5-0.7,1.2-1.4,1.9-2.1c-0.3-0.7-0.6-1.5-0.9-2.2c-0.3-0.7-0.6-1.4-0.9-2.1c-0.3-0.7-0.6-1.2-0.8-1.8
					c-0.2-0.5-0.4-0.9-0.6-1.3c-0.1-0.2-0.2-0.4-0.2-0.5c-0.1-0.2-0.1-0.2,0-0.2c-0.2-0.6-0.3-1.2-0.4-1.8c-0.1-0.6-0.1-1.1-0.1-1.7
					c0-1.3,0.2-2.4,0.6-3.3c0.4-0.9,0.9-1.7,1.4-2.3c0.5-0.6,1-1.1,1.5-1.4C71.3,122.5,71.6,122.3,71.8,122.2L71.8,122.2z
					 M72.7,146.9c0-0.9-0.2-2-0.6-3.3c-0.3,0.3-0.5,0.7-0.7,1c-0.2,0.3-0.3,0.7-0.4,1.1c-0.1,0.3-0.2,0.6-0.2,0.9
					c0,0.3-0.1,0.5-0.1,0.7c0,0.7,0.1,1.1,0.4,1.3c0.3,0.2,0.5,0.2,0.7,0.1C72.4,148.5,72.7,147.9,72.7,146.9z"/>
				<path d="M70.6,118.4c0.4,0.1,1,0.2,1.7,0.2c0.7,0,1.5,0.1,2.4,0.1c1.4,0,3,0,4.8-0.1l0.6-4.3c0-0.2,0-0.3,0.1-0.4
					c0-0.1,0-0.1,0-0.1c0-0.1,0.1-0.2,0.2-0.4c0.1-0.1,0.3-0.3,0.4-0.4c0.2-0.1,0.4-0.2,0.6-0.3c0.2-0.1,0.5-0.1,0.7-0.1
					c0.3,0,0.6,0.1,0.9,0.2c0.3,0.2,0.4,0.5,0.5,0.9c0.1,0.5,0.1,1.2,0.1,2.3c0,0.3,0,0.7,0,1.1c0,0.4,0,0.8,0,1.3
					c0.6,0,1.3-0.1,1.9-0.1c0.6,0,1.3-0.1,1.9-0.1c0.9-0.1,1.9-0.1,2.8-0.2c0.9-0.1,1.8-0.1,2.6-0.2c0.8-0.1,1.6-0.1,2.4-0.1
					c0.7,0,1.4,0,1.9,0c1,0,1.8,0.1,2.3,0.2c0.3,0.1,0.5,0.3,0.6,0.5c0.1,0.2,0.1,0.4,0.1,0.6c-0.1,0.2-0.2,0.3-0.4,0.5
					c-0.2,0.1-0.5,0.2-0.9,0.1c-0.3,0-0.7-0.1-1.2-0.1c-0.4,0-0.9-0.1-1.4-0.1c-1.4,0-3,0.1-4.9,0.2c-1.9,0.2-3.8,0.3-5.9,0.5
					l-1.7,0.2l-0.2,5.4c-0.1,2.1-0.2,4.2-0.4,6.3c-0.1,2.1-0.2,4-0.2,5.8c0,0.9,0,1.7,0,2.4c0,0.7,0.1,1.4,0.1,1.9
					c0.1,0.5,0.2,0.9,0.3,1.2c0.1,0.3,0.2,0.4,0.4,0.4c0.3,0,0.7-0.4,1.1-1.2c0.4-0.7,0.8-1.6,1.1-2.6c0.4-1,0.7-2,1.1-3
					c0.3-1,0.6-1.9,0.8-2.5c0-0.2,0.1-0.3,0.2-0.5c0.1-0.2,0.1-0.3,0.2-0.5c0.1-0.2,0.2-0.3,0.5-0.3c0.3,0,0.5,0,0.8,0
					c0.3,0,0.5,0.1,0.7,0.2c0.2,0.1,0.2,0.2,0.2,0.4c-0.1,0.1-0.2,0.4-0.2,0.8c-0.1,0.4-0.2,1-0.4,1.7c-0.2,0.7-0.4,1.5-0.7,2.2
					c-0.3,0.8-0.6,1.6-1,2.4c-0.4,0.8-0.8,1.5-1.3,2.2c-0.5,0.6-1.1,1.2-1.7,1.5c-0.7,0.4-1.4,0.6-2.2,0.6c-0.8,0-1.4-0.4-2-1
					c-0.5-0.6-0.9-1.5-1.3-2.6c-0.3-1.1-0.5-2.3-0.7-3.8c-0.1-1.4-0.2-2.9-0.2-4.5c0-2.1,0.1-4.3,0.3-6.5c0.2-2.2,0.4-4.2,0.5-6.1
					c-2,0.1-3.8,0.2-5.4,0.2c-0.7,0-1.4,0-2,0c-0.6,0-1.1-0.1-1.6-0.2h0.1c-0.6-0.1-1.1-0.3-1.4-0.6c-0.3-0.3-0.5-0.5-0.5-0.8
					c0-0.3,0.2-0.5,0.5-0.6C69.3,118.3,69.8,118.3,70.6,118.4z"/>
				<path d="M93.9,126.7c1,0,1.8,0.1,2.4,0.3c0.7,0.2,1.2,0.5,1.7,0.8c0.4,0.3,0.8,0.7,1,1c0.2,0.4,0.4,0.8,0.5,1.1
					c0.1,0.4,0.2,0.7,0.2,1.1c0,0.3,0,0.6,0,0.8c-0.2,1.4-0.6,2.5-1.2,3.4c-0.6,0.9-1.3,1.5-2,2c-0.8,0.5-1.5,0.8-2.4,1
					c-0.8,0.2-1.6,0.3-2.3,0.3c-0.7,0-1.2,0-1.6-0.1v0.2c0,0.8,0.1,1.5,0.2,2.2c0.1,0.7,0.3,1.3,0.5,1.8c0.2,0.5,0.5,0.9,0.8,1.3
					c0.3,0.3,0.7,0.5,1.2,0.5c1,0,1.8-0.3,2.7-0.7c0.8-0.4,1.6-0.9,2.3-1.5c0.7-0.6,1.3-1.3,1.9-2s1-1.5,1.5-2.2
					c0.4-0.7,0.8-1.5,1.1-2.1s0.5-1.2,0.7-1.7l0.3-0.7c0.1-0.2,0.3-0.3,0.6-0.4c0.3-0.1,0.5-0.1,0.7-0.1c0.2,0,0.4,0.1,0.6,0.2
					c0.2,0.1,0.2,0.4,0.2,0.7c-0.1,0.4-0.2,1-0.5,1.8c-0.3,0.8-0.7,1.6-1.2,2.6c-0.5,1-1.1,1.9-1.8,2.9c-0.7,1-1.5,1.9-2.4,2.7
					c-0.9,0.8-1.9,1.5-3,2c-1.1,0.5-2.2,0.8-3.5,0.7c-1.1,0-2.1-0.2-2.9-0.5c-0.8-0.3-1.5-0.7-2.1-1.2c-0.6-0.5-1-1-1.3-1.6
					c-0.3-0.6-0.6-1.2-0.8-1.7c-0.2-0.5-0.3-1-0.3-1.5c-0.1-0.4-0.1-0.7-0.1-0.9v-0.3c0-0.3,0-0.9,0.1-1.6c0-0.7,0.1-1.5,0.3-2.5
					c0.2-0.9,0.4-1.8,0.8-2.8c0.3-1,0.8-1.8,1.5-2.6c0.6-0.8,1.4-1.4,2.4-1.9C91.3,127,92.5,126.7,93.9,126.7z M94.7,128.6
					c-0.6,0.1-1.2,0.4-1.7,1c-0.5,0.5-1,1.2-1.4,2c-0.4,0.8-0.7,1.7-1,2.7c-0.2,1-0.4,2-0.5,3c0.1,0,0.3,0,0.4,0c0.1,0,0.3,0,0.5,0
					c0.5,0,1-0.1,1.6-0.2c0.6-0.2,1.1-0.4,1.7-0.8c0.5-0.4,1-0.9,1.4-1.6c0.4-0.7,0.6-1.6,0.7-2.7c0-0.3,0-0.7-0.1-1.1
					c-0.1-0.4-0.2-0.8-0.3-1.1c-0.1-0.3-0.3-0.6-0.5-0.9C95.2,128.7,95,128.6,94.7,128.6z"/>
				<path d="M112.3,127.2c1.1,0.1,2.1,0.3,2.9,0.7c0.8,0.4,1.5,0.9,2,1.5c0.5,0.6,0.9,1.3,1.2,2.1c0.3,0.8,0.4,1.6,0.4,2.5
					c0,0.2,0,0.5,0,0.7c0,0.2-0.1,0.5-0.1,0.7c0.7-0.3,1.4-0.7,1.9-1.2c0.5-0.5,1-1,1.3-1.7c0.1-0.3,0.3-0.4,0.6-0.6
					c0.3-0.1,0.6-0.2,0.9-0.2c0.3,0,0.6,0.1,0.9,0.2c0.2,0.2,0.3,0.4,0.2,0.7c-0.5,1.3-1.4,2.3-2.5,3.1c-1.1,0.8-2.4,1.4-3.8,1.8
					c-0.3,0.8-0.7,1.6-1.3,2.4c-0.5,0.8-1.1,1.4-1.8,2c-0.7,0.6-1.5,1.1-2.3,1.5c-0.8,0.4-1.8,0.7-2.7,0.8c-0.5,0.1-1,0.1-1.4,0.1
					c-0.9,0-1.6-0.1-2.1-0.3c0.3,2.1,0.6,4.2,1.2,6.3c0.5,2,1.3,3.9,2.2,5.4c0.3,0.5,0.4,0.9,0.2,1.1c-0.2,0.3-0.6,0.4-1.1,0.4
					c-0.3,0-0.7-0.1-1.2-0.3c-0.5-0.2-0.9-0.4-1.3-0.7c-0.8-0.7-1.5-1.7-2-3.1c-0.5-1.4-1-3-1.3-4.8c-0.3-1.8-0.5-3.7-0.7-5.7
					c-0.1-2-0.2-3.9-0.2-5.7c0-1.2,0-2.4,0.1-3.4c0-1.1,0.1-2.1,0.2-2.9c0.1-0.9,0.1-1.6,0.2-2.1c0.1-0.6,0.2-0.9,0.2-1.1
					c0.2-0.4,0.5-0.7,0.9-0.9c0.4-0.2,0.7-0.3,1.1-0.3c0.4,0,0.8,0.2,1.2,0.5c0.3,0.3,0.5,0.8,0.4,1.5l-0.1,1.4
					c0.3-0.3,0.6-0.7,0.9-1c0.4-0.3,0.8-0.6,1.3-0.9c0.5-0.2,1-0.4,1.7-0.6C110.9,127.2,111.6,127.2,112.3,127.2z M106.1,136.7
					c0,0.4,0,0.7,0,1.1s0,0.8,0,1.2c0.7-0.5,1.6-0.9,2.8-1.2c1.1-0.3,2.4-0.5,3.7-0.8c0.4-0.1,0.8-0.1,1.1-0.2
					c0.4-0.1,0.8-0.1,1.1-0.2l0.1-0.3c0.1-0.6,0.1-1.1,0.1-1.7c0-1.6-0.4-2.9-1.1-3.8c-0.7-0.9-1.8-1.4-3.2-1.2
					c-0.6,0-1.1,0.2-1.6,0.6c-0.5,0.3-0.9,0.8-1.2,1.2c-0.3,0.5-0.7,1-0.9,1.5c-0.3,0.5-0.5,1-0.6,1.4c0,0.1-0.1,0.2-0.1,0.3
					c0,0.1-0.1,0.2-0.1,0.3V136.7z M110.2,142.4c0.4-0.1,0.8-0.3,1.1-0.5c0.4-0.2,0.7-0.5,1-0.9c0.3-0.3,0.6-0.7,0.9-1.1
					c0.3-0.4,0.5-0.8,0.7-1.2l-1.1,0.2c-0.8,0.2-1.5,0.3-2.1,0.5c-0.7,0.2-1.2,0.3-1.7,0.5c-0.5,0.2-0.9,0.4-1.1,0.6
					c-0.3,0.2-0.4,0.5-0.4,0.9c0,0.3,0.1,0.5,0.4,0.7c0.3,0.2,0.7,0.4,1.3,0.4C109.5,142.6,109.8,142.5,110.2,142.4z"/>
				<path d="M124.9,122.2c0.4-0.1,0.7-0.1,0.9-0.1c0.2,0,0.4,0.1,0.6,0.2c0.1,0.1,0.2,0.2,0.3,0.4c0.1,0.2,0.1,0.4,0.1,0.5
					c0,0.6-0.2,1-0.5,1.4c-0.1,0.1-0.3,0.3-0.5,0.6c-0.2,0.3-0.4,0.6-0.6,1c-0.2,0.4-0.4,0.9-0.5,1.5c-0.2,0.6-0.2,1.3-0.2,2
					c0,0.9,0.2,2,0.5,3.2v0l2.3,5.9c0.9-0.8,1.9-1.8,2.9-2.8c1-1.1,1.9-2.1,2.6-3.3c0.2-0.3,0.4-0.5,0.6-0.6
					c0.2-0.1,0.4-0.1,0.6-0.1c0.2,0.1,0.3,0.2,0.4,0.4c0.1,0.2,0.1,0.5,0,0.9c-0.3,0.6-0.6,1.2-1.1,1.8c-0.4,0.6-0.9,1.2-1.4,1.8
					c-0.5,0.6-1,1.1-1.6,1.7c-0.6,0.5-1.1,1-1.6,1.5l-0.6,0.6c0.3,0.9,0.6,1.7,0.9,2.4c0.3,0.7,0.4,1.2,0.5,1.5
					c0.1,0.7,0.2,1.2,0.2,1.6c0,0.7-0.1,1.2-0.3,1.7s-0.5,0.8-0.8,1.1c-0.3,0.3-0.7,0.5-1.2,0.6c-0.4,0.1-0.9,0.2-1.4,0.2
					c-1.6,0-2.8-0.2-3.4-0.8c-0.7-0.6-1-1.4-1-2.4c0-0.2,0-0.4,0-0.6c0-0.2,0.1-0.5,0.1-0.7c0.2-0.7,0.5-1.5,1.1-2.2
					c0.5-0.7,1.2-1.4,1.9-2.1c-0.3-0.7-0.6-1.5-0.9-2.2c-0.3-0.7-0.6-1.4-0.9-2.1c-0.3-0.7-0.6-1.2-0.8-1.8
					c-0.2-0.5-0.4-0.9-0.6-1.3c-0.1-0.2-0.2-0.4-0.2-0.5c-0.1-0.2-0.1-0.2,0-0.2c-0.2-0.6-0.3-1.2-0.4-1.8c-0.1-0.6-0.1-1.1-0.1-1.7
					c0-1.3,0.2-2.4,0.6-3.3c0.4-0.9,0.9-1.7,1.4-2.3c0.5-0.6,1-1.1,1.5-1.4C124.4,122.5,124.7,122.3,124.9,122.2L124.9,122.2z
					 M125.8,146.9c0-0.9-0.2-2-0.6-3.3c-0.3,0.3-0.5,0.7-0.7,1c-0.2,0.3-0.3,0.7-0.4,1.1c-0.1,0.3-0.2,0.6-0.2,0.9
					c0,0.3-0.1,0.5-0.1,0.7c0,0.7,0.1,1.1,0.4,1.3c0.3,0.2,0.5,0.2,0.7,0.1C125.5,148.5,125.8,147.9,125.8,146.9z"/>
			</g>
		</g>
	</g>
	<g>
		<g>
			<path class="st1" d="M68,170.8c1.3-1.6,2.7-2.8,4.3-3.6c1.5-0.8,3-1.3,4.5-1.4c0.3,0,0.6-0.1,0.8-0.1c0.3,0,0.6,0,0.9,0
				c1.5,0,2.9,0.2,4.3,0.7c1.3,0.4,2.5,1.1,3.5,1.9c1,0.8,1.8,1.9,2.4,3.1c0.6,1.2,0.8,2.6,0.8,4.2c0,0.6-0.1,1.1-0.3,1.6
				c-0.2,0.5-0.4,1-0.7,1.5c-0.3,0.5-0.6,0.9-1,1.3c-0.4,0.4-0.8,0.7-1.2,1.1c-1,0.7-2.1,1.4-3.3,2c0.2,0.1,0.4,0.3,0.7,0.5
				c0.3,0.2,0.5,0.5,0.8,0.8c0.2,0.3,0.4,0.8,0.6,1.2c0.2,0.5,0.2,1,0.2,1.7c-0.1,0.9-0.3,1.7-0.7,2.3s-1,1.3-1.6,1.7
				c-0.6,0.5-1.3,0.9-2.1,1.2c-0.8,0.3-1.5,0.6-2.3,0.8c-0.7,0.2-1.4,0.3-2.1,0.4c-0.6,0.1-1.1,0.1-1.5,0.1
				c-1.4-0.1-2.5-0.3-3.5-0.7c-1-0.4-1.7-0.8-2.4-1.3c-0.6-0.5-1-1-1.3-1.6c-0.3-0.5-0.4-1-0.4-1.4c0.1-1,0.4-1.7,0.9-2.4
				c0.5-0.6,1.1-1.2,1.7-1.5c0.6-0.4,1.2-0.7,1.8-0.8c0.6-0.2,1-0.3,1.3-0.3c0,0,0.1,0,0.1,0c0,0,0.1,0,0.1,0c-0.1-1-0.2-2-0.3-3
				c-0.1-1.1-0.1-2.1-0.2-3.2c0-1-0.1-2-0.1-3c0-1,0-1.8,0-2.5c0-0.7,0-1.2,0-1.6c0-0.4,0.1-0.6,0.1-0.7h0c0.1-0.2,0.3-0.3,0.6-0.4
				s0.6-0.1,0.9-0.1c0.2,0,0.5,0,0.7,0.1c0.2,0.1,0.4,0.1,0.6,0.3c0.2,0.1,0.3,0.3,0.4,0.5c0.1,0.2,0.1,0.4,0.1,0.7
				c0,0,0,0.3-0.1,0.8c0,0.5-0.1,1.1-0.1,2c0,0.8-0.1,1.7-0.1,2.7s0,2.1,0,3.1c0,0.8,0,1.5,0,2.3c0,0.7,0.1,1.5,0.1,2.2
				c0.5,0.1,0.9,0.1,1.2,0.3c0.3,0.1,0.6,0.3,0.8,0.4c0.2,0.1,0.4,0.3,0.5,0.4c0.1,0.1,0.3,0.3,0.4,0.4l0.1,0.1
				c0.1,0.1,0.1,0.3,0.2,0.5c0,0.2,0,0.4-0.1,0.5c-0.1,0.1-0.2,0.2-0.4,0.1c-0.2,0-0.5-0.3-0.8-0.6c-0.3-0.3-0.8-0.5-1.6-0.7
				c0.1,1.2,0.4,2.2,0.7,2.8h-0.1c0.2,0.2,0.2,0.5,0.2,0.7c0,0.3-0.1,0.5-0.3,0.6c-0.2,0.1-0.6,0.1-1.1,0c-0.5-0.1-0.9-0.3-1.2-0.6
				c-0.2-0.3-0.4-0.6-0.5-0.9c-0.1-0.3-0.2-0.7-0.3-1.2c-0.1-0.5-0.2-1-0.3-1.5c-0.1,0-0.1,0-0.2,0c-0.7,0.1-1.3,0.3-1.8,0.7
				c-0.4,0.4-0.8,0.7-1.1,1.2c-0.3,0.4-0.4,0.8-0.5,1.2s-0.1,0.7-0.1,0.9c0,0.5,0.2,1,0.6,1.4c0.4,0.4,0.8,0.7,1.4,0.9
				c0.5,0.2,1.1,0.4,1.7,0.5c0.6,0.1,1.2,0.1,1.6,0.1c1.6-0.2,2.8-0.5,3.8-1c0.9-0.5,1.6-1,2.1-1.5c0.5-0.6,0.8-1.1,0.9-1.7
				c0.1-0.5,0.2-1,0.2-1.3c0-0.3-0.1-0.7-0.3-1.1c-0.2-0.4-0.4-0.7-0.7-1.1c-0.3-0.3-0.7-0.6-1.1-0.8c-0.4-0.2-0.9-0.3-1.3-0.4
				c-0.3,0-0.5-0.1-0.4-0.2c0-0.1,0.2-0.3,0.4-0.4s0.5-0.3,0.8-0.5c0.3-0.1,0.6-0.2,0.8-0.3c0.7-0.1,1.3-0.3,1.9-0.6
				c0.5-0.3,1-0.7,1.4-1.1c0.4-0.4,0.7-0.8,1-1.3c0.3-0.5,0.5-0.9,0.6-1.3c0.2-0.4,0.3-0.8,0.4-1.2c0.1-0.4,0.1-0.6,0.1-0.9
				c-0.1-1.5-0.4-2.7-0.9-3.7c-0.5-1-1.1-1.8-1.8-2.5c-0.7-0.6-1.5-1.1-2.4-1.3c-0.9-0.3-1.7-0.4-2.6-0.4c-0.2,0-0.5,0-0.7,0
				c-0.2,0-0.5,0-0.7,0.1h0c-0.9,0.1-1.7,0.3-2.4,0.6c-0.8,0.3-1.4,0.6-2,1c-0.6,0.3-1.1,0.7-1.5,1c-0.4,0.4-0.7,0.6-1,0.9
				c-0.1,0.1-0.2,0.1-0.4,0.2c-0.2,0-0.4,0-0.5,0c-0.2,0-0.3-0.1-0.4-0.2C67.9,171,67.9,170.9,68,170.8z"/>
			<path class="st1" d="M96,175.9c0.7,0,1.3,0.1,1.8,0.2c0.5,0.2,0.9,0.4,1.3,0.6c0.3,0.2,0.6,0.5,0.8,0.8c0.2,0.3,0.3,0.6,0.4,0.9
				c0.1,0.3,0.1,0.6,0.1,0.8c0,0.3,0,0.5,0,0.6c-0.2,1-0.5,1.9-0.9,2.6c-0.4,0.7-1,1.2-1.5,1.5c-0.6,0.4-1.2,0.6-1.8,0.8
				c-0.6,0.1-1.2,0.2-1.8,0.2c-0.5,0-0.9,0-1.2-0.1v0.2c0,0.6,0,1.1,0.1,1.7s0.2,1,0.4,1.4c0.2,0.4,0.4,0.7,0.6,1
				c0.3,0.2,0.6,0.4,0.9,0.4c0.7,0,1.4-0.2,2-0.5c0.6-0.3,1.2-0.7,1.7-1.1c0.5-0.5,1-1,1.4-1.5c0.4-0.6,0.8-1.1,1.1-1.7
				c0.3-0.6,0.6-1.1,0.8-1.6c0.2-0.5,0.4-0.9,0.6-1.3l0.2-0.6c0.1-0.1,0.2-0.2,0.4-0.3c0.2-0.1,0.4-0.1,0.6-0.1
				c0.2,0,0.3,0.1,0.5,0.2c0.1,0.1,0.2,0.3,0.2,0.5c-0.1,0.3-0.2,0.7-0.4,1.3c-0.2,0.6-0.5,1.2-0.9,2c-0.4,0.7-0.8,1.5-1.4,2.2
				c-0.5,0.7-1.1,1.4-1.8,2.1c-0.7,0.6-1.4,1.1-2.2,1.5c-0.8,0.4-1.7,0.6-2.6,0.6c-0.9,0-1.6-0.1-2.2-0.4c-0.6-0.2-1.1-0.6-1.6-0.9
				c-0.4-0.4-0.8-0.8-1-1.2c-0.3-0.5-0.4-0.9-0.6-1.3c-0.1-0.4-0.2-0.8-0.3-1.1c0-0.3-0.1-0.6-0.1-0.7v-0.2c0-0.3,0-0.7,0-1.2
				c0-0.6,0.1-1.2,0.2-1.9c0.1-0.7,0.3-1.4,0.6-2.1c0.3-0.7,0.6-1.4,1.1-2c0.5-0.6,1.1-1.1,1.8-1.5C94.1,176,95,175.8,96,175.9z
				 M96.6,177.3c-0.5,0.1-0.9,0.3-1.3,0.7c-0.4,0.4-0.8,0.9-1.1,1.5c-0.3,0.6-0.5,1.3-0.7,2.1c-0.2,0.8-0.3,1.5-0.4,2.3
				c0.1,0,0.2,0,0.3,0c0.1,0,0.2,0,0.4,0c0.4,0,0.8-0.1,1.2-0.2c0.4-0.1,0.9-0.3,1.3-0.6c0.4-0.3,0.7-0.7,1-1.2
				c0.3-0.5,0.4-1.2,0.5-2c0-0.3,0-0.6,0-0.9c0-0.3-0.1-0.6-0.2-0.8c-0.1-0.3-0.2-0.5-0.4-0.6C97,177.4,96.9,177.3,96.6,177.3z"/>
			<path class="st1" d="M117,175.9c0.7,0,1.3,0.1,1.8,0.2c0.5,0.2,0.9,0.4,1.3,0.6c0.3,0.2,0.6,0.5,0.8,0.8c0.2,0.3,0.3,0.6,0.4,0.9
				c0.1,0.3,0.1,0.6,0.1,0.8c0,0.3,0,0.5,0,0.6c-0.2,1-0.5,1.9-0.9,2.6c-0.4,0.7-1,1.2-1.5,1.5c-0.6,0.4-1.2,0.6-1.8,0.8
				s-1.2,0.2-1.8,0.2c-0.5,0-0.9,0-1.2-0.1v0.2c0,0.6,0,1.1,0.1,1.7c0.1,0.5,0.2,1,0.4,1.4c0.2,0.4,0.4,0.7,0.6,1
				c0.3,0.2,0.6,0.4,0.9,0.4c0.7,0,1.4-0.2,2-0.5c0.6-0.3,1.2-0.7,1.7-1.1c0.5-0.5,1-1,1.4-1.5c0.4-0.6,0.8-1.1,1.1-1.7
				c0.3-0.6,0.6-1.1,0.8-1.6c0.2-0.5,0.4-0.9,0.6-1.3l0.2-0.6c0.1-0.1,0.2-0.2,0.4-0.3c0.2-0.1,0.4-0.1,0.6-0.1
				c0.2,0,0.3,0.1,0.5,0.2c0.1,0.1,0.2,0.3,0.2,0.5c-0.1,0.3-0.2,0.7-0.4,1.3c-0.2,0.6-0.5,1.2-0.9,2c-0.4,0.7-0.8,1.5-1.4,2.2
				c-0.5,0.7-1.1,1.4-1.8,2.1c-0.7,0.6-1.4,1.1-2.2,1.5c-0.8,0.4-1.7,0.6-2.6,0.6c-0.9,0-1.6-0.1-2.2-0.4c-0.6-0.2-1.1-0.6-1.6-0.9
				s-0.8-0.8-1-1.2c-0.3-0.5-0.4-0.9-0.6-1.3c-0.1-0.4-0.2-0.8-0.3-1.1c0-0.3-0.1-0.6-0.1-0.7v-0.2c0-0.3,0-0.7,0-1.2
				c0-0.6,0.1-1.2,0.2-1.9c0.1-0.7,0.3-1.4,0.6-2.1c0.3-0.7,0.6-1.4,1.1-2c0.5-0.6,1.1-1.1,1.8-1.5C115.1,176,116,175.8,117,175.9z
				 M117.7,177.3c-0.5,0.1-0.9,0.3-1.3,0.7c-0.4,0.4-0.8,0.9-1.1,1.5c-0.3,0.6-0.5,1.3-0.7,2.1c-0.2,0.8-0.3,1.5-0.4,2.3
				c0.1,0,0.2,0,0.3,0c0.1,0,0.2,0,0.4,0c0.4,0,0.8-0.1,1.2-0.2c0.4-0.1,0.9-0.3,1.3-0.6c0.4-0.3,0.7-0.7,1-1.2
				c0.3-0.5,0.4-1.2,0.5-2c0-0.3,0-0.6,0-0.9c0-0.3-0.1-0.6-0.2-0.8c-0.1-0.3-0.2-0.5-0.4-0.6C118.1,177.4,117.9,177.3,117.7,177.3z
				"/>
			<path class="st1" d="M129.5,174.8c0.8,0,1.5,0.1,2.1,0.4c0.5,0.3,1,0.6,1.3,1c0.3,0.4,0.5,0.8,0.6,1.3c0.1,0.5,0.2,0.9,0.2,1.4
				c0,0.5,0,1-0.1,1.4c-0.1,0.4-0.2,0.7-0.3,0.9v0c-0.1,0.3-0.3,0.5-0.6,0.6c-0.3,0.2-0.5,0.3-0.8,0.3c-0.3,0.1-0.5,0.1-0.6,0.1
				c-0.2,0-0.2-0.1-0.2-0.1c0.2-0.5,0.4-1,0.5-1.5c0.1-0.5,0.2-1,0.2-1.5c0-0.4,0-0.8-0.1-1.1c-0.1-0.4-0.2-0.7-0.3-0.9
				c-0.2-0.3-0.4-0.5-0.6-0.6c-0.2-0.2-0.5-0.2-0.9-0.2c-0.3,0-0.5,0.2-0.7,0.5c-0.2,0.3-0.4,0.7-0.6,1.2c-0.2,0.5-0.3,1-0.5,1.6
				c-0.1,0.6-0.2,1.1-0.3,1.6c-0.1,0.5-0.2,1-0.2,1.3c-0.1,0.4-0.1,0.6-0.1,0.7c0,0.3-0.1,0.6-0.1,0.8c0,0.3,0,0.5,0,0.7
				c0,0.8,0.1,1.5,0.3,2c0.2,0.5,0.4,1,0.7,1.3c0.3,0.3,0.5,0.6,0.8,0.7c0.3,0.1,0.5,0.2,0.7,0.2c0.6,0,1.2-0.3,1.8-0.8
				c0.6-0.5,1.2-1.2,1.8-2c0.6-0.8,1.1-1.6,1.5-2.4c0.5-0.8,0.8-1.5,1.1-2.1c0.1-0.3,0.3-0.5,0.4-0.7c0.1-0.2,0.2-0.3,0.3-0.4
				c0.2-0.2,0.3-0.3,0.5-0.4c0.2-0.1,0.4-0.1,0.5-0.1c0.2,0,0.3,0.1,0.4,0.3c0.1,0.2,0.1,0.4,0.1,0.7c0,0.1-0.1,0.4-0.3,0.9
				c-0.2,0.5-0.4,1-0.8,1.7c-0.3,0.6-0.7,1.3-1.2,2c-0.5,0.7-1,1.4-1.6,1.9c-0.6,0.6-1.3,1.1-2,1.5c-0.7,0.4-1.5,0.6-2.3,0.6
				c-1,0-1.9,0-2.6-0.2c-0.7-0.2-1.3-0.4-1.7-0.8c-0.5-0.3-0.8-0.7-1.1-1.1c-0.2-0.4-0.4-0.8-0.5-1.2c-0.1-0.4-0.2-0.8-0.2-1.1
				c0-0.3,0-0.6,0-0.8v-0.2c0-0.1,0-0.4,0-1c0-0.5,0.1-1.1,0.3-1.8c0.1-0.7,0.3-1.4,0.6-2.2c0.3-0.8,0.6-1.5,1-2.2
				c0.4-0.7,1-1.2,1.6-1.6C127.9,175,128.6,174.8,129.5,174.8z"/>
			<path class="st1" d="M136.5,179.1c0.1-0.1,0.3-0.1,0.4-0.2c0.2,0,0.3,0,0.4,0c0.1-0.2,0.1-0.6,0.3-0.9c0.1-0.4,0.3-0.7,0.6-1.1
				c0.3-0.3,0.7-0.6,1.2-0.9c0.5-0.2,1.2-0.4,2.1-0.4c0.9,0,1.6,0.2,2.1,0.5c0.6,0.3,1,0.8,1.3,1.3c0.3,0.5,0.5,1.1,0.7,1.7
				c0.1,0.6,0.2,1.1,0.1,1.6v0.3l-0.1,0.9c0.6-0.2,1.2-0.6,1.7-1c0.6-0.4,1-0.9,1.4-1.5h0c0.1-0.1,0.2-0.3,0.4-0.4
				c0.2-0.1,0.4-0.2,0.5-0.2c0.2,0,0.3,0.1,0.4,0.2c0.1,0.1,0,0.4-0.1,0.7c-0.2,0.5-0.5,1-0.9,1.4c-0.3,0.4-0.7,0.8-1.1,1.1
				c-0.4,0.3-0.8,0.6-1.2,0.9c-0.4,0.2-0.8,0.4-1.3,0.6c-0.1,0.6-0.3,1.2-0.6,1.8c-0.2,0.6-0.6,1.2-1,1.7c-0.4,0.5-1,0.9-1.6,1.2
				c-0.7,0.3-1.4,0.5-2.4,0.4c-1,0-1.8-0.2-2.4-0.5c-0.6-0.3-1.2-0.7-1.5-1.1c-0.4-0.5-0.6-1-0.8-1.6c-0.1-0.6-0.2-1.2-0.2-1.8
				c0-0.6,0.1-1.1,0.2-1.7c0.1-0.5,0.2-1,0.4-1.5c0.1-0.4,0.3-0.8,0.5-1.1C136.2,179.3,136.4,179.1,136.5,179.1z M142.8,184.3
				c-1.1,0-1.9-0.2-2.6-0.5c-0.7-0.3-1.2-0.6-1.6-1v0.4c0,0.5,0,0.9,0.1,1.4c0.1,0.4,0.2,0.9,0.3,1.2c0.2,0.4,0.4,0.7,0.7,0.9
				c0.3,0.2,0.6,0.3,1.1,0.4c0.3,0,0.6-0.1,0.9-0.2c0.3-0.1,0.5-0.4,0.7-0.6c0.2-0.3,0.4-0.5,0.5-0.9c0.2-0.3,0.3-0.7,0.4-1
				c-0.1,0-0.2,0-0.3,0C142.9,184.4,142.8,184.4,142.8,184.3z M142.7,182.5c0.3,0,0.6,0,1.1-0.1c0.1-0.3,0.1-0.6,0.1-0.9
				s0-0.4,0-0.5c0-0.6,0-1.1-0.1-1.7c-0.1-0.5-0.2-1-0.4-1.5c-0.2-0.4-0.4-0.8-0.8-1c-0.3-0.2-0.7-0.3-1.3-0.3
				c-0.3,0-0.5,0.1-0.8,0.3c-0.2,0.2-0.5,0.4-0.6,0.7c-0.2,0.3-0.3,0.6-0.4,0.9c-0.1,0.3-0.1,0.6,0,0.8l0.1,0.4
				c0,0.2,0.1,0.5,0.2,0.8c0.1,0.3,0.2,0.6,0.4,0.9c0.2,0.3,0.5,0.5,0.9,0.7C141.5,182.4,142,182.5,142.7,182.5z"/>
			<path class="st1" d="M151.3,166.7c0.4-0.4,0.7-0.6,1.1-0.8c0.4-0.2,0.8-0.3,1.3-0.3c0.4,0,0.8,0.1,1.1,0.2c0.4,0.1,0.7,0.4,1,0.6
				c0.3,0.3,0.5,0.6,0.7,1s0.3,0.8,0.3,1.2c0,1.9-0.2,3.7-0.6,5.4c-0.4,1.6-0.8,3.1-1.4,4.5c-0.5,1.3-1.1,2.5-1.7,3.5
				c-0.6,1-1.1,1.8-1.6,2.4c0.1,0.9,0.2,1.7,0.3,2.3c0.1,0.6,0.3,1.1,0.4,1.5c0.1,0.4,0.3,0.7,0.4,0.8c0.1,0.2,0.2,0.3,0.2,0.3
				c0.2-0.1,0.6-0.3,1-0.8c0.4-0.5,0.8-1,1.3-1.7s0.9-1.4,1.3-2.1c0.4-0.7,0.9-1.5,1.2-2.1c0.4-0.7,0.7-1.2,0.9-1.7
				c0.2-0.5,0.4-0.7,0.4-0.8c0-0.1,0.1-0.3,0.3-0.3c0.2-0.1,0.3-0.1,0.5-0.1c0.2,0,0.4,0,0.5,0.1c0.2,0.1,0.3,0.2,0.4,0.4
				c0,0.2-0.1,0.6-0.4,1.2c-0.2,0.5-0.5,1.1-0.8,1.8c-0.3,0.7-0.7,1.4-1.1,2.1c-0.4,0.7-0.8,1.4-1.2,2c-0.4,0.6-0.7,1.2-1,1.6
				c-0.3,0.5-0.5,0.7-0.6,0.9c-0.4,0.4-0.8,0.6-1.2,0.8c-0.5,0.2-0.9,0.3-1.4,0.3c-0.4,0-0.8-0.1-1.1-0.2c-0.4-0.1-0.7-0.3-0.9-0.6
				c-0.5-0.5-0.9-1.2-1.2-1.9c-0.4-0.7-0.6-1.5-0.9-2.3c-0.2-0.8-0.4-1.7-0.5-2.6c-0.1-0.9-0.2-1.8-0.2-2.7c0-1.5,0.1-3,0.3-4.5
				c0.2-1.5,0.5-2.9,0.8-4.2c0.3-1.3,0.7-2.4,1.1-3.3C150.6,167.8,150.9,167.1,151.3,166.7z M151.5,182.5c0.5-0.9,0.9-1.9,1.2-2.9
				c0.3-1,0.6-1.9,0.8-2.9c0.2-0.9,0.4-1.8,0.5-2.7c0.1-0.9,0.2-1.7,0.3-2.4c0.1-0.7,0.1-1.3,0.1-1.8c0-0.5,0-0.9,0.1-1.1v-0.2
				c0-1-0.1-1.6-0.3-1.6c-0.1,0-0.3,0.2-0.5,0.5c-0.2,0.3-0.3,0.8-0.5,1.3c-0.3,1.3-0.5,2.5-0.7,3.8c-0.2,1.2-0.4,2.4-0.5,3.5
				c-0.1,1.1-0.3,2.1-0.3,3.1c-0.1,1-0.1,1.8-0.1,2.5V182.5z"/>
			<path class="st1" d="M158.2,179.1c0.1-0.1,0.3-0.1,0.4-0.2s0.3,0,0.4,0c0.1-0.2,0.1-0.6,0.3-0.9c0.1-0.4,0.3-0.7,0.6-1.1
				c0.3-0.3,0.7-0.6,1.2-0.9c0.5-0.2,1.2-0.4,2.1-0.4c0.9,0,1.6,0.2,2.1,0.5c0.6,0.3,1,0.8,1.3,1.3c0.3,0.5,0.5,1.1,0.7,1.7
				c0.1,0.6,0.2,1.1,0.1,1.6v0.3l-0.1,0.9c0.6-0.2,1.2-0.6,1.7-1c0.6-0.4,1-0.9,1.4-1.5h0c0.1-0.1,0.2-0.3,0.4-0.4
				c0.2-0.1,0.4-0.2,0.5-0.2c0.2,0,0.3,0.1,0.4,0.2c0.1,0.1,0,0.4-0.1,0.7c-0.2,0.5-0.5,1-0.9,1.4c-0.3,0.4-0.7,0.8-1.1,1.1
				c-0.4,0.3-0.8,0.6-1.2,0.9c-0.4,0.2-0.8,0.4-1.3,0.6c-0.1,0.6-0.3,1.2-0.6,1.8c-0.2,0.6-0.6,1.2-1,1.7c-0.4,0.5-1,0.9-1.6,1.2
				c-0.7,0.3-1.4,0.5-2.4,0.4c-1,0-1.8-0.2-2.4-0.5c-0.6-0.3-1.2-0.7-1.5-1.1c-0.4-0.5-0.6-1-0.8-1.6c-0.1-0.6-0.2-1.2-0.2-1.8
				c0-0.6,0.1-1.1,0.2-1.7c0.1-0.5,0.2-1,0.4-1.5c0.1-0.4,0.3-0.8,0.5-1.1C158,179.3,158.1,179.1,158.2,179.1z M164.5,184.3
				c-1.1,0-1.9-0.2-2.6-0.5c-0.7-0.3-1.2-0.6-1.6-1v0.4c0,0.5,0,0.9,0.1,1.4c0.1,0.4,0.2,0.9,0.3,1.2c0.2,0.4,0.4,0.7,0.7,0.9
				c0.3,0.2,0.6,0.3,1.1,0.4c0.3,0,0.6-0.1,0.9-0.2c0.3-0.1,0.5-0.4,0.7-0.6c0.2-0.3,0.4-0.5,0.5-0.9c0.2-0.3,0.3-0.7,0.4-1
				c-0.1,0-0.2,0-0.3,0C164.7,184.4,164.6,184.4,164.5,184.3z M164.4,182.5c0.3,0,0.6,0,1.1-0.1c0.1-0.3,0.1-0.6,0.1-0.9
				s0-0.4,0-0.5c0-0.6,0-1.1-0.1-1.7c-0.1-0.5-0.2-1-0.4-1.5c-0.2-0.4-0.4-0.8-0.8-1c-0.3-0.2-0.7-0.3-1.3-0.3
				c-0.3,0-0.5,0.1-0.8,0.3c-0.2,0.2-0.5,0.4-0.6,0.7c-0.2,0.3-0.3,0.6-0.4,0.9c-0.1,0.3-0.1,0.6,0,0.8l0.1,0.4
				c0,0.2,0.1,0.5,0.2,0.8c0.1,0.3,0.2,0.6,0.4,0.9c0.2,0.3,0.5,0.5,0.9,0.7C163.3,182.4,163.8,182.5,164.4,182.5z"/>
			<path class="st1" d="M175.6,175.5c0.7,0,1.3,0,1.7,0.2c0.4,0.1,0.8,0.3,1.1,0.5c0.3,0.2,0.5,0.4,0.6,0.7c0.1,0.2,0.2,0.4,0.3,0.6
				l0.1,0.3v0c0.1,0.2,0.1,0.4,0,0.6c-0.1,0.2-0.3,0.3-0.5,0.3h0.3c0.4,0,0.7,0,1,0.1c0.3,0.1,0.5,0.2,0.7,0.3
				c0.1,0.1,0.2,0.4,0.2,0.8c0,0.3,0,0.8-0.1,1.3c-0.1,0.5-0.1,1.1-0.3,1.7c-0.1,0.7-0.2,1.4-0.4,2.1c-0.1,0.8-0.3,1.6-0.5,2.4
				c1.1-1.3,2.2-2.5,3.1-3.7c0.9-1.2,1.6-2.3,2.1-3.2c0.1-0.1,0.2-0.1,0.3-0.1s0.4,0,0.5,0.1c0.2,0.1,0.3,0.2,0.5,0.3
				c0.1,0.1,0.2,0.3,0.1,0.5c-0.3,0.8-0.7,1.6-1.3,2.4c-0.5,0.8-1.1,1.6-1.8,2.5c-0.7,0.8-1.4,1.7-2.2,2.5c-0.8,0.8-1.5,1.7-2.3,2.5
				c-0.3,1.2-0.6,2.3-1,3.5c-0.3,1.1-0.7,2.2-1,3.2c-0.3,1-0.7,1.8-1,2.6c-0.3,0.7-0.6,1.3-0.9,1.7c-0.6,0.7-1.2,1.2-1.9,1.6
				s-1.3,0.6-1.9,0.6c-0.7,0-1.3-0.2-1.7-0.7c-0.5-0.4-0.7-1.1-0.7-1.9c0-0.5,0.1-1.1,0.3-1.6c0.2-0.5,0.5-1,0.9-1.6
				c0.4-0.6,1-1.3,1.6-2c0.6-0.7,1.3-1.5,2.1-2.3c0.8-0.8,1.6-1.7,2.4-2.5c0.1-0.6,0.2-1.1,0.3-1.7c0.1-0.6,0.2-1.1,0.2-1.7
				c-0.4,0.3-0.9,0.4-1.4,0.5c-0.8,0.1-1.5,0-2.1-0.2c-0.6-0.2-1.1-0.5-1.5-0.8c-0.4-0.4-0.7-0.8-1-1.2c-0.2-0.5-0.4-0.9-0.5-1.4
				c-0.1-0.5-0.2-1-0.3-1.4c-0.1-0.5-0.1-0.9-0.1-1.2c0-0.5,0-1.2,0.1-1.9c0.1-0.7,0.4-1.4,0.8-2.1c0.4-0.7,1-1.3,1.8-1.8
				C173.2,175.8,174.2,175.5,175.6,175.5z M172.5,201.5c0.6-0.5,1.1-1.4,1.6-2.6c0.5-1.2,0.9-2.7,1.2-4.3c-0.6,0.7-1.1,1.3-1.7,1.9
				s-0.9,1.2-1.3,1.8c-0.4,0.6-0.7,1.1-0.8,1.6c-0.2,0.5-0.3,0.9-0.3,1.3c0,0.1,0,0.3,0.1,0.5c0,0.2,0.1,0.3,0.3,0.3
				c0.1,0,0.2,0,0.3-0.1C172.1,201.8,172.3,201.7,172.5,201.5z M177.2,179.9c0-0.4,0.1-0.7,0.3-0.9c0.3-0.2,0.6-0.3,1-0.4h0
				c-0.2,0-0.4,0-0.6-0.1c-0.2-0.1-0.4-0.2-0.5-0.4c-0.1-0.1-0.1-0.1-0.1-0.2s0-0.1-0.1-0.1c-0.1-0.2-0.2-0.4-0.4-0.7
				c-0.2-0.2-0.5-0.4-1-0.3c-0.3,0-0.6,0.1-0.9,0.2c-0.3,0.1-0.6,0.4-0.8,0.7c-0.3,0.4-0.5,0.9-0.7,1.5c-0.2,0.7-0.3,1.5-0.4,2.6
				c0,0.1,0,0.2,0,0.4c0,0.2,0,0.3,0,0.4c0,1,0.1,1.8,0.3,2.4c0.2,0.6,0.4,1,0.6,1.3s0.5,0.4,0.7,0.4c0.2,0,0.4,0.1,0.5,0.1
				c0.3,0,0.6-0.2,0.9-0.6c0.3-0.4,0.5-0.8,0.8-1.3c0.1-0.7,0.1-1.4,0.2-2c0.1-0.6,0.1-1.1,0.1-1.6s0.1-0.8,0.1-1.1
				C177.2,180.1,177.2,179.9,177.2,179.9z"/>
			<path class="st1" d="M184.5,179.2c0-0.1,0-0.1,0-0.1c0-0.3,0.2-0.5,0.5-0.7c0.3-0.2,0.7-0.3,1.1-0.3c0.3,0,0.6,0.1,0.8,0.2
				c0.3,0.2,0.4,0.4,0.5,0.8c0.1,0.2,0.1,0.5,0.1,0.8c0,0.3,0,0.6,0,0.9c0,0.6,0,1.2-0.1,1.9c0,0.7-0.1,1.3-0.1,2
				c0,0.7-0.1,1.3-0.1,1.9c0,0.6,0,1.2,0,1.8c0,0.8,0,1.5,0.1,2.1c0.1,0.5,0.3,0.8,0.6,0.8c0.2,0,0.3-0.2,0.6-0.6
				c0.2-0.4,0.4-0.8,0.7-1.4c0.2-0.6,0.5-1.2,0.7-1.9c0.2-0.7,0.5-1.4,0.7-2.2c0.2-0.7,0.4-1.4,0.6-2.1c0.2-0.7,0.4-1.2,0.5-1.7
				l0.3-1.1c0.1-0.2,0.2-0.3,0.4-0.4c0.2-0.1,0.4-0.1,0.5-0.1c0.2,0,0.3,0.1,0.5,0.2c0.1,0.1,0.2,0.3,0.2,0.4c0,0.4-0.1,1-0.2,1.7
				c-0.1,0.7-0.3,1.6-0.6,2.5c-0.2,0.9-0.6,1.8-0.9,2.7c-0.4,0.9-0.8,1.8-1.3,2.5c-0.5,0.7-1,1.4-1.6,1.8c-0.6,0.5-1.2,0.7-1.9,0.7
				c-0.6-0.1-1.1-0.3-1.5-0.7c-0.4-0.4-0.7-1-1-1.6s-0.4-1.4-0.5-2.2c-0.1-0.8-0.2-1.6-0.2-2.4c0-0.7,0-1.4,0.1-2.1
				c0-0.7,0.1-1.3,0.2-1.9c0.1-0.6,0.1-1.1,0.2-1.5C184.5,179.6,184.5,179.3,184.5,179.2z M184.5,175.6c0-0.5,0.2-0.9,0.5-1.3
				c0.3-0.4,0.7-0.5,1.2-0.5c0.4,0,0.8,0.2,1.1,0.5c0.3,0.4,0.5,0.8,0.5,1.3c0,0.5-0.2,0.9-0.5,1.3c-0.3,0.4-0.7,0.5-1.1,0.5
				c-0.5,0-0.8-0.2-1.2-0.5C184.6,176.5,184.5,176.1,184.5,175.6z"/>
			<path class="st1" d="M197.3,174.8c0.8,0,1.5,0.1,2.1,0.4c0.5,0.3,1,0.6,1.3,1c0.3,0.4,0.5,0.8,0.6,1.3c0.1,0.5,0.2,0.9,0.2,1.4
				c0,0.5,0,1-0.1,1.4c-0.1,0.4-0.2,0.7-0.3,0.9v0c-0.1,0.3-0.3,0.5-0.6,0.6c-0.3,0.2-0.5,0.3-0.8,0.3c-0.3,0.1-0.5,0.1-0.6,0.1
				s-0.2-0.1-0.2-0.1c0.2-0.5,0.4-1,0.5-1.5c0.1-0.5,0.2-1,0.2-1.5c0-0.4,0-0.8-0.1-1.1c-0.1-0.4-0.2-0.7-0.3-0.9
				c-0.2-0.3-0.4-0.5-0.6-0.6c-0.2-0.2-0.5-0.2-0.9-0.2c-0.3,0-0.5,0.2-0.7,0.5c-0.2,0.3-0.4,0.7-0.6,1.2c-0.2,0.5-0.3,1-0.5,1.6
				c-0.1,0.6-0.2,1.1-0.3,1.6c-0.1,0.5-0.2,1-0.2,1.3c-0.1,0.4-0.1,0.6-0.1,0.7c0,0.3-0.1,0.6-0.1,0.8c0,0.3,0,0.5,0,0.7
				c0,0.8,0.1,1.5,0.3,2c0.2,0.5,0.4,1,0.7,1.3c0.3,0.3,0.5,0.6,0.8,0.7c0.3,0.1,0.5,0.2,0.7,0.2c0.6,0,1.2-0.3,1.8-0.8
				c0.6-0.5,1.2-1.2,1.8-2c0.6-0.8,1.1-1.6,1.5-2.4c0.5-0.8,0.8-1.5,1.1-2.1c0.1-0.3,0.3-0.5,0.4-0.7c0.1-0.2,0.2-0.3,0.3-0.4
				c0.2-0.2,0.3-0.3,0.5-0.4c0.2-0.1,0.4-0.1,0.5-0.1c0.2,0,0.3,0.1,0.4,0.3c0.1,0.2,0.1,0.4,0.1,0.7c0,0.1-0.1,0.4-0.3,0.9
				c-0.2,0.5-0.4,1-0.8,1.7c-0.3,0.6-0.7,1.3-1.2,2c-0.5,0.7-1,1.4-1.6,1.9c-0.6,0.6-1.3,1.1-2,1.5c-0.7,0.4-1.5,0.6-2.3,0.6
				c-1,0-1.9,0-2.6-0.2c-0.7-0.2-1.3-0.4-1.7-0.8c-0.5-0.3-0.8-0.7-1.1-1.1c-0.2-0.4-0.4-0.8-0.5-1.2s-0.2-0.8-0.2-1.1
				c0-0.3,0-0.6,0-0.8v-0.2c0-0.1,0-0.4,0-1c0-0.5,0.1-1.1,0.3-1.8c0.1-0.7,0.3-1.4,0.6-2.2c0.3-0.8,0.6-1.5,1-2.2
				c0.4-0.7,1-1.2,1.6-1.6C195.7,175,196.5,174.8,197.3,174.8z"/>
		</g>
	</g>
</g>
</svg>
